<svg width="25" height="24" viewBox="0 0 25 24" fill="none" xmlns="http://www.w3.org/2000/svg">
<path d="M20.2071 9.70711C20.5976 9.31658 20.5976 8.68342 20.2071 8.29289C19.8166 7.90237 19.1834 7.90237 18.7929 8.29289L20.2071 9.70711ZM12.5 16L11.7929 16.7071C11.9804 16.8946 12.2348 17 12.5 17C12.7652 17 13.0196 16.8946 13.2071 16.7071L12.5 16ZM6.20711 8.29289C5.81658 7.90237 5.18342 7.90237 4.79289 8.29289C4.40237 8.68342 4.40237 9.31658 4.79289 9.70711L6.20711 8.29289ZM18.7929 8.29289L11.7929 15.2929L13.2071 16.7071L20.2071 9.70711L18.7929 8.29289ZM13.2071 15.2929L6.20711 8.29289L4.79289 9.70711L11.7929 16.7071L13.2071 15.2929Z" fill="#2982cf"/>
</svg>
