<svg width="25" height="24" viewBox="0 0 25 24" fill="none" xmlns="http://www.w3.org/2000/svg">
<path d="M4.79289 15.2929C4.40237 15.6834 4.40237 16.3166 4.79289 16.7071C5.18342 17.0976 5.81658 17.0976 6.20711 16.7071L4.79289 15.2929ZM12.5 9L13.2071 8.29289C12.8166 7.90237 12.1834 7.90237 11.7929 8.29289L12.5 9ZM18.7929 16.7071C19.1834 17.0976 19.8166 17.0976 20.2071 16.7071C20.5976 16.3166 20.5976 15.6834 20.2071 15.2929L18.7929 16.7071ZM6.20711 16.7071L13.2071 9.70711L11.7929 8.29289L4.79289 15.2929L6.20711 16.7071ZM11.7929 9.70711L18.7929 16.7071L20.2071 15.2929L13.2071 8.29289L11.7929 9.70711Z" fill="white"/>
</svg>
