<svg width="25" height="24" viewBox="0 0 25 24" fill="none" xmlns="http://www.w3.org/2000/svg">
<path d="M4.5 9C4.5 8.44772 4.05228 8 3.5 8C2.94772 8 2.5 8.44772 2.5 9H4.5ZM15.5001 22C16.0524 22 16.5001 21.5523 16.5001 21C16.5001 20.4477 16.0524 20 15.5001 20V22ZM3.60899 20.454L2.71799 20.908H2.71799L3.60899 20.454ZM4.0459 20.891L4.49989 20H4.49989L4.0459 20.891ZM18.3002 17V16V17ZM10.7002 17V18V17ZM21.5002 13.8H22.5002H21.5002ZM21.2822 15.908L22.1732 16.362L21.2822 15.908ZM20.4078 16.782L20.8618 17.673L20.4078 16.782ZM20.4078 3.21799L20.8618 2.32698V2.32698L20.4078 3.21799ZM21.5002 6.20002H20.5002H21.5002ZM21.2822 4.09204L22.1732 3.63805V3.63805L21.2822 4.09204ZM7.71799 4.09204L6.82698 3.63805L6.82698 3.63805L7.71799 4.09204ZM8.5918 3.21799L9.04579 4.10899H9.04579L8.5918 3.21799ZM7.71799 15.908L8.60899 15.454L7.71799 15.908ZM8.5918 16.782L9.04579 15.891L8.5918 16.782ZM13.5 13C13.5 13.5523 13.9477 14 14.5 14C15.0523 14 15.5 13.5523 15.5 13H13.5ZM15.5 7C15.5 6.44772 15.0523 6 14.5 6C13.9477 6 13.5 6.44772 13.5 7H15.5ZM11.5 9C10.9477 9 10.5 9.44772 10.5 10C10.5 10.5523 10.9477 11 11.5 11V9ZM17.5 11C18.0523 11 18.5 10.5523 18.5 10C18.5 9.44772 18.0523 9 17.5 9V11ZM2.5 9V19.4H4.5V9H2.5ZM5.1001 22H15.5001V20H5.1001V22ZM2.5 19.4C2.5 19.6635 2.49922 19.9213 2.51695 20.1382C2.53562 20.3668 2.57969 20.6366 2.71799 20.908L4.5 20C4.52931 20.0575 4.51888 20.0803 4.5103 19.9754C4.50078 19.8588 4.5 19.6965 4.5 19.4H2.5ZM5.1001 20C4.80359 20 4.64127 19.9992 4.52462 19.9897C4.41959 19.9811 4.44233 19.9707 4.49989 20L3.59191 21.782C3.86337 21.9203 4.13319 21.9644 4.36177 21.983C4.57873 22.0008 4.83655 22 5.1001 22V20ZM2.71799 20.908C2.90966 21.2842 3.21543 21.5902 3.59191 21.782L4.49989 20L4.5 20L2.71799 20.908ZM8.5 13.8V6.20001H6.5V13.8H8.5ZM10.7002 4H18.3002V2H10.7002V4ZM18.3002 16H10.7002V18H18.3002V16ZM20.5002 13.8C20.5002 14.3765 20.4994 14.7488 20.4763 15.0322C20.4541 15.3038 20.4164 15.4045 20.3912 15.454L22.1732 16.362C22.366 15.9836 22.4373 15.5904 22.4696 15.195C22.501 14.8113 22.5002 14.3435 22.5002 13.8H20.5002ZM18.3002 18C18.8438 18 19.3115 18.0008 19.6951 17.9694C20.0904 17.9371 20.4835 17.8657 20.8618 17.673L19.9538 15.891C19.9043 15.9162 19.8036 15.9539 19.5321 15.9761C19.2489 15.9992 18.8767 16 18.3002 16V18ZM20.3912 15.454C20.2956 15.6417 20.1424 15.7949 19.9538 15.891L20.8618 17.673C21.4258 17.3856 21.8854 16.9269 22.1732 16.362L20.3912 15.454ZM18.3002 4C18.8768 4 19.2489 4.00078 19.5321 4.02393C19.8036 4.04611 19.9043 4.08377 19.9538 4.10899L20.8618 2.32698C20.4835 2.13421 20.0904 2.06288 19.6951 2.03057C19.3115 1.99922 18.8437 2 18.3002 2V4ZM22.5002 6.20002C22.5002 5.65647 22.501 5.18867 22.4696 4.80499C22.4373 4.40965 22.366 4.01643 22.1732 3.63805L20.3912 4.54603C20.4164 4.59548 20.4541 4.69619 20.4763 4.96786C20.4994 5.2512 20.5002 5.62347 20.5002 6.20002H22.5002ZM19.9538 4.10899C20.1424 4.20507 20.2956 4.35828 20.3912 4.54603L22.1732 3.63805C21.8854 3.07316 21.4259 2.61439 20.8618 2.32698L19.9538 4.10899ZM8.5 6.20001C8.5 5.62346 8.50078 5.25119 8.52393 4.96785C8.54612 4.69619 8.5838 4.59548 8.60899 4.54603L6.82698 3.63805C6.63419 4.01643 6.56287 4.40964 6.53057 4.80499C6.49922 5.18866 6.5 5.65646 6.5 6.20001H8.5ZM10.7002 2C10.1566 2 9.68874 1.99922 9.30498 2.03057C8.90962 2.06286 8.51624 2.13416 8.13781 2.32698L9.04579 4.10899C9.09517 4.08383 9.19595 4.04613 9.4678 4.02393C9.75126 4.00078 10.1237 4 10.7002 4V2ZM8.60899 4.54603C8.705 4.35761 8.85788 4.20474 9.04579 4.10899L8.13781 2.32698C7.57306 2.61473 7.11447 3.07382 6.82698 3.63805L8.60899 4.54603ZM6.5 13.8C6.5 14.3436 6.49922 14.8114 6.53057 15.195C6.56287 15.5904 6.63419 15.9836 6.82698 16.362L8.60899 15.454C8.5838 15.4045 8.54612 15.3038 8.52393 15.0322C8.50078 14.7488 8.5 14.3766 8.5 13.8H6.5ZM10.7002 16C10.1237 16 9.75127 15.9992 9.46782 15.9761C9.19598 15.9538 9.09519 15.9161 9.04579 15.891L8.13781 17.673C8.51623 17.8658 8.90959 17.9371 9.30496 17.9694C9.68873 18.0008 10.1566 18 10.7002 18V16ZM6.82698 16.362C7.11449 16.9262 7.5731 17.3853 8.13781 17.673L9.04579 15.891C8.85784 15.7952 8.70498 15.6424 8.60899 15.454L6.82698 16.362ZM20.5002 6.20002V13.8H22.5002V6.20002H20.5002ZM15.5 13V7H13.5V13H15.5ZM11.5 11H17.5V9L11.5 9V11Z" fill="white"/>
</svg>
