<svg width="218" height="260" viewBox="0 0 218 260" fill="none" xmlns="http://www.w3.org/2000/svg">
<g clip-path="url(#clip0_12_170)">
<path d="M144.19 21.56C143.78 20.77 142.26 17.93 141.74 16.96L141.56 16.64C134.94 4.49996 134.72 6.79999 130.56 6.06999L130.09 5.95997C125.38 4.87997 117.29 1.81996 113.34 0.359964C109.39 -1.10004 98.51 2.07999 91.57 2.75999C90.1278 2.87204 88.7079 3.18158 87.35 3.67997C84.16 4.91997 83.35 7.01997 82.05 8.73997C81.6027 9.47608 80.8847 10.0075 80.05 10.22V10.22C74.65 12.15 61.9 27.87 64.66 49.55C64.8747 51.6597 65.2831 53.7451 65.88 55.78C71.06 76.63 88.75 104.56 93.06 112.46C89.87 119.8 83.06 134.87 80.88 149.06C80.5143 151.202 80.2971 153.368 80.23 155.54C79.94 162.75 81.3 169.36 85.48 174.1L86.34 175.02C88.3723 176.988 90.8436 178.445 93.55 179.27C97.15 180.82 99.88 179.95 102.55 179.5C103.708 180.197 104.939 180.767 106.22 181.2C113.79 183.81 122.22 181.72 126.22 179.5C131.54 177.77 133.97 174.65 135.49 169.82C137.02 165.26 139.37 155.97 134.06 142.21C131.68 136.27 126.88 126.97 119.5 113.45V113.37C125.42 102.18 141.28 74.48 144.1 66.37C144.25 65.94 144.39 65.53 144.52 65.12C149.31 52.87 152.44 36.66 144.24 21.57M105.53 89.7C99.53 79.65 94 70.34 90.44 61.41C89.2872 57.944 88.3914 54.3977 87.76 50.8C85.76 41.01 86.59 35.26 90.33 27.34L90.58 26.83C92.7344 25.6098 95.1174 24.8473 97.58 24.59C103.85 23.97 114.49 25.59 118.58 37C122.87 49.08 113.71 72.64 105.49 89.71" fill="white"/>
<path d="M100.98 127.25C99.27 123.96 95.53 116.78 94.73 115.08C86.04 132 83.89 150.79 83.73 156.25C83.82 160.45 83.73 166.81 89.67 169.53C97.56 158.8 83.73 142.77 100.95 127.25" fill="#ACA9A6"/>
<path d="M120.93 70.82C122.93 60.73 128.03 52.13 121.6 38.11C116.3 26.57 107.17 22.44 97.6 24.61C103.87 23.99 114.52 25.61 118.6 37.02C122.89 49.1 113.73 72.66 105.51 89.73C105.32 90.13 105.12 90.53 104.93 90.93C108.93 97.85 112.19 103.81 116.09 110.85C116.09 110.85 121.35 102.38 123.53 98.54C119.05 88.18 119.7 77.12 120.97 70.83" fill="#ACA9A6"/>
<path d="M145.84 37.92C145.84 37.57 145.84 37.22 145.84 36.92V36.86C145.84 36.71 145.84 36.57 145.84 36.43C145.78 34.92 145.68 33.61 145.53 32.53C145.419 31.712 145.249 30.9031 145.02 30.11C143.882 27.3389 142.306 24.7692 140.35 22.5C137.462 18.9629 134.342 15.6221 131.01 12.5C130.668 12.6517 130.334 12.8219 130.01 13.01C125.66 15.61 125.76 19.15 110.64 11.91C108.36 10.82 104.79 11.51 102.79 11.64C118.08 22.98 134.86 22.5 145.85 37.92" fill="#BCBAB7"/>
<path d="M134.11 80.61C134.69 79.73 135.22 78.91 135.7 78.17C136.27 77.25 136.8 76.3 137.31 75.34C137.543 74.9066 137.767 74.4666 137.98 74.02C144.19 61.54 145.93 47.02 145.84 37.92C138.06 15.34 115.38 25.41 108.11 11.33L102.43 11.67C102.79 12.12 103.15 12.57 103.54 13.02C106.42 16.31 113.17 23.02 120.42 24.67C127.67 26.32 133.77 27.43 139.89 36.54C146.01 45.65 139.5 58.54 133.76 71.13C131.47 76.13 131.24 81.22 130.91 86.21C131.84 84.92 132.04 83.42 133.15 81.94C133.47 81.5 133.79 81.06 134.1 80.6" fill="#CCC9C6"/>
<path d="M139.9 36.5601C133.77 27.4401 127.69 26.3801 120.43 24.6801C113.17 22.9801 106.43 16.3101 103.55 13.0301C103.16 12.5901 102.8 12.1401 102.44 11.6901C97.44 12.1801 93.44 16.18 90.71 21.92C89.745 23.9962 88.9686 26.1549 88.39 28.3701C91.0228 26.2485 94.2231 24.951 97.59 24.64C107.17 22.46 116.31 26.64 121.59 38.14C128.03 52.14 122.96 60.7601 120.92 70.8501C119.65 77.1301 119 88.2001 123.48 98.5601C125.652 94.278 128.138 90.1634 130.92 86.2501C131.25 81.2501 131.48 76.19 133.77 71.17C139.52 58.56 146.06 45.6601 139.9 36.5601Z" fill="#BBB8B5"/>
<path d="M96.4599 113.32C89.6899 122.75 79.3 173.14 94.41 171.37C118.12 168.05 99.6099 119.74 96.4599 113.32" fill="#9A9794"/>
<g opacity="0.3294">
<path d="M98.3 20.78C100.004 20.2653 101.757 19.9302 103.53 19.78C105.307 19.5932 107.097 19.5597 108.88 19.68C112.494 19.8728 116.024 20.8414 119.23 22.52C122.448 24.2748 125.161 26.8262 127.11 29.93C128.069 31.4871 128.879 33.131 129.53 34.84C130.149 36.5496 130.647 38.3005 131.02 40.08C132.49 47.25 131.82 54.67 130.33 61.73C128.759 68.7789 126.56 75.673 123.76 82.33C121.06 88.98 117.91 95.41 114.71 101.76L109.84 111.22L105.06 120.64C101.88 126.863 99.1753 133.318 96.97 139.95C96.454 141.593 96.0267 143.262 95.6901 144.95C95.3196 146.629 95.0822 148.334 94.9801 150.05C94.7029 153.514 95.2335 156.996 96.53 160.22L96.12 160.44C94.1678 157.317 93.0616 153.74 92.9101 150.06C92.728 146.394 93.0442 142.721 93.8501 139.14C94.6084 135.589 95.6108 132.094 96.8501 128.68C98.0301 125.27 99.4201 121.94 100.85 118.68C106.62 105.55 113.41 93.09 119.43 80.39C120.92 77.21 122.43 74.02 123.7 70.78C125.046 67.5563 126.224 64.2653 127.23 60.92C129.23 54.26 130.33 47.25 129.32 40.37C129.062 38.657 128.664 36.9681 128.13 35.32C127.581 33.6822 126.881 32.0988 126.04 30.59C124.306 27.5739 121.827 25.0534 118.84 23.27C115.791 21.5189 112.401 20.4446 108.9 20.12C107.143 19.9346 105.373 19.8978 103.61 20.01C101.839 20.1052 100.083 20.3834 98.37 20.84L98.3 20.78Z" fill="#797775"/>
</g>
<path d="M144.19 21.56C143.78 20.78 142.27 17.94 141.74 16.96L141.56 16.63C134.94 4.49001 134.72 6.79 130.56 6.06L130.1 5.95002C125.39 4.87002 117.3 1.79999 113.35 0.35999C109.4 -1.08001 98.52 2.07 91.58 2.75C90.1382 2.86453 88.7186 3.174 87.36 3.66999C84.17 4.90999 83.36 7.01002 82.06 8.73002C81.6136 9.46687 80.8952 9.99847 80.06 10.21V10.21C74.66 12.14 61.91 27.86 64.67 49.53C64.884 51.6398 65.2924 53.7253 65.89 55.76C71.06 76.63 88.75 104.56 93.06 112.46C89.87 119.8 83.06 134.87 80.88 149.06C80.5147 151.203 80.2976 153.368 80.23 155.54V155.54C79.94 162.75 81.29 169.36 85.48 174.1L86.34 175.02C88.3722 176.991 90.8433 178.451 93.55 179.28C97.14 180.82 99.88 179.96 102.55 179.51C103.712 180.208 104.946 180.778 106.23 181.21C113.8 183.83 122.23 181.72 126.23 179.51C131.55 177.79 133.97 174.67 135.5 169.83C137.03 165.28 139.38 155.98 134.07 142.22C131.68 136.28 126.89 126.98 119.51 113.46V113.38C125.43 102.19 141.28 74.49 144.11 66.38C144.26 65.95 144.39 65.54 144.53 65.13C149.32 52.88 152.45 36.66 144.25 21.58M95.43 170.35C94.5704 170.489 93.6965 170.516 92.83 170.43C91.3666 170.216 89.975 169.657 88.77 168.8C86.9313 167.517 85.5591 165.671 84.86 163.54C82.72 157.14 83.17 144.42 94.6 115.61C95.79 118.2 96.91 120.61 97.4 121.61C102.575 131.856 105.381 143.134 105.61 154.61C104.9 163.83 100.45 169.42 95.43 170.36M116.43 108.42C115.77 107.32 115.38 106.71 115.38 106.71L114.66 105.49C105.54 89.12 95.73 74.86 90.39 61.44C89.2399 57.9732 88.3442 54.4271 87.71 50.83C85.71 41.04 86.54 35.29 90.28 27.37C93.88 19.75 104.76 10.24 110.85 13.15C123.98 19.43 125.73 16.4 128.85 13.82C128.95 13.75 129.2 13.56 129.3 13.47L129.84 13.11C164.27 39.54 127.36 90.63 116.38 108.42" fill="#EFECE8"/>
<path d="M129.92 87.08C129.42 87.88 128.15 89.78 126.57 92.08C122.63 98.73 118.89 104.38 116.43 108.36C117.23 109.65 119.01 112.55 119.78 113.94L119.5 113.42L119.45 113.34L120.71 110.99C120.71 106.49 128.39 90.54 129.93 87.04" fill="#DAD7D3"/>
<path d="M113.31 3.36995C110.4 1.80995 106.69 1.93995 103.16 2.55995C102.08 2.74995 99.5 3.23994 99.5 3.23994C99.5 3.23994 104.71 4.51994 108.88 5.98994C111.56 6.98994 116.06 8.74993 121.49 5.88994L121.59 5.65995C118.709 5.43501 115.897 4.65752 113.31 3.36995" fill="#BBB8B5"/>
<path d="M81.87 10.66C81.4151 11.7782 81.0799 12.9413 80.87 14.13C80.7 15.05 80.54 16.05 80.38 17.13C86.55 9.48004 92.77 6.21003 93.38 5.91003C93.99 5.61003 96.08 4.20003 96.96 3.91003C90.27 5.72003 86.53 8.45003 82.53 9.66003C82.2678 9.96148 82.0491 10.2981 81.88 10.66" fill="#F6F2EE"/>
<path d="M114.65 13.3101C104.42 7.58012 99.15 14.8701 99.15 14.8701C99.15 14.8701 99.09 14.9801 99.06 14.9901C95.42 18.2401 91.79 22.7601 90.28 27.3601C93.88 19.7401 104.77 10.2201 110.86 13.1401C125.26 20.0301 125.98 15.7301 129.86 13.1401C127.01 14.8601 124.65 18.9601 114.62 13.3501" fill="#EBE7E3"/>
<path d="M128.88 13.5601C122.17 16.3601 117.64 10.8701 110.88 6.87008C110.59 6.75008 110.31 6.62009 110.01 6.47009C105.28 4.16009 97.3499 16.5601 97.3699 16.5601C98.8799 15.4501 104.42 7.56009 114.65 13.2801C124.65 18.8901 126.16 15.7001 128.89 13.7901L129.89 13.0701C129.89 13.0701 129.02 13.4701 128.89 13.5701" fill="#FFFBF7"/>
<path d="M95.84 17.3801C90 21.8201 81.23 23.6701 79.42 22.7501C78.62 31.5101 76.72 42.8401 78.66 55.6501C79.51 61.2401 80.66 67.1901 81.59 73.0801C79.2 54.2701 78.69 31.6901 95.85 17.3901" fill="#EFECE8"/>
<path d="M87.3699 3.71005C84.1799 4.95005 83.3699 7.05005 82.0699 8.77005C81.6227 9.50616 80.9046 10.0375 80.0699 10.2501C80.5599 10.1501 81.1399 10.0101 81.7899 9.85007C83.5286 9.36927 85.2218 8.73683 86.8499 7.96005C88.4699 7.24005 90.3099 6.43006 92.6699 5.47006C93.9799 4.94006 96.7499 3.93007 98.2099 3.54007C99.6699 3.15007 103.53 2.49006 103.74 2.44006L105.74 2.18005C105.6 2.18005 89.4799 3.11007 87.4399 3.70007" fill="#EFECE8"/>
<path d="M128.49 175.56C128.33 175.89 128.21 176.18 128.04 176.47C127.507 177.513 126.899 178.516 126.22 179.47C131.57 177.73 133.97 174.67 135.49 169.79C129.82 175.74 128.49 175.53 128.49 175.53" fill="#D2CFCB"/>
<path d="M116.06 177.19C111.8 175.32 108.37 178.98 106.23 181.19C113.8 183.8 122.23 181.7 126.23 179.48C126.908 178.525 127.516 177.522 128.05 176.48C125.81 180.2 120.18 179 116.05 177.2" fill="#DEDBD7"/>
<path d="M102.95 170.85C105.202 165.733 106.118 160.128 105.61 154.56C104.89 163.75 100.44 169.37 95.4301 170.31C94.5706 170.45 93.6965 170.477 92.8301 170.39C91.3644 170.179 89.9695 169.624 88.7601 168.77C88.5401 168.62 88.3301 168.46 88.1301 168.29C86.2151 167.705 84.487 166.628 83.1184 165.166C81.7497 163.704 80.7883 161.909 80.3301 159.96C80.3301 159.96 80.3301 159.89 80.3301 159.85C80.3301 160.49 80.4301 161.13 80.5101 161.77V161.91C80.7268 163.77 81.1356 165.604 81.7301 167.38C85.9401 175 98.0501 180.5 102.98 170.82" fill="#EBE7E3"/>
<path d="M95.43 170.35C94.5705 170.49 93.6965 170.517 92.83 170.43C91.3676 170.219 89.9762 169.663 88.77 168.81C87.7663 168.114 86.8958 167.244 86.2 166.24C82.75 162.67 80.84 156.29 80.54 151.97V151.81C80.41 152.96 80.29 154.31 80.28 155.54C80.1594 158.067 80.29 160.599 80.67 163.1C80.6742 163.146 80.6742 163.193 80.67 163.24C84.5 170.5 95.11 177.75 102.18 165.51C101.432 166.723 100.45 167.775 99.291 168.604C98.132 169.433 96.8195 170.023 95.43 170.34" fill="#F2EFEA"/>
<path d="M141.56 16.67C134.94 4.52995 134.72 6.82998 130.56 6.09998C124.96 6.39998 118.7 10.3 110.84 6.90997C121.9 13.52 131.22 -0.740026 141.7 16.91L141.84 17.17L141.72 16.96L141.55 16.63" fill="#E7E4E0"/>
<path d="M93.5701 179.27C96.3698 177.455 98.755 175.07 100.57 172.27C95.3101 177.1 83.9301 175.53 80.5701 162.99C81.0974 167.076 82.7918 170.923 85.4501 174.07L86.3101 174.99C88.3411 176.962 90.8126 178.423 93.5201 179.25" fill="#CCC9C6"/>
<path d="M113.36 0.390056C109.28 -1.10994 98.5301 2.11008 91.5901 2.79008C90.1483 2.9046 88.7287 3.21407 87.3701 3.71006C91.4701 2.82006 91.7601 3.71006 103.78 2.36006C103.84 2.36006 105.36 2.20006 105.78 2.18006C108.361 1.86748 110.978 2.27591 113.34 3.36006C115.782 4.66073 118.456 5.46617 121.21 5.73008C124.32 6.06008 127.28 5.84008 130.14 5.98008C125.44 4.90008 117.34 1.83008 113.39 0.380077" fill="#F2EFEA"/>
<path d="M121.18 5.73999L120.85 5.91C116.37 8.33 112.23 7.19999 109.55 6.17999C109.99 6.41999 110.43 6.65998 110.86 6.91998C118.72 10.31 124.98 6.40001 130.58 6.10001L130.12 5.98999C127.25 5.84999 124.3 6.06999 121.18 5.73999" fill="#EBE7E3"/>
<path d="M129.92 142.78C124.83 120.35 113.76 105.78 104 93.78C96.6317 84.7883 91.5349 74.1558 89.14 62.78C89.34 65.05 89.53 67.43 89.69 69.86C91.58 83.62 96.69 99.96 111.82 118.45C125.55 135.25 128.45 137.54 129.92 142.78Z" fill="#FFFBF7"/>
<path d="M141.99 17.47L142.15 17.84L143.15 20.16C143.959 22.0326 144.327 24.0663 144.225 26.1038C144.123 28.1412 143.553 30.1279 142.56 31.91C146.24 44.91 142.38 59.8 136.41 73.33C133.81 79.26 133.9 84.57 133.15 88.33V88.28C138.15 79.11 142.65 70.39 144.05 66.4C144.2 65.97 144.33 65.56 144.47 65.15C149.26 52.9 152.39 36.69 144.19 21.6L141.99 17.47" fill="#EBE7E3"/>
<path d="M129.89 13.1C133.165 15.7173 135.972 18.8722 138.19 22.43C137.46 17.25 136.19 12.12 131.81 12.56C131.271 12.6061 130.742 12.7307 130.24 12.93C130.24 12.93 130.18 12.87 129.89 13.09" fill="#DEDBD7"/>
<path d="M143.25 20.0501C142.033 18.2176 140.697 16.4672 139.25 14.8101C138.499 13.9813 137.587 13.315 136.568 12.8524C135.55 12.3897 134.448 12.1405 133.33 12.1201C132.218 12.1034 131.122 12.3904 130.16 12.9501C130.072 12.9956 129.988 13.0491 129.91 13.1101C136.11 11.3301 137.3 17.3201 138.21 22.4401C140.146 25.3611 141.613 28.5663 142.56 31.9401C143.478 30.1113 144.013 28.1147 144.133 26.0722C144.254 24.0296 143.957 21.984 143.26 20.0601" fill="#CCC9C6"/>
<path d="M106.22 181.2C108.92 179 111.13 176.6 113.97 176.69C111.97 176.6 104.3 178.24 102.54 179.5C103.703 180.195 104.937 180.765 106.22 181.2" fill="#D2CFCB"/>
<path d="M132.28 158C132.204 155.929 131.97 153.866 131.58 151.83C130.914 147.98 129.438 144.316 127.25 141.08C119.25 129.88 100.25 109.23 95.3 93.14C96.74 103.22 94.3 115.35 98.3 121.3C99.6734 123.067 101.007 124.81 102.3 126.53C112 138.09 123.3 144.8 122.93 161.2C122.74 169.89 119.81 172.99 115.54 176.99L116.05 177.19C120.18 178.99 125.8 180.19 128.05 176.47C131.167 170.829 132.636 164.426 132.29 157.99" fill="#EFECE8"/>
<path d="M123.68 162.56C126.25 141.47 114.05 130.17 102.44 116.87C101.1 115.38 97.22 113.68 98.74 117.18C105.3 127.48 109.67 137.46 110.74 141.62C116.86 166.14 110.14 173.9 102.58 179.47C104.34 178.21 111.97 176.58 114.01 176.67C114.546 176.689 115.075 176.791 115.58 176.97C119.06 173.71 121.48 171.97 122.86 166.8C123.05 166.08 123.23 165.28 123.4 164.39C123.51 163.82 123.64 163.21 123.72 162.56" fill="#E7E4E0"/>
<path d="M114.72 147.17C110.549 131.071 103.25 115.95 93.24 102.67C93.06 103.22 92 106.56 91.13 109.04C91.92 110.41 92.59 111.56 93.07 112.45C93.68 113.64 94.07 114.45 94.58 115.61C95.77 118.2 96.89 120.61 97.38 121.61C102.557 131.855 105.362 143.133 105.59 154.61C106.08 163.79 101.48 174.33 93.59 179.28C97.19 180.83 99.92 179.96 102.59 179.51C109.04 177.16 120.89 171.71 114.76 147.18" fill="#F2EFEA"/>
<path d="M99.69 11.6701C96.0709 13.4807 92.8404 15.9809 90.18 19.0301C87.527 22.0109 85.4274 25.4414 83.98 29.1601C81.09 36.5801 80.86 44.7901 82.13 52.6501C83.4 60.5101 86.18 68.2201 87.81 76.2801C88.6762 80.3139 89.0655 84.4355 88.97 88.5601C88.8232 92.6399 88.1062 96.679 86.84 100.56C87.6469 96.5935 87.9826 92.5454 87.84 88.5001C87.6725 84.4833 87.086 80.495 86.09 76.6001C85.09 72.7001 83.93 68.8301 82.76 64.9201C81.5618 60.9838 80.6132 56.9758 79.9199 52.9201C79.2662 48.821 79.0884 44.66 79.3899 40.5201C79.5677 38.4445 79.902 36.3853 80.3899 34.3601C80.8698 32.3285 81.5394 30.3464 82.3899 28.4401C84.0484 24.6172 86.4247 21.1479 89.3899 18.2201C92.2953 15.2932 95.8033 13.0342 99.6699 11.6001" fill="#CCC9C6"/>
<path d="M91.37 108.72C92.1767 106.559 92.7075 104.304 92.95 102.01C93.1618 99.7193 93.1885 97.4152 93.03 95.1201C92.79 90.5201 92.08 85.9501 91.39 81.3801C90.7 76.8101 89.95 72.2401 89.34 67.6501C88.73 63.0601 88.47 58.4601 88.03 53.8501L92.22 81.2601C92.9841 85.8407 93.4816 90.4618 93.71 95.1001C93.7901 97.4382 93.6831 99.779 93.39 102.1C93.032 104.398 92.359 106.636 91.39 108.75" fill="#CCC9C6"/>
<path d="M79.85 14.99C78.9377 17.8927 78.1734 20.8398 77.56 23.82C76.9268 26.7913 76.4627 29.7961 76.17 32.82C75.5521 38.8509 75.5521 44.9291 76.17 50.96C76.8812 56.987 78.0512 62.951 79.67 68.8C80.41 71.8 81.22 74.69 81.89 77.68C82.6302 80.6505 83.0129 83.6987 83.03 86.76C82.8194 83.7092 82.2727 80.6909 81.4 77.76C80.61 74.82 79.73 71.91 78.89 68.98C77.122 63.1184 75.8574 57.1166 75.11 51.04C74.7969 47.9904 74.6601 44.9253 74.7 41.86C74.7195 38.7975 74.9198 35.7389 75.3 32.7C75.7011 29.6704 76.272 26.6657 77.01 23.7C77.7683 20.741 78.7101 17.832 79.83 14.99" fill="#CCC9C6"/>
<path d="M74.13 17.5C72.834 20.0461 71.8277 22.7295 71.13 25.5C70.4175 28.2622 69.8665 31.0636 69.4801 33.89C68.7197 39.5263 68.6325 45.233 69.22 50.89C69.7708 56.5461 71.1873 62.0841 73.42 67.31C74.58 69.88 75.88 72.45 77.17 74.99C78.46 77.53 79.89 79.99 81.25 82.54C80.34 81.43 79.47 80.28 78.63 79.11C77.79 77.94 77.06 76.76 76.3 75.56C75.54 74.36 74.8801 73.05 74.2301 71.77C73.5801 70.49 72.95 69.19 72.37 67.86C70.1319 62.5163 68.7289 56.8602 68.21 51.09C67.688 45.3402 67.8963 39.5474 68.83 33.85C69.2808 31.0083 69.9291 28.2016 70.77 25.45C71.5642 22.6865 72.6925 20.0302 74.13 17.54" fill="#DEDBD7"/>
<path d="M80.34 17.12C83.0649 13.1787 86.5249 9.80024 90.53 7.17002C92.5208 5.80042 94.6826 4.69769 96.96 3.89002C97.7904 3.60031 98.6433 3.37959 99.51 3.23005C99.85 3.17005 100.21 3.14003 100.56 3.12003C101.818 3.0235 103.082 3.20796 104.26 3.66004C108.84 5.29004 112.82 8.03004 116.83 10.5C118.794 11.789 120.906 12.8365 123.12 13.62C124.222 13.9984 125.386 14.1647 126.55 14.11C127.727 14.0441 128.871 13.7014 129.89 13.11C128.913 13.8144 127.775 14.2615 126.58 14.41C125.372 14.5413 124.151 14.4429 122.98 14.12C120.682 13.4199 118.478 12.4392 116.42 11.2001C112.28 8.87005 108.34 6.14004 103.91 4.66004C103.379 4.47258 102.834 4.32878 102.28 4.23005C101.728 4.14648 101.168 4.11966 100.61 4.15003C99.4696 4.23145 98.3441 4.45658 97.26 4.82005C95.0522 5.58947 92.9414 6.613 90.97 7.87003C88.9666 9.11094 87.0671 10.5122 85.29 12.06C83.4582 13.5751 81.7831 15.2703 80.29 17.12" fill="#CCC9C6"/>
<path d="M129.89 13.1C130.867 12.2972 132.069 11.8153 133.33 11.72C134.615 11.644 135.897 11.917 137.04 12.51C139.02 13.5031 140.657 15.0671 141.74 17L142.01 17.49L142.19 17.83C143.462 19.997 144.209 22.4322 144.37 24.94C144.542 27.4079 143.907 29.8648 142.56 31.94C143.636 29.7736 144.073 27.3456 143.82 24.94C143.572 22.551 142.808 20.2444 141.58 18.18C140.415 16.1147 138.729 14.3907 136.69 13.18C135.675 12.5862 134.534 12.2433 133.36 12.18C132.155 12.1563 130.966 12.4494 129.91 13.03" fill="#BBB8B5"/>
<path d="M94.06 102.19C95.1622 107.446 96.9615 112.531 99.41 117.31C100.618 119.697 101.981 122.002 103.49 124.21L105.79 127.52L106.94 129.19C107.32 129.75 107.66 130.34 108.02 130.9C109.453 133.196 110.752 135.574 111.91 138.02C113.039 140.484 113.985 143.027 114.74 145.63C115.472 148.247 115.968 150.924 116.22 153.63C116.466 155.791 116.533 157.968 116.42 160.14C116.389 157.976 116.202 155.817 115.86 153.68C115.513 151.025 114.948 148.403 114.17 145.84C113.35 143.295 112.371 140.803 111.24 138.38C110.074 135.973 108.768 133.635 107.33 131.38C106.97 130.82 106.62 130.24 106.25 129.69L105.06 127.98C104.3 126.88 103.51 125.78 102.76 124.66C101.26 122.417 99.9069 120.079 98.71 117.66C96.3397 112.793 94.7535 107.582 94.01 102.22" fill="#CCC9C6"/>
<path d="M92.5601 87.6901C93.0337 91.3136 93.8542 94.8833 95.0101 98.3501C96.0974 101.836 97.4136 105.247 98.9501 108.56C101.94 115.202 106.035 121.288 111.06 126.56C112.34 127.83 113.68 129.14 114.88 130.56C116.081 131.966 117.183 133.453 118.18 135.01C120.182 138.118 121.706 141.509 122.7 145.07C124.328 151.04 124.618 157.295 123.55 163.39C123.35 164.55 123.1 165.72 122.8 166.86C123.533 163.282 123.849 159.631 123.74 155.98C123.661 152.335 123.096 148.716 122.06 145.22C121.026 141.744 119.501 138.434 117.53 135.39C116.54 133.874 115.447 132.427 114.26 131.06C113.07 129.68 111.77 128.45 110.47 127.13C105.398 121.777 101.303 115.576 98.3701 108.81C96.8849 105.452 95.6287 101.998 94.61 98.4701C94.11 96.7034 93.6767 94.9234 93.3101 93.1301C92.9194 91.342 92.6653 89.5267 92.55 87.7001" fill="#D2CFCB"/>
<path d="M136.19 78.2C138.073 74.5095 139.7 70.6938 141.06 66.78C142.431 62.8892 143.576 58.9226 144.49 54.9C145.409 50.8872 146.007 46.8077 146.28 42.7C146.403 40.6468 146.362 38.587 146.16 36.54L146 35L145.68 33.49L145.53 32.73C145.47 32.48 145.36 32.24 145.28 32L144.78 30.52C146.73 34.23 147.2 38.52 147.19 42.72C147.185 44.8169 147.045 46.9112 146.77 48.99C146.517 51.0634 146.16 53.1233 145.7 55.17C144.813 59.2641 143.589 63.2778 142.04 67.17C140.514 71.0429 138.558 74.7326 136.21 78.17" fill="#FFFBF7"/>
<path d="M108.93 157.25C109.001 148.847 107.624 140.495 104.86 132.56C102.127 124.661 98.5427 117.083 94.17 109.96C92.03 106.36 89.8 102.76 87.7 99.11C85.6 95.46 83.55 91.78 81.6 88.04C77.5904 80.6405 74.1375 72.9526 71.27 65.04C72.97 68.89 74.79 72.66 76.77 76.38C78.75 80.1 80.77 83.78 82.77 87.44C86.89 94.76 91.22 101.93 95.6 109.13C100.016 116.367 103.529 124.118 106.06 132.21C107.301 136.262 108.187 140.415 108.71 144.62C109.217 148.812 109.277 153.046 108.89 157.25" fill="#E1DEDA"/>
<g opacity="0.4275">
<path d="M76.78 76.38C78.72 80.1 80.78 83.79 82.78 87.44C83.6267 88.9466 84.4834 90.45 85.35 91.95C87.84 95.95 90.62 99.95 93.67 103.95C107.67 122.09 116.46 140.57 110.12 158.4C108.97 161.65 109.55 163.17 111.01 163.23H111.2C115.2 163.07 125.05 152.94 125.2 137.7V136.96C125.09 126.49 120.41 113.69 106.29 100.08C93.0867 90.0585 81.3115 78.2833 71.29 65.08C72.99 68.93 74.81 72.7 76.79 76.41" fill="url(#paint0_linear_12_170)"/>
</g>
<path d="M94.59 115.61C94.09 114.46 93.69 113.61 93.08 112.45C89.89 119.79 83.08 134.86 80.9 149.05C80.5364 151.193 80.3193 153.358 80.25 155.53C80.2924 155.991 80.3625 156.448 80.46 156.9C82.38 165.17 85.36 166.58 86.61 166.79C85.8295 165.822 85.23 164.721 84.84 163.54C82.71 157.14 83.15 144.42 94.58 115.61" fill="#F2EFEA"/>
<path d="M77.16 38.39C77.201 38.0435 77.3465 37.7177 77.5771 37.4558C77.8076 37.1939 78.1124 37.0083 78.4509 36.9237C78.7894 36.839 79.1457 36.8593 79.4724 36.9819C79.799 37.1045 80.0807 37.3236 80.28 37.61C79.4861 38.1475 78.5487 38.4332 77.59 38.43C77.4468 38.4376 77.3032 38.4376 77.16 38.43M72.93 34.81C73.1865 34.7388 73.456 34.7281 73.7174 34.7788C73.9787 34.8294 74.2247 34.9401 74.436 35.102C74.6474 35.2638 74.8182 35.4726 74.9352 35.7117C75.0521 35.9508 75.112 36.2139 75.11 36.48C75.1007 36.8434 74.9744 37.1941 74.75 37.48C73.8422 36.8158 73.1977 35.8526 72.93 34.76M80.84 33.97C80.842 33.5805 80.9738 33.2027 81.2148 32.8966C81.4557 32.5905 81.7918 32.3735 82.17 32.28C82.5183 33.3672 82.4433 34.5458 81.96 35.58C81.6307 35.4559 81.3471 35.2344 81.147 34.945C80.9469 34.6555 80.8398 34.3119 80.84 33.96M76.55 35.32L75.68 33.69C75.6352 33.5995 75.6189 33.4976 75.6332 33.3976C75.6475 33.2977 75.6917 33.2044 75.76 33.13L77.05 31.8C77.1196 31.7244 77.212 31.6738 77.3131 31.6557C77.4143 31.6376 77.5185 31.6532 77.61 31.7001L79.27 32.51C79.3616 32.5541 79.4364 32.6266 79.4833 32.7167C79.5301 32.8069 79.5465 32.9098 79.53 33.01L79.27 34.84C79.2568 34.9409 79.2119 35.0349 79.1419 35.1086C79.0718 35.1823 78.9801 35.2318 78.88 35.25L77.06 35.56H76.98C76.8923 35.5616 76.8059 35.5391 76.7301 35.4951C76.6543 35.451 76.592 35.387 76.55 35.31M73.11 31.88C73.522 30.8307 74.2902 29.9597 75.28 29.42C75.4357 29.68 75.5185 29.977 75.52 30.28C75.5213 30.5089 75.4772 30.7358 75.3903 30.9475C75.3033 31.1592 75.1752 31.3515 75.0133 31.5134C74.8515 31.6752 74.6591 31.8033 74.4474 31.8903C74.2357 31.9773 74.0089 32.0214 73.78 32.02C73.5468 32.0238 73.3154 31.9795 73.1 31.89M78.48 30.44C78.1565 30.3144 77.878 30.095 77.6802 29.8099C77.4824 29.5247 77.3744 29.187 77.37 28.84H77.58C78.6378 28.8375 79.6659 29.1896 80.5 29.84C80.2789 30.146 79.9637 30.3713 79.6026 30.4814C79.2415 30.5915 78.8543 30.5805 78.5 30.4501M70.87 33.63C70.868 34.9615 71.261 36.2637 71.9993 37.3717C72.7376 38.4798 73.788 39.344 75.0176 39.8549C76.2472 40.3658 77.6007 40.5005 78.9068 40.242C80.213 39.9834 81.4131 39.3432 82.3553 38.4024C83.2975 37.4616 83.9395 36.2624 84.2 34.9567C84.4604 33.6509 84.3278 32.2972 83.8187 31.0669C83.3096 29.8366 82.447 28.7849 81.34 28.0449C80.2331 27.305 78.9315 26.91 77.6 26.91C76.7167 26.9087 75.8418 27.0816 75.0253 27.4187C74.2088 27.7558 73.4668 28.2506 72.8418 28.8747C72.2167 29.4989 71.7208 30.2401 71.3825 31.0561C71.0441 31.8721 70.87 32.7467 70.87 33.63" fill="url(#paint1_linear_12_170)"/>
<path d="M81.081 19.9366L78.3877 21.4916L79.9427 24.1849L82.6361 22.6299L81.081 19.9366Z" fill="url(#paint2_linear_12_170)"/>
<path d="M76.7163 43.2697L74.5586 45.5095L76.7984 47.6672L78.9561 45.4274L76.7163 43.2697Z" fill="url(#paint3_linear_12_170)"/>
<path d="M119.14 180.88C117.628 181.097 116.174 181.61 114.86 182.39C117.004 182.29 119.13 181.954 121.2 181.39C120.728 180.995 120.125 180.792 119.51 180.82H119.15M110.95 180.88C110.558 181.286 110.141 181.667 109.7 182.02C110.465 182.152 111.236 182.242 112.01 182.29C112.102 182.25 112.189 182.199 112.27 182.14C112.684 181.813 113.062 181.445 113.4 181.04C113.66 180.75 113.85 180.43 114.1 180.12C114.35 179.81 114.59 179.55 114.85 179.25C114.12 179.222 113.392 179.354 112.718 179.637C112.044 179.92 111.441 180.348 110.95 180.89M102.2 178.08C101.72 178.08 101.27 178.08 100.81 177.98C101.053 178.26 101.325 178.515 101.62 178.74L100.99 179.26C103.18 179.17 104.81 180.19 106.45 181.2C106.24 179.89 104.38 178.12 102.12 177.79L102.21 178.07M106.61 177.78C106.488 177.887 106.389 178.018 106.318 178.165C106.248 178.311 106.208 178.471 106.2 178.633C106.193 178.795 106.218 178.958 106.275 179.11C106.332 179.262 106.418 179.402 106.53 179.52C106.68 179.71 106.85 179.88 106.97 180.02C107.43 179.64 107.83 179.25 108.28 178.9C108.697 178.627 109.027 178.239 109.229 177.783C109.431 177.327 109.498 176.823 109.42 176.33C109.42 176.1 109.32 175.89 109.26 175.6C108.36 176.4 107.45 177.09 106.61 177.79M125.26 174.15L125.09 174.07C124.62 173.8 122.84 173.4 121.93 174.38C121.3 175.07 120.55 176.82 121.7 177.57C121.821 177.688 121.976 177.765 122.144 177.788C122.311 177.812 122.482 177.781 122.63 177.7C122.994 177.491 123.273 177.163 123.42 176.77C123.448 176.685 123.468 176.598 123.48 176.51C123.426 176.545 123.376 176.585 123.33 176.63C122.96 177.03 122.74 177.14 122.56 177.02C122.44 176.858 122.366 176.667 122.345 176.466C122.324 176.266 122.357 176.063 122.44 175.88C122.99 174.88 124.01 174.57 124.52 174.88C125.03 175.19 125.02 175.67 124.69 176.47C124.381 177.344 123.742 178.062 122.91 178.47C122.245 178.725 121.549 178.89 120.84 178.96C120.401 178.982 119.962 178.931 119.54 178.81C118.967 178.632 118.357 178.604 117.77 178.73C115.841 179.423 114.165 180.681 112.96 182.34H113.64C113.989 181.929 114.381 181.556 114.81 181.23C115.874 180.305 117.23 179.785 118.64 179.76C119.64 179.81 120.46 179.99 121.35 180.03C121.898 180.093 122.452 180.093 123 180.03C123.485 179.897 123.937 179.662 124.324 179.341C124.712 179.021 125.028 178.621 125.25 178.17L124.61 178.03C125.588 177.238 126.268 176.138 126.54 174.91C126.15 175.18 125.79 175.4 125.42 175.62C125.667 175.135 125.881 174.634 126.06 174.12C126.149 173.931 126.195 173.724 126.195 173.515C126.195 173.306 126.149 173.099 126.06 172.91C125.8 173.34 125.56 173.73 125.28 174.18M103.14 171.18C102.7 171.153 102.26 171.153 101.82 171.18C102.797 171.635 103.639 172.334 104.266 173.21C104.893 174.086 105.284 175.109 105.4 176.18C105.741 175.829 106.006 175.412 106.178 174.954C106.35 174.497 106.426 174.008 106.4 173.52C106.316 172.952 106.111 172.409 105.799 171.928C105.486 171.447 105.074 171.038 104.59 170.73C104.59 170.89 104.59 170.98 104.51 171.1C103.94 170.84 103.58 170.28 102.85 170.17L103.18 171.17M113.45 169.33C112.913 169.578 112.484 170.011 112.24 170.55C112.49 170.49 112.71 170.4 112.93 170.37C113.026 170.348 113.125 170.347 113.221 170.366C113.317 170.385 113.409 170.424 113.489 170.481C113.569 170.537 113.636 170.61 113.686 170.694C113.737 170.779 113.768 170.873 113.78 170.97C113.788 171.216 113.743 171.461 113.646 171.687C113.549 171.914 113.404 172.116 113.22 172.28C112.62 172.79 111.99 173.28 111.38 173.7C111.059 173.894 110.797 174.171 110.621 174.502C110.445 174.833 110.362 175.206 110.38 175.58C110.485 176.273 110.841 176.902 111.38 177.35C110.132 178.875 108.713 180.25 107.15 181.45C107.56 181.57 107.98 181.69 108.39 181.78C109.803 180.607 111.139 179.344 112.39 178C112.933 178.28 113.541 178.408 114.151 178.369C114.76 178.33 115.347 178.127 115.85 177.78C116.428 177.305 116.861 176.678 117.1 175.97C117.3 175.47 117.46 174.97 117.63 174.45C117.73 174.132 117.894 173.839 118.113 173.588C118.331 173.336 118.599 173.133 118.9 172.99C119.38 172.8 119.67 173.04 119.72 173.67C119.72 173.75 119.72 173.83 119.72 173.97C119.998 173.605 120.186 173.181 120.27 172.73C120.358 172.471 120.374 172.192 120.316 171.924C120.258 171.656 120.128 171.41 119.94 171.21C119.697 171.024 119.395 170.932 119.089 170.952C118.784 170.972 118.496 171.103 118.28 171.32C117.963 171.574 117.689 171.878 117.47 172.22C117.177 172.68 116.913 173.157 116.68 173.65C116.136 174.387 115.531 175.076 114.87 175.71C115.321 175.016 115.703 174.279 116.01 173.51C116.28 172.86 116.51 172.2 116.72 171.51C116.749 171.405 116.772 171.298 116.79 171.19C116.709 171.259 116.633 171.332 116.56 171.41C115.645 172.465 114.67 173.467 113.64 174.41C113.54 174.5 113.46 174.61 113.37 174.71C113.507 174.066 113.787 173.461 114.19 172.94C114.34 172.79 114.48 172.64 114.61 172.47C115.027 171.979 115.365 171.426 115.61 170.83C115.75 170.574 115.787 170.275 115.715 169.993C115.642 169.711 115.465 169.467 115.22 169.31C114.971 169.135 114.674 169.04 114.37 169.04C114.062 169.05 113.76 169.121 113.48 169.25M107.6 166.25L107.26 165.08C107.037 165.142 106.83 165.255 106.657 165.409C106.483 165.563 106.348 165.755 106.26 165.97C106.074 166.384 105.911 166.808 105.77 167.24L105.16 166.7C104.838 167.026 104.643 167.456 104.612 167.913C104.581 168.37 104.715 168.824 104.99 169.19C105.48 169.93 106.007 170.644 106.57 171.33C107.264 172.03 107.713 172.934 107.85 173.91C107.846 174.4 107.726 174.882 107.501 175.316C107.275 175.751 106.949 176.126 106.55 176.41C105.911 176.937 105.098 177.208 104.27 177.17C104.27 177.17 104.16 177.44 104.15 177.49C104.23 177.87 104.91 177.7 105.25 177.61C107.82 176.96 109.47 175.02 108.7 173.05C108.4 172.27 107.4 171.05 107.02 170.26C106.633 169.669 106.466 168.961 106.55 168.26C106.638 167.787 106.903 167.365 107.292 167.081C107.68 166.796 108.162 166.671 108.64 166.73C108.937 166.77 109.21 166.915 109.41 167.139C109.61 167.363 109.723 167.65 109.73 167.95C109.709 168.178 109.632 168.398 109.504 168.588C109.376 168.779 109.203 168.934 109 169.04C108.895 169.111 108.772 169.15 108.645 169.15C108.518 169.15 108.395 169.111 108.29 169.04C108.208 168.956 108.157 168.847 108.147 168.731C108.136 168.614 108.165 168.497 108.23 168.4C108.236 168.357 108.236 168.313 108.23 168.27C108 168.319 107.792 168.445 107.642 168.626C107.491 168.808 107.406 169.034 107.4 169.27C107.5 170 109.16 170.59 109.92 170.09C110.278 169.824 110.547 169.457 110.694 169.036C110.84 168.615 110.856 168.16 110.74 167.73C110.671 167.375 110.504 167.047 110.259 166.782C110.013 166.517 109.698 166.326 109.35 166.23L109.13 166.13C109.29 165.74 109.41 165.39 109.55 165.02H109.4C108.54 165.02 108.06 165.56 107.57 166.3M119.79 158.45C119.513 158.909 119.365 159.434 119.36 159.97C119.305 160.595 119.305 161.224 119.36 161.85C119.234 161.717 119.068 161.629 118.887 161.6C118.706 161.571 118.521 161.603 118.36 161.69C118.445 161.955 118.512 162.226 118.56 162.5C118.574 162.713 118.574 162.927 118.56 163.14C118.263 163.319 118.012 163.563 117.824 163.854C117.637 164.146 117.519 164.476 117.48 164.82C117.48 164.96 117.48 165.09 117.48 165.22C117.3 164.67 117 164.1 116.85 163.62C116.731 163.225 116.518 162.865 116.23 162.57C116.153 162.513 116.069 162.466 115.98 162.43C115.93 162.57 115.89 162.72 115.83 162.85C115.805 162.936 115.785 163.022 115.77 163.11C115.632 162.955 115.482 162.811 115.32 162.68C115.196 162.6 115.056 162.549 114.91 162.53C114.6 162.46 114.55 162.53 114.55 162.98C114.55 163.13 114.55 163.28 114.55 163.47C114.374 163.396 114.179 163.386 113.996 163.44C113.814 163.495 113.656 163.612 113.55 163.77C113.69 163.9 113.82 163.98 113.85 164.19C113.86 164.451 113.812 164.71 113.71 164.95C113.616 165.243 113.595 165.555 113.649 165.858C113.703 166.162 113.831 166.447 114.02 166.69C114.182 166.791 114.374 166.834 114.563 166.81C114.753 166.786 114.928 166.698 115.06 166.56C115.257 166.292 115.387 165.98 115.439 165.651C115.491 165.323 115.464 164.986 115.36 164.67C115.22 164.45 115.13 164.45 114.86 164.67C114.93 164.82 115.07 164.97 115.05 165.14C115.011 165.366 114.911 165.577 114.76 165.75C114.57 165.95 114.36 165.97 114.21 165.81C114.082 165.619 114.014 165.395 114.014 165.165C114.014 164.935 114.082 164.711 114.21 164.52C114.297 164.355 114.409 164.203 114.54 164.07C114.688 163.935 114.873 163.848 115.07 163.82C115.268 163.791 115.47 163.823 115.65 163.91C115.817 164.04 115.951 164.207 116.043 164.398C116.135 164.589 116.182 164.798 116.18 165.01C116.25 165.92 115.78 167.34 115.82 168.25C115.86 169.16 116.45 169.42 117.15 169.56C117.46 169.62 118.25 169.71 118.42 169.77C119.25 170.07 119.97 170.02 120.42 169.26C120.87 168.5 121.12 166.99 121.61 166.26C121.712 166.072 121.855 165.908 122.028 165.782C122.201 165.656 122.4 165.57 122.61 165.53C122.808 165.535 123 165.598 123.162 165.712C123.324 165.826 123.449 165.985 123.52 166.17C123.578 166.348 123.608 166.533 123.61 166.72C123.627 166.948 123.578 167.177 123.468 167.377C123.358 167.578 123.192 167.742 122.99 167.85C122.77 167.93 122.59 167.85 122.52 167.55C122.457 167.328 122.457 167.092 122.52 166.87C122.58 166.71 122.77 166.65 122.9 166.55C122.75 166.26 122.66 166.22 122.44 166.35C122.206 166.581 122.032 166.866 121.935 167.18C121.837 167.494 121.818 167.827 121.88 168.15C121.928 168.35 122.049 168.524 122.219 168.639C122.39 168.754 122.597 168.801 122.8 168.77C123.069 168.637 123.3 168.439 123.475 168.195C123.649 167.951 123.761 167.667 123.8 167.37C123.823 167.084 123.912 166.806 124.06 166.56C124.18 166.39 124.33 166.38 124.52 166.33C124.52 166.33 124.52 166.33 124.57 166.25C124.46 165.66 124.06 165.76 123.74 165.6C123.82 165.42 123.89 165.29 123.96 165.15C124.17 164.75 124.15 164.66 123.85 164.59C123.709 164.541 123.559 164.524 123.41 164.54C123.205 164.583 123.005 164.643 122.81 164.72C122.81 164.59 122.87 164.53 122.88 164.47C122.89 164.41 122.93 164.17 122.95 164.02H122.84C122.777 164.01 122.713 164.01 122.65 164.02C122.327 164.152 122.021 164.323 121.74 164.53C121.258 164.89 120.845 165.334 120.52 165.84C120.563 165.653 120.62 165.469 120.69 165.29C120.94 164.66 120.89 164.29 120.69 163.97L120.41 163.52C120.41 163.45 120.47 163.38 120.5 163.29C120.63 162.87 120.83 162.54 120.99 162.12C120.913 161.966 120.786 161.842 120.63 161.769C120.474 161.697 120.298 161.679 120.13 161.72C120.33 161.099 120.434 160.452 120.44 159.8C120.454 159.314 120.337 158.834 120.1 158.41C120.09 158.392 120.075 158.378 120.058 158.367C120.04 158.357 120.02 158.351 120 158.35C119.96 158.355 119.922 158.368 119.887 158.389C119.853 158.41 119.823 158.437 119.8 158.47" fill="url(#paint4_linear_12_170)"/>
<path d="M133.48 154.49C133.505 154.534 133.539 154.571 133.581 154.599C133.623 154.626 133.67 154.644 133.72 154.65H133.79C133.895 154.636 133.997 154.602 134.09 154.55C134.42 154.38 134.53 154.2 134.48 153.94C134.289 153.269 133.845 152.698 133.24 152.35C133.061 153.069 133.146 153.829 133.48 154.49ZM131.28 152.49C131.324 152.739 131.303 152.996 131.221 153.235C131.139 153.475 130.998 153.69 130.81 153.86C131.034 153.927 131.272 153.934 131.5 153.882C131.727 153.829 131.938 153.718 132.11 153.56C132.265 153.446 132.388 153.294 132.469 153.119C132.549 152.944 132.584 152.752 132.57 152.56C132.536 152.182 132.41 151.819 132.202 151.501C131.995 151.184 131.712 150.922 131.38 150.74C131.38 151.39 131.26 151.98 131.29 152.52M134.29 152.66C134.83 152.96 135.61 152.66 136.04 151.73C135.33 151.93 135.04 151.48 134.7 151.11C134.34 150.805 133.955 150.531 133.55 150.29C133.44 150.716 133.451 151.165 133.582 151.585C133.713 152.006 133.958 152.381 134.29 152.67M129.55 151.8C129.505 152.067 129.38 152.314 129.19 152.507C129 152.7 128.756 152.83 128.49 152.88C128.624 153.058 128.807 153.192 129.017 153.267C129.227 153.341 129.454 153.353 129.67 153.3C129.884 153.269 130.086 153.187 130.261 153.06C130.435 152.932 130.576 152.764 130.67 152.57C130.937 152.035 131.028 151.43 130.93 150.84C130.903 150.545 130.836 150.256 130.73 149.98C130.186 150.473 129.788 151.106 129.58 151.81M133.58 148.67C133.892 149.271 134.246 149.849 134.64 150.4C134.772 150.604 134.973 150.753 135.207 150.819C135.441 150.886 135.691 150.864 135.91 150.76C136.142 150.654 136.342 150.488 136.49 150.28C136.44 150.02 136.38 149.77 136.32 149.5C135.972 149.508 135.634 149.379 135.38 149.14C134.958 148.817 134.441 148.645 133.91 148.65H133.57M129.06 147.25C128.26 147.863 127.627 148.668 127.22 149.59C127.022 149.967 126.949 150.396 127.012 150.817C127.075 151.238 127.27 151.628 127.57 151.93C128.33 151.24 128.89 150.55 128.67 149.67L130.34 149.56C130.045 149.107 129.878 148.582 129.857 148.042C129.836 147.501 129.961 146.965 130.22 146.49L130.11 146.41C129.77 146.7 129.4 146.96 129.05 147.25M121.96 149.31H122.4C122.15 149.95 121.89 150.57 121.6 151.17C122.105 150.972 122.588 150.72 123.04 150.42C123.19 150.81 123.32 151.17 123.46 151.53C124.39 148.53 126.56 146.75 128.74 145C128.57 144.985 128.4 144.985 128.23 145C126.23 145 123.36 146.66 121.97 149.34M132.06 145.25C132.06 145.25 131.99 145.33 131.91 145.44C133.07 145.65 133.5 146.66 133.72 147.84C134.39 147.68 134.72 147.1 134.99 146.58C135.231 146.827 135.485 147.06 135.75 147.28C135.517 146.433 135.253 145.563 134.96 144.67H134.5C133.657 144.701 132.83 144.906 132.07 145.27M131.92 143.36C132.665 143.05 133.434 142.803 134.22 142.62L134.07 142.23L133.66 141.23C132.929 141.806 132.334 142.537 131.92 143.37M113.67 142.48L114.15 142.76C113.52 143.42 112.58 143.64 112.07 144.58H113.61C113.356 145.167 113.135 145.768 112.95 146.38C115.84 143.6 118.54 143.38 121.62 143.88C121.52 143.03 119.62 141.56 118.39 141.29C118.026 141.205 117.654 141.162 117.28 141.16C115.978 141.221 114.724 141.67 113.68 142.45M125.68 142.6C125.772 142.82 125.908 143.019 126.078 143.185C126.249 143.352 126.451 143.483 126.672 143.571C126.894 143.658 127.131 143.7 127.369 143.695C127.608 143.69 127.842 143.637 128.06 143.54C128.4 143.42 128.72 143.27 128.95 143.18C128.64 142.36 128.29 141.64 128.02 140.86C127.84 140.156 127.461 139.519 126.929 139.025C126.398 138.53 125.735 138.199 125.02 138.07C124.69 138.01 124.35 138 123.93 137.94C124.62 139.55 125.14 141.11 125.7 142.6M129.89 139.87C130.276 140.571 130.61 141.3 130.89 142.05C131.467 141.721 131.919 141.209 132.174 140.596C132.429 139.982 132.474 139.301 132.3 138.66C132.037 137.941 131.702 137.251 131.3 136.6C131.02 136.11 130.67 135.68 130.36 135.2C130.05 134.72 129.8 134.25 129.5 133.76C129.114 134.746 128.951 135.805 129.022 136.861C129.093 137.917 129.396 138.945 129.91 139.87M115.45 137.87C115.764 137.834 116.066 137.728 116.334 137.561C116.602 137.394 116.83 137.169 117 136.903C117.17 136.636 117.279 136.336 117.319 136.022C117.359 135.709 117.328 135.39 117.23 135.09C116.655 134.098 115.804 133.295 114.78 132.78C116.18 134.38 116.78 136.11 115.45 137.86M109.81 135.97L108.11 135.7C108.055 136.024 108.076 136.357 108.169 136.672C108.263 136.988 108.427 137.278 108.65 137.52C109.071 138.001 109.518 138.459 109.99 138.89L108.94 139.34C109.169 139.945 109.605 140.449 110.171 140.762C110.737 141.075 111.396 141.177 112.03 141.05C113.272 140.871 114.503 140.627 115.72 140.32C117.033 139.859 118.46 139.831 119.79 140.24C120.381 140.553 120.893 140.997 121.286 141.537C121.68 142.078 121.944 142.701 122.06 143.36C122.35 144.483 122.211 145.674 121.67 146.7C121.67 146.7 121.91 146.98 122.01 147.04C122.17 146.57 122.65 145.85 122.75 145.37C122.938 144.635 122.96 143.868 122.814 143.123C122.668 142.379 122.359 141.676 121.908 141.066C121.457 140.456 120.876 139.955 120.207 139.597C119.538 139.24 118.798 139.036 118.04 139C116.849 138.963 115.658 138.99 114.47 139.08C113.489 139.208 112.494 138.996 111.65 138.48C111.095 138.093 110.711 137.507 110.577 136.844C110.443 136.181 110.569 135.492 110.93 134.92C111.163 134.571 111.51 134.315 111.912 134.196C112.314 134.077 112.745 134.104 113.13 134.27C113.419 134.425 113.663 134.652 113.838 134.928C114.013 135.205 114.114 135.523 114.13 135.85C114.151 136.026 114.117 136.204 114.033 136.359C113.948 136.515 113.818 136.641 113.66 136.72C113.503 136.776 113.331 136.776 113.174 136.719C113.018 136.662 112.885 136.553 112.8 136.41C112.756 136.37 112.709 136.333 112.66 136.3C112.583 136.62 112.617 136.957 112.757 137.255C112.897 137.553 113.134 137.795 113.43 137.94C114.43 138.25 115.43 136.94 115.24 135.72C115.204 135.18 115.028 134.658 114.728 134.207C114.428 133.756 114.015 133.392 113.53 133.15C113.069 132.898 112.537 132.811 112.02 132.904C111.503 132.997 111.034 133.264 110.69 133.66L110.43 133.89C110.01 133.46 109.65 133.09 109.26 132.69C108.61 133.86 109.02 134.84 109.71 135.96M116.48 127.5C116.13 127.773 115.86 128.135 115.7 128.549C115.539 128.963 115.495 129.413 115.57 129.85C115.662 130.707 116.06 131.502 116.69 132.09C116.69 131.73 116.69 131.37 116.76 131.09C116.772 130.947 116.815 130.809 116.885 130.684C116.955 130.559 117.051 130.451 117.167 130.367C117.283 130.282 117.415 130.224 117.555 130.195C117.696 130.166 117.84 130.168 117.98 130.2C118.323 130.308 118.638 130.489 118.904 130.731C119.17 130.972 119.38 131.269 119.52 131.6C119.94 132.65 120.27 133.73 120.62 134.8C120.737 135.333 120.997 135.825 121.372 136.221C121.747 136.618 122.224 136.904 122.75 137.05C123.575 137.23 124.437 137.121 125.19 136.74C124.85 136.53 124.58 136.36 124.3 136.2C123.413 135.61 122.742 134.746 122.39 133.74C121.879 132.402 121.267 131.105 120.56 129.86C120.075 129.052 119.464 128.326 118.75 127.71C118.4 127.377 117.942 127.182 117.46 127.16C117.096 127.169 116.746 127.295 116.46 127.52M119.95 126.66C120.998 128.42 121.943 130.24 122.78 132.11C123.249 133.008 123.794 133.865 124.41 134.67C124.679 134.932 125.034 135.089 125.41 135.11C125.528 135.121 125.641 135.162 125.738 135.231C125.834 135.299 125.911 135.392 125.96 135.5C127.813 138.948 129.368 142.548 130.61 146.26C130.651 146.394 130.651 146.536 130.61 146.67C130.387 147.07 130.299 147.532 130.36 147.987C130.421 148.441 130.628 148.863 130.95 149.19C131.39 149.74 132.19 150.86 132.51 150.84C132.592 150.176 132.636 149.509 132.64 148.84C132.659 148.247 132.592 147.654 132.44 147.08C132.34 146.75 131.97 146.55 131.72 146.29C131.47 146.03 131.28 145.96 131.2 145.73C129.898 142.103 128.309 138.585 126.45 135.21C126.352 135.074 126.29 134.916 126.269 134.75C126.248 134.584 126.269 134.416 126.33 134.26C126.409 133.937 126.419 133.601 126.36 133.274C126.302 132.947 126.176 132.636 125.99 132.36C125.078 130.845 123.918 129.493 122.56 128.36C121.79 127.68 120.99 127.07 120.17 126.45C120.07 126.37 119.96 126.32 119.77 126.2C119.86 126.41 119.9 126.52 119.96 126.62M121.24 121.9C120.47 122.3 120.13 123.38 120.84 124.76C121.019 125.112 121.23 125.447 121.47 125.76C122.392 126.879 123.394 127.928 124.47 128.9C125.1 129.51 125.7 130.17 126.3 130.84C127.216 131.914 127.685 133.3 127.61 134.71C128.054 134.14 128.352 133.471 128.479 132.76C128.606 132.049 128.558 131.318 128.34 130.63C127.958 129.611 127.296 128.72 126.43 128.06C125.83 127.54 125.21 127.06 124.59 126.61C124.198 126.325 123.87 125.962 123.626 125.544C123.381 125.125 123.226 124.661 123.17 124.18C123.17 123.43 123.6 123.18 124.49 123.4L124.87 123.51C124.518 122.949 124.025 122.49 123.44 122.18C123.016 121.894 122.521 121.732 122.01 121.71C121.721 121.71 121.437 121.779 121.18 121.91M109.07 121.16C108.953 121.203 108.843 121.26 108.74 121.33C108.918 121.584 109.119 121.822 109.34 122.04C109.073 122.08 108.808 122.141 108.55 122.22C108.375 122.297 108.219 122.409 108.09 122.55C107.79 122.83 107.84 122.94 108.32 123.26L108.86 123.63C108.645 123.765 108.486 123.972 108.413 124.215C108.339 124.458 108.356 124.719 108.46 124.95C108.675 124.862 108.915 124.862 109.13 124.95C109.416 125.127 109.661 125.362 109.85 125.64C110.032 125.913 110.294 126.125 110.599 126.246C110.904 126.368 111.24 126.394 111.56 126.32C111.808 126.221 112.011 126.033 112.127 125.792C112.244 125.552 112.266 125.276 112.19 125.02C112.114 124.67 111.939 124.349 111.685 124.095C111.431 123.841 111.11 123.666 110.76 123.59C110.43 123.59 110.35 123.69 110.37 124.1C110.59 124.1 110.84 124.1 111.01 124.22C111.228 124.424 111.386 124.683 111.47 124.97C111.56 125.32 111.47 125.55 111.14 125.6C110.842 125.607 110.549 125.527 110.296 125.368C110.044 125.21 109.843 124.981 109.72 124.71C109.602 124.497 109.518 124.268 109.47 124.03C109.428 123.776 109.465 123.515 109.576 123.283C109.687 123.05 109.866 122.857 110.09 122.73C110.35 122.643 110.626 122.616 110.898 122.65C111.17 122.685 111.43 122.781 111.66 122.93C112.66 123.51 113.93 125.03 114.95 125.63C115.347 125.866 115.821 125.939 116.27 125.833C116.72 125.726 117.111 125.449 117.36 125.06C117.36 125.06 117.42 125.06 117.44 124.98C117.437 124.923 117.437 124.867 117.44 124.81C116 125.24 114.51 124.22 112.97 123.16C112.14 122.58 111.29 122.01 110.44 121.48C110.128 121.27 109.765 121.149 109.39 121.13C109.287 121.118 109.183 121.118 109.08 121.13M107.52 119.81C107.52 120.54 108.61 120.64 108.88 120.54C109.15 120.44 109.42 120.16 109.75 120.04C110.082 119.992 110.418 119.992 110.75 120.04C110.009 119.518 109.156 119.176 108.26 119.04C108.164 119.027 108.066 119.036 107.973 119.067C107.881 119.098 107.797 119.15 107.729 119.219C107.66 119.287 107.608 119.371 107.577 119.463C107.546 119.556 107.537 119.654 107.55 119.75M111.08 115.17C111.008 115.245 110.963 115.341 110.95 115.443C110.938 115.546 110.959 115.65 111.01 115.74C111.311 116.251 111.756 116.662 112.29 116.92C113.348 117.426 114.265 118.185 114.96 119.13L115.31 119.65C114.71 119.06 114.01 118.51 113.38 117.96C112.876 117.457 112.202 117.161 111.49 117.13C111.412 117.138 111.34 117.175 111.29 117.235C111.239 117.295 111.214 117.372 111.22 117.45C111.353 118.158 111.703 118.808 112.22 119.31C112.71 119.9 113.22 120.59 113.73 121.23L113.39 120.95C112.561 120.28 111.851 119.476 111.29 118.57C111 118.11 109.74 116.57 109.2 117.34C109 117.62 109.31 118.18 109.89 118.62C110.47 119.06 110.94 119.35 111.46 119.72C111.46 120.35 111.71 120.72 112.46 121.31C112.9 121.62 113.34 121.86 113.77 122.16C113.918 122.257 114.041 122.387 114.13 122.54C114.217 122.795 114.357 123.029 114.542 123.226C114.726 123.422 114.951 123.577 115.2 123.68C115.607 123.852 116.049 123.927 116.49 123.9C116.65 123.889 116.805 123.843 116.945 123.765C117.085 123.688 117.206 123.58 117.3 123.45C117.493 123.094 117.593 122.695 117.593 122.29C117.593 121.885 117.493 121.486 117.3 121.13C117.115 120.819 116.878 120.542 116.6 120.31C116.404 120.159 116.246 119.964 116.14 119.74C115.883 119.186 115.575 118.657 115.22 118.16C114.7 117.44 114.22 117.16 113.75 117.26C113.343 116.734 112.909 116.23 112.45 115.75C112.134 115.396 111.708 115.16 111.24 115.08C111.163 115.075 111.088 115.1 111.03 115.15M116.67 114.24C116.51 114.36 116.23 114.59 116.08 115.46C115.872 115.231 115.648 115.017 115.41 114.82C115.332 114.917 115.268 115.025 115.22 115.14C115.163 115.373 115.153 115.615 115.191 115.852C115.228 116.089 115.313 116.316 115.44 116.52C115.91 117.41 116.44 118.29 116.95 119.16C117.95 120.77 118.83 122.31 118.31 123.73H118.48C118.48 123.73 118.54 123.67 118.56 123.66C118.966 123.437 119.269 123.066 119.406 122.623C119.542 122.181 119.5 121.702 119.29 121.29C118.75 120.24 117.29 118.92 116.8 117.84C116.664 117.602 116.584 117.335 116.567 117.062C116.55 116.788 116.595 116.514 116.7 116.26C116.844 116.047 117.049 115.883 117.288 115.789C117.527 115.694 117.789 115.674 118.04 115.73C118.273 115.798 118.495 115.899 118.7 116.03C118.964 116.171 119.181 116.386 119.323 116.649C119.466 116.913 119.527 117.212 119.5 117.51C119.44 117.8 119.19 117.92 118.85 117.8C118.569 117.697 118.321 117.521 118.13 117.29C118 117.11 118.07 116.86 118.05 116.64C117.63 116.64 117.52 116.64 117.51 116.99C117.562 117.346 117.717 117.679 117.955 117.948C118.193 118.218 118.504 118.413 118.85 118.51C119.102 118.603 119.379 118.598 119.627 118.496C119.875 118.394 120.076 118.203 120.19 117.96C120.285 117.645 120.282 117.308 120.18 116.996C120.078 116.683 119.882 116.408 119.62 116.21C119.393 116.031 119.203 115.811 119.06 115.56C118.998 115.336 119.023 115.096 119.13 114.89C119.13 114.89 119.13 114.83 119.13 114.78C118.41 114.48 118.22 114.98 117.82 115.21L117.48 114.65C117.31 114.35 117.21 114.22 117.08 114.22C116.969 114.241 116.867 114.297 116.79 114.38M112.25 113.77C112.542 114.71 113.033 115.577 113.69 116.31C113.56 116.094 113.498 115.843 113.514 115.591C113.531 115.339 113.623 115.098 113.78 114.9C113.822 114.722 113.817 114.537 113.766 114.362C113.715 114.187 113.62 114.028 113.49 113.9C113.308 113.665 113.075 113.474 112.81 113.34C112.747 113.331 112.683 113.331 112.62 113.34C112.33 113.34 112.22 113.59 112.26 113.85M105.85 111.37C105.78 111.37 105.72 111.37 105.71 111.49C105.746 112.012 105.926 112.514 106.23 112.94C106.614 113.526 107.086 114.049 107.63 114.49C107.457 114.554 107.312 114.675 107.217 114.834C107.123 114.992 107.085 115.177 107.11 115.36C107.49 115.64 107.87 115.82 108.23 116.13C108.99 116.75 109.38 116.42 109.44 116.13C109.44 116.03 109.34 115.85 109.16 115.64C109.3 115.784 109.489 115.869 109.69 115.88C110.02 115.81 110.25 115.65 110 115.13C109.87 114.86 109.62 114.56 109.49 114.28C109.371 114.003 109.268 113.719 109.18 113.43C108.981 113.442 108.791 113.521 108.644 113.656C108.496 113.791 108.399 113.972 108.37 114.17C108.054 113.572 107.686 113.003 107.27 112.47C106.949 111.994 106.507 111.611 105.99 111.36H105.9L105.85 111.37Z" fill="url(#paint5_linear_12_170)"/>
<path d="M138.73 236.79C138.73 232.44 135.73 229.79 130.3 229.79C128.06 229.731 125.834 230.165 123.78 231.06C122.978 232.374 122.439 233.831 122.19 235.35C124.401 234.401 126.784 233.914 129.19 233.92C131.57 233.92 133.48 234.92 133.48 237.73C133.48 240.73 131.6 242.94 121.39 248.85C121.392 250.024 121.499 251.195 121.71 252.35H138.57C139.055 251.015 139.391 249.629 139.57 248.22H125.17C132.34 245.77 138.73 243.22 138.73 236.78M181.73 236.78C181.73 232.43 178.73 229.78 173.29 229.78C171.05 229.722 168.825 230.156 166.77 231.05C165.971 232.366 165.432 233.822 165.18 235.34C167.392 234.391 169.774 233.905 172.18 233.91C174.57 233.91 176.48 234.91 176.48 237.72C176.48 240.72 174.6 242.93 164.39 248.84C164.393 250.014 164.5 251.185 164.71 252.34H181.58C182.063 251.004 182.398 249.619 182.58 248.21H168.13C175.3 245.76 181.69 243.21 181.69 236.77M152.48 238.44C151.383 239.225 150.404 240.16 149.57 241.22C150.405 242.279 151.384 243.215 152.48 244C153.574 243.213 154.553 242.277 155.39 241.22C154.554 240.162 153.575 239.227 152.48 238.44ZM152.41 229.77C146.05 229.77 141.27 233.58 141.27 239.77C141.27 247.87 149.07 252.64 152.41 252.64C155.75 252.64 163.55 247.87 163.55 239.77C163.55 233.57 158.78 229.77 152.41 229.77ZM152.41 250.77C150.98 250.77 146.52 247.88 146.52 240.13C146.52 236.31 148.75 233.93 152.41 233.93C156.07 233.93 158.3 236.31 158.3 240.13C158.3 247.88 153.84 250.77 152.41 250.77ZM33.2801 252.68L24.9001 248.22C29.6401 246.5 33.1201 243.1 33.1201 238.29C33.1201 231.81 28.2501 228.53 21.9801 228.53C16.2201 228.53 10.6801 232.22 10.6801 239.34C10.6801 245.34 15.2601 248.94 20.2901 251.58L36.4501 260C36.4501 256.28 36.0101 254.15 33.2701 252.69M23.5101 247.49L23.2501 247.35C20.2001 245.73 16.0901 243.25 16.0901 238.74C16.0901 234.61 18.7701 232.67 21.9801 232.67C25.5401 232.67 27.7101 235.18 27.7101 239.57C27.7101 242.57 26.0401 245.26 23.5201 247.5M201.42 236.81C201.42 232.46 198.42 229.81 192.99 229.81C190.75 229.752 188.525 230.186 186.47 231.08C185.67 232.395 185.13 233.851 184.88 235.37C187.091 234.421 189.474 233.934 191.88 233.94C194.27 233.94 196.18 234.94 196.18 237.75C196.18 240.75 194.3 242.96 184.09 248.87C184.093 250.044 184.2 251.215 184.41 252.37H201.27C201.755 251.035 202.091 249.649 202.27 248.24H187.86C195.03 245.79 201.42 243.24 201.42 236.8M35.5101 244.9C35.5101 250.18 37.4201 252.69 39.9601 252.69C43.0801 252.69 45.5701 249.93 47.9601 244.05V252.37H53.05V234.89C50.76 234.7 48.6601 234.57 46.3701 234.57C40.0701 234.57 35.55 237.18 35.55 244.9M42.7101 248.24C41.3701 248.24 40.8 246.46 40.8 241.56C40.8 239.02 42.0401 238.38 45.5701 238.38H47.9501C46.8201 241.84 45.3101 248.21 42.7001 248.21M112.83 242.93V241.22C112.828 239.091 112.667 236.965 112.35 234.86H107.42C107.58 237.08 107.74 238.99 107.74 241.22V252.34H112.83C112.83 246.11 114.83 239.02 120.15 239.79C120.127 238.03 119.966 236.275 119.67 234.54C115.79 234.88 113.89 238.29 112.83 242.93ZM86.0601 244.9C86.0455 246.023 86.163 247.144 86.4101 248.24H67.7401C65.2601 248.24 63.67 247.67 63.67 245.38V239.02H69.55C70.0315 237.684 70.3668 236.299 70.55 234.89H63.7101C63.7101 232.89 63.8801 231.18 64.0201 229.17C61.961 229.787 60.0971 230.928 58.61 232.48V234.9H55.61C55.4309 236.27 55.3241 237.649 55.2901 239.03H58.6301V245.71C58.6301 250.38 61.4601 252.39 65.3401 252.39H90.7301C93.8401 252.39 96.2301 249.84 98.5301 244.08V252.39H103.62V234.89C101.33 234.7 99.2301 234.57 96.9401 234.57C90.6401 234.57 86.1201 237.18 86.1201 244.9M93.2801 248.24C91.9401 248.24 91.3701 246.46 91.3701 241.56C91.3701 239.02 92.61 238.38 96.14 238.38H98.5201C97.3901 241.84 95.8801 248.21 93.2801 248.21" fill="#F7F7F7"/>
<path d="M182.16 222.31C181.44 222.49 180.647 222.66 179.78 222.82C178.716 222.997 177.638 223.077 176.56 223.06C175.267 223.057 173.979 222.886 172.73 222.55C171.476 222.224 170.296 221.664 169.25 220.9C168.185 220.107 167.316 219.081 166.71 217.9C166.008 216.499 165.664 214.946 165.71 213.38C165.678 211.903 165.954 210.435 166.52 209.07C167.028 207.884 167.801 206.83 168.78 205.99C169.786 205.151 170.953 204.528 172.21 204.16C173.608 203.743 175.061 203.537 176.52 203.55C177.474 203.546 178.425 203.64 179.36 203.83C180.28 204.017 181.2 204.247 182.12 204.52L181.72 208.6C180.957 208.169 180.145 207.833 179.3 207.6C178.484 207.384 177.644 207.276 176.8 207.28C175.967 207.266 175.14 207.423 174.37 207.74C173.672 208.031 173.042 208.463 172.52 209.01C171.997 209.566 171.592 210.223 171.33 210.94C171.044 211.721 170.902 212.548 170.91 213.38C170.895 214.233 171.055 215.081 171.38 215.87C171.676 216.582 172.119 217.222 172.68 217.75C173.257 218.276 173.939 218.674 174.68 218.92C175.498 219.195 176.357 219.33 177.22 219.32C178.048 219.322 178.874 219.228 179.68 219.04C180.443 218.866 181.192 218.636 181.92 218.35L182.16 222.31Z" fill="#F7F7F7"/>
<path d="M200.27 215.56C200.296 216.706 200.092 217.845 199.67 218.91C199.303 219.809 198.723 220.605 197.98 221.23C197.211 221.862 196.319 222.325 195.36 222.59C193.156 223.181 190.834 223.181 188.63 222.59C187.671 222.325 186.779 221.861 186.01 221.23C185.267 220.605 184.687 219.809 184.32 218.91C183.898 217.845 183.694 216.706 183.72 215.56V203.9H188.72V214.76C188.717 215.353 188.767 215.946 188.87 216.53C188.955 217.042 189.127 217.536 189.38 217.99C189.618 218.407 189.963 218.752 190.38 218.99C190.877 219.231 191.423 219.356 191.975 219.356C192.527 219.356 193.073 219.231 193.57 218.99C193.987 218.752 194.332 218.407 194.57 217.99C194.812 217.544 194.977 217.061 195.06 216.56C195.161 215.975 195.211 215.383 195.21 214.79V203.9H200.21L200.27 215.56Z" fill="#F7F7F7"/>
<path d="M202.78 203.9H208.78C211.68 203.9 213.817 204.4 215.19 205.4C215.829 205.976 216.341 206.679 216.694 207.463C217.047 208.248 217.233 209.097 217.241 209.957C217.248 210.818 217.077 211.67 216.738 212.461C216.399 213.251 215.899 213.963 215.27 214.55C213.673 215.711 211.721 216.28 209.75 216.16H207.81V222.75H202.81L202.78 203.9ZM207.78 212.6H209.06C209.47 212.602 209.879 212.562 210.28 212.48C210.64 212.41 210.981 212.263 211.28 212.05C211.563 211.838 211.789 211.56 211.94 211.24C212.112 210.853 212.194 210.433 212.18 210.01C212.194 209.594 212.112 209.179 211.94 208.8C211.789 208.486 211.562 208.215 211.28 208.01C210.98 207.801 210.639 207.658 210.28 207.59C209.879 207.506 209.47 207.466 209.06 207.47H207.76L207.78 212.6Z" fill="#F7F7F7"/>
<path d="M60.86 203.9H66L68.43 218.37H68.49L71.03 203.9H77.41L80.06 218.37H80.11L82.57 203.9H87.47L83.25 222.75H76.79L74.11 208.27H74.06L71.57 222.75H65.05L60.86 203.9Z" fill="#F7F7F7"/>
<path d="M87.6499 213.32C87.6306 211.936 87.8367 210.558 88.2599 209.24C88.6272 208.1 89.2418 207.055 90.0599 206.18C90.8988 205.315 91.9252 204.655 93.0599 204.25C95.7154 203.348 98.5945 203.348 101.25 204.25C102.385 204.654 103.412 205.315 104.25 206.18C105.067 207.056 105.681 208.101 106.05 209.24C106.858 211.89 106.858 214.72 106.05 217.37C105.679 218.517 105.061 219.568 104.24 220.45C103.402 221.318 102.375 221.982 101.24 222.39C98.5981 223.292 95.7317 223.292 93.0899 222.39C91.9565 221.978 90.9309 221.315 90.0899 220.45C89.2665 219.57 88.6484 218.518 88.2799 217.37C87.8585 216.062 87.6524 214.694 87.6699 213.32M92.8599 213.32C92.8441 214.072 92.9111 214.823 93.0599 215.56C93.1998 216.241 93.4533 216.893 93.8099 217.49C94.14 218.036 94.596 218.496 95.1399 218.83C95.7347 219.161 96.4042 219.335 97.0849 219.335C97.7656 219.335 98.4351 219.161 99.0299 218.83C99.5702 218.495 100.023 218.035 100.35 217.49C100.709 216.894 100.966 216.241 101.11 215.56C101.272 214.818 101.352 214.06 101.35 213.3C101.354 212.524 101.274 211.749 101.11 210.99C100.967 210.311 100.71 209.662 100.35 209.07C100.021 208.534 99.5684 208.085 99.0299 207.76C98.4306 207.443 97.7629 207.277 97.0849 207.277C96.4069 207.277 95.7392 207.443 95.1399 207.76C94.5978 208.084 94.1416 208.533 93.8099 209.07C93.4521 209.662 93.1984 210.312 93.0599 210.99C92.8945 211.749 92.814 212.523 92.8199 213.3" fill="#F7F7F7"/>
<path d="M108.47 203.9H117.47C118.262 203.896 119.051 203.99 119.82 204.18C120.518 204.351 121.179 204.65 121.77 205.06C122.312 205.452 122.754 205.966 123.06 206.56C123.388 207.214 123.549 207.939 123.53 208.67C123.578 209.776 123.266 210.867 122.64 211.78C121.961 212.643 120.99 213.23 119.91 213.43V213.48C120.283 213.558 120.628 213.734 120.91 213.99C121.167 214.246 121.38 214.544 121.54 214.87C121.737 215.263 121.904 215.671 122.04 216.09C122.2 216.55 122.39 217.09 122.63 217.64L124.47 222.77H119.23L118.15 219.37C117.897 218.557 117.657 217.89 117.43 217.37C117.248 216.924 117.002 216.506 116.7 216.13C116.467 215.84 116.159 215.619 115.81 215.49C115.423 215.362 115.017 215.301 114.61 215.31H113.56V222.76H108.56L108.47 203.9ZM113.47 211.73H114.79C115.19 211.73 115.61 211.73 116.05 211.73C116.458 211.712 116.86 211.628 117.24 211.48C117.584 211.341 117.886 211.118 118.12 210.83C118.376 210.469 118.5 210.031 118.47 209.59C118.486 209.212 118.377 208.84 118.16 208.53C117.953 208.247 117.673 208.026 117.35 207.89C116.976 207.736 116.582 207.635 116.18 207.59C115.719 207.534 115.255 207.507 114.79 207.51H113.47V211.73Z" fill="#F7F7F7"/>
<path d="M126.58 203.9H131.61V219.02H139.4V222.75H126.58V203.9Z" fill="#F7F7F7"/>
<path d="M141.15 203.9H148.06C149.577 203.888 151.092 204.032 152.58 204.33C153.849 204.575 155.053 205.086 156.11 205.83C157.117 206.571 157.91 207.564 158.41 208.71C159.007 210.147 159.29 211.695 159.24 213.25C159.287 214.78 159 216.302 158.4 217.71C157.884 218.865 157.086 219.873 156.08 220.64C155.024 221.417 153.819 221.969 152.54 222.26C151.079 222.604 149.581 222.772 148.08 222.76H141.21L141.15 203.9ZM146.15 219.02H148.1C149.681 219.128 151.242 218.615 152.45 217.59C153.439 216.389 153.98 214.881 153.98 213.325C153.98 211.769 153.439 210.261 152.45 209.06C151.248 208.045 149.7 207.533 148.13 207.63H146.18L146.15 219.02Z" fill="#F7F7F7"/>
<path fill-rule="evenodd" clip-rule="evenodd" d="M0 203.9V222.75H5.87V215.94H10.1L11.61 211.82H5.87V208H12.99L14.49 203.9H0Z" fill="#F7F7F7"/>
<path d="M22.16 203.9H16.29V222.75H22.16V203.9Z" fill="#F7F7F7"/>
<path fill-rule="evenodd" clip-rule="evenodd" d="M26.2 203.9V222.75H32.08V215.94H36.2999L37.81 211.82H32.08V208H39.1899L40.6899 203.9H26.2Z" fill="#F7F7F7"/>
<path fill-rule="evenodd" clip-rule="evenodd" d="M57.51 222.75H51.58L50.81 220.22H44.17L43.43 222.75H37.65L44.52 203.9H50.63L57.51 222.75ZM49.84 216.56L47.49 208.71L45.22 216.56H49.84Z" fill="#F7F7F7"/>
</g>
<defs>
<linearGradient id="paint0_linear_12_170" x1="114.449" y1="170.623" x2="92.211" y2="79.0882" gradientUnits="userSpaceOnUse">
<stop stop-color="#FAF6F2"/>
<stop offset="0.51" stop-color="#FFFBF7"/>
<stop offset="0.68" stop-color="#FFFBF7"/>
<stop offset="0.9" stop-color="#EBE7E3"/>
<stop offset="1" stop-color="#CCC9C6"/>
</linearGradient>
<linearGradient id="paint1_linear_12_170" x1="87.2896" y1="16.7626" x2="72.2885" y2="42.6958" gradientUnits="userSpaceOnUse">
<stop stop-color="#791426"/>
<stop offset="0.53" stop-color="#AF1C3B"/>
<stop offset="1" stop-color="#791426"/>
</linearGradient>
<linearGradient id="paint2_linear_12_170" x1="85.2141" y1="22.3832" x2="70.2019" y2="48.3195" gradientUnits="userSpaceOnUse">
<stop stop-color="#791426"/>
<stop offset="0.53" stop-color="#AF1C3B"/>
<stop offset="1" stop-color="#791426"/>
</linearGradient>
<linearGradient id="paint3_linear_12_170" x1="92.4492" y1="23.3836" x2="77.4465" y2="49.3171" gradientUnits="userSpaceOnUse">
<stop stop-color="#791426"/>
<stop offset="0.53" stop-color="#AF1C3B"/>
<stop offset="1" stop-color="#791426"/>
</linearGradient>
<linearGradient id="paint4_linear_12_170" x1="88.2041" y1="227.724" x2="144.825" y2="93.1088" gradientUnits="userSpaceOnUse">
<stop stop-color="#791426"/>
<stop offset="0.53" stop-color="#AF1C3B"/>
<stop offset="1" stop-color="#791426"/>
</linearGradient>
<linearGradient id="paint5_linear_12_170" x1="86.3683" y1="68.7379" x2="152.372" y2="216.626" gradientUnits="userSpaceOnUse">
<stop stop-color="#791426"/>
<stop offset="0.53" stop-color="#AF1C3B"/>
<stop offset="1" stop-color="#791426"/>
</linearGradient>
<clipPath id="clip0_12_170">
<rect width="217.25" height="260" fill="white"/>
</clipPath>
</defs>
</svg>
