<svg width="25" height="24" viewBox="0 0 25 24" fill="none" xmlns="http://www.w3.org/2000/svg">
<path d="M11.7929 14.2929C11.4024 14.6834 11.4024 15.3166 11.7929 15.7071C12.1834 16.0976 12.8166 16.0976 13.2071 15.7071L11.7929 14.2929ZM15.5 12L16.2071 12.7071C16.5976 12.3166 16.5976 11.6834 16.2071 11.2929L15.5 12ZM13.2071 8.29289C12.8166 7.90237 12.1834 7.90237 11.7929 8.29289C11.4024 8.68342 11.4024 9.31658 11.7929 9.70711L13.2071 8.29289ZM4.5 11C3.94772 11 3.5 11.4477 3.5 12C3.5 12.5523 3.94772 13 4.5 13L4.5 11ZM10.7344 19.8478L10.3517 20.7717L10.7344 19.8478ZM10.5 17C10.5 16.4477 10.0523 16 9.5 16C8.94772 16 8.5 16.4477 8.5 17H10.5ZM9.65224 18.7654L8.72836 19.1481L9.65224 18.7654ZM20.2822 18.908L19.3912 18.454L20.2822 18.908ZM19.4078 19.782L18.9538 18.891L19.4078 19.782ZM19.4078 4.21799L19.8618 3.32698V3.32698L19.4078 4.21799ZM20.2822 5.09204L19.3912 5.54603V5.54603L20.2822 5.09204ZM8.5 6.99999C8.5 7.55227 8.94772 7.99999 9.5 7.99999C10.0523 7.99999 10.5 7.55227 10.5 6.99999H8.5ZM13.2071 15.7071L16.2071 12.7071L14.7929 11.2929L11.7929 14.2929L13.2071 15.7071ZM16.2071 11.2929L13.2071 8.29289L11.7929 9.70711L14.7929 12.7071L16.2071 11.2929ZM15.5 11L4.5 11L4.5 13L15.5 13V11ZM12.5 5H17.3V3H12.5V5ZM19.5 7.19995V16.8H21.5V7.19995H19.5ZM17.3 19H12.5V21H17.3V19ZM12.5 19C12.0204 19 11.7107 18.9995 11.4736 18.9833C11.2455 18.9677 11.1586 18.9411 11.1171 18.9239L10.3517 20.7717C10.6777 20.9067 11.0077 20.9562 11.3375 20.9787C11.6584 21.0005 12.0477 21 12.5 21V19ZM8.5 17C8.5 17.4523 8.49946 17.8415 8.52135 18.1624C8.54385 18.4922 8.59336 18.8221 8.72836 19.1481L10.5761 18.3827C10.5589 18.3411 10.5323 18.2542 10.5167 18.0262C10.5005 17.7893 10.5 17.4796 10.5 17H8.5ZM11.1171 18.9239C10.8723 18.8225 10.6777 18.628 10.5761 18.3827L8.72836 19.1481C9.03274 19.8829 9.61636 20.4671 10.3517 20.7717L11.1171 18.9239ZM19.5 16.8C19.5 17.3766 19.4993 17.7489 19.4762 18.0323C19.454 18.3041 19.4163 18.4047 19.3912 18.454L21.1732 19.362C21.3661 18.9835 21.4373 18.5902 21.4696 18.1949C21.5008 17.8112 21.5 17.3434 21.5 16.8H19.5ZM17.3 21C17.8436 21 18.3113 21.0008 18.695 20.9694C19.0903 20.9371 19.4834 20.8658 19.8618 20.673L18.9538 18.891C18.9043 18.9162 18.8036 18.9539 18.532 18.9761C18.2488 18.9992 17.8765 19 17.3 19V21ZM19.3912 18.454C19.2956 18.6417 19.1425 18.7948 18.9538 18.891L19.8618 20.673C20.4257 20.3856 20.8853 19.927 21.1732 19.362L19.3912 18.454ZM17.3 5C17.8766 5 18.2488 5.00078 18.5321 5.02393C18.8036 5.04612 18.9043 5.08379 18.9538 5.10899L19.8618 3.32698C19.4834 3.1342 19.0903 3.06288 18.6949 3.03057C18.3113 2.99922 17.8435 3 17.3 3V5ZM21.5 7.19995C21.5 6.6565 21.5008 6.1887 21.4695 5.80511C21.4373 5.40983 21.3661 5.01653 21.1732 4.63805L19.3912 5.54603C19.4164 5.59537 19.454 5.69598 19.4762 5.96767C19.4993 6.25105 19.5 6.6233 19.5 7.19995H21.5ZM18.9538 5.10899C19.1424 5.20508 19.2956 5.35828 19.3912 5.54603L21.1732 4.63805C20.8854 4.07315 20.4259 3.61439 19.8618 3.32698L18.9538 5.10899ZM10.5 6.99999C10.5 6.52036 10.5005 6.21073 10.5167 5.97375C10.5323 5.74575 10.5589 5.65892 10.5761 5.6173L8.72836 4.85194C8.59336 5.17786 8.54385 5.50777 8.52135 5.8376C8.49946 6.15845 8.5 6.54773 8.5 6.99999H10.5ZM12.5 3C12.0477 3 11.6584 2.99946 11.3375 3.02135C11.0077 3.04385 10.6777 3.09334 10.3517 3.22836L11.1171 5.07612C11.1586 5.0589 11.2455 5.03227 11.4736 5.01671C11.7107 5.00054 12.0204 5 12.5 5V3ZM10.5761 5.6173C10.6777 5.37205 10.8723 5.17752 11.1171 5.07612L10.3517 3.22836C9.61639 3.53293 9.03275 4.11707 8.72836 4.85194L10.5761 5.6173Z" fill="white"/>
</svg>
