<svg width="38" height="30" viewBox="0 0 38 30" fill="none" xmlns="http://www.w3.org/2000/svg">
<g filter="url(#filter0_d_566_17133)">
<g clip-path="url(#clip0_566_17133)">
<mask id="mask0_566_17133" style="mask-type:alpha" maskUnits="userSpaceOnUse" x="3" y="1" width="32" height="24">
<rect x="3" y="1" width="32" height="24" fill="white"/>
</mask>
<g mask="url(#mask0_566_17133)">
<path fill-rule="evenodd" clip-rule="evenodd" d="M3 1V25H35V1H3Z" fill="#009933"/>
<mask id="mask1_566_17133" style="mask-type:alpha" maskUnits="userSpaceOnUse" x="3" y="1" width="32" height="24">
<path fill-rule="evenodd" clip-rule="evenodd" d="M3 1V25H35V1H3Z" fill="white"/>
</mask>
<g mask="url(#mask1_566_17133)">
<g filter="url(#filter1_d_566_17133)">
<path fill-rule="evenodd" clip-rule="evenodd" d="M18.9268 4.70404L31.1286 13.2075L18.7608 21.1713L6.80893 13.0427L18.9268 4.70404Z" fill="#FFD221"/>
<path fill-rule="evenodd" clip-rule="evenodd" d="M18.9268 4.70404L31.1286 13.2075L18.7608 21.1713L6.80893 13.0427L18.9268 4.70404Z" fill="url(#paint0_linear_566_17133)"/>
</g>
<path fill-rule="evenodd" clip-rule="evenodd" d="M19 18.2C21.7614 18.2 24 15.9614 24 13.2C24 10.4386 21.7614 8.20001 19 8.20001C16.2386 8.20001 14 10.4386 14 13.2C14 15.9614 16.2386 18.2 19 18.2Z" fill="#2E42A5"/>
<mask id="mask2_566_17133" style="mask-type:alpha" maskUnits="userSpaceOnUse" x="14" y="8" width="10" height="11">
<path fill-rule="evenodd" clip-rule="evenodd" d="M19 18.2C21.7614 18.2 24 15.9614 24 13.2C24 10.4386 21.7614 8.20001 19 8.20001C16.2386 8.20001 14 10.4386 14 13.2C14 15.9614 16.2386 18.2 19 18.2Z" fill="white"/>
</mask>
<g mask="url(#mask2_566_17133)">
<path fill-rule="evenodd" clip-rule="evenodd" d="M17.38 15.57L17.1566 15.6874L17.1993 15.4387L17.0186 15.2626L17.2683 15.2263L17.38 15L17.4917 15.2263L17.7414 15.2626L17.5607 15.4387L17.6034 15.6874L17.38 15.57Z" fill="#F7FCFF"/>
<path fill-rule="evenodd" clip-rule="evenodd" d="M19.38 15.57L19.1566 15.6874L19.1993 15.4387L19.0186 15.2626L19.2683 15.2263L19.38 15L19.4917 15.2263L19.7414 15.2626L19.5607 15.4387L19.6034 15.6874L19.38 15.57Z" fill="#F7FCFF"/>
<path fill-rule="evenodd" clip-rule="evenodd" d="M19.38 16.77L19.1566 16.8874L19.1993 16.6387L19.0186 16.4626L19.2683 16.4263L19.38 16.2L19.4917 16.4263L19.7414 16.4626L19.5607 16.6387L19.6034 16.8874L19.38 16.77Z" fill="#F7FCFF"/>
<path fill-rule="evenodd" clip-rule="evenodd" d="M18.38 12.57L18.1566 12.6874L18.1993 12.4387L18.0186 12.2626L18.2683 12.2263L18.38 12L18.4917 12.2263L18.7414 12.2626L18.5607 12.4387L18.6034 12.6874L18.38 12.57Z" fill="#F7FCFF"/>
<path fill-rule="evenodd" clip-rule="evenodd" d="M18.38 14.57L18.1566 14.6874L18.1993 14.4387L18.0186 14.2626L18.2683 14.2263L18.38 14L18.4917 14.2263L18.7414 14.2626L18.5607 14.4387L18.6034 14.6874L18.38 14.57Z" fill="#F7FCFF"/>
<path fill-rule="evenodd" clip-rule="evenodd" d="M16.98 13.57L16.7566 13.6874L16.7993 13.4387L16.6186 13.2626L16.8683 13.2263L16.98 13L17.0917 13.2263L17.3414 13.2626L17.1607 13.4387L17.2033 13.6874L16.98 13.57Z" fill="#F7FCFF"/>
<path fill-rule="evenodd" clip-rule="evenodd" d="M15.58 14.37L15.3566 14.4874L15.3993 14.2387L15.2185 14.0626L15.4683 14.0263L15.58 13.8L15.6916 14.0263L15.9414 14.0626L15.7607 14.2387L15.8033 14.4874L15.58 14.37Z" fill="#F7FCFF"/>
<path fill-rule="evenodd" clip-rule="evenodd" d="M20.18 10.97L19.9567 11.0874L19.9993 10.8387L19.8186 10.6626L20.0684 10.6263L20.18 10.4L20.2917 10.6263L20.5415 10.6626L20.3607 10.8387L20.4034 11.0874L20.18 10.97Z" fill="#F7FCFF"/>
<path d="M12.9248 11.9972L13.0752 10.0028C17.8731 10.3646 21.66 11.9422 24.3882 14.7484L22.9542 16.1425C20.5896 13.7103 17.2624 12.3242 12.9248 11.9972Z" fill="#F7FCFF"/>
<path d="M15.2894 11.6028L15.3409 11.1054C18.4339 11.4258 21.0868 12.6105 23.2917 14.6569L22.9516 15.0234C20.8269 13.0514 18.2755 11.9121 15.2894 11.6028Z" fill="#009933"/>
</g>
</g>
</g>
<rect x="3" y="1" width="32" height="24" fill="url(#paint1_linear_566_17133)" style="mix-blend-mode:overlay"/>
</g>
<rect x="3.5" y="1.5" width="31" height="23" rx="1.5" stroke="black" stroke-opacity="0.1" style="mix-blend-mode:multiply"/>
</g>
<defs>
<filter id="filter0_d_566_17133" x="0" y="0" width="38" height="30" filterUnits="userSpaceOnUse" color-interpolation-filters="sRGB">
<feFlood flood-opacity="0" result="BackgroundImageFix"/>
<feColorMatrix in="SourceAlpha" type="matrix" values="0 0 0 0 0 0 0 0 0 0 0 0 0 0 0 0 0 0 127 0" result="hardAlpha"/>
<feOffset dy="2"/>
<feGaussianBlur stdDeviation="1.5"/>
<feColorMatrix type="matrix" values="0 0 0 0 0 0 0 0 0 0 0 0 0 0 0 0 0 0 0.1 0"/>
<feBlend mode="normal" in2="BackgroundImageFix" result="effect1_dropShadow_566_17133"/>
<feBlend mode="normal" in="SourceGraphic" in2="effect1_dropShadow_566_17133" result="shape"/>
</filter>
<filter id="filter1_d_566_17133" x="6.80896" y="4.70404" width="24.3197" height="16.4672" filterUnits="userSpaceOnUse" color-interpolation-filters="sRGB">
<feFlood flood-opacity="0" result="BackgroundImageFix"/>
<feColorMatrix in="SourceAlpha" type="matrix" values="0 0 0 0 0 0 0 0 0 0 0 0 0 0 0 0 0 0 127 0" result="hardAlpha"/>
<feOffset/>
<feColorMatrix type="matrix" values="0 0 0 0 0.0313726 0 0 0 0 0.368627 0 0 0 0 0 0 0 0 0.28 0"/>
<feBlend mode="normal" in2="BackgroundImageFix" result="effect1_dropShadow_566_17133"/>
<feBlend mode="normal" in="SourceGraphic" in2="effect1_dropShadow_566_17133" result="shape"/>
</filter>
<linearGradient id="paint0_linear_566_17133" x1="35" y1="25" x2="35" y2="1" gradientUnits="userSpaceOnUse">
<stop stop-color="#FFC600"/>
<stop offset="1" stop-color="#FFDE42"/>
</linearGradient>
<linearGradient id="paint1_linear_566_17133" x1="19" y1="1" x2="19" y2="25" gradientUnits="userSpaceOnUse">
<stop stop-color="white" stop-opacity="0.7"/>
<stop offset="1" stop-opacity="0.3"/>
</linearGradient>
<clipPath id="clip0_566_17133">
<rect x="3" y="1" width="32" height="24" rx="2" fill="white"/>
</clipPath>
</defs>
</svg>
