<svg width="38" height="30" viewBox="0 0 38 30" fill="none" xmlns="http://www.w3.org/2000/svg">
<g filter="url(#filter0_d_566_17133)">
<g clip-path="url(#clip0_566_17133)">
<mask id="mask0_566_17133" style="mask-type:alpha" maskUnits="userSpaceOnUse" x="3" y="1" width="32" height="24">
<rect x="3" y="1" width="32" height="24" fill="white"/>
</mask>
<g mask="url(#mask0_566_17133)">
<path fill-rule="evenodd" clip-rule="evenodd" d="M11 1H27V25H11V1Z" fill="#F7FCFF"/>
<path fill-rule="evenodd" clip-rule="evenodd" d="M18.9764 8L19 20H18.4005L18.7683 17.0303C16.0782 17.5144 14.8443 17.6343 15.0667 17.3902C15.2891 17.146 15.4644 16.8 15.5925 16.3521L12 13.9553C12.3778 13.9506 12.7204 13.8568 13.0277 13.674C13.335 13.4912 13.1814 12.8578 12.5667 11.7737L14.3805 12.0376L15.0667 11.2918L16.4352 12.7241H17.0503L16.4352 9.44343L17.5378 10.0593L18.9764 8ZM18.9764 8L20.4622 10.0593L21.5648 9.44343L20.9497 12.7241H21.5648L22.9333 11.2918L23.6195 12.0376L25.4333 11.7737C24.8186 12.8578 24.665 13.4912 24.9723 13.674C25.2796 13.8568 25.6222 13.9506 26 13.9553L22.4075 16.3521C22.5356 16.8 22.7109 17.146 22.9333 17.3902C23.1557 17.6343 21.9218 17.5144 19.2317 17.0303L19.5995 20H19L18.9764 8Z" fill="#E31D1C"/>
<path fill-rule="evenodd" clip-rule="evenodd" d="M27 1H35V25H27V1Z" fill="#E31D1C"/>
<path fill-rule="evenodd" clip-rule="evenodd" d="M3 1H11V25H3V1Z" fill="#E31D1C"/>
</g>
<rect x="3" y="1" width="32" height="24" fill="url(#paint0_linear_566_17133)" style="mix-blend-mode:overlay"/>
</g>
<rect x="3.5" y="1.5" width="31" height="23" rx="1.5" stroke="black" stroke-opacity="0.1" style="mix-blend-mode:multiply"/>
</g>
<defs>
<filter id="filter0_d_566_17133" x="0" y="0" width="38" height="30" filterUnits="userSpaceOnUse" color-interpolation-filters="sRGB">
<feFlood flood-opacity="0" result="BackgroundImageFix"/>
<feColorMatrix in="SourceAlpha" type="matrix" values="0 0 0 0 0 0 0 0 0 0 0 0 0 0 0 0 0 0 127 0" result="hardAlpha"/>
<feOffset dy="2"/>
<feGaussianBlur stdDeviation="1.5"/>
<feColorMatrix type="matrix" values="0 0 0 0 0 0 0 0 0 0 0 0 0 0 0 0 0 0 0.1 0"/>
<feBlend mode="normal" in2="BackgroundImageFix" result="effect1_dropShadow_566_17133"/>
<feBlend mode="normal" in="SourceGraphic" in2="effect1_dropShadow_566_17133" result="shape"/>
</filter>
<linearGradient id="paint0_linear_566_17133" x1="19" y1="1" x2="19" y2="25" gradientUnits="userSpaceOnUse">
<stop stop-color="white" stop-opacity="0.7"/>
<stop offset="1" stop-opacity="0.3"/>
</linearGradient>
<clipPath id="clip0_566_17133">
<rect x="3" y="1" width="32" height="24" rx="2" fill="white"/>
</clipPath>
</defs>
</svg>
