<svg width="38" height="30" viewBox="0 0 38 30" fill="none" xmlns="http://www.w3.org/2000/svg">
<g filter="url(#filter0_d_566_17133)">
<g clip-path="url(#clip0_566_17133)">
<mask id="mask0_566_17133" style="mask-type:alpha" maskUnits="userSpaceOnUse" x="3" y="1" width="32" height="24">
<rect x="3" y="1" width="32" height="24" fill="white"/>
</mask>
<g mask="url(#mask0_566_17133)">
<path fill-rule="evenodd" clip-rule="evenodd" d="M3 1V25H35V1H3Z" fill="#F7FCFF"/>
<mask id="mask1_566_17133" style="mask-type:alpha" maskUnits="userSpaceOnUse" x="3" y="1" width="32" height="24">
<path fill-rule="evenodd" clip-rule="evenodd" d="M3 1V25H35V1H3Z" fill="white"/>
</mask>
<g mask="url(#mask1_566_17133)">
<path fill-rule="evenodd" clip-rule="evenodd" d="M3 1V9H35V1H3Z" fill="#E31D1C"/>
<path fill-rule="evenodd" clip-rule="evenodd" d="M3 17V25H35V17H3Z" fill="#3D58DB"/>
<rect x="13.0765" y="7.39732" width="11.4" height="4" fill="#E31D1C"/>
<path d="M13.6522 9.95982H23.7807C23.7978 10.7288 23.803 12.0702 23.8029 13.3615C23.8028 14.1954 23.8006 14.9983 23.7984 15.5927C23.7973 15.8899 23.7962 16.135 23.7954 16.3057L23.7945 16.5032L23.7943 16.5318C23.7941 16.5328 23.794 16.5339 23.7938 16.535C23.7893 16.5616 23.7818 16.6035 23.7703 16.6584C23.7473 16.7685 23.7085 16.9301 23.6469 17.1259C23.5231 17.5193 23.3101 18.0408 22.9552 18.5589C22.2607 19.5728 20.9998 20.6153 18.6497 20.6153C16.3028 20.6153 15.1029 19.5742 14.4643 18.5701C14.1363 18.0544 13.949 17.5347 13.8442 17.1417C13.7921 16.9462 13.7611 16.7847 13.7433 16.6747C13.7345 16.6198 13.729 16.578 13.7258 16.5514C13.7251 16.545 13.7244 16.5395 13.7239 16.5349L13.7234 16.4901L13.721 16.2938L13.7125 15.5853C13.7055 14.9944 13.6961 14.1958 13.6867 13.3647C13.6724 12.0949 13.6582 10.7534 13.6522 9.95982ZM13.7222 16.5185C13.7222 16.5183 13.7222 16.5183 13.7222 16.5185L13.7222 16.5185Z" fill="#F7FCFF" stroke="#E31D1C" stroke-width="1.125"/>
<mask id="mask2_566_17133" style="mask-type:alpha" maskUnits="userSpaceOnUse" x="13" y="9" width="12" height="13">
<path d="M13.6522 9.95982H23.7807C23.7978 10.7288 23.803 12.0702 23.8029 13.3615C23.8028 14.1954 23.8006 14.9983 23.7984 15.5927C23.7973 15.8899 23.7962 16.135 23.7954 16.3057L23.7945 16.5032L23.7943 16.5318C23.7941 16.5328 23.794 16.5339 23.7938 16.535C23.7893 16.5616 23.7818 16.6035 23.7703 16.6584C23.7473 16.7685 23.7085 16.9301 23.6469 17.1259C23.5231 17.5193 23.3101 18.0408 22.9552 18.5589C22.2607 19.5728 20.9998 20.6153 18.6497 20.6153C16.3028 20.6153 15.1029 19.5742 14.4643 18.5701C14.1363 18.0544 13.949 17.5347 13.8442 17.1417C13.7921 16.9462 13.7611 16.7847 13.7433 16.6747C13.7345 16.6198 13.729 16.578 13.7258 16.5514C13.7251 16.545 13.7244 16.5395 13.7239 16.5349L13.7234 16.4901L13.721 16.2938L13.7125 15.5853C13.7055 14.9944 13.6961 14.1958 13.6867 13.3647C13.6724 12.0949 13.6582 10.7534 13.6522 9.95982ZM13.7222 16.5185C13.7222 16.5183 13.7222 16.5183 13.7222 16.5185L13.7222 16.5185Z" fill="white" stroke="white" stroke-width="1.125"/>
</mask>
<g mask="url(#mask2_566_17133)">
<path fill-rule="evenodd" clip-rule="evenodd" d="M13.4984 10.0399H15.6078V12.1818H13.4984V10.0399ZM17.7172 12.1818H15.6078V14.3237H13.4984V16.4656H15.6078V18.6075H13.4984V20.7494H15.6078V18.6075H17.7172V20.7494H19.8265V18.6075H21.9359V20.7494H24.0453V18.6075H21.9359V16.4656H24.0453V14.3237H21.9359V12.1818H24.0453V10.0399H21.9359V12.1818H19.8265V10.0399H17.7172V12.1818ZM17.7172 14.3237V12.1818H19.8265V14.3237H17.7172ZM17.7172 16.4656V14.3237H15.6078V16.4656H17.7172ZM19.8265 16.4656V18.6075H17.7172V16.4656H19.8265ZM19.8265 16.4656V14.3237H21.9359V16.4656H19.8265Z" fill="#F50100"/>
</g>
<path fill-rule="evenodd" clip-rule="evenodd" d="M13.453 9.16263C13.453 9.16263 14.1055 8.81414 14.6619 8.63454C15.2184 8.45494 15.6583 8.35681 15.6583 8.35681L14.8303 5.30472L13.172 4.68514L12.2328 6.23324L13.453 9.16263Z" fill="#56C6F5" stroke="white" stroke-width="0.5"/>
<path d="M13.181 7.49078L13.3716 7.39893C13.5684 7.81984 13.8278 7.94985 14.1833 7.81717C14.5465 7.68164 14.6945 7.42534 14.6423 7.01903L14.8514 6.99129C14.9163 7.49566 14.7129 7.84772 14.2561 8.01821C13.7916 8.19155 13.4221 8.00634 13.181 7.49078Z" fill="white"/>
<path fill-rule="evenodd" clip-rule="evenodd" d="M13.6323 6.54186L13.4501 6.65221C13.4098 6.67663 13.3597 6.64154 13.3688 6.59531L13.4102 6.38637L13.2236 6.28378C13.1823 6.26108 13.1876 6.20012 13.2322 6.18494L13.4339 6.11632L13.4294 5.90337C13.4284 5.85625 13.4838 5.83039 13.5193 5.86143L13.6795 6.00175L13.8617 5.89139C13.902 5.86697 13.9522 5.90207 13.943 5.9483L13.9016 6.15724L14.0883 6.25983C14.1296 6.28253 14.1242 6.34349 14.0796 6.35867L13.878 6.42729L13.8825 6.64024C13.8835 6.68736 13.828 6.71322 13.7925 6.68217L13.6323 6.54186Z" fill="#FECA00"/>
<path fill-rule="evenodd" clip-rule="evenodd" d="M17.5407 8.0758C17.5407 8.0758 18.0971 8.02614 18.6817 8.0375C19.2664 8.04886 19.7609 8.05301 19.7609 8.05301L20.0465 5.04353L18.7942 3.91215L17.4021 5.07013L17.5407 8.0758Z" fill="#56C6F5" stroke="white" stroke-width="0.5"/>
<path fill-rule="evenodd" clip-rule="evenodd" d="M18.7501 7.58482C19.2325 7.58482 19.2787 7.06386 19.2787 6.70898C19.1553 6.51215 19.1802 6.37129 18.7848 6.37129C18.3895 6.37129 18.3444 6.49075 18.229 6.70898C18.229 7.06386 18.2678 7.58482 18.7501 7.58482Z" fill="#FECA00"/>
<path fill-rule="evenodd" clip-rule="evenodd" d="M19.293 6.11287C19.7753 6.11287 19.8215 5.59191 19.8215 5.23703C19.6982 5.04019 19.723 4.89934 19.3277 4.89934C18.9323 4.89934 18.8872 5.0188 18.7719 5.23703C18.7719 5.59191 18.8106 6.11287 19.293 6.11287Z" fill="#FECA00"/>
<path fill-rule="evenodd" clip-rule="evenodd" d="M18.2383 6.11287C18.7206 6.11287 18.7668 5.59191 18.7668 5.23703C18.6435 5.04019 18.6683 4.89934 18.273 4.89934C17.8776 4.89934 17.8325 5.0188 17.7172 5.23703C17.7172 5.59191 17.7559 6.11287 18.2383 6.11287Z" fill="#FECA00"/>
<path d="M15.4446 8.60487L15.3726 8.36017L14.506 5.41643L14.465 5.27693L14.5659 5.17227L15.8044 3.88836L15.9537 3.73355L16.1291 3.85809L17.4918 4.8259L17.5862 4.89292L17.5961 5.00824L17.8484 7.93266L17.8709 8.1932L17.6096 8.20393L17.6096 8.20393L17.6096 8.20393L17.6093 8.20394L17.6082 8.20399L17.6037 8.20418L17.5857 8.20498L17.5179 8.20828C17.46 8.21125 17.3786 8.21576 17.2853 8.22193C17.0973 8.23437 16.8664 8.25321 16.6811 8.27894C16.5042 8.30353 16.2591 8.3642 16.0501 8.42174C15.9474 8.45002 15.8565 8.47668 15.7912 8.49626C15.7586 8.50604 15.7326 8.51403 15.7147 8.51955L15.6944 8.52586L15.6893 8.52746L15.6881 8.52784L15.6878 8.52792L15.6878 8.52793L15.4446 8.60487ZM15.4446 8.60487L15.6878 8.52793L15.4446 8.60487Z" fill="#2E42A5" stroke="white" stroke-width="0.5"/>
<mask id="mask3_566_17133" style="mask-type:alpha" maskUnits="userSpaceOnUse" x="14" y="3" width="5" height="6">
<path d="M15.4446 8.60487L15.3726 8.36017L14.506 5.41643L14.465 5.27693L14.5659 5.17227L15.8044 3.88836L15.9537 3.73355L16.1291 3.85809L17.4918 4.8259L17.5862 4.89292L17.5961 5.00824L17.8484 7.93266L17.8709 8.1932L17.6096 8.20393L17.6096 8.20393L17.6096 8.20393L17.6093 8.20394L17.6082 8.20399L17.6037 8.20418L17.5857 8.20498L17.5179 8.20828C17.46 8.21125 17.3786 8.21576 17.2853 8.22193C17.0973 8.23437 16.8664 8.25321 16.6811 8.27894C16.5042 8.30353 16.2591 8.3642 16.0501 8.42174C15.9474 8.45002 15.8565 8.47668 15.7912 8.49626C15.7586 8.50604 15.7326 8.51403 15.7147 8.51955L15.6944 8.52586L15.6893 8.52746L15.6881 8.52784L15.6878 8.52792L15.6878 8.52793L15.4446 8.60487ZM15.4446 8.60487L15.6878 8.52793L15.4446 8.60487Z" fill="white" stroke="white" stroke-width="0.5"/>
</mask>
<g mask="url(#mask3_566_17133)">
<path d="M15.4364 7.63784L15.1859 7.04776C15.7239 6.81227 16.6328 6.66777 17.5891 6.61127L17.6259 7.25275C16.7368 7.30528 15.8958 7.43676 15.4364 7.63784Z" fill="#C51918"/>
<path d="M15.0137 6.21048L14.7632 5.6204C15.3012 5.3849 16.4576 5.19426 17.414 5.13776L17.4507 5.77924C16.5617 5.83177 15.4731 6.00939 15.0137 6.21048Z" fill="#C51918"/>
</g>
<path d="M21.9687 8.60663L22.0367 8.35471L22.8324 5.40613L22.8682 5.27372L22.7757 5.17243L21.608 3.89336L21.4589 3.73005L21.2786 3.85809L19.9159 4.8259L19.8215 4.89292L19.8116 5.00824L19.5593 7.93266L19.5368 8.1932L19.7981 8.20393L19.7981 8.20393L19.7981 8.20393L19.7984 8.20394L19.7995 8.20399L19.804 8.20418L19.8219 8.20498L19.8898 8.20828C19.9477 8.21125 20.0291 8.21576 20.1224 8.22193C20.3104 8.23437 20.5413 8.25321 20.7266 8.27894C20.9035 8.30353 21.1486 8.3642 21.3575 8.42174C21.4603 8.45002 21.5512 8.47668 21.6165 8.49626C21.6491 8.50604 21.6751 8.51403 21.693 8.51955L21.7133 8.52586L21.7184 8.52746L21.7196 8.52784L21.7199 8.52792L21.7199 8.52793L21.9687 8.60663ZM21.9687 8.60663L21.7199 8.52793L21.9687 8.60663Z" fill="#2E42A5" stroke="white" stroke-width="0.5"/>
<mask id="mask4_566_17133" style="mask-type:alpha" maskUnits="userSpaceOnUse" x="19" y="3" width="5" height="6">
<path d="M21.9687 8.60663L22.0367 8.35471L22.8324 5.40613L22.8682 5.27372L22.7757 5.17243L21.608 3.89336L21.4589 3.73005L21.2786 3.85809L19.9159 4.8259L19.8215 4.89292L19.8116 5.00824L19.5593 7.93266L19.5368 8.1932L19.7981 8.20393L19.7981 8.20393L19.7981 8.20393L19.7984 8.20394L19.7995 8.20399L19.804 8.20418L19.8219 8.20498L19.8898 8.20828C19.9477 8.21125 20.0291 8.21576 20.1224 8.22193C20.3104 8.23437 20.5413 8.25321 20.7266 8.27894C20.9035 8.30353 21.1486 8.3642 21.3575 8.42174C21.4603 8.45002 21.5512 8.47668 21.6165 8.49626C21.6491 8.50604 21.6751 8.51403 21.693 8.51955L21.7133 8.52586L21.7184 8.52746L21.7196 8.52784L21.7199 8.52792L21.7199 8.52793L21.9687 8.60663ZM21.9687 8.60663L21.7199 8.52793L21.9687 8.60663Z" fill="white" stroke="white" stroke-width="0.5"/>
</mask>
<g mask="url(#mask4_566_17133)">
<path fill-rule="evenodd" clip-rule="evenodd" d="M21.3978 7.46649C21.3978 7.46649 21.6918 7.30287 21.7342 7.02699C21.7766 6.7511 22.2313 6.41131 22.0039 6.45175C21.7766 6.49219 21.9066 6.52378 21.5774 6.45175C21.2481 6.37972 20.822 6.33207 20.822 6.12969C20.822 5.9273 21.0338 5.76667 20.8607 5.76667C20.6875 5.76667 20.3182 5.57511 20.3923 5.72152C20.4665 5.86794 20.2217 5.70239 20.3441 6.00635C20.4665 6.31031 20.3182 6.61653 20.3923 6.69711C20.4665 6.77769 20.3441 7.17288 20.3441 7.17288C20.3441 7.17288 20.3891 7.31966 20.4677 7.09981C20.5464 6.87996 20.7185 6.72586 20.6325 6.91284C20.5464 7.09981 20.4366 7.54454 20.5345 7.46649C20.6325 7.38845 20.7298 7.17263 20.7298 7.09981C20.7298 7.02699 20.9769 6.74112 20.9769 6.957C20.9769 7.17288 20.7444 7.34288 20.8607 7.34288C20.9769 7.34288 21.0421 7.38876 21.1152 7.17288C21.1882 6.957 21.3657 6.81419 21.4385 6.957C21.5113 7.09981 21.4952 7.09218 21.3978 7.27934C21.3005 7.46649 21.3978 7.46649 21.3978 7.46649Z" fill="#FECA00"/>
<path fill-rule="evenodd" clip-rule="evenodd" d="M20.7072 5.86653L20.5978 5.68342C20.7942 5.5624 20.9745 5.53016 21.1328 5.59762C21.2049 5.62831 21.2591 5.66325 21.4005 5.7627L21.419 5.77568C21.5662 5.87893 21.6441 5.92099 21.6921 5.92099V6.13518C21.5823 6.13518 21.4873 6.08392 21.2991 5.95192L21.2804 5.93877C21.1531 5.84926 21.104 5.81761 21.0512 5.79513C20.9636 5.75781 20.8509 5.77796 20.7072 5.86653ZM20.3609 7.26346C20.423 7.26346 20.4734 7.21372 20.4734 7.15235C20.4734 7.09099 20.423 7.04124 20.3609 7.04124C20.2988 7.04124 20.2484 7.09099 20.2484 7.15235C20.2484 7.21372 20.2988 7.26346 20.3609 7.26346ZM20.6844 7.36654C20.6844 7.42791 20.634 7.47765 20.5719 7.47765C20.5097 7.47765 20.4594 7.42791 20.4594 7.36654C20.4594 7.30518 20.5097 7.25543 20.5719 7.25543C20.634 7.25543 20.6844 7.30518 20.6844 7.36654ZM20.9508 7.46939C21.0129 7.46939 21.0633 7.41965 21.0633 7.35828C21.0633 7.29692 21.0129 7.24717 20.9508 7.24717C20.8886 7.24717 20.8383 7.29692 20.8383 7.35828C20.8383 7.41965 20.8886 7.46939 20.9508 7.46939ZM21.4157 7.5361C21.4157 7.59747 21.3654 7.64721 21.3032 7.64721C21.2411 7.64721 21.1907 7.59747 21.1907 7.5361C21.1907 7.47474 21.2411 7.42499 21.3032 7.42499C21.3654 7.42499 21.4157 7.47474 21.4157 7.5361Z" fill="#C51918"/>
</g>
<path d="M24.3524 9.18596L24.2444 9.43469L24.0053 9.30696L24.0053 9.30695L24.0052 9.30694L24.005 9.30682L24.0039 9.3062L23.9988 9.30352L23.9782 9.29272C23.9601 9.28324 23.9332 9.26935 23.8992 9.25207C23.8311 9.21748 23.7344 9.16943 23.6207 9.1159C23.3917 9.00802 23.1006 8.88121 22.8373 8.79625C22.5645 8.70821 22.3201 8.64007 22.144 8.59398C22.056 8.57095 21.9852 8.55347 21.9368 8.54182L21.8814 8.52874L21.8675 8.52554L21.8642 8.52479L21.8635 8.52463L21.8634 8.52461L21.8633 8.5246L21.8633 8.5246L21.8633 8.5246L21.6049 8.46695L21.6773 8.21225L22.5233 5.23636L22.5579 5.11477L22.6763 5.07053L24.3346 4.45095L24.5285 4.37852L24.6359 4.55547L25.5751 6.10357L25.6421 6.21414L25.5907 6.33277L24.3524 9.18596Z" fill="#56C6F5" stroke="white" stroke-width="0.5"/>
<mask id="mask5_566_17133" style="mask-type:alpha" maskUnits="userSpaceOnUse" x="21" y="4" width="5" height="6">
<path d="M24.3524 9.18596L24.2444 9.43469L24.0053 9.30696L24.0053 9.30695L24.0052 9.30694L24.005 9.30682L24.0039 9.3062L23.9988 9.30352L23.9782 9.29272C23.9601 9.28324 23.9332 9.26935 23.8992 9.25207C23.8311 9.21748 23.7344 9.16943 23.6207 9.1159C23.3917 9.00802 23.1006 8.88121 22.8373 8.79625C22.5645 8.70821 22.3201 8.64007 22.144 8.59398C22.056 8.57095 21.9852 8.55347 21.9368 8.54182L21.8814 8.52874L21.8675 8.52554L21.8642 8.52479L21.8635 8.52463L21.8634 8.52461L21.8633 8.5246L21.8633 8.5246L21.8633 8.5246L21.6049 8.46695L21.6773 8.21225L22.5233 5.23636L22.5579 5.11477L22.6763 5.07053L24.3346 4.45095L24.5285 4.37852L24.6359 4.55547L25.5751 6.10357L25.6421 6.21414L25.5907 6.33277L24.3524 9.18596Z" fill="white" stroke="white" stroke-width="0.5"/>
</mask>
<g mask="url(#mask5_566_17133)">
<path fill-rule="evenodd" clip-rule="evenodd" d="M24.1274 6.08913L23.9854 6.24793C23.954 6.28306 23.8958 6.26415 23.8911 6.21727L23.8696 6.00536L23.6611 5.96182C23.615 5.95219 23.6022 5.89234 23.6405 5.86477L23.8132 5.7402L23.7467 5.53786C23.732 5.49309 23.7774 5.45215 23.8204 5.47147L24.0147 5.5588L24.1566 5.40001C24.188 5.36487 24.2462 5.38378 24.251 5.43067L24.2725 5.64257L24.481 5.68611C24.5271 5.69574 24.5399 5.75559 24.5016 5.78316L24.3289 5.90774L24.3954 6.11007C24.4101 6.15484 24.3647 6.19578 24.3217 6.17646L24.1274 6.08913Z" fill="#FECA00"/>
<path d="M21.9951 7.48762L22.2075 6.65845C23.1483 6.90695 24.129 7.22544 24.8484 7.53341L24.5207 8.32289C23.841 8.03195 22.8985 7.72624 21.9951 7.48762Z" fill="#E31D1C"/>
<path d="M22.2831 6.72197L22.3332 6.5139C23.2351 6.73772 24.1937 7.09484 24.8903 7.42747L24.8005 7.62129C24.1173 7.29506 23.1719 6.94254 22.2831 6.72197Z" fill="white"/>
<path d="M22.0157 7.57652L22.0658 7.36845C22.9677 7.59227 23.8013 7.89597 24.4979 8.22859L24.4082 8.42242C23.725 8.09619 22.9046 7.79709 22.0157 7.57652Z" fill="white"/>
<path d="M22.4229 7.17499L22.616 7.08778C22.6973 7.2781 22.7977 7.32002 22.9656 7.23845C23.3621 7.04579 24.3457 7.31503 24.3457 7.67806C24.3457 7.81969 24.2636 7.90556 24.1383 7.90058C24.0676 7.89777 23.9921 7.86982 23.8813 7.81507C23.8679 7.80842 23.859 7.80398 23.8372 7.7929C23.7148 7.73043 23.7055 7.72588 23.6729 7.71413L23.7427 7.50948C23.7878 7.52576 23.7949 7.52924 23.931 7.59862C23.952 7.60929 23.9601 7.61341 23.9727 7.61962C24.0576 7.66159 24.1144 7.6826 24.1464 7.68388C24.1494 7.68399 24.1348 7.6993 24.1348 7.67806C24.1348 7.51833 23.3342 7.2992 23.0557 7.43453C22.7779 7.56948 22.5509 7.47468 22.4229 7.17499Z" fill="#272727"/>
</g>
</g>
</g>
<rect x="3" y="1" width="32" height="24" fill="url(#paint0_linear_566_17133)" style="mix-blend-mode:overlay"/>
</g>
<rect x="3.5" y="1.5" width="31" height="23" rx="1.5" stroke="black" stroke-opacity="0.1" style="mix-blend-mode:multiply"/>
</g>
<defs>
<filter id="filter0_d_566_17133" x="0" y="0" width="38" height="30" filterUnits="userSpaceOnUse" color-interpolation-filters="sRGB">
<feFlood flood-opacity="0" result="BackgroundImageFix"/>
<feColorMatrix in="SourceAlpha" type="matrix" values="0 0 0 0 0 0 0 0 0 0 0 0 0 0 0 0 0 0 127 0" result="hardAlpha"/>
<feOffset dy="2"/>
<feGaussianBlur stdDeviation="1.5"/>
<feColorMatrix type="matrix" values="0 0 0 0 0 0 0 0 0 0 0 0 0 0 0 0 0 0 0.1 0"/>
<feBlend mode="normal" in2="BackgroundImageFix" result="effect1_dropShadow_566_17133"/>
<feBlend mode="normal" in="SourceGraphic" in2="effect1_dropShadow_566_17133" result="shape"/>
</filter>
<linearGradient id="paint0_linear_566_17133" x1="19" y1="1" x2="19" y2="25" gradientUnits="userSpaceOnUse">
<stop stop-color="white" stop-opacity="0.7"/>
<stop offset="1" stop-opacity="0.3"/>
</linearGradient>
<clipPath id="clip0_566_17133">
<rect x="3" y="1" width="32" height="24" rx="2" fill="white"/>
</clipPath>
</defs>
</svg>
