<svg width="38" height="30" viewBox="0 0 38 30" fill="none" xmlns="http://www.w3.org/2000/svg">
<g filter="url(#filter0_d_566_17133)">
<g clip-path="url(#clip0_566_17133)">
<mask id="mask0_566_17133" style="mask-type:alpha" maskUnits="userSpaceOnUse" x="3" y="1" width="32" height="24">
<rect x="3" y="1" width="32" height="24" fill="white"/>
</mask>
<g mask="url(#mask0_566_17133)">
<path fill-rule="evenodd" clip-rule="evenodd" d="M3 1V25H35V1H3Z" fill="#2E42A5"/>
<mask id="mask1_566_17133" style="mask-type:alpha" maskUnits="userSpaceOnUse" x="3" y="1" width="32" height="24">
<path fill-rule="evenodd" clip-rule="evenodd" d="M3 1V25H35V1H3Z" fill="white"/>
</mask>
<g mask="url(#mask1_566_17133)">
<path fill-rule="evenodd" clip-rule="evenodd" d="M3 1V13H35V1H3Z" fill="#FECA00"/>
<path fill-rule="evenodd" clip-rule="evenodd" d="M3 19V25H35V19H3Z" fill="#E31D1C"/>
<path fill-rule="evenodd" clip-rule="evenodd" d="M12.717 6.71424C12.717 6.71424 16.8733 4.83661 17.2511 5.04992C17.6288 5.26323 17.72 5.8712 18.0461 5.8712C18.3723 5.8712 19.0288 5.67908 19.3029 5.67908C19.5771 5.67908 19.848 5.8712 19.848 5.8712H21.0187V5.22021L26.3269 6.71424C26.3269 6.71424 23.2309 7.11871 22.9975 7.11871C22.7642 7.11871 22.9975 7.45233 22.9975 7.45233C22.9975 7.45233 22.556 7.11871 21.8837 7.11871C21.2114 7.11871 19.848 7.81328 19.848 7.81328L20.3436 8.87943L19.848 9.19294L19.3029 8.87943C19.3029 8.87943 19.3382 8.00267 19.1035 8.00267C18.8687 8.00267 18.6975 8.56592 18.6975 8.87943C18.6975 9.19294 18.0461 9.19294 18.0461 9.19294L18.3371 8.60603C18.3371 8.60603 18.6263 7.63299 18.0461 7.63299C17.4659 7.63299 14.8213 7.11871 14.8213 7.11871L14.145 7.45233L14.3868 6.71424H12.717Z" fill="#7B2900"/>
<path fill-rule="evenodd" clip-rule="evenodd" d="M14.5013 16.7742C13.8526 15.3163 14.5013 12.0865 14.5013 12.0865L15.762 12.7475C15.6124 13.5013 15.589 14.9257 16.0608 16.0907C16.5325 17.2557 18.3158 18.1732 18.3158 18.1732C18.3158 18.1732 19.2154 18.3738 17.8485 18.5183C16.4817 18.6628 15.15 18.232 14.5013 16.7742ZM17.7333 22.5167C17.3272 22.5167 18.5456 19.8077 18.5456 19.8077L18.9216 19.0551C18.9216 19.0551 18.9676 22.2439 18.7101 22.5167C18.5451 22.6916 18.3571 22.6422 18.1364 22.5843C18.0129 22.5518 17.8791 22.5167 17.7333 22.5167Z" fill="#E31D1C"/>
<path fill-rule="evenodd" clip-rule="evenodd" d="M13.3269 16.2981C12.7834 14.1211 13.6313 11.1649 13.6313 11.1649L14.4846 11.7746C14.3592 12.9002 14.3592 15.8111 15.081 17.0723C15.8028 18.3336 18.9682 18.8634 18.9682 18.8634C18.9682 18.8634 18.3437 19.3251 17.1985 19.5409C16.0534 19.7568 13.8704 18.475 13.3269 16.2981ZM16.9558 22.2171L17.4579 20.4248L18.1655 19.5589H18.6743C18.6743 19.5589 17.958 22.6395 17.4579 22.6395C17.133 22.6395 17.2302 22.4613 17.3382 22.2632C17.3965 22.1564 17.4579 22.0439 17.4579 21.9504C17.4579 21.6837 16.9558 22.2171 16.9558 22.2171Z" fill="#2E42A5"/>
<path fill-rule="evenodd" clip-rule="evenodd" d="M12.4979 16.671C12.2282 14.7972 12.7676 10.3199 12.7676 10.3199L13.6209 10.9296C13.2352 12.0141 13.3546 15.126 13.6209 16.671C13.8871 18.216 16.4065 19.1475 16.4065 19.1475C16.4065 19.1475 15.782 19.6091 14.6368 19.8249C13.4916 20.0408 12.7676 18.5449 12.4979 16.671ZM16.6865 20.4155C16.2006 20.4155 16.8983 19.7189 16.8983 19.7189H18.0615C18.0615 19.7189 17.6635 20.7028 17.1723 20.7028C16.9261 20.7028 16.9267 20.6306 16.9274 20.5586C16.9281 20.487 16.9288 20.4155 16.6865 20.4155Z" fill="#FECA00"/>
<path fill-rule="evenodd" clip-rule="evenodd" d="M23.3654 16.7742C24.0141 15.3163 23.3654 12.0865 23.3654 12.0865L22.1047 12.7475C22.2543 13.5013 22.2777 14.9257 21.8059 16.0907C21.3342 17.2557 19.5509 18.1732 19.5509 18.1732C19.5509 18.1732 18.6513 18.3738 20.0182 18.5183C21.385 18.6628 22.7167 18.232 23.3654 16.7742ZM20.1334 22.5167C20.5395 22.5167 19.3211 19.8077 19.3211 19.8077L18.9451 19.0551C18.9451 19.0551 18.8991 22.2439 19.1566 22.5167C19.3216 22.6916 19.5096 22.6422 19.7303 22.5843C19.8538 22.5518 19.9876 22.5167 20.1334 22.5167Z" fill="#E31D1C"/>
<path fill-rule="evenodd" clip-rule="evenodd" d="M24.5398 16.2981C25.0833 14.1211 24.2354 11.1649 24.2354 11.1649L23.3821 11.7746C23.5075 12.9002 23.5075 15.8111 22.7857 17.0723C22.0639 18.3336 18.8985 18.8634 18.8985 18.8634C18.8985 18.8634 19.523 19.3251 20.6682 19.5409C21.8133 19.7568 23.9963 18.475 24.5398 16.2981ZM20.9109 22.2171L20.4088 20.4248L19.7012 19.5589H19.1924C19.1924 19.5589 19.9087 22.6395 20.4088 22.6395C20.7337 22.6395 20.6365 22.4613 20.5285 22.2632C20.4702 22.1564 20.4088 22.0439 20.4088 21.9504C20.4088 21.6837 20.9109 22.2171 20.9109 22.2171Z" fill="#2E42A5"/>
<path fill-rule="evenodd" clip-rule="evenodd" d="M25.3688 16.671C25.6385 14.7972 25.0991 10.3199 25.0991 10.3199L24.2458 10.9296C24.6315 12.0141 24.5121 15.126 24.2458 16.671C23.9796 18.216 21.4602 19.1475 21.4602 19.1475C21.4602 19.1475 22.0847 19.6091 23.2299 19.8249C24.3751 20.0408 25.0991 18.5449 25.3688 16.671ZM21.1802 20.4155C21.6661 20.4155 20.9684 19.7189 20.9684 19.7189H19.8052C19.8052 19.7189 20.2032 20.7028 20.6944 20.7028C20.9406 20.7028 20.94 20.6306 20.9393 20.5586C20.9386 20.487 20.9379 20.4155 21.1802 20.4155Z" fill="#FECA00"/>
<path d="M13.2028 11.446L13.2943 10.8936L14.8952 10.9973L13.6809 9.73937L14.0901 9.35019L15.7324 11.0515L14.3283 8.41149L14.8137 8.1228L16.092 10.0032L15.4823 8.04868L16.0066 7.84016L17.9722 11.7602L17.2182 11.7114L17.2921 11.9482L17.934 12.1184L17.7878 12.6618L17.4901 12.5829L17.7681 13.4742L17.2851 12.7637L18.1261 14.3442L16.0598 12.2036L13.2028 11.446Z" fill="#6FAE21"/>
<path d="M24.9261 11.446L24.8346 10.8936L23.2337 10.9973L24.448 9.73937L24.0388 9.35019L22.3965 11.0515L23.8006 8.41149L23.3152 8.1228L22.0369 10.0032L22.6466 8.04868L22.1223 7.84016L20.1567 11.7602L20.9107 11.7114L20.8369 11.9482L20.1949 12.1184L20.3412 12.6618L20.6388 12.5829L20.3608 13.4742L20.8438 12.7637L20.0028 14.3442L22.0691 12.2036L24.9261 11.446Z" fill="#6FAE21"/>
<path d="M14.0667 22.3112L13.6544 21.9254L25.8448 9.09058L26.2571 9.47646L14.0667 22.3112Z" fill="#171401"/>
<path fill-rule="evenodd" clip-rule="evenodd" d="M25.5352 9.18939L26.1602 9.77883L26.5125 8.80441L25.5352 9.18939Z" fill="#CECECC"/>
<path fill-rule="evenodd" clip-rule="evenodd" d="M14.3764 22.3086L13.6585 21.8366L13.426 22.8041L14.3764 22.3086Z" fill="#CECECC"/>
<path d="M13.16 20.3987L12.7477 20.0129L24.9381 7.17809L25.3504 7.56396L13.16 20.3987Z" fill="#171401"/>
<path fill-rule="evenodd" clip-rule="evenodd" d="M24.6284 7.27689L25.2534 7.86633L25.6057 6.89191L24.6284 7.27689Z" fill="#CECECC"/>
<path fill-rule="evenodd" clip-rule="evenodd" d="M13.4697 20.3961L12.7518 19.9241L12.5192 20.8916L13.4697 20.3961Z" fill="#CECECC"/>
<path d="M24.2532 22.3112L24.6655 21.9254L12.4752 9.09058L12.0628 9.47646L24.2532 22.3112Z" fill="#171401"/>
<path fill-rule="evenodd" clip-rule="evenodd" d="M12.7848 9.18939L12.1598 9.77883L11.8075 8.80441L12.7848 9.18939Z" fill="#CECECC"/>
<path fill-rule="evenodd" clip-rule="evenodd" d="M23.9435 22.3086L24.6614 21.8366L24.894 22.8041L23.9435 22.3086Z" fill="#CECECC"/>
<path d="M25.3866 20.8487L25.799 20.4629L13.6086 7.62808L13.1963 8.01395L25.3866 20.8487Z" fill="#171401"/>
<path fill-rule="evenodd" clip-rule="evenodd" d="M13.9182 7.72689L13.2932 8.31633L12.9409 7.3419L13.9182 7.72689Z" fill="#CECECC"/>
<path fill-rule="evenodd" clip-rule="evenodd" d="M25.077 20.8461L25.7948 20.3741L26.0274 21.3416L25.077 20.8461Z" fill="#CECECC"/>
<rect x="16.6666" y="17.375" width="4.53333" height="2.25" fill="#B74E01"/>
<path d="M18.9477 18.2868C19.8465 18.2868 20.6233 17.7088 21.1627 16.852C21.7043 15.9919 22.031 14.8191 22.031 13.5368C22.031 12.2544 21.7043 11.0817 21.1627 10.2216C20.6233 9.36479 19.8465 8.78677 18.9477 8.78677C18.0489 8.78677 17.2721 9.36479 16.7327 10.2216C16.1912 11.0817 15.8644 12.2544 15.8644 13.5368C15.8644 14.8191 16.1912 15.9919 16.7327 16.852C17.2721 17.7088 18.0489 18.2868 18.9477 18.2868Z" fill="#7DB8FF" stroke="#FECA00" stroke-width="0.5"/>
<mask id="mask2_566_17133" style="mask-type:alpha" maskUnits="userSpaceOnUse" x="15" y="8" width="8" height="11">
<path d="M18.9477 18.2868C19.8465 18.2868 20.6233 17.7088 21.1627 16.852C21.7043 15.9919 22.031 14.8191 22.031 13.5368C22.031 12.2544 21.7043 11.0817 21.1627 10.2216C20.6233 9.36479 19.8465 8.78677 18.9477 8.78677C18.0489 8.78677 17.2721 9.36479 16.7327 10.2216C16.1912 11.0817 15.8644 12.2544 15.8644 13.5368C15.8644 14.8191 16.1912 15.9919 16.7327 16.852C17.2721 17.7088 18.0489 18.2868 18.9477 18.2868Z" fill="white" stroke="white" stroke-width="0.5"/>
</mask>
<g mask="url(#mask2_566_17133)">
<path fill-rule="evenodd" clip-rule="evenodd" d="M15.8794 13.6099H17.4917C17.4917 13.6099 18.6001 13.8554 18.0459 14.0486C17.4917 14.2418 17.4917 14.3057 17.4917 14.5812C17.4917 14.8568 17.4917 15.8651 17.4917 16.0805C17.4917 16.2958 17.886 16.7568 17.055 16.7568C16.2241 16.7568 15.5082 13.3408 15.5082 13.3408L15.8794 13.6099Z" fill="#6FAE21"/>
<path fill-rule="evenodd" clip-rule="evenodd" d="M22.1791 13.7955C22.1791 13.7955 20.6814 14.0913 19.6554 13.9927C18.6294 13.8941 18.1791 13.7955 18.1791 13.7955C18.1791 13.7955 18.8942 14.1674 19.1484 14.4791C19.4025 14.7909 19.9229 15.3298 20.4533 15.3298C20.9838 15.3298 21.797 15.833 21.797 15.833L22.1791 13.7955Z" fill="#6FAE21"/>
<path fill-rule="evenodd" clip-rule="evenodd" d="M16.3187 11.1356C16.3187 11.1356 17.5533 11.3742 17.8507 11.7315C18.148 12.0888 17.4579 12.446 19.2569 12.0888C21.0559 11.7315 22.4839 11.1083 22.4839 12.0888C22.4839 13.0693 22.3267 13.9725 21.5526 13.9725C20.7784 13.9725 20.4696 13.9725 18.1087 13.9725C15.7477 13.9725 14.4607 14.6946 14.626 13.5327C14.7913 12.3708 16.3187 11.1356 16.3187 11.1356Z" fill="#F7FCFF"/>
</g>
</g>
</g>
<rect x="3" y="1" width="32" height="24" fill="url(#paint0_linear_566_17133)" style="mix-blend-mode:overlay"/>
</g>
<rect x="3.5" y="1.5" width="31" height="23" rx="1.5" stroke="black" stroke-opacity="0.1" style="mix-blend-mode:multiply"/>
</g>
<defs>
<filter id="filter0_d_566_17133" x="0" y="0" width="38" height="30" filterUnits="userSpaceOnUse" color-interpolation-filters="sRGB">
<feFlood flood-opacity="0" result="BackgroundImageFix"/>
<feColorMatrix in="SourceAlpha" type="matrix" values="0 0 0 0 0 0 0 0 0 0 0 0 0 0 0 0 0 0 127 0" result="hardAlpha"/>
<feOffset dy="2"/>
<feGaussianBlur stdDeviation="1.5"/>
<feColorMatrix type="matrix" values="0 0 0 0 0 0 0 0 0 0 0 0 0 0 0 0 0 0 0.1 0"/>
<feBlend mode="normal" in2="BackgroundImageFix" result="effect1_dropShadow_566_17133"/>
<feBlend mode="normal" in="SourceGraphic" in2="effect1_dropShadow_566_17133" result="shape"/>
</filter>
<linearGradient id="paint0_linear_566_17133" x1="19" y1="1" x2="19" y2="25" gradientUnits="userSpaceOnUse">
<stop stop-color="white" stop-opacity="0.7"/>
<stop offset="1" stop-opacity="0.3"/>
</linearGradient>
<clipPath id="clip0_566_17133">
<rect x="3" y="1" width="32" height="24" rx="2" fill="white"/>
</clipPath>
</defs>
</svg>
