<svg width="38" height="30" viewBox="0 0 38 30" fill="none" xmlns="http://www.w3.org/2000/svg">
<g filter="url(#filter0_d_566_17133)">
<g clip-path="url(#clip0_566_17133)">
<mask id="mask0_566_17133" style="mask-type:alpha" maskUnits="userSpaceOnUse" x="3" y="1" width="32" height="24">
<rect x="3" y="1" width="32" height="24" fill="white"/>
</mask>
<g mask="url(#mask0_566_17133)">
<path fill-rule="evenodd" clip-rule="evenodd" d="M3 1V25H35V1H3Z" fill="#FFB400"/>
<mask id="mask1_566_17133" style="mask-type:alpha" maskUnits="userSpaceOnUse" x="3" y="1" width="32" height="24">
<path fill-rule="evenodd" clip-rule="evenodd" d="M3 1V25H35V1H3Z" fill="white"/>
</mask>
<g mask="url(#mask1_566_17133)">
<path fill-rule="evenodd" clip-rule="evenodd" d="M3 1V7H35V1H3Z" fill="#C51918"/>
<path fill-rule="evenodd" clip-rule="evenodd" d="M3 19V25H35V19H3Z" fill="#C51918"/>
<rect x="8.00806" y="11.272" width="1.12" height="5.824" fill="#F1F9FF"/>
<path fill-rule="evenodd" clip-rule="evenodd" d="M9.57606 10.264H7.56006V10.824H7.89606V11.272H9.24006V10.824H9.57606V10.264Z" fill="#C88A02"/>
<path fill-rule="evenodd" clip-rule="evenodd" d="M9.24006 17.432H9.57606V17.992H7.56006V17.432H7.89606V16.984H9.24006V17.432Z" fill="#C88A02"/>
<path fill-rule="evenodd" clip-rule="evenodd" d="M8.56806 10.376C8.81179 10.376 8.83656 10.2842 8.98036 10.1472C9.09201 10.0407 9.35206 9.90871 9.35206 9.76C9.35206 9.4198 9.00105 9.144 8.56806 9.144C8.13507 9.144 7.78406 9.4198 7.78406 9.76C7.78406 9.92567 7.96314 10.0364 8.09854 10.1472C8.2412 10.2638 8.34592 10.376 8.56806 10.376Z" fill="#AD1619"/>
<path fill-rule="evenodd" clip-rule="evenodd" d="M7.56006 17.992H9.57606V18.888C9.57606 18.888 9.32406 18.776 9.07206 18.776C8.82006 18.776 8.56806 18.888 8.56806 18.888C8.56806 18.888 8.31606 18.776 8.06406 18.776C7.81206 18.776 7.56006 18.888 7.56006 18.888V17.992Z" fill="#005BBF"/>
<mask id="mask2_566_17133" style="mask-type:alpha" maskUnits="userSpaceOnUse" x="7" y="17" width="3" height="2">
<path fill-rule="evenodd" clip-rule="evenodd" d="M7.56006 17.992H9.57606V18.888C9.57606 18.888 9.32406 18.776 9.07206 18.776C8.82006 18.776 8.56806 18.888 8.56806 18.888C8.56806 18.888 8.31606 18.776 8.06406 18.776C7.81206 18.776 7.56006 18.888 7.56006 18.888V17.992Z" fill="white"/>
</mask>
<g mask="url(#mask2_566_17133)">
<path d="M7.54181 18.7119L7.4978 18.6046C7.67938 18.5238 7.86161 18.4833 8.04411 18.4833C8.16202 18.4833 8.22359 18.4997 8.32826 18.5463C8.4202 18.5872 8.46786 18.6 8.56841 18.6C8.66896 18.6 8.71662 18.5872 8.80856 18.5463C8.91323 18.4997 8.9748 18.4833 9.09271 18.4833C9.27521 18.4833 9.45744 18.5238 9.63902 18.6046L9.59501 18.7119C9.42706 18.6372 9.25975 18.6 9.09271 18.6C8.99216 18.6 8.9445 18.6127 8.85256 18.6536C8.74789 18.7002 8.68632 18.7166 8.56841 18.7166C8.4505 18.7166 8.38893 18.7002 8.28426 18.6536C8.19232 18.6127 8.14466 18.6 8.04411 18.6C7.87707 18.6 7.70976 18.6372 7.54181 18.7119Z" fill="white"/>
<path d="M7.54181 18.3759L7.4978 18.2686C7.67938 18.1878 7.86161 18.1473 8.04411 18.1473C8.16202 18.1473 8.22359 18.1637 8.32826 18.2103C8.4202 18.2512 8.46786 18.264 8.56841 18.264C8.66896 18.264 8.71662 18.2512 8.80856 18.2103C8.91323 18.1637 8.9748 18.1473 9.09271 18.1473C9.27521 18.1473 9.45744 18.1878 9.63902 18.2686L9.59501 18.3759C9.42706 18.3012 9.25975 18.264 9.09271 18.264C8.99216 18.264 8.9445 18.2767 8.85256 18.3176C8.74789 18.3642 8.68632 18.3806 8.56841 18.3806C8.4505 18.3806 8.38893 18.3642 8.28426 18.3176C8.19232 18.2767 8.14466 18.264 8.04411 18.264C7.87707 18.264 7.70976 18.3012 7.54181 18.3759Z" fill="white"/>
</g>
<rect x="18.984" y="11.272" width="1.12" height="5.824" fill="#F1F9FF"/>
<path fill-rule="evenodd" clip-rule="evenodd" d="M20.552 10.264H18.536V10.824H18.872V11.272H20.216V10.824H20.552V10.264Z" fill="#C88A02"/>
<path fill-rule="evenodd" clip-rule="evenodd" d="M20.216 17.432H20.552V17.992H18.536V17.432H18.872V16.984H20.216V17.432Z" fill="#C88A02"/>
<path fill-rule="evenodd" clip-rule="evenodd" d="M19.544 10.376C19.7877 10.376 19.8125 10.2842 19.9563 10.1472C20.068 10.0407 20.328 9.90871 20.328 9.76C20.328 9.4198 19.977 9.144 19.544 9.144C19.111 9.144 18.76 9.4198 18.76 9.76C18.76 9.92567 18.9391 10.0364 19.0745 10.1472C19.2171 10.2638 19.3219 10.376 19.544 10.376Z" fill="#AD1619"/>
<path fill-rule="evenodd" clip-rule="evenodd" d="M18.536 17.992H20.552V18.888C20.552 18.888 20.3 18.776 20.048 18.776C19.796 18.776 19.544 18.888 19.544 18.888C19.544 18.888 19.292 18.776 19.04 18.776C18.788 18.776 18.536 18.888 18.536 18.888V17.992Z" fill="#005BBF"/>
<mask id="mask3_566_17133" style="mask-type:alpha" maskUnits="userSpaceOnUse" x="18" y="17" width="3" height="2">
<path fill-rule="evenodd" clip-rule="evenodd" d="M18.536 17.992H20.552V18.888C20.552 18.888 20.3 18.776 20.048 18.776C19.796 18.776 19.544 18.888 19.544 18.888C19.544 18.888 19.292 18.776 19.04 18.776C18.788 18.776 18.536 18.888 18.536 18.888V17.992Z" fill="white"/>
</mask>
<g mask="url(#mask3_566_17133)">
<path d="M18.5178 18.7119L18.4738 18.6046C18.6553 18.5238 18.8376 18.4833 19.0201 18.4833C19.138 18.4833 19.1995 18.4997 19.3042 18.5463C19.3962 18.5872 19.4438 18.6 19.5444 18.6C19.6449 18.6 19.6926 18.5872 19.7845 18.5463C19.8892 18.4997 19.9508 18.4833 20.0687 18.4833C20.2512 18.4833 20.4334 18.5238 20.615 18.6046L20.571 18.7119C20.403 18.6372 20.2357 18.6 20.0687 18.6C19.9681 18.6 19.9205 18.6127 19.8285 18.6536C19.7238 18.7002 19.6623 18.7166 19.5444 18.7166C19.4265 18.7166 19.3649 18.7002 19.2602 18.6536C19.1683 18.6127 19.1206 18.6 19.0201 18.6C18.853 18.6 18.6857 18.6372 18.5178 18.7119Z" fill="white"/>
<path d="M18.5178 18.3759L18.4738 18.2686C18.6553 18.1878 18.8376 18.1473 19.0201 18.1473C19.138 18.1473 19.1995 18.1637 19.3042 18.2103C19.3962 18.2512 19.4438 18.264 19.5444 18.264C19.6449 18.264 19.6926 18.2512 19.7845 18.2103C19.8892 18.1637 19.9508 18.1473 20.0687 18.1473C20.2512 18.1473 20.4334 18.1878 20.615 18.2686L20.571 18.3759C20.403 18.3012 20.2357 18.264 20.0687 18.264C19.9681 18.264 19.9205 18.2767 19.8285 18.3176C19.7238 18.3642 19.6623 18.3806 19.5444 18.3806C19.4265 18.3806 19.3649 18.3642 19.2602 18.3176C19.1683 18.2767 19.1206 18.264 19.0201 18.264C18.853 18.264 18.6857 18.3012 18.5178 18.3759Z" fill="white"/>
</g>
<path fill-rule="evenodd" clip-rule="evenodd" d="M7.988 16.6799C8.18993 16.4351 8.30285 16.2124 8.30285 15.9759C8.30285 15.8267 8.25846 15.6979 8.1807 15.5927L8.19384 15.5868C8.19263 15.5873 8.41536 15.4902 8.4929 15.453C8.63706 15.3839 8.76405 15.3107 8.88788 15.2207C8.96693 15.1632 9.07285 15.1006 9.23431 15.0139C9.26221 14.9989 9.33783 14.9587 9.38606 14.9331L9.427 14.9114C9.50548 14.8695 9.56391 14.8374 9.6182 14.8059C9.78737 14.7078 9.89917 14.6267 9.98467 14.5183C10.1872 14.2615 10.1451 13.9134 9.86135 13.7201C9.72231 13.6255 9.53468 13.5712 9.25965 13.5284L9.20278 13.5196C9.10883 13.5051 8.9283 13.4772 8.8663 13.4674C8.73468 13.4468 8.61725 13.4275 8.51254 13.4092C9.20111 13.2946 10.1843 13.3367 10.6168 13.56L11.0279 12.7639C10.1466 12.3088 8.13843 12.3553 7.38829 12.8719C6.8381 13.2508 6.91193 13.8236 7.48438 14.0702C7.72358 14.1733 8.03541 14.2416 8.61246 14.3344C8.51576 14.3905 8.43559 14.4417 8.36089 14.496C8.28513 14.5511 8.20397 14.5979 8.10552 14.6451C8.05844 14.6677 7.91905 14.7289 7.85513 14.757L7.85508 14.757L7.85508 14.757L7.82296 14.7711C7.35668 14.9831 7.13038 15.2764 7.198 15.8059L7.23461 16.0925L7.30027 16.1127L7.988 16.6799ZM7.41162 15.9393L7.4102 15.9434L7.41128 15.9404L7.41162 15.9393ZM19.706 15.9759C19.706 16.2124 19.8189 16.4351 20.0208 16.6799L20.7086 16.1127L20.7742 16.0925L20.8108 15.8059C20.8785 15.2764 20.6522 14.9831 20.1859 14.7711L20.1538 14.757C20.0899 14.7289 19.9504 14.6677 19.9033 14.6451C19.8049 14.5979 19.7237 14.5511 19.648 14.496C19.5733 14.4417 19.4931 14.3905 19.3964 14.3344C19.9734 14.2416 20.2853 14.1733 20.5245 14.0702C21.0969 13.8236 21.1707 13.2508 20.6205 12.8719C19.8704 12.3553 17.8623 12.3088 16.9809 12.7639L17.392 13.56C17.8245 13.3367 18.8077 13.2946 19.4963 13.4092C19.3916 13.4275 19.2742 13.4468 19.1425 13.4674C19.0806 13.4772 18.9001 13.5051 18.8061 13.5196L18.8058 13.5196L18.7492 13.5284C18.4742 13.5712 18.2865 13.6255 18.1475 13.7201C17.8637 13.9134 17.8217 14.2615 18.0242 14.5183C18.1097 14.6267 18.2215 14.7078 18.3906 14.8059C18.4449 14.8374 18.5034 14.8695 18.5818 14.9114L18.6226 14.933C18.6708 14.9586 18.7466 14.9989 18.7745 15.0139C18.936 15.1006 19.0419 15.1632 19.121 15.2207C19.2448 15.3107 19.3718 15.3839 19.5159 15.453C19.5935 15.4902 19.8162 15.5873 19.815 15.5868L19.8281 15.5927C19.7504 15.6979 19.706 15.8267 19.706 15.9759Z" fill="#AD1619"/>
<path d="M8.92341 13.4L9.254 13.4684V13.9611C8.9019 14.2421 8.00806 14.7156 8.00806 14.7156V13.4H8.92341Z" fill="#F1F9FF"/>
<path d="M19.3146 13.4L18.984 13.4684V13.9611C19.3361 14.2421 20.23 14.7156 20.23 14.7156V13.4H19.3146Z" fill="#F1F9FF"/>
<path fill-rule="evenodd" clip-rule="evenodd" d="M17.7761 8.20598V8.042C17.2001 7.62855 16.5968 7.42183 15.9663 7.42183C15.3619 7.15435 14.7501 7.05053 14.1309 7.11035C14.1311 7.10844 14.1312 7.10747 14.1312 7.10747C13.2002 7.01637 12.262 7.42183 12.262 7.42183C11.3163 7.42183 10.4521 8.042 10.4521 8.042V8.20598L11.5818 9.34051C11.5818 9.34051 11.8997 10.4325 14.1266 10.1759V10.1786C14.1266 10.1786 15.6009 10.1384 15.7045 10.1039C15.7456 10.0903 15.7883 10.0778 15.8318 10.0651C16.1206 9.98078 16.4503 9.88454 16.6465 9.34051L17.7761 8.20598ZM14.1266 7.16052C14.0944 7.53823 13.9109 9.81517 14.1266 10.1682V7.16052Z" fill="#AD1619"/>
<path fill-rule="evenodd" clip-rule="evenodd" d="M11.3137 9.14958L11.3145 9.14613L10.5198 8.39844L10.5965 8.31686L11.3422 9.01846L11.3613 8.93069C11.4833 8.95722 11.5725 8.96697 11.6245 8.96145V8.80925L11.7898 8.89871C11.8711 8.94271 11.9875 8.95454 12.1409 8.92959C12.2535 8.91126 12.3295 8.78044 12.3544 8.50167L12.4046 7.93891L12.5729 8.47826C12.649 8.72232 12.7652 8.8299 12.9306 8.8299C13.0922 8.8299 13.1571 8.77068 13.1643 8.6214L13.1846 8.19802L13.3761 8.57618C13.445 8.71241 13.5402 8.77423 13.6754 8.77423C13.8689 8.77423 13.9981 8.61295 13.9981 8.35991H14.0017H14.2221H14.2257C14.2257 8.61295 14.355 8.77423 14.5484 8.77423C14.6837 8.77423 14.7788 8.71241 14.8478 8.57618L15.0392 8.19802L15.0596 8.6214C15.0667 8.77068 15.1317 8.8299 15.2932 8.8299C15.4586 8.8299 15.5748 8.72232 15.6509 8.47826L15.8192 7.93891L15.8694 8.50167C15.8943 8.78044 15.9703 8.91126 16.0829 8.92959C16.2363 8.95454 16.3527 8.94271 16.434 8.89871L16.5993 8.80925V8.96145C16.6513 8.96697 16.7405 8.95722 16.8625 8.93069L16.8979 9.09356L17.7234 8.31686L17.8002 8.39844L16.7729 9.36495C16.623 9.64098 16.5475 9.82317 16.5475 9.89885C16.5475 10.0143 16.2471 10.0828 15.6609 10.1532C15.2016 10.2084 14.6596 10.2454 14.2162 10.2509V10.2516L14.16 10.2515L14.1038 10.2516V10.2509C13.6604 10.2454 13.1184 10.2084 12.6591 10.1532C12.0728 10.0828 11.7724 10.0143 11.7724 9.89885C11.7724 9.88453 11.7697 9.8664 11.7643 9.84455C11.7052 9.76927 11.6637 9.6461 11.636 9.53501C11.61 9.48306 11.5804 9.42632 11.5471 9.36495L11.3195 9.15082L11.3137 9.14958ZM16.8192 9.16761C16.6358 9.20008 16.5033 9.1968 16.433 9.13958C16.3231 9.17156 16.1942 9.17464 16.0469 9.15068C15.8897 9.12509 15.7802 9.02051 15.7143 8.84701C15.6283 8.95659 15.5195 9.02424 15.3893 9.04612C16.106 9.14776 16.608 9.29063 16.608 9.29063C16.608 9.29063 16.5957 9.39678 16.5656 9.52158C16.5974 9.45625 16.6352 9.38365 16.6788 9.30353L16.6896 9.28953L16.8192 9.16761ZM15.0511 9.00354C14.9887 8.97257 14.9389 8.92766 14.903 8.86978C14.8495 8.91697 14.7888 8.95149 14.7213 8.97278C14.8339 8.9814 14.9441 8.99181 15.0511 9.00354ZM14.3259 8.95099C14.2386 8.91067 14.1661 8.84611 14.1119 8.76338C14.0581 8.84553 13.9862 8.90976 13.8998 8.95013C13.951 8.94861 14.0025 8.94753 14.0542 8.94695V8.94644L14.0991 8.94657L14.144 8.94644V8.94695C14.205 8.94764 14.2657 8.949 14.3259 8.95099ZM11.6222 9.28186L11.5178 9.18362C11.6431 9.19605 11.7359 9.18426 11.7908 9.13958C11.9007 9.17156 12.0297 9.17464 12.1769 9.15068C12.3341 9.12509 12.4436 9.02051 12.5095 8.84701C12.593 8.95342 12.698 9.02029 12.8233 9.0441C12.2053 9.13092 11.7443 9.24904 11.6222 9.28186ZM13.4977 8.97122C13.3892 8.97928 13.283 8.98903 13.1797 9.00004C13.2388 8.96922 13.2862 8.92551 13.3209 8.86978C13.373 8.91584 13.4321 8.94982 13.4977 8.97122ZM16.2531 9.90104C16.3315 9.93776 16.3944 9.90113 16.4442 9.83082C16.4399 9.85024 16.4372 9.8678 16.4361 9.88352C16.4295 9.88782 16.4194 9.893 16.4062 9.89856C16.3693 9.91407 16.313 9.93059 16.2397 9.94731C16.0956 9.98018 15.8906 10.0128 15.6475 10.042C15.1729 10.099 14.6086 10.1365 14.16 10.1395C13.7113 10.1365 13.147 10.099 12.6724 10.042C12.4294 10.0128 12.2243 9.98018 12.0803 9.94731C12.0188 9.93329 11.9693 9.91942 11.9332 9.90616C11.9371 9.90465 11.9412 9.90294 11.9452 9.90104C12.1899 9.78656 13.8078 9.67912 14.0991 9.66058C14.3905 9.67912 16.0084 9.78656 16.2531 9.90104ZM16.561 9.88114L16.5601 9.88219L16.5609 9.88106L16.5616 9.88053L16.561 9.88114Z" fill="#C88A02"/>
<path fill-rule="evenodd" clip-rule="evenodd" d="M14.1124 6.34707C14.2979 6.34707 14.4484 6.19664 14.4484 6.01107C14.4484 5.8255 14.2979 5.67507 14.1124 5.67507C13.9268 5.67507 13.7764 5.8255 13.7764 6.01107C13.7764 6.19664 13.9268 6.34707 14.1124 6.34707Z" fill="#005BBF"/>
<path fill-rule="evenodd" clip-rule="evenodd" d="M13.8938 7.9968C13.9009 8.03368 13.9121 8.06801 13.9263 8.09861C13.8829 8.08203 13.8314 8.07243 13.7761 8.07243C13.6215 8.07243 13.4961 8.14764 13.4961 8.24043C13.4961 8.33321 13.6215 8.40843 13.7761 8.40843C13.9307 8.40843 14.0561 8.33321 14.0561 8.24043C14.0561 8.33321 14.1815 8.40843 14.3361 8.40843C14.4907 8.40843 14.6161 8.33321 14.6161 8.24043C14.6161 8.14764 14.4907 8.07243 14.3361 8.07243C14.2972 8.07243 14.2601 8.07719 14.2264 8.08581C14.2345 8.03988 14.2342 7.98721 14.2236 7.93269C14.1941 7.78089 14.0963 7.67219 14.0052 7.68989C13.9142 7.7076 13.8642 7.84501 13.8938 7.9968ZM14.0561 8.24043L14.056 8.2353L14.0562 8.23538L14.0561 8.24043ZM12.2463 8.21061C12.2321 8.18001 12.2209 8.14568 12.2138 8.1088C12.1842 7.95701 12.2342 7.8196 12.3252 7.80189C12.4163 7.78419 12.5141 7.89289 12.5436 8.04469C12.5542 8.09921 12.5545 8.15188 12.5464 8.19781C12.5801 8.18919 12.6172 8.18443 12.6561 8.18443C12.8107 8.18443 12.9361 8.25964 12.9361 8.35243C12.9361 8.44521 12.8107 8.52043 12.6561 8.52043C12.5015 8.52043 12.3761 8.44521 12.3761 8.35243L12.3762 8.34738L12.376 8.3473L12.3761 8.35243C12.3761 8.44521 12.2507 8.52043 12.0961 8.52043C11.9415 8.52043 11.8161 8.44521 11.8161 8.35243C11.8161 8.25964 11.9415 8.18443 12.0961 8.18443C12.1514 8.18443 12.2029 8.19403 12.2463 8.21061ZM15.754 8.31299C15.7411 8.40487 15.6065 8.46191 15.4534 8.44038C15.3002 8.41886 15.1866 8.32693 15.1995 8.23505C15.2124 8.14317 15.347 8.08613 15.5001 8.10765C15.5549 8.11534 15.6045 8.13203 15.6452 8.15448C15.6354 8.12221 15.6291 8.08666 15.6272 8.04914C15.6191 7.89471 15.6876 7.76559 15.7803 7.76073C15.8729 7.75588 15.9546 7.87713 15.9627 8.03156C15.9656 8.08702 15.9586 8.13922 15.9442 8.18358C15.9788 8.17973 16.0161 8.18017 16.0547 8.18559C16.2078 8.20711 16.3215 8.29904 16.3086 8.39093C16.2957 8.48281 16.1611 8.53984 16.0079 8.51832C15.8548 8.4968 15.7411 8.40487 15.754 8.31299ZM15.754 8.31299L15.7546 8.30789L15.7548 8.30801L15.754 8.31299ZM16.8204 8.75724C16.957 8.82984 17.103 8.82228 17.1465 8.74036L17.1488 8.73577C17.1623 8.75001 17.1782 8.76037 17.1964 8.76592C17.2851 8.79305 17.3937 8.69516 17.4389 8.54728C17.4841 8.39939 17.4488 8.25752 17.3601 8.23039C17.2714 8.20327 17.1628 8.30116 17.1176 8.44904C17.1066 8.48496 17.1004 8.52053 17.0985 8.55419C17.068 8.51918 17.027 8.48651 16.9782 8.46057C16.8416 8.38797 16.6956 8.39553 16.6521 8.47746C16.6085 8.55938 16.6839 8.68464 16.8204 8.75724ZM11.3249 8.79155C11.1884 8.86415 11.0424 8.85659 10.9988 8.77467C10.998 8.77315 10.9972 8.77163 10.9965 8.77008C10.9831 8.78432 10.9671 8.79468 10.949 8.80023C10.8603 8.82736 10.7517 8.72947 10.7065 8.58159C10.6612 8.4337 10.6965 8.29183 10.7853 8.2647C10.874 8.23757 10.9826 8.33547 11.0278 8.48335C11.0388 8.51927 11.045 8.55484 11.0469 8.5885C11.0774 8.55349 11.1184 8.52082 11.1672 8.49488C11.3037 8.42228 11.4497 8.42984 11.4933 8.51176C11.5368 8.59369 11.4615 8.71895 11.3249 8.79155Z" fill="#C88A02"/>
<path fill-rule="evenodd" clip-rule="evenodd" d="M13.9869 5.0766H14.2202V5.224H14.3727V5.45734H14.2202V5.924H14.3727V6.15734H13.832V5.924H13.9869V5.45734H13.832V5.224H13.9869V5.0766Z" fill="#C88A02"/>
<rect x="13.9441" y="6.344" width="0.448" height="1.456" fill="#C88A02"/>
<path d="M12.1407 6.58784L12.1387 6.69983C11.1456 6.68249 10.576 6.82742 10.4314 7.11627C10.2819 7.41489 10.3097 7.77791 10.5191 8.20914L10.4184 8.25808C10.1949 7.79798 10.1644 7.39939 10.3312 7.06613C10.5029 6.72309 11.1056 6.56977 12.1407 6.58784Z" fill="white"/>
<path d="M12.3329 7.58099L12.2754 7.67715C12.0592 7.54802 11.9509 7.32764 11.9509 7.02394C11.9509 6.58746 12.1758 6.3315 12.6731 6.15635C12.9905 6.04456 13.4242 6.09039 13.9752 6.29017L13.937 6.39546C13.408 6.20368 12.9987 6.16041 12.7103 6.26199C12.2541 6.42265 12.0629 6.64032 12.0629 7.02394C12.0629 7.29045 12.1528 7.4735 12.3329 7.58099Z" fill="white"/>
<path d="M10.6602 8.03739L10.4488 8.11162C10.2296 7.48727 10.2922 7.06326 10.6669 6.88035C10.997 6.71918 11.4782 6.65359 12.1128 6.67931L12.1037 6.90313C11.5029 6.87878 11.0559 6.93971 10.7651 7.08165C10.5189 7.20185 10.4738 7.50684 10.6602 8.03739Z" fill="#C88A02"/>
<path d="M13.1294 6.4387C12.6173 6.4387 12.407 6.56343 12.2868 6.93172C12.2102 7.16642 12.2845 7.36674 12.5253 7.55372L12.3879 7.73064C12.0762 7.48856 11.9663 7.19208 12.0739 6.86224C12.227 6.3929 12.5274 6.2147 13.1294 6.2147C13.524 6.2147 13.8313 6.31836 14.0453 6.52932L14.0787 6.56222V7.64218H13.8547V6.65796C13.6876 6.51278 13.4475 6.4387 13.1294 6.4387Z" fill="#C88A02"/>
<path d="M16.0491 6.69984L16.0511 6.81183C17.0442 6.79449 17.6139 6.93942 17.7585 7.22827C17.908 7.52689 17.8802 7.88991 17.6707 8.32114L17.7714 8.37008C17.9949 7.90998 18.0254 7.51139 17.8586 7.17813C17.6869 6.83509 17.0843 6.68177 16.0491 6.69984Z" fill="white"/>
<path d="M15.6984 7.60427L15.7558 7.70043C15.9721 7.5713 16.0803 7.35093 16.0803 7.04722C16.0803 6.61074 15.8555 6.35479 15.3581 6.17963C15.0407 6.06784 14.6071 6.11368 14.0561 6.31345L14.0943 6.41875C14.6232 6.22696 15.0325 6.1837 15.3209 6.28527C15.7771 6.44593 15.9683 6.6636 15.9683 7.04722C15.9683 7.31374 15.8784 7.49678 15.6984 7.60427Z" fill="white"/>
<path d="M17.5993 8.14939L17.8107 8.22362C18.03 7.59927 17.9673 7.17526 17.5926 6.99235C17.2625 6.83118 16.7813 6.76559 16.1467 6.79131L16.1558 7.01513C16.7566 6.99078 17.2036 7.05171 17.4944 7.19365C17.7406 7.31385 17.7857 7.61884 17.5993 8.14939Z" fill="#C88A02"/>
<path d="M15.1174 6.456C15.6296 6.456 15.8399 6.58074 15.96 6.94902C16.0366 7.18372 15.9623 7.38404 15.7215 7.57102L15.8589 7.74794C16.1707 7.50586 16.2806 7.20938 16.173 6.87955C16.0198 6.4102 15.7194 6.232 15.1174 6.232C14.7229 6.232 14.4155 6.33566 14.2015 6.54662L14.1681 6.57952V7.65948H14.3921V6.67526C14.5593 6.53008 14.7993 6.456 15.1174 6.456Z" fill="#C88A02"/>
<path opacity="0.3" fill-rule="evenodd" clip-rule="evenodd" d="M10.472 10.264H17.752V16.8048C17.752 16.8048 17.2113 19 14.112 19C11.0128 19 10.472 16.747 10.472 16.747V10.264Z" fill="#E1E5E8"/>
<mask id="mask4_566_17133" style="mask-type:alpha" maskUnits="userSpaceOnUse" x="10" y="10" width="8" height="9">
<path fill-rule="evenodd" clip-rule="evenodd" d="M10.472 10.264H17.752V16.8048C17.752 16.8048 17.2113 19 14.112 19C11.0128 19 10.472 16.747 10.472 16.747V10.264Z" fill="white"/>
</mask>
<g mask="url(#mask4_566_17133)">
<rect x="10.472" y="14.296" width="3.696" height="4.368" fill="#FFC034"/>
<rect x="10.92" y="14.52" width="0.448" height="4.144" fill="#AD1619"/>
<rect x="12.488" y="14.52" width="0.448" height="4.144" fill="#AD1619"/>
<rect x="11.7041" y="14.52" width="0.448" height="4.144" fill="#AD1619"/>
<rect x="13.2721" y="14.52" width="0.448" height="4.144" fill="#AD1619"/>
<rect x="10.472" y="10.152" width="3.696" height="4.256" fill="#AD1619"/>
<rect x="14.056" y="14.184" width="3.696" height="4.256" fill="#AD1619"/>
<rect x="14.056" y="10.264" width="3.92" height="4.144" fill="#F1F9FF"/>
<path fill-rule="evenodd" clip-rule="evenodd" d="M12.0401 10.6H12.3761V11.5292H12.6001V11.0646H12.9361V11.5292H13.2721V12.1099H12.9361V13.1553H13.2721V13.736H11.2561V13.1553H11.5921V12.1099H11.2561V11.5292H11.4801V11.0646H11.8161V11.5292H12.0401V10.6Z" fill="#C88A02"/>
<path d="M15.9789 10.795L16.2082 10.5495L16.6898 10.9993L16.4604 11.2448L15.9789 10.795Z" fill="#C88A02"/>
<path fill-rule="evenodd" clip-rule="evenodd" d="M17.3601 17.1401V14.688H14.5601V17.1196L14.5645 17.1385C14.7062 17.7424 15.1889 18.048 15.9601 18.048C16.7304 18.048 17.2131 17.7503 17.3554 17.1595L17.3601 17.1401ZM15.9601 17.712C15.3414 17.712 15.0035 17.5036 14.8961 17.0799V15.024H17.0241V17.0994C16.9169 17.5092 16.579 17.712 15.9601 17.712Z" fill="#FFC034"/>
<path fill-rule="evenodd" clip-rule="evenodd" d="M16.0756 14.8929H15.8423V16.0046L14.9225 15.0042L14.7576 15.1558L15.5894 16.0605H14.8357V16.3965H15.4147H15.6077L14.7576 17.3212L14.9225 17.4728L15.8423 16.4724V17.7718H16.0756V16.5893L16.8879 17.4728L17.0528 17.3212L16.2026 16.3965H17.1516V16.0605H16.221L17.0528 15.1558L16.8879 15.0042L16.0756 15.8877V14.8929Z" fill="#FFC034"/>
<path fill-rule="evenodd" clip-rule="evenodd" d="M16.4828 18.4427C16.4828 18.4427 14.1106 18.6292 14.1106 17.0992C14.1106 17.0992 14.088 18.4427 11.611 18.4427V19.6505H16.4828V18.4427Z" fill="#F1F9FF"/>
<path fill-rule="evenodd" clip-rule="evenodd" d="M14.1121 15.192C14.576 15.192 14.9521 14.7908 14.9521 14.296C14.9521 13.8012 14.576 13.4 14.1121 13.4C13.6482 13.4 13.2721 13.8012 13.2721 14.296C13.2721 14.7908 13.6482 15.192 14.1121 15.192Z" fill="#005BBF" stroke="#AD1619" stroke-width="1.16667"/>
</g>
</g>
</g>
<rect x="3" y="1" width="32" height="24" fill="url(#paint0_linear_566_17133)" style="mix-blend-mode:overlay"/>
</g>
<rect x="3.5" y="1.5" width="31" height="23" rx="1.5" stroke="black" stroke-opacity="0.1" style="mix-blend-mode:multiply"/>
</g>
<defs>
<filter id="filter0_d_566_17133" x="0" y="0" width="38" height="30" filterUnits="userSpaceOnUse" color-interpolation-filters="sRGB">
<feFlood flood-opacity="0" result="BackgroundImageFix"/>
<feColorMatrix in="SourceAlpha" type="matrix" values="0 0 0 0 0 0 0 0 0 0 0 0 0 0 0 0 0 0 127 0" result="hardAlpha"/>
<feOffset dy="2"/>
<feGaussianBlur stdDeviation="1.5"/>
<feColorMatrix type="matrix" values="0 0 0 0 0 0 0 0 0 0 0 0 0 0 0 0 0 0 0.1 0"/>
<feBlend mode="normal" in2="BackgroundImageFix" result="effect1_dropShadow_566_17133"/>
<feBlend mode="normal" in="SourceGraphic" in2="effect1_dropShadow_566_17133" result="shape"/>
</filter>
<linearGradient id="paint0_linear_566_17133" x1="19" y1="1" x2="19" y2="25" gradientUnits="userSpaceOnUse">
<stop stop-color="white" stop-opacity="0.7"/>
<stop offset="1" stop-opacity="0.3"/>
</linearGradient>
<clipPath id="clip0_566_17133">
<rect x="3" y="1" width="32" height="24" rx="2" fill="white"/>
</clipPath>
</defs>
</svg>
