<svg width="50" height="40" viewBox="0 0 50 40" fill="none" xmlns="http://www.w3.org/2000/svg">
<path d="M32.9767 6.2583C32.8948 6.1024 32.5909 5.54197 32.4869 5.35056L32.451 5.28741C31.1275 2.89178 31.0835 3.34565 30.2519 3.2016L30.1579 3.17989C29.2163 2.96677 27.5989 2.36292 26.8093 2.07481C26.0196 1.78671 23.8445 2.41423 22.457 2.54842C22.1687 2.57053 21.8849 2.63162 21.6134 2.72997C20.9756 2.97466 20.8137 3.38906 20.5538 3.72847C20.4644 3.87374 20.3208 3.9786 20.154 4.02053V4.02053C19.0744 4.40139 16.5255 7.50347 17.0772 11.7817C17.1202 12.198 17.2018 12.6095 17.3211 13.0111C18.3567 17.1255 21.8933 22.637 22.7549 24.196C22.1172 25.6444 20.7557 28.6182 20.3199 31.4184C20.2468 31.8412 20.2034 32.2684 20.19 32.6971C20.132 34.1199 20.4039 35.4243 21.2395 36.3596L21.4115 36.5412C21.8178 36.9296 22.3118 37.2171 22.8529 37.3799C23.5726 37.6857 24.1184 37.514 24.6521 37.4252C24.8837 37.5628 25.1297 37.6753 25.3858 37.7607C26.8992 38.2757 28.5845 37.8633 29.3842 37.4252C30.4478 37.0838 30.9336 36.4682 31.2375 35.515C31.5433 34.6152 32.0131 32.782 30.9516 30.0667C30.4758 28.8945 29.5162 27.0593 28.0408 24.3913V24.3755C29.2243 22.1674 32.395 16.7012 32.9587 15.1008C32.9887 15.016 33.0167 14.9351 33.0427 14.8542C34.0003 12.4368 34.6261 9.23804 32.9867 6.26027M25.2479 19.7046C24.0484 17.7214 22.9428 15.8843 22.2311 14.1221C22.0007 13.4381 21.8216 12.7383 21.6953 12.0283C21.2955 10.0964 21.4614 8.96177 22.2091 7.39889L22.2591 7.29825C22.6898 7.05747 23.1662 6.90699 23.6585 6.85622C24.912 6.73387 27.0392 7.05355 27.8568 9.30514C28.7145 11.6889 26.8832 16.3381 25.2399 19.7066" fill="white"/>
<path d="M24 27.4586C23.7026 26.7939 23.0522 25.3434 22.913 25C21.4017 28.4182 21.0278 32.2141 21 33.3172C21.0157 34.1657 21 35.4505 22.033 36C23.4052 33.8323 21 30.5939 23.9948 27.4586" fill="#ACA9A6"/>
<path d="M28.2974 16.1596C28.6658 14.1833 29.6053 12.4989 28.4208 9.75287C27.4446 7.4926 25.7628 6.68369 24 7.10871C25.1549 6.98728 27.1167 7.30458 27.8682 9.53938C28.6585 11.9054 26.9712 16.52 25.457 19.8634C25.422 19.9417 25.3852 20.02 25.3502 20.0984C26.087 21.4538 26.6875 22.6211 27.4059 24C27.4059 24 28.3748 22.341 28.7763 21.5889C27.9511 19.5598 28.0709 17.3935 28.3048 16.1615" fill="#ACA9A6"/>
<path d="M33.9979 10C33.9979 9.9211 33.9979 9.84219 33.9979 9.77456V9.76104C33.9979 9.72722 33.9979 9.69566 33.9979 9.6641C33.9854 9.32369 33.9645 9.02836 33.9331 8.78489C33.91 8.60047 33.8744 8.41812 33.8265 8.23933C33.5888 7.6146 33.2592 7.03531 32.8504 6.52375C32.2469 5.72634 31.5947 4.97321 30.8983 4.26936C30.8267 4.30355 30.757 4.34194 30.6893 4.38434C29.7801 4.97048 29.801 5.76853 26.6407 4.13636C26.1642 3.89063 25.418 4.04618 25 4.07548C28.1958 6.63195 31.703 6.52374 34 10" fill="#BCBAB7"/>
<path d="M31.5676 17.8782C31.6878 17.7019 31.7977 17.5377 31.8972 17.3894C32.0154 17.2051 32.1252 17.0148 32.231 16.8225C32.2793 16.7357 32.3256 16.6476 32.3699 16.5581C33.6572 14.0581 34.018 11.1494 33.9993 9.32652C32.3865 4.80328 27.6847 6.82051 26.1775 4L25 4.06811C25.0746 4.15825 25.1493 4.2484 25.2301 4.33854C25.8272 4.9976 27.2265 6.34175 28.7295 6.67227C30.2325 7.0028 31.4971 7.22516 32.7658 9.05008C34.0346 10.875 32.685 13.4571 31.495 15.9792C31.0203 16.9808 30.9726 18.0004 30.9042 19C31.097 18.7416 31.1384 18.4411 31.3686 18.1446C31.4349 18.0565 31.5012 17.9684 31.5655 17.8762" fill="#CCC9C6"/>
<path d="M32.4939 9.15322C31.245 7.2635 30.0064 7.04386 28.5273 6.69161C27.0483 6.33936 25.6752 4.95729 25.0885 4.27766C25.009 4.18648 24.9357 4.09324 24.8623 4C23.8437 4.10153 23.0288 4.93035 22.4726 6.11972C22.276 6.54991 22.1179 6.9972 22 7.4562C22.5364 7.01659 23.1883 6.74774 23.8743 6.68332C25.8259 6.23161 27.688 7.09773 28.7637 9.4806C30.0757 12.3815 29.0428 14.1676 28.6272 16.2583C28.3684 17.5596 28.236 19.8533 29.1487 22C29.5911 21.1127 30.0977 20.2602 30.6644 19.4493C30.7316 18.4133 30.7785 17.3648 31.245 16.3246C32.4164 13.7117 33.7488 11.0388 32.4939 9.15322Z" fill="#BBB8B5"/>
<path d="M23.5466 24.4124C22.2077 26.2771 20.1529 36.2415 23.1411 35.8915C27.8301 35.235 24.1695 25.6819 23.5466 24.4124" fill="#9A9794"/>
<g opacity="0.3294">
<path d="M23.9104 6.11295C24.2474 6.01118 24.594 5.94491 24.9447 5.91521C25.2962 5.87826 25.6502 5.87165 26.0028 5.89543C26.7175 5.93356 27.4156 6.12509 28.0496 6.45703C28.6859 6.80404 29.2225 7.30857 29.608 7.92232C29.7976 8.23024 29.9579 8.55532 30.0866 8.89326C30.209 9.23132 30.3074 9.57757 30.3813 9.92944C30.672 11.3473 30.5395 12.8146 30.2448 14.2106C29.9341 15.6045 29.4992 16.9678 28.9455 18.2842C28.4115 19.5992 27.7886 20.8707 27.1557 22.1264L26.1926 23.9971L25.2473 25.8598C24.6184 27.0905 24.0835 28.3669 23.6474 29.6783C23.5453 30.0031 23.4608 30.3332 23.3943 30.6671C23.321 30.999 23.274 31.3362 23.2538 31.6756C23.199 32.3606 23.304 33.049 23.5604 33.6866L23.4793 33.7301C23.0932 33.1126 22.8744 32.4052 22.8445 31.6775C22.8085 30.9526 22.871 30.2262 23.0304 29.5181C23.1804 28.8159 23.3786 28.1247 23.6237 27.4497C23.857 26.7754 24.1319 26.1169 24.4147 25.4723C25.5558 22.8759 26.8986 20.4119 28.0892 17.9006C28.3838 17.2717 28.6825 16.6409 28.9336 16.0002C29.1998 15.3628 29.4328 14.712 29.6317 14.0505C30.0273 12.7335 30.2448 11.3473 30.0451 9.98679C29.994 9.64806 29.9153 9.31408 29.8097 8.98818C29.7011 8.66432 29.5627 8.3512 29.3964 8.05284C29.0535 7.45641 28.5632 6.958 27.9725 6.60534C27.3695 6.25907 26.6991 6.04663 26.0067 5.98244C25.6592 5.94578 25.3093 5.93851 24.9605 5.96069C24.6104 5.97952 24.2631 6.03452 23.9243 6.12482L23.9104 6.11295Z" fill="#797775"/>
</g>
<path d="M32.9858 6.26713C32.9047 6.11289 32.6061 5.55129 32.5013 5.3575L32.4657 5.29225C31.1565 2.89161 31.113 3.34643 30.2903 3.20207L30.1993 3.18032C29.2679 2.96676 27.6679 2.35967 26.8868 2.07492C26.1056 1.79016 23.9539 2.41307 22.5815 2.54753C22.2963 2.57018 22.0156 2.63138 21.7469 2.72946C21.116 2.97466 20.9558 3.38993 20.6987 3.73005C20.6105 3.87576 20.4684 3.98089 20.3032 4.02271V4.02271C19.2353 4.40436 16.7138 7.51293 17.2596 11.7981C17.302 12.2153 17.3827 12.6277 17.5009 13.03C18.5233 17.157 22.0218 22.68 22.8741 24.2422C22.2433 25.6937 20.8965 28.6737 20.4654 31.4797C20.3931 31.9034 20.3502 32.3315 20.3368 32.7611V32.7611C20.2795 34.1869 20.5465 35.494 21.3751 36.4313L21.5452 36.6132C21.9471 37.0029 22.4358 37.2916 22.9711 37.4556C23.681 37.7601 24.2229 37.5901 24.7509 37.5011C24.9807 37.6391 25.2247 37.7518 25.4787 37.8372C26.9758 38.3553 28.6429 37.9381 29.434 37.5011C30.4861 37.161 30.9647 36.544 31.2673 35.5869C31.5698 34.6872 32.0346 32.8481 30.9845 30.1271C30.5118 28.9525 29.5645 27.1135 28.105 24.44V24.4242C29.2758 22.2114 32.4103 16.7338 32.97 15.1301C32.9997 15.0451 33.0254 14.964 33.0531 14.8829C34.0004 12.4605 34.6194 9.25309 32.9977 6.27108M23.3428 35.6897C23.1729 35.7172 23 35.7225 22.8287 35.7055C22.5393 35.6633 22.264 35.5528 22.0257 35.3832C21.6621 35.1294 21.3907 34.7644 21.2525 34.3431C20.8293 33.0775 20.9183 30.5622 23.1787 24.8651C23.414 25.3773 23.6355 25.8538 23.7324 26.0516C24.7559 28.0776 25.3108 30.3078 25.3561 32.5772C25.2157 34.4004 24.3356 35.5058 23.3428 35.6917M27.4959 23.4433C27.3654 23.2258 27.2882 23.1052 27.2882 23.1052L27.1459 22.8639C25.3422 19.6268 23.4022 16.807 22.3461 14.1532C22.1187 13.4677 21.9415 12.7665 21.8161 12.0551C21.4206 10.1192 21.5847 8.98218 22.3244 7.41603C23.0363 5.90921 25.188 4.02865 26.3924 4.60409C28.989 5.84593 29.3351 5.24676 29.9521 4.73658C29.9719 4.72274 30.0213 4.68517 30.0411 4.66737L30.1479 4.59618C36.9569 9.8226 29.6575 19.9254 27.486 23.4433" fill="#EFECE8"/>
<path d="M30.1637 19.2235C30.0648 19.3817 29.8136 19.7574 29.5012 20.2122C28.722 21.5272 27.9823 22.6445 27.4958 23.4315C27.6541 23.6866 28.0061 24.2601 28.1584 24.5349L28.103 24.4321L28.0931 24.4163L28.3423 23.9516C28.3423 23.0617 29.8611 19.9077 30.1657 19.2156" fill="#DAD7D3"/>
<path d="M26.8788 2.67011C26.3033 2.36163 25.5696 2.38734 24.8715 2.50994C24.6579 2.54751 24.1477 2.64441 24.1477 2.64441C24.1477 2.64441 25.1781 2.89752 26.0027 3.18821C26.5327 3.38595 27.4227 3.73398 28.4965 3.16843L28.5163 3.12295C27.9465 3.07847 27.3905 2.92473 26.8788 2.67011" fill="#BBB8B5"/>
<path d="M20.6611 4.11164C20.5712 4.33274 20.5049 4.56275 20.4634 4.79782C20.4297 4.97974 20.3981 5.17749 20.3665 5.39106C21.5867 3.8783 22.8168 3.23167 22.9374 3.17235C23.058 3.11302 23.4713 2.8342 23.6454 2.77686C22.3223 3.13478 21.5827 3.67462 20.7916 3.91389C20.7398 3.9735 20.6965 4.04006 20.6631 4.11164" fill="#F6F2EE"/>
<path d="M27.1439 4.63571C25.1207 3.50263 24.0785 4.94419 24.0785 4.94419C24.0785 4.94419 24.0666 4.96594 24.0607 4.96792C23.3408 5.6106 22.623 6.50441 22.3243 7.41404C23.0363 5.90721 25.1899 4.02467 26.3943 4.60209C29.2421 5.96456 29.3845 5.11425 30.1518 4.60209C29.5882 4.94221 29.1215 5.75298 27.1379 4.64362" fill="#EBE7E3"/>
<path d="M29.958 4.68518C28.631 5.23887 27.7351 4.15325 26.3982 3.36226C26.3409 3.33853 26.2855 3.31283 26.2262 3.28317C25.2908 2.82637 23.7225 5.27842 23.7264 5.27842C24.0251 5.05892 25.1207 3.49871 27.1438 4.62981C29.1215 5.73917 29.4201 5.10836 29.96 4.73067L30.1577 4.58829C30.1577 4.58829 29.9857 4.66739 29.96 4.68716" fill="#FFFBF7"/>
<path d="M23.4239 5.44055C22.2689 6.31854 20.5345 6.68437 20.1766 6.50245C20.0184 8.2347 19.6426 10.4752 20.0263 13.0083C20.1944 14.1137 20.4218 15.2903 20.6057 16.455C20.1331 12.7354 20.0322 8.27029 23.4259 5.44253" fill="#EFECE8"/>
<path d="M21.7489 2.73737C21.118 2.98257 20.9578 3.39784 20.7007 3.73796C20.6123 3.88352 20.4702 3.9886 20.3052 4.03062C20.4021 4.01085 20.5168 3.98317 20.6453 3.95153C20.9892 3.85645 21.324 3.73139 21.646 3.57778C21.9664 3.43541 22.3303 3.27524 22.797 3.0854C23.0561 2.98059 23.6039 2.78087 23.8926 2.70375C24.1814 2.62663 24.9447 2.49612 24.9863 2.48623L25.3818 2.43481C25.3541 2.43481 22.1661 2.61872 21.7627 2.73539" fill="#EFECE8"/>
<path d="M29.8809 36.7201C29.8493 36.7854 29.8256 36.8427 29.7919 36.9C29.6866 37.1063 29.5663 37.3046 29.432 37.4933C30.49 37.1492 30.9647 36.5441 31.2653 35.5791C30.144 36.7557 29.8809 36.7142 29.8809 36.7142" fill="#D2CFCB"/>
<path d="M27.4227 37.0425C26.5802 36.6727 25.9019 37.3965 25.4786 37.8335C26.9757 38.3496 28.6429 37.9343 29.4339 37.4953C29.568 37.3065 29.6883 37.1083 29.7938 36.9021C29.3509 37.6377 28.2374 37.4004 27.4207 37.0445" fill="#DEDBD7"/>
<path d="M24.83 35.7887C25.2754 34.7768 25.4564 33.6684 25.356 32.5674C25.2137 34.3847 24.3336 35.496 23.3428 35.6819C23.1728 35.7095 23 35.7148 22.8286 35.6977C22.5388 35.6561 22.2629 35.5463 22.0237 35.3774C21.9802 35.3477 21.9387 35.316 21.8991 35.2824C21.5204 35.1667 21.1787 34.9537 20.908 34.6647C20.6373 34.3756 20.4472 34.0207 20.3566 33.6352C20.3566 33.6352 20.3566 33.6214 20.3566 33.6135C20.3566 33.74 20.3763 33.8666 20.3922 33.9931V34.0208C20.435 34.3887 20.5159 34.7512 20.6334 35.1025C21.466 36.6093 23.861 37.6969 24.8359 35.7827" fill="#EBE7E3"/>
<path d="M23.3429 35.6899C23.1729 35.7175 23 35.7228 22.8287 35.7057C22.5395 35.6639 22.2643 35.5541 22.0257 35.3854C21.8272 35.2478 21.6551 35.0756 21.5175 34.8772C20.8352 34.1712 20.4575 32.9096 20.3982 32.0553V32.0237C20.3724 32.2511 20.3487 32.518 20.3467 32.7613C20.3229 33.2609 20.3487 33.7617 20.4239 34.2562C20.4247 34.2654 20.4247 34.2747 20.4239 34.2839C21.1813 35.7195 23.2796 37.1532 24.6778 34.7328C24.5298 34.9727 24.3356 35.1807 24.1064 35.3446C23.8772 35.5086 23.6176 35.6253 23.3429 35.6879" fill="#F2EFEA"/>
<path d="M32.4657 5.30025C31.1565 2.89962 31.113 3.35444 30.2903 3.21008C29.1828 3.26941 27.9448 4.04061 26.3904 3.37026C28.5777 4.67736 30.4208 1.8575 32.4934 5.34771L32.5211 5.39912L32.4973 5.3576L32.4637 5.29235" fill="#E7E4E0"/>
<path d="M22.975 37.4537C23.5287 37.0948 24.0004 36.6231 24.3593 36.0695C23.3191 37.0246 21.0685 36.7141 20.4041 34.2344C20.5083 35.0423 20.8434 35.8031 21.3691 36.4254L21.5392 36.6073C21.9409 36.9973 22.4297 37.2861 22.9651 37.4497" fill="#CCC9C6"/>
<path d="M26.8888 2.08093C26.0819 1.78431 23.9559 2.42106 22.5835 2.55553C22.2983 2.57817 22.0176 2.63937 21.7489 2.73745C22.5597 2.56146 22.6171 2.73745 24.9942 2.47049C25.0061 2.47049 25.3067 2.43885 25.3897 2.4349C25.9001 2.37309 26.4176 2.45385 26.8848 2.66824C27.3677 2.92544 27.8966 3.08471 28.4412 3.1369C29.0563 3.20216 29.6417 3.15865 30.2073 3.18634C29.2778 2.97277 27.6759 2.36569 26.8947 2.07896" fill="#F2EFEA"/>
<path d="M28.4353 3.13892L28.37 3.17254C27.484 3.65108 26.6653 3.42763 26.1353 3.22592C26.2223 3.27338 26.3093 3.32084 26.3943 3.37225C27.9488 4.04261 29.1868 3.26943 30.2942 3.21011L30.2033 3.18835C29.6357 3.16067 29.0523 3.20417 28.4353 3.13892" fill="#EBE7E3"/>
<path d="M30.1637 30.238C29.1571 25.8026 26.9678 22.9214 25.0377 20.5485C23.5805 18.7704 22.5725 16.6678 22.0989 14.4183C22.1384 14.8672 22.176 15.3379 22.2077 15.8184C22.5814 18.5394 23.592 21.7705 26.5842 25.4268C29.2995 28.749 29.873 29.2018 30.1637 30.238Z" fill="#FFFBF7"/>
<path d="M32.5507 5.4585L32.5824 5.53166L32.7801 5.99043C32.9402 6.36073 33.0129 6.76289 32.9927 7.16579C32.9725 7.56869 32.8598 7.96154 32.6634 8.31395C33.3912 10.8846 32.6278 13.8291 31.4472 16.5046C30.933 17.6772 30.9508 18.7272 30.8025 19.4708V19.4609C31.7913 17.6475 32.6812 15.9232 32.9581 15.1342C32.9878 15.0492 33.0135 14.9681 33.0412 14.887C33.9885 12.4646 34.6075 9.25917 32.9858 6.27519L32.5507 5.4585" fill="#EBE7E3"/>
<path d="M30.1578 4.59431C30.8056 5.11187 31.3606 5.73574 31.7993 6.43927C31.6549 5.41495 31.4037 4.40052 30.5375 4.48752C30.431 4.49664 30.3264 4.52128 30.227 4.56069C30.227 4.56069 30.2152 4.54882 30.1578 4.59233" fill="#DEDBD7"/>
<path d="M32.7999 5.96865C32.5592 5.60629 32.295 5.26015 32.0089 4.93246C31.8604 4.76857 31.6799 4.63682 31.4785 4.54533C31.2772 4.45385 31.0592 4.40457 30.8381 4.40053C30.6181 4.39724 30.4013 4.45399 30.2112 4.56466C30.1938 4.57366 30.1772 4.58425 30.1617 4.59629C31.3879 4.2443 31.6232 5.42881 31.8032 6.44126C32.186 7.01888 32.4762 7.65271 32.6635 8.31985C32.8449 7.95821 32.9508 7.5634 32.9746 7.15949C32.9984 6.75559 32.9396 6.35107 32.8019 5.97063" fill="#CCC9C6"/>
<path d="M25.4767 37.8354C26.0106 37.4004 26.4477 36.9258 27.0093 36.9436C26.6138 36.9258 25.097 37.2501 24.7489 37.4992C24.9789 37.6367 25.2229 37.7494 25.4767 37.8354" fill="#D2CFCB"/>
<path d="M30.6305 33.2477C30.6154 32.838 30.5692 32.4302 30.492 32.0276C30.3604 31.2663 30.0685 30.5418 29.6357 29.9018C28.0536 27.6871 24.2961 23.6036 23.3171 20.4219C23.6019 22.4152 23.1194 24.8138 23.9104 25.9904C24.182 26.3397 24.4457 26.6845 24.7015 27.0246C26.6198 29.3106 28.8545 30.6374 28.7814 33.8805C28.7438 35.5989 28.1643 36.2119 27.3199 37.0029L27.4207 37.0424C28.2375 37.3984 29.3489 37.6356 29.7939 36.9C30.4103 35.7845 30.7008 34.5183 30.6324 33.2457" fill="#EFECE8"/>
<path d="M28.9297 34.1494C29.4379 29.979 27.0252 27.7444 24.7291 25.1144C24.4641 24.8198 23.6968 24.4836 23.9974 25.1757C25.2947 27.2125 26.159 29.186 26.3706 30.0086C27.5809 34.8574 26.2519 36.3919 24.7568 37.4933C25.1049 37.2441 26.6138 36.9218 27.0173 36.9396C27.1232 36.9435 27.2279 36.9635 27.3278 36.9989C28.016 36.3543 28.4946 36.0102 28.7675 34.9879C28.8051 34.8455 28.8407 34.6873 28.8743 34.5113C28.896 34.3986 28.9217 34.278 28.9376 34.1494" fill="#E7E4E0"/>
<path d="M27.1577 31.1061C26.3328 27.9226 24.8894 24.9325 22.9097 22.3064C22.8741 22.4152 22.6645 23.0756 22.4924 23.566C22.6487 23.837 22.7812 24.0644 22.8761 24.2404C22.9967 24.4757 23.0739 24.6358 23.1747 24.8652C23.4101 25.3774 23.6316 25.854 23.7285 26.0517C24.7522 28.0776 25.3071 30.3079 25.3521 32.5773C25.449 34.3926 24.5393 36.4769 22.9789 37.4557C23.6909 37.7622 24.2308 37.5902 24.7588 37.5012C26.0344 37.0365 28.3779 35.9588 27.1656 31.1081" fill="#F2EFEA"/>
<path d="M24.1852 4.31145C23.4695 4.66949 22.8306 5.16388 22.3045 5.76686C21.7798 6.3563 21.3646 7.03467 21.0784 7.77002C20.5068 9.2373 20.4613 10.8608 20.7125 12.4151C20.9637 13.9694 21.5134 15.494 21.8358 17.0878C22.0071 17.8855 22.0841 18.7005 22.0652 19.5161C22.0362 20.3229 21.8944 21.1216 21.644 21.8891C21.8035 21.1047 21.8699 20.3042 21.8417 19.5043C21.8086 18.71 21.6926 17.9213 21.4956 17.1511C21.2979 16.3799 21.0685 15.6146 20.8371 14.8414C20.6001 14.063 20.4125 13.2705 20.2754 12.4685C20.1461 11.6579 20.111 10.8351 20.1706 10.0164C20.2058 9.60598 20.2719 9.19878 20.3684 8.7983C20.4633 8.39655 20.5957 8.00462 20.7639 7.62765C21.0919 6.87169 21.5618 6.18565 22.1483 5.60668C22.7228 5.0279 23.4166 4.58119 24.1813 4.29761" fill="#CCC9C6"/>
<path d="M22.5399 23.5027C22.6995 23.0753 22.8044 22.6294 22.8524 22.1758C22.8943 21.7228 22.8996 21.2672 22.8682 20.8133C22.8208 19.9037 22.6803 19 22.5439 18.0963C22.4074 17.1926 22.2591 16.2889 22.1385 15.3812C22.0178 14.4736 21.9664 13.564 21.8794 12.6523L22.708 18.0726C22.8591 18.9784 22.9575 19.8922 23.0027 20.8094C23.0185 21.2717 22.9974 21.7346 22.9394 22.1936C22.8686 22.648 22.7355 23.0905 22.5439 23.5086" fill="#CCC9C6"/>
<path d="M20.2616 4.96802C20.0812 5.54201 19.9301 6.12479 19.8088 6.71412C19.6835 7.30168 19.5918 7.89587 19.5339 8.49383C19.4117 9.68641 19.4117 10.8884 19.5339 12.0809C19.6745 13.2728 19.9059 14.4521 20.226 15.6087C20.3724 16.202 20.5326 16.7734 20.6651 17.3647C20.8115 17.9521 20.8872 18.5549 20.8905 19.1602C20.8489 18.557 20.7408 17.9601 20.5682 17.3805C20.4119 16.7992 20.2379 16.2237 20.0718 15.6443C19.7221 14.4852 19.4721 13.2984 19.3242 12.0968C19.2623 11.4937 19.2353 10.8876 19.2432 10.2814C19.247 9.67585 19.2866 9.07102 19.3618 8.4701C19.4411 7.871 19.5541 7.27683 19.7 6.69039C19.85 6.10525 20.0362 5.53001 20.2577 4.96802" fill="#CCC9C6"/>
<path d="M19.1305 5.46436C18.8742 5.96783 18.6751 6.49847 18.5372 7.04632C18.3962 7.59254 18.2873 8.14651 18.2109 8.70541C18.0605 9.81997 18.0432 10.9484 18.1594 12.0671C18.2684 13.1856 18.5485 14.2807 18.99 15.3141C19.2194 15.8223 19.4765 16.3305 19.7317 16.8328C19.9868 17.335 20.2696 17.8215 20.5385 18.3257C20.3586 18.1062 20.1865 17.8788 20.0204 17.6475C19.8543 17.4161 19.7099 17.1828 19.5596 16.9455C19.4093 16.7082 19.2788 16.4491 19.1502 16.196C19.0217 15.9429 18.8971 15.6858 18.7824 15.4228C18.3398 14.3661 18.0623 13.2477 17.9597 12.1066C17.8564 10.9696 17.8976 9.82415 18.0823 8.6975C18.1715 8.13557 18.2997 7.58054 18.466 7.03644C18.623 6.48997 18.8462 5.96469 19.1305 5.47227" fill="#DEDBD7"/>
<path d="M20.3585 5.38922C20.8974 4.60983 21.5817 3.94176 22.3737 3.42164C22.7674 3.15081 23.195 2.93275 23.6454 2.77304C23.8096 2.71575 23.9783 2.6721 24.1497 2.64253C24.2169 2.63067 24.2881 2.62473 24.3573 2.62078C24.6061 2.60169 24.8561 2.63816 25.089 2.72756C25.9948 3.04989 26.7819 3.59171 27.5749 4.08014C27.9633 4.33503 28.3809 4.54218 28.8189 4.69711C29.0368 4.77193 29.267 4.80481 29.4972 4.794C29.7299 4.78096 29.9562 4.71321 30.1577 4.59626C29.9646 4.73555 29.7395 4.82396 29.5031 4.85333C29.2643 4.87928 29.0228 4.85982 28.7912 4.79598C28.3367 4.65753 27.9009 4.4636 27.4938 4.21857C26.6751 3.75782 25.8959 3.21797 25.0198 2.92531C24.9149 2.88824 24.8071 2.8598 24.6975 2.84028C24.5882 2.82375 24.4775 2.81845 24.3672 2.82445C24.1417 2.84056 23.9191 2.88507 23.7047 2.95695C23.2681 3.1091 22.8506 3.3115 22.4608 3.56007C22.0645 3.80545 21.6889 4.08255 21.3375 4.38862C20.9752 4.68822 20.6439 5.02343 20.3486 5.38922" fill="#CCC9C6"/>
<path d="M30.1578 4.5942C30.3511 4.43545 30.5887 4.34015 30.8381 4.32131C31.0923 4.30628 31.3458 4.36026 31.5718 4.47753C31.9635 4.67392 32.2872 4.98319 32.5013 5.36541L32.5547 5.4623L32.5903 5.52953C32.8419 5.95807 32.9896 6.4396 33.0215 6.93551C33.0555 7.42353 32.9299 7.90938 32.6635 8.31973C32.8763 7.89133 32.9627 7.41121 32.9127 6.93551C32.8636 6.4631 32.7125 6.00699 32.4697 5.59875C32.2393 5.19034 31.9058 4.84944 31.5026 4.61002C31.302 4.4926 31.0762 4.4248 30.8441 4.41227C30.6058 4.4076 30.3706 4.46556 30.1618 4.58036" fill="#BBB8B5"/>
<path d="M23.0719 22.2114C23.2899 23.2507 23.6457 24.2562 24.1299 25.2013C24.3688 25.6733 24.6383 26.1291 24.9368 26.5658L25.3917 27.2203L25.6191 27.5506C25.6943 27.6613 25.7615 27.778 25.8327 27.8887C26.1161 28.3428 26.3729 28.8129 26.602 29.2967C26.8253 29.7838 27.0123 30.2868 27.1617 30.8015C27.3065 31.319 27.4044 31.8484 27.4543 32.3835C27.5029 32.8108 27.5162 33.2413 27.4939 33.6708C27.4877 33.2429 27.4507 32.816 27.3832 32.3934C27.3145 31.8683 27.2027 31.3498 27.0489 30.843C26.8867 30.3397 26.6932 29.847 26.4695 29.3678C26.2389 28.8918 25.9807 28.4296 25.6962 27.9836C25.625 27.8729 25.5558 27.7582 25.4826 27.6494L25.2473 27.3113C25.097 27.0938 24.9408 26.8762 24.7924 26.6548C24.4957 26.2112 24.2282 25.7488 23.9915 25.2706C23.5227 24.3081 23.209 23.2777 23.062 22.2174" fill="#CCC9C6"/>
<path d="M22.7752 19.3441C22.8688 20.0607 23.0311 20.7666 23.2597 21.4521C23.4747 22.1415 23.735 22.8159 24.0389 23.4711C24.6302 24.7844 25.44 25.9879 26.4338 27.0305C26.6869 27.2816 26.952 27.5407 27.1893 27.8215C27.4267 28.0995 27.6448 28.3935 27.8419 28.7014C28.2378 29.316 28.5392 29.9866 28.7358 30.6908C29.0577 31.8713 29.1151 33.1082 28.9039 34.3135C28.8643 34.5429 28.8149 34.7742 28.7556 34.9996C28.9006 34.2921 28.963 33.5701 28.9415 32.8482C28.9258 32.1273 28.8141 31.4117 28.6092 30.7204C28.4047 30.0331 28.103 29.3786 27.7133 28.7766C27.5175 28.4768 27.3015 28.1907 27.0667 27.9203C26.8313 27.6475 26.5742 27.4042 26.3171 27.1432C25.314 26.0846 24.5042 24.8585 23.9242 23.5205C23.6305 22.8565 23.382 22.1734 23.1806 21.4758C23.0817 21.1265 22.996 20.7745 22.9235 20.4199C22.8462 20.0663 22.796 19.7073 22.7732 19.3461" fill="#D2CFCB"/>
<path d="M31.4037 17.4676C31.7761 16.7378 32.0979 15.9833 32.3668 15.2093C32.6379 14.4399 32.8644 13.6556 33.0451 12.8601C33.2268 12.0666 33.3452 11.2599 33.3991 10.4476C33.4233 10.0416 33.4154 9.63427 33.3754 9.2295L33.3438 8.92497L33.2805 8.62637L33.2508 8.47609C33.2389 8.42665 33.2172 8.37919 33.2014 8.33173L33.1025 8.03906C33.4881 8.7727 33.5811 9.62103 33.5791 10.4516C33.5781 10.8662 33.5503 11.2804 33.496 11.6914C33.4459 12.1014 33.3754 12.5088 33.2844 12.9135C33.109 13.7231 32.8669 14.5168 32.5606 15.2864C32.2587 16.0523 31.872 16.7819 31.4076 17.4616" fill="#FFFBF7"/>
<path d="M26.0126 33.0993C26.0266 31.4377 25.7543 29.7861 25.2077 28.2169C24.6673 26.6549 23.9584 25.1564 23.0936 23.7479C22.6704 23.036 22.2294 22.3241 21.8141 21.6023C21.3988 20.8805 20.9934 20.1528 20.6077 19.4133C19.8148 17.95 19.1319 16.4298 18.5648 14.8651C18.901 15.6264 19.2609 16.3719 19.6525 17.1075C20.0441 17.8432 20.4436 18.5709 20.8391 19.2946C21.6539 20.7421 22.5102 22.16 23.3764 23.5837C24.2498 25.0148 24.9445 26.5476 25.445 28.1477C25.6904 28.949 25.8657 29.7701 25.9691 30.6017C26.0693 31.4306 26.0812 32.2678 26.0047 33.0993" fill="#E1DEDA"/>
<g opacity="0.4275">
<path d="M19.6546 17.1076C20.0382 17.8432 20.4456 18.5729 20.8412 19.2946C21.0086 19.5926 21.178 19.8899 21.3494 20.1865C21.8418 20.9775 22.3916 21.7684 22.9948 22.5594C25.7635 26.1465 27.5019 29.8009 26.248 33.3267C26.0206 33.9694 26.1353 34.2699 26.424 34.2818H26.4616C27.2527 34.2502 29.2007 32.247 29.2303 29.2334V29.087C29.2086 27.0166 28.283 24.4855 25.4906 21.7941C22.8794 19.8124 20.5507 17.484 18.5688 14.873C18.905 15.6344 19.265 16.3799 19.6566 17.1135" fill="url(#paint0_linear_12_325)"/>
</g>
<path d="M23.1768 24.8651C23.0779 24.6377 22.9988 24.4696 22.8781 24.2402C22.2473 25.6917 20.9005 28.6717 20.4694 31.4777C20.3975 31.9014 20.3545 32.3296 20.3408 32.7591C20.3492 32.8502 20.3631 32.9407 20.3823 33.03C20.7621 34.6654 21.3514 34.9442 21.5986 34.9857C21.4443 34.7943 21.3257 34.5766 21.2486 34.3431C20.8273 33.0775 20.9143 30.5622 23.1748 24.8651" fill="#F2EFEA"/>
<path d="M19.9346 9.55869C19.9407 9.48146 19.9623 9.40884 19.9966 9.35046C20.0309 9.29209 20.0761 9.25072 20.1264 9.23186C20.1767 9.213 20.2297 9.21753 20.2782 9.24485C20.3268 9.27217 20.3686 9.321 20.3982 9.38484C20.2803 9.50463 20.141 9.56832 19.9985 9.5676C19.9772 9.56928 19.9559 9.56928 19.9346 9.5676M19.3061 8.76077C19.3442 8.7449 19.3843 8.74252 19.4231 8.75381C19.4619 8.7651 19.4985 8.78976 19.5299 8.82584C19.5613 8.86192 19.5867 8.90844 19.604 8.96174C19.6214 9.01504 19.6303 9.07366 19.63 9.13299C19.6286 9.21398 19.6099 9.29214 19.5765 9.35587C19.4416 9.20782 19.3459 8.99315 19.3061 8.74963M20.4814 8.57355C20.4817 8.48673 20.5013 8.40253 20.5371 8.3343C20.5729 8.26607 20.6229 8.21772 20.679 8.19688C20.7308 8.43919 20.7197 8.70187 20.6478 8.93239C20.5989 8.90473 20.5568 8.85536 20.527 8.79084C20.4973 8.72633 20.4814 8.64975 20.4814 8.57132M19.844 8.87444L19.7147 8.51114C19.7081 8.49097 19.7056 8.46825 19.7078 8.44597C19.7099 8.42369 19.7164 8.4029 19.7266 8.38633L19.9183 8.08989C19.9286 8.07305 19.9423 8.06175 19.9574 8.05773C19.9724 8.0537 19.9879 8.05717 20.0015 8.06761L20.2481 8.24814C20.2617 8.25796 20.2729 8.27412 20.2798 8.29421C20.2868 8.3143 20.2892 8.33724 20.2868 8.35959L20.2481 8.76746C20.2462 8.78993 20.2395 8.8109 20.2291 8.82732C20.2187 8.84374 20.2051 8.85478 20.1902 8.85884L19.9198 8.92793H19.9079C19.8949 8.92829 19.882 8.92328 19.8707 8.91345C19.8595 8.90363 19.8502 8.88937 19.844 8.87221M19.3328 8.10773C19.3941 7.87384 19.5082 7.67973 19.6553 7.55943C19.6784 7.61737 19.6907 7.68358 19.6909 7.75111C19.6911 7.80213 19.6846 7.85268 19.6717 7.89987C19.6587 7.94706 19.6397 7.98993 19.6157 8.026C19.5916 8.06207 19.563 8.09063 19.5316 8.11001C19.5001 8.1294 19.4664 8.13922 19.4324 8.13893C19.3977 8.13977 19.3634 8.1299 19.3314 8.10995M20.1308 7.78678C20.0827 7.75878 20.0413 7.70986 20.0119 7.64632C19.9825 7.58277 19.9665 7.5075 19.9658 7.43016H19.997C20.1542 7.4296 20.307 7.50807 20.4309 7.65305C20.398 7.72124 20.3512 7.77145 20.2976 7.79599C20.2439 7.82054 20.1864 7.81809 20.1337 7.78901M19 8.49777C18.9997 8.79454 19.0581 9.08476 19.1678 9.33173C19.2775 9.5787 19.4336 9.7713 19.6163 9.88518C19.799 9.99905 20.0001 10.0291 20.1942 9.97145C20.3883 9.91382 20.5666 9.77114 20.7066 9.56145C20.8466 9.35176 20.942 9.08449 20.9807 8.79345C21.0194 8.50242 20.9997 8.20071 20.924 7.92649C20.8484 7.65227 20.7202 7.41787 20.5557 7.25295C20.3912 7.08803 20.1978 7 20 7C19.8688 6.99971 19.7387 7.03823 19.6174 7.11337C19.4961 7.18851 19.3859 7.29879 19.293 7.4379C19.2001 7.57701 19.1264 7.74222 19.0761 7.92408C19.0259 8.10595 19 8.30089 19 8.49777" fill="url(#paint1_linear_12_325)"/>
<path d="M20.5051 5.94617L19.9724 6.25366L20.2799 6.78626L20.8126 6.47876L20.5051 5.94617Z" fill="url(#paint2_linear_12_325)"/>
<path d="M19.6419 10.5601L19.2152 11.0031L19.6582 11.4297L20.0849 10.9868L19.6419 10.5601Z" fill="url(#paint3_linear_12_325)"/>
<path d="M28.2744 37.6859C27.9218 37.7311 27.5826 37.8378 27.2763 38C27.7762 37.9791 28.272 37.9094 28.7548 37.792C28.6447 37.7099 28.504 37.6676 28.3607 37.6735H28.2767M26.3646 37.6859C26.2732 37.7705 26.1758 37.8497 26.0731 37.923C26.2514 37.9505 26.4312 37.9692 26.6117 37.9792C26.6332 37.9708 26.6535 37.9604 26.6724 37.948C26.7688 37.8801 26.8571 37.8034 26.9359 37.7192C26.9965 37.6589 27.0408 37.5923 27.0991 37.5279C27.1574 37.4634 27.2134 37.4093 27.274 37.3469C27.1037 37.341 26.934 37.3685 26.7768 37.4274C26.6197 37.4864 26.479 37.5753 26.3646 37.688M24.3241 37.1036C24.2122 37.1036 24.1073 37.1036 24 37.0828C24.0567 37.1411 24.12 37.194 24.1889 37.2408L24.042 37.349C24.5527 37.3303 24.9328 37.5424 25.3152 37.7525C25.2662 37.48 24.8325 37.1119 24.3055 37.0433L24.3265 37.1015M25.3525 37.0412C25.324 37.0635 25.3009 37.0907 25.2845 37.1212C25.2681 37.1517 25.2587 37.1848 25.257 37.2186C25.2552 37.2524 25.2612 37.2861 25.2744 37.3178C25.2876 37.3495 25.3078 37.3785 25.3339 37.4031C25.3688 37.4426 25.4085 37.478 25.4365 37.5071C25.5437 37.428 25.637 37.3469 25.7419 37.2741C25.8392 37.2173 25.9161 37.1367 25.9633 37.0418C26.0104 36.947 26.0259 36.8421 26.0078 36.7396C26.0078 36.6918 25.9845 36.6481 25.9705 36.5878C25.7606 36.7542 25.5484 36.8977 25.3525 37.0433M29.7015 36.2862L29.6619 36.2696C29.5523 36.2134 29.1372 36.1302 28.925 36.334C28.7781 36.4775 28.6032 36.8415 28.8714 36.9975C28.8995 37.0221 28.9358 37.038 28.9748 37.0429C29.0138 37.0477 29.0536 37.0413 29.0882 37.0245C29.173 36.9812 29.2382 36.9128 29.2724 36.8311C29.2789 36.8135 29.2836 36.7954 29.2864 36.777C29.2739 36.7843 29.2622 36.7927 29.2515 36.802C29.1652 36.8852 29.1139 36.9081 29.0719 36.8831C29.044 36.8494 29.0266 36.8097 29.0217 36.768C29.0168 36.7263 29.0245 36.6842 29.0439 36.646C29.1722 36.438 29.41 36.3735 29.529 36.438C29.6479 36.5025 29.6456 36.6023 29.5686 36.7687C29.4966 36.9505 29.3476 37.0998 29.1535 37.1847C28.9984 37.2377 28.8361 37.272 28.6708 37.2866C28.5685 37.2911 28.4661 37.2806 28.3677 37.2554C28.234 37.2184 28.0918 37.2126 27.9549 37.2388C27.505 37.3829 27.1142 37.6446 26.8333 37.9896H26.9918C27.0731 37.904 27.1646 37.8266 27.2647 37.7587C27.5129 37.5664 27.8291 37.4581 28.1578 37.453C28.391 37.4634 28.5822 37.5008 28.7897 37.5091C28.9176 37.5223 29.0467 37.5223 29.1745 37.5091C29.2877 37.4814 29.3929 37.4326 29.4833 37.3659C29.5738 37.2992 29.6474 37.2162 29.6992 37.1223L29.5499 37.0932C29.778 36.9285 29.9366 36.6997 30 36.4443C29.9091 36.5004 29.8251 36.5462 29.7388 36.5919C29.7964 36.4911 29.8463 36.3868 29.8881 36.2799C29.9089 36.2406 29.9196 36.1976 29.9196 36.1541C29.9196 36.1106 29.9089 36.0676 29.8881 36.0283C29.8274 36.1177 29.7715 36.1988 29.7062 36.2924M24.5433 35.6685C24.4408 35.6628 24.338 35.6628 24.2355 35.6685C24.4632 35.7631 24.6597 35.9085 24.806 36.0907C24.9522 36.2729 25.0433 36.4856 25.0703 36.7084C25.1498 36.6355 25.2116 36.5487 25.2517 36.4535C25.2918 36.3583 25.3095 36.2567 25.3035 36.1552C25.284 36.0371 25.2361 35.9242 25.1633 35.824C25.0905 35.7239 24.9944 35.6389 24.8815 35.5749C24.8815 35.6081 24.8815 35.6269 24.8628 35.6518C24.7299 35.5977 24.6459 35.4813 24.4757 35.4584L24.5527 35.6664M26.9475 35.2837C26.8223 35.3353 26.7222 35.4254 26.6654 35.5374C26.7237 35.525 26.775 35.5062 26.8263 35.5C26.8486 35.4955 26.8717 35.4952 26.8942 35.4992C26.9166 35.5031 26.9378 35.5113 26.9565 35.523C26.9752 35.5348 26.9909 35.5499 27.0026 35.5675C27.0143 35.585 27.0218 35.6045 27.0245 35.6248C27.0264 35.676 27.0157 35.7269 26.9932 35.774C26.9706 35.8211 26.9367 35.8631 26.8939 35.8972C26.754 36.0033 26.6071 36.1052 26.4648 36.1926C26.3901 36.233 26.3289 36.2906 26.2879 36.3595C26.2468 36.4283 26.2274 36.5057 26.2316 36.5836C26.2562 36.7277 26.3392 36.8586 26.4648 36.9517C26.1738 37.2688 25.8429 37.555 25.4784 37.8045C25.574 37.8295 25.672 37.8544 25.7676 37.8731C26.097 37.6291 26.4086 37.3665 26.7004 37.0869C26.8269 37.1452 26.9688 37.1718 27.1109 37.1637C27.253 37.1556 27.39 37.1133 27.5072 37.0412C27.6419 36.9425 27.7429 36.812 27.7987 36.6647C27.8453 36.5607 27.8826 36.4567 27.9223 36.3486C27.9456 36.2825 27.9839 36.2215 28.0348 36.1692C28.0858 36.117 28.1483 36.0746 28.2184 36.0449C28.3304 36.0054 28.398 36.0553 28.4096 36.1864C28.4096 36.203 28.4096 36.2196 28.4096 36.2487C28.4743 36.1729 28.5183 36.0846 28.5379 35.9908C28.5584 35.9369 28.5621 35.879 28.5486 35.8233C28.535 35.7676 28.5047 35.7162 28.4609 35.6747C28.4043 35.6359 28.3338 35.6169 28.2626 35.6211C28.1913 35.6253 28.1242 35.6525 28.0738 35.6976C27.9998 35.7504 27.936 35.8136 27.885 35.8848C27.8167 35.9804 27.7552 36.0797 27.7007 36.1822C27.5739 36.3354 27.4327 36.4788 27.2787 36.6107C27.3839 36.4663 27.4729 36.313 27.5445 36.1531C27.6075 36.0179 27.6611 35.8806 27.7101 35.7371C27.7168 35.7152 27.7222 35.693 27.7264 35.6706C27.7076 35.6849 27.6897 35.7002 27.6728 35.7163C27.4594 35.9358 27.232 36.1441 26.9918 36.3403C26.9685 36.359 26.9499 36.3819 26.9289 36.4027C26.9607 36.2687 27.0261 36.1428 27.1201 36.0345C27.1551 36.0033 27.1877 35.9721 27.218 35.9368C27.3154 35.8347 27.3941 35.7196 27.4512 35.5957C27.4838 35.5425 27.4925 35.4803 27.4756 35.4216C27.4587 35.3629 27.4175 35.3122 27.3603 35.2795C27.3023 35.2431 27.233 35.2235 27.1621 35.2234C27.0903 35.2254 27.0197 35.2403 26.9545 35.2671M25.5834 34.6431L25.5041 34.3998C25.452 34.4127 25.4038 34.4361 25.3634 34.4682C25.323 34.5003 25.2913 34.5402 25.2709 34.5849C25.2276 34.671 25.1894 34.7592 25.1566 34.849L25.0144 34.7367C24.9392 34.8044 24.8939 34.894 24.8866 34.9891C24.8793 35.0841 24.9106 35.1784 24.9747 35.2546C25.0889 35.4085 25.2119 35.557 25.3432 35.6997C25.5049 35.8452 25.6096 36.0334 25.6417 36.2363C25.6408 36.3381 25.6128 36.4384 25.5602 36.5287C25.5075 36.6191 25.4315 36.6971 25.3385 36.7562C25.1894 36.8659 24.9999 36.9223 24.8068 36.9143C24.8068 36.9143 24.7812 36.9705 24.7789 36.9809C24.7975 37.0599 24.9561 37.0245 25.0354 37.0058C25.6347 36.8706 26.0194 36.4671 25.8399 36.0574C25.7699 35.8952 25.5367 35.6414 25.4481 35.4771C25.3578 35.3543 25.319 35.207 25.3385 35.0612C25.359 34.9627 25.4209 34.875 25.5115 34.8159C25.602 34.7567 25.7145 34.7306 25.8259 34.7429C25.8952 34.7513 25.9588 34.7815 26.0054 34.828C26.052 34.8745 26.0785 34.9343 26.0801 34.9967C26.0752 35.0441 26.0571 35.0898 26.0274 35.1294C25.9976 35.169 25.9572 35.2013 25.9098 35.2234C25.8854 35.2382 25.8566 35.2462 25.827 35.2462C25.7975 35.2462 25.7687 35.2382 25.7443 35.2234C25.7252 35.206 25.7134 35.1833 25.7108 35.159C25.7083 35.1348 25.7151 35.1105 25.7303 35.0903C25.7315 35.0813 25.7315 35.0722 25.7303 35.0632C25.6765 35.0735 25.6282 35.0996 25.5931 35.1373C25.558 35.175 25.5381 35.2222 25.5367 35.2712C25.56 35.4231 25.9471 35.5458 26.1244 35.4418C26.2078 35.3865 26.2706 35.3102 26.3047 35.2226C26.3388 35.1351 26.3426 35.0404 26.3156 34.9509C26.2995 34.8771 26.2606 34.8089 26.2033 34.7537C26.1461 34.6986 26.0727 34.6589 25.9914 34.6389L25.9402 34.6181C25.9775 34.537 26.0054 34.4642 26.0381 34.3873H26.0031C25.8026 34.3873 25.6906 34.4996 25.5764 34.6535M28.426 33.0208C28.3615 33.1163 28.3268 33.2255 28.3257 33.3369C28.313 33.467 28.313 33.5979 28.3257 33.728C28.2964 33.7002 28.2576 33.6819 28.2154 33.6759C28.1733 33.6699 28.13 33.6765 28.0925 33.6947C28.1123 33.7498 28.1278 33.8061 28.1391 33.8631C28.1423 33.9075 28.1423 33.9519 28.1391 33.9963C28.07 34.0334 28.0113 34.0842 27.9676 34.1448C27.9239 34.2054 27.8964 34.2741 27.8873 34.3457C27.8873 34.3748 27.8873 34.4018 27.8873 34.4289C27.8453 34.3145 27.7754 34.1959 27.7404 34.0961C27.7126 34.014 27.663 33.9391 27.5958 33.8777C27.5778 33.8658 27.5582 33.856 27.5375 33.8486C27.5258 33.8777 27.5165 33.9089 27.5025 33.9359C27.4968 33.9537 27.4921 33.9718 27.4885 33.99C27.4564 33.9577 27.4213 33.9278 27.3836 33.9006C27.3547 33.884 27.322 33.8734 27.288 33.8694C27.2157 33.8548 27.204 33.8694 27.204 33.963C27.204 33.9942 27.204 34.0254 27.204 34.0649C27.1631 34.0495 27.1174 34.0473 27.0749 34.0587C27.0323 34.0701 26.9955 34.0944 26.9709 34.1273C27.0035 34.1543 27.0338 34.171 27.0408 34.2146C27.0432 34.2688 27.032 34.3228 27.0082 34.3727C26.9862 34.4337 26.9814 34.4986 26.994 34.5617C27.0066 34.6247 27.0363 34.6841 27.0805 34.7346C27.1182 34.7557 27.1629 34.7645 27.2071 34.7596C27.2513 34.7546 27.2922 34.7363 27.323 34.7076C27.3689 34.6518 27.3992 34.587 27.4114 34.5186C27.4235 34.4502 27.4172 34.3802 27.3929 34.3145C27.3603 34.2687 27.3393 34.2687 27.2763 34.3145C27.2927 34.3457 27.3253 34.3769 27.3206 34.4122C27.3116 34.4593 27.2882 34.5031 27.253 34.5391C27.2087 34.5807 27.1597 34.5849 27.1248 34.5516C27.095 34.5119 27.0791 34.4652 27.0791 34.4174C27.0791 34.3697 27.095 34.323 27.1248 34.2833C27.1451 34.2489 27.1711 34.2174 27.2017 34.1897C27.2362 34.1617 27.2793 34.1436 27.3254 34.1376C27.3715 34.1317 27.4186 34.1382 27.4606 34.1564C27.4995 34.1835 27.5308 34.2183 27.5523 34.2579C27.5737 34.2976 27.5846 34.3412 27.5841 34.3852C27.6005 34.5745 27.4909 34.8698 27.5002 35.0591C27.5095 35.2483 27.6471 35.3024 27.8103 35.3315C27.8826 35.344 28.0668 35.3627 28.1065 35.3752C28.3 35.4376 28.4679 35.4272 28.5729 35.2691C28.6778 35.1111 28.7361 34.797 28.8504 34.6452C28.8741 34.606 28.9074 34.572 28.9477 34.5458C28.9881 34.5195 29.0345 34.5016 29.0836 34.4933C29.1297 34.4943 29.1746 34.5075 29.2123 34.5312C29.2501 34.5549 29.2792 34.588 29.2958 34.6265C29.3092 34.6634 29.3163 34.702 29.3168 34.7408C29.3208 34.7883 29.3093 34.8358 29.2836 34.8775C29.2579 34.9193 29.2192 34.9534 29.1722 34.9759C29.1209 34.9925 29.0789 34.9759 29.0626 34.9135C29.0479 34.8672 29.0479 34.8183 29.0626 34.772C29.0766 34.7388 29.1209 34.7263 29.1512 34.7055C29.1162 34.6452 29.0952 34.6369 29.0439 34.6639C28.9893 34.7119 28.9489 34.7712 28.9261 34.8365C28.9033 34.9018 28.8989 34.9711 28.9133 35.0383C28.9245 35.0798 28.9527 35.1161 28.9924 35.14C29.0322 35.1639 29.0805 35.1736 29.1279 35.1672C29.1905 35.1395 29.2446 35.0984 29.2852 35.0476C29.3259 34.9968 29.3519 34.9379 29.3611 34.876C29.3665 34.8165 29.3872 34.7588 29.4217 34.7076C29.4497 34.6722 29.4847 34.6701 29.529 34.6597C29.529 34.6597 29.529 34.6597 29.5406 34.6431C29.515 34.5204 29.4217 34.5412 29.3471 34.5079C29.3657 34.4705 29.3821 34.4434 29.3984 34.4143C29.4473 34.3311 29.4427 34.3124 29.3727 34.2978C29.3398 34.2876 29.3048 34.284 29.2701 34.2874C29.2224 34.2963 29.1756 34.3089 29.1302 34.3249C29.1302 34.2978 29.1442 34.2854 29.1465 34.2729C29.1489 34.2604 29.1582 34.2105 29.1629 34.1793H29.1372C29.1225 34.1773 29.1076 34.1773 29.0929 34.1793C29.0175 34.2067 28.9463 34.2423 28.8807 34.2854C28.7683 34.3602 28.6719 34.4525 28.5962 34.5578C28.6061 34.5189 28.6194 34.4806 28.6358 34.4434C28.6941 34.3124 28.6825 34.2354 28.6358 34.1689L28.5705 34.0753C28.5705 34.0607 28.5845 34.0462 28.5915 34.0275C28.6218 33.9401 28.6685 33.8715 28.7058 33.7841C28.6879 33.752 28.6583 33.7263 28.6219 33.7112C28.5854 33.6961 28.5443 33.6924 28.5053 33.7009C28.5518 33.5718 28.5761 33.4372 28.5775 33.3016C28.5809 33.2006 28.5535 33.1007 28.4982 33.0125C28.4959 33.0088 28.4925 33.0057 28.4884 33.0035C28.4843 33.0014 28.4797 33.0001 28.4749 33C28.4656 33.0011 28.4567 33.0038 28.4487 33.0081C28.4406 33.0124 28.4337 33.0181 28.4283 33.025" fill="url(#paint4_linear_12_325)"/>
<path d="M30.8678 32.5536C30.8726 32.5622 30.8795 32.5695 30.8877 32.575C30.896 32.5805 30.9054 32.584 30.9152 32.5852H30.9291C30.9499 32.5824 30.97 32.5757 30.9884 32.5654C31.0537 32.5318 31.0754 32.4962 31.0655 32.4448C31.0278 32.3121 30.9399 32.1993 30.8203 32.1304C30.7849 32.2726 30.8017 32.4228 30.8678 32.5536ZM30.4327 32.1581C30.4413 32.2074 30.4373 32.2581 30.4211 32.3055C30.4048 32.3529 30.3768 32.3953 30.3397 32.429C30.3841 32.4422 30.4311 32.4437 30.4761 32.4333C30.5212 32.4229 30.5628 32.401 30.5968 32.3697C30.6275 32.3471 30.6519 32.3171 30.6678 32.2825C30.6837 32.2479 30.6906 32.2099 30.6878 32.1719C30.6811 32.0972 30.6562 32.0253 30.6151 31.9625C30.5741 31.8998 30.5182 31.8481 30.4525 31.812C30.4525 31.9405 30.4287 32.0572 30.4347 32.164M31.028 32.1917C31.1347 32.251 31.289 32.1917 31.374 32.0078C31.2336 32.0473 31.1763 31.9583 31.109 31.8852C31.0379 31.8249 30.9618 31.7707 30.8816 31.723C30.8599 31.8073 30.8621 31.896 30.8879 31.9791C30.9138 32.0623 30.9623 32.1365 31.028 32.1937M30.0906 32.0216C30.0817 32.0744 30.0569 32.1232 30.0194 32.1614C29.9819 32.1996 29.9335 32.2254 29.8809 32.2352C29.9075 32.2703 29.9437 32.2969 29.9852 32.3116C30.0266 32.3264 30.0715 32.3287 30.1143 32.3182C30.1565 32.3122 30.1967 32.2959 30.2311 32.2707C30.2656 32.2455 30.2934 32.2123 30.312 32.1739C30.3649 32.0681 30.3829 31.9484 30.3635 31.8318C30.3582 31.7735 30.3449 31.7163 30.3239 31.6617C30.2163 31.7592 30.1377 31.8844 30.0965 32.0236M30.8875 31.4027C30.9492 31.5216 31.0192 31.6359 31.0972 31.7448C31.1233 31.7851 31.1631 31.8146 31.2093 31.8277C31.2556 31.8408 31.305 31.8366 31.3483 31.816C31.3943 31.795 31.4338 31.7622 31.463 31.721C31.4531 31.6696 31.4413 31.6202 31.4294 31.5668C31.3605 31.5683 31.2938 31.5428 31.2435 31.4956C31.1601 31.4318 31.0578 31.3977 30.9528 31.3987H30.8856M29.9936 31.1219C29.8354 31.2431 29.7103 31.4023 29.6298 31.5846C29.5906 31.6591 29.5761 31.7441 29.5886 31.8273C29.601 31.9105 29.6397 31.9876 29.699 32.0473C29.8493 31.9109 29.96 31.7744 29.9165 31.6004L30.2468 31.5787C30.1885 31.489 30.1555 31.3853 30.1513 31.2784C30.1471 31.1715 30.1719 31.0655 30.2231 30.9716L30.2013 30.9558C30.1341 31.0131 30.0609 31.0645 29.9917 31.1219M28.5895 31.5292H28.6765C28.6271 31.6558 28.5757 31.7784 28.5183 31.897C28.6182 31.8578 28.7137 31.8081 28.8031 31.7487C28.8328 31.8259 28.8585 31.897 28.8862 31.9682C29.0701 31.375 29.4992 31.023 29.9304 30.677C29.8968 30.674 29.8631 30.674 29.8295 30.677C29.434 30.677 28.8664 31.0052 28.5915 31.5352M30.5869 30.7264C30.5869 30.7264 30.5731 30.7422 30.5573 30.764C30.7867 30.8055 30.8717 31.0052 30.9152 31.2386C31.0477 31.2069 31.113 31.0922 31.1664 30.9894C31.214 31.0381 31.2642 31.0843 31.3167 31.1278C31.2705 30.9604 31.2185 30.7883 31.1605 30.6117H31.0695C30.9029 30.6179 30.7393 30.6583 30.5889 30.7303M30.5593 30.3526C30.7066 30.2914 30.8587 30.2425 31.0141 30.2063L30.9845 30.1292L30.9034 29.9314C30.7587 30.0453 30.6412 30.1898 30.5593 30.3546M26.9501 30.1786L27.045 30.234C26.9204 30.3645 26.7345 30.408 26.6336 30.5939H26.9382C26.8879 30.71 26.8443 30.8288 26.8077 30.9498C27.3792 30.4001 27.9132 30.3566 28.5223 30.4555C28.5025 30.2874 28.1268 29.9967 27.8835 29.9433C27.8115 29.9266 27.7379 29.9179 27.664 29.9176C27.4065 29.9297 27.1586 30.0185 26.952 30.1727M29.3252 30.2024C29.3435 30.2458 29.3703 30.2852 29.404 30.3181C29.4377 30.3511 29.4776 30.377 29.5214 30.3943C29.5653 30.4116 29.6122 30.42 29.6593 30.4189C29.7064 30.4179 29.7528 30.4075 29.7959 30.3882C29.8631 30.3645 29.9264 30.3349 29.9719 30.3171C29.9106 30.1549 29.8414 30.0125 29.788 29.8583C29.7524 29.7191 29.6775 29.5932 29.5723 29.4954C29.4671 29.3976 29.3361 29.332 29.1947 29.3066C29.1294 29.2947 29.0622 29.2927 28.9791 29.2809C29.1156 29.5992 29.2184 29.9077 29.3292 30.2024M30.1578 29.6625C30.2341 29.8012 30.3002 29.9453 30.3556 30.0936C30.4697 30.0285 30.559 29.9274 30.6095 29.8061C30.66 29.6847 30.6687 29.5501 30.6344 29.4232C30.5824 29.2811 30.5162 29.1446 30.4366 29.0159C30.3813 28.919 30.312 28.834 30.2507 28.739C30.1894 28.6441 30.14 28.5512 30.0807 28.4543C30.0044 28.6492 29.9721 28.8586 29.9861 29.0675C30.0001 29.2763 30.0601 29.4795 30.1617 29.6625M27.3021 29.267C27.3642 29.2599 27.4239 29.239 27.4769 29.2059C27.5299 29.1728 27.5749 29.1283 27.6086 29.0757C27.6423 29.0231 27.6639 28.9636 27.6717 28.9016C27.6796 28.8396 27.6736 28.7767 27.6541 28.7173C27.5405 28.5211 27.3721 28.3624 27.1696 28.2605C27.4464 28.5769 27.5651 28.919 27.3021 29.265M26.1867 28.8913L25.8505 28.8379C25.8397 28.9021 25.8437 28.9678 25.8622 29.0302C25.8807 29.0926 25.9132 29.1499 25.9573 29.1978C26.0405 29.293 26.129 29.3834 26.2223 29.4687L26.0146 29.5577C26.0599 29.6773 26.1462 29.777 26.2581 29.8389C26.37 29.9008 26.5003 29.921 26.6257 29.8959C26.8713 29.8604 27.1149 29.8122 27.3555 29.7515C27.6152 29.6603 27.8973 29.6548 28.1604 29.7357C28.2773 29.7975 28.3785 29.8853 28.4563 29.9922C28.5341 30.0991 28.5864 30.2224 28.6093 30.3526C28.6667 30.5747 28.6392 30.8102 28.5322 31.0131C28.5322 31.0131 28.5796 31.0685 28.5994 31.0803C28.6311 30.9874 28.726 30.845 28.7458 30.7501C28.7829 30.6048 28.7872 30.453 28.7584 30.3058C28.7296 30.1586 28.6684 30.0197 28.5792 29.8991C28.4901 29.7785 28.3751 29.6792 28.2428 29.6086C28.1105 29.5379 27.9641 29.4975 27.8143 29.4905C27.5788 29.4832 27.3432 29.4885 27.1083 29.5063C26.9143 29.5316 26.7175 29.4897 26.5506 29.3876C26.4409 29.3111 26.3648 29.1953 26.3383 29.0642C26.3118 28.9331 26.3368 28.7968 26.4082 28.6837C26.4542 28.6147 26.5229 28.564 26.6024 28.5406C26.6819 28.5171 26.7672 28.5222 26.8433 28.5551C26.9004 28.5858 26.9486 28.6306 26.9832 28.6853C27.0179 28.7401 27.0378 28.8029 27.041 28.8676C27.0451 28.9023 27.0384 28.9375 27.0218 28.9683C27.0051 28.9991 26.9794 29.024 26.9481 29.0396C26.917 29.0507 26.8831 29.0506 26.8521 29.0394C26.821 29.0282 26.7949 29.0066 26.778 28.9783C26.7693 28.9704 26.76 28.9632 26.7503 28.9566C26.7351 29.0199 26.7419 29.0865 26.7696 29.1454C26.7972 29.2044 26.8442 29.2521 26.9026 29.2809C27.1004 29.3422 27.2981 29.0831 27.2605 28.8419C27.2535 28.735 27.2186 28.6319 27.1592 28.5427C27.0999 28.4535 27.0182 28.3815 26.9224 28.3337C26.8313 28.2839 26.7259 28.2667 26.6238 28.2851C26.5216 28.3034 26.4288 28.3561 26.3607 28.4345L26.3093 28.48C26.2262 28.395 26.155 28.3218 26.0779 28.2427C25.9494 28.4741 26.0305 28.6679 26.1669 28.8893M27.5058 27.2164C27.4365 27.2703 27.3832 27.342 27.3515 27.4238C27.3198 27.5057 27.3109 27.5946 27.3258 27.6811C27.3441 27.8505 27.4227 28.0078 27.5473 28.1241C27.5473 28.0529 27.5473 27.9817 27.5612 27.9263C27.5636 27.8981 27.572 27.8707 27.5859 27.8461C27.5997 27.8214 27.6188 27.8 27.6417 27.7833C27.6645 27.7666 27.6907 27.755 27.7185 27.7493C27.7462 27.7436 27.7748 27.744 27.8024 27.7503C27.8702 27.7716 27.9326 27.8074 27.9852 27.8552C28.0377 27.9031 28.0793 27.9617 28.107 28.0272C28.19 28.2348 28.2553 28.4484 28.3245 28.6599C28.3476 28.7654 28.399 28.8626 28.4733 28.941C28.5475 29.0194 28.6417 29.0761 28.7458 29.1049C28.9089 29.1405 29.0793 29.1189 29.2283 29.0436C29.1611 29.002 29.1077 28.9684 29.0523 28.9368C28.8768 28.82 28.7442 28.6492 28.6746 28.4503C28.5735 28.1858 28.4525 27.9293 28.3127 27.6831C28.2167 27.5233 28.0958 27.3797 27.9547 27.2579C27.8856 27.1921 27.795 27.1534 27.6996 27.1492C27.6277 27.1509 27.5583 27.1758 27.5018 27.2204M28.192 27.0503C28.3993 27.3984 28.5861 27.7583 28.7517 28.128C28.8445 28.3057 28.9523 28.475 29.074 28.6342C29.1273 28.6861 29.1976 28.717 29.2718 28.7212C29.2951 28.7233 29.3175 28.7316 29.3366 28.7451C29.3557 28.7587 29.3709 28.777 29.3806 28.7984C29.747 29.4802 30.0547 30.192 30.3002 30.9261C30.3083 30.9525 30.3083 30.9808 30.3002 31.0072C30.256 31.0863 30.2387 31.1777 30.2508 31.2675C30.2629 31.3574 30.3038 31.4409 30.3674 31.5055C30.4544 31.6143 30.6127 31.8357 30.6759 31.8318C30.6922 31.7006 30.7008 31.5685 30.7016 31.4363C30.7054 31.319 30.6921 31.2017 30.6621 31.0883C30.6423 31.023 30.5691 30.9835 30.5197 30.932C30.4703 30.8806 30.4327 30.8668 30.4169 30.8213C30.1593 30.1041 29.8452 29.4085 29.4775 28.741C29.4581 28.7142 29.4458 28.6829 29.4417 28.6501C29.4375 28.6173 29.4417 28.584 29.4538 28.5532C29.4693 28.4893 29.4713 28.4229 29.4598 28.3582C29.4482 28.2935 29.4232 28.232 29.3865 28.1774C29.2061 27.8778 28.9768 27.6105 28.7082 27.3865C28.5559 27.252 28.3977 27.1314 28.2355 27.0088C28.2157 26.993 28.194 26.9831 28.1564 26.9593C28.1742 27.0009 28.1821 27.0226 28.194 27.0424M28.4471 26.109C28.2949 26.1881 28.2276 26.4017 28.368 26.6746C28.4034 26.7442 28.4451 26.8104 28.4926 26.8723C28.6749 27.0936 28.8732 27.3011 29.0859 27.4932C29.2105 27.6139 29.3292 27.7444 29.4478 27.8769C29.6291 28.0893 29.7218 28.3633 29.7069 28.6422C29.7946 28.5295 29.8536 28.3971 29.8787 28.2566C29.9039 28.116 29.8945 27.9714 29.8513 27.8353C29.7757 27.6338 29.6448 27.4576 29.4735 27.3271C29.3549 27.2243 29.2323 27.1294 29.1096 27.0404C29.0322 26.984 28.9673 26.9122 28.919 26.8295C28.8706 26.7468 28.8399 26.655 28.8288 26.5599C28.8288 26.4116 28.9139 26.3621 29.0899 26.4056L29.165 26.4274C29.0954 26.3165 28.9979 26.2258 28.8822 26.1644C28.7983 26.1079 28.7005 26.0757 28.5994 26.0715C28.5423 26.0715 28.4861 26.0851 28.4353 26.111M26.0403 25.9627C26.0173 25.9712 25.9954 25.9825 25.9751 25.9963C26.0103 26.0466 26.0501 26.0936 26.0937 26.1367C26.0409 26.1447 25.9886 26.1566 25.9375 26.1723C25.903 26.1875 25.872 26.2098 25.8465 26.2376C25.7872 26.2929 25.7971 26.3147 25.892 26.378L25.9988 26.4511C25.9563 26.4778 25.9249 26.5189 25.9104 26.5668C25.8958 26.6148 25.8992 26.6664 25.9197 26.7122C25.9621 26.6947 26.0098 26.6947 26.0522 26.7122C26.1087 26.7471 26.1573 26.7936 26.1946 26.8486C26.2307 26.9027 26.2823 26.9445 26.3427 26.9685C26.4031 26.9925 26.4694 26.9976 26.5328 26.9831C26.5819 26.9635 26.6219 26.9263 26.645 26.8787C26.6681 26.8311 26.6725 26.7767 26.6574 26.726C26.6423 26.6567 26.6076 26.5932 26.5575 26.5431C26.5074 26.4929 26.4439 26.4583 26.3746 26.4432C26.3093 26.4432 26.2935 26.463 26.2974 26.5441C26.3409 26.5441 26.3904 26.5441 26.424 26.5678C26.467 26.6082 26.4985 26.6594 26.515 26.7161C26.5328 26.7853 26.515 26.8308 26.4497 26.8407C26.3908 26.8421 26.3328 26.8262 26.2829 26.7949C26.2329 26.7636 26.1933 26.7183 26.1689 26.6647C26.1456 26.6227 26.129 26.5773 26.1194 26.5302C26.1112 26.48 26.1185 26.4284 26.1404 26.3824C26.1623 26.3365 26.1978 26.2983 26.2421 26.2732C26.2935 26.2559 26.3481 26.2506 26.4018 26.2574C26.4556 26.2643 26.5071 26.2832 26.5525 26.3127C26.7503 26.4274 27.0015 26.728 27.2032 26.8466C27.2817 26.8934 27.3754 26.9078 27.4643 26.8867C27.5533 26.8657 27.6305 26.8109 27.6798 26.7339C27.6798 26.7339 27.6917 26.7339 27.6956 26.7181C27.695 26.7069 27.695 26.6957 27.6956 26.6845C27.4109 26.7695 27.1162 26.5678 26.8116 26.3582C26.6475 26.2435 26.4794 26.1308 26.3113 26.026C26.2497 25.9844 26.1779 25.9605 26.1036 25.9568C26.0833 25.9544 26.0627 25.9544 26.0423 25.9568M25.7338 25.6957C25.7338 25.8401 25.9494 25.8599 26.0028 25.8401C26.0562 25.8203 26.1096 25.7649 26.1748 25.7412C26.2404 25.7317 26.307 25.7317 26.3726 25.7412C26.226 25.638 26.0574 25.5703 25.8802 25.5435C25.8611 25.5409 25.8417 25.5427 25.8235 25.5488C25.8052 25.5549 25.7887 25.5652 25.7751 25.5788C25.7615 25.5924 25.7512 25.609 25.7451 25.6272C25.7389 25.6454 25.7371 25.6648 25.7397 25.6839M26.4379 24.7782C26.4237 24.793 26.4147 24.8119 26.4122 24.8323C26.4097 24.8526 26.4139 24.8731 26.424 24.8909C26.4835 24.992 26.5715 25.0732 26.6771 25.1242C26.8864 25.2243 27.0678 25.3744 27.2052 25.5613L27.2744 25.6641C27.1557 25.5474 27.0173 25.4387 26.8927 25.3299C26.793 25.2304 26.6597 25.1719 26.5189 25.1658C26.5035 25.1673 26.4893 25.1747 26.4794 25.1866C26.4694 25.1984 26.4644 25.2136 26.4655 25.2291C26.4919 25.3691 26.561 25.4976 26.6633 25.5969C26.7602 25.7135 26.8611 25.85 26.9619 25.9765L26.8947 25.9212C26.7308 25.7888 26.5903 25.6297 26.4794 25.4505C26.422 25.3596 26.1728 25.055 26.0661 25.2073C26.0265 25.2627 26.0878 25.3734 26.2025 25.4604C26.3172 25.5474 26.4102 25.6048 26.513 25.6779C26.513 25.8025 26.5624 25.8757 26.7108 25.9924C26.7978 26.0537 26.8848 26.1011 26.9698 26.1604C26.9991 26.1796 27.0235 26.2054 27.041 26.2356C27.0582 26.2861 27.0859 26.3323 27.1224 26.3712C27.1589 26.4101 27.2033 26.4407 27.2526 26.461C27.3332 26.495 27.4205 26.5099 27.5078 26.5045C27.5394 26.5024 27.5701 26.4933 27.5978 26.4779C27.6255 26.4625 27.6494 26.4412 27.6679 26.4155C27.706 26.3451 27.726 26.2662 27.726 26.1861C27.726 26.1061 27.706 26.0272 27.6679 25.9568C27.6313 25.8953 27.5845 25.8404 27.5295 25.7946C27.4907 25.7647 27.4596 25.7261 27.4385 25.6819C27.3876 25.5724 27.3267 25.4678 27.2566 25.3695C27.1538 25.2271 27.0588 25.1717 26.9659 25.1915C26.8855 25.0875 26.7997 24.9879 26.7088 24.8929C26.6464 24.8228 26.562 24.7761 26.4695 24.7604C26.4544 24.7593 26.4394 24.7643 26.428 24.7742M27.5433 24.5943C27.5117 24.618 27.4563 24.6635 27.4267 24.8355C27.3856 24.7903 27.3413 24.748 27.2942 24.709C27.2788 24.7282 27.2661 24.7495 27.2566 24.7723C27.2453 24.8183 27.2433 24.8662 27.2508 24.9131C27.2583 24.96 27.275 25.0049 27.3001 25.0451C27.3931 25.2211 27.4979 25.3952 27.5987 25.5672C27.7965 25.8856 27.9705 26.1901 27.8677 26.4709H27.9013C27.9013 26.4709 27.9132 26.459 27.9171 26.4571C27.9974 26.4131 28.0574 26.3395 28.0844 26.252C28.1113 26.1645 28.1031 26.07 28.0615 25.9884C27.9547 25.7808 27.666 25.5197 27.5691 25.3062C27.5422 25.259 27.5264 25.2064 27.523 25.1522C27.5195 25.0981 27.5285 25.0439 27.5493 24.9937C27.5778 24.9517 27.6184 24.9192 27.6656 24.9005C27.7129 24.8818 27.7647 24.8778 27.8143 24.8889C27.8604 24.9024 27.9043 24.9224 27.9448 24.9483C27.9971 24.976 28.04 25.0186 28.0681 25.0707C28.0962 25.1228 28.1084 25.182 28.103 25.2409C28.0912 25.2983 28.0417 25.322 27.9745 25.2983C27.9189 25.2778 27.8698 25.243 27.8321 25.1974C27.8064 25.1618 27.8202 25.1124 27.8163 25.0689C27.7332 25.0689 27.7115 25.0689 27.7095 25.1381C27.7199 25.2084 27.7504 25.2743 27.7974 25.3276C27.8445 25.381 27.906 25.4195 27.9745 25.4387C28.0242 25.4571 28.0791 25.4561 28.1282 25.4359C28.1773 25.4158 28.217 25.378 28.2395 25.3299C28.2583 25.2676 28.2576 25.2011 28.2374 25.1392C28.2173 25.0773 28.1787 25.0231 28.1268 24.9838C28.0819 24.9485 28.0443 24.9049 28.016 24.8553C28.0037 24.811 28.0087 24.7636 28.0299 24.7228C28.0299 24.7228 28.0299 24.711 28.0299 24.7011C27.8875 24.6417 27.8499 24.7406 27.7708 24.7861L27.7035 24.6754C27.6699 24.616 27.6501 24.5903 27.6244 24.5903C27.6024 24.5945 27.5823 24.6056 27.5671 24.622M26.6692 24.5013C26.7269 24.6873 26.824 24.8586 26.954 25.0036C26.9282 24.9609 26.9161 24.9113 26.9193 24.8614C26.9225 24.8116 26.9408 24.7639 26.9718 24.7248C26.9801 24.6897 26.9791 24.653 26.9691 24.6184C26.959 24.5838 26.9402 24.5523 26.9145 24.5271C26.8784 24.4806 26.8325 24.4428 26.78 24.4163C26.7675 24.4145 26.7549 24.4145 26.7424 24.4163C26.6851 24.4163 26.6633 24.4658 26.6712 24.5172M25.4035 24.0268C25.3897 24.0268 25.3778 24.0268 25.3759 24.0505C25.3831 24.1537 25.4187 24.2529 25.4787 24.3372C25.5546 24.4531 25.648 24.5565 25.7556 24.6437C25.7214 24.6564 25.6926 24.6804 25.6739 24.7117C25.6552 24.743 25.6477 24.7797 25.6527 24.8158C25.7279 24.8711 25.803 24.9067 25.8742 24.968C26.0245 25.0906 26.1017 25.0254 26.1135 24.968C26.1135 24.9483 26.0937 24.9127 26.0581 24.8711C26.0859 24.8995 26.1233 24.9165 26.163 24.9186C26.2282 24.9048 26.2737 24.8731 26.2243 24.7703C26.1986 24.7169 26.1491 24.6576 26.1234 24.6022C26.0999 24.5473 26.0794 24.4912 26.0621 24.4341C26.0227 24.4364 25.9852 24.4522 25.956 24.4789C25.9269 24.5055 25.9077 24.5414 25.9019 24.5804C25.8394 24.4622 25.7666 24.3497 25.6844 24.2443C25.6208 24.1501 25.5335 24.0744 25.4312 24.0248H25.4134L25.4035 24.0268Z" fill="url(#paint5_linear_12_325)"/>
<defs>
<linearGradient id="paint0_linear_12_325" x1="27.1041" y1="35.7438" x2="22.707" y2="17.6429" gradientUnits="userSpaceOnUse">
<stop stop-color="#FAF6F2"/>
<stop offset="0.51" stop-color="#FFFBF7"/>
<stop offset="0.68" stop-color="#FFFBF7"/>
<stop offset="0.9" stop-color="#EBE7E3"/>
<stop offset="1" stop-color="#CCC9C6"/>
</linearGradient>
<linearGradient id="paint1_linear_12_325" x1="21.4398" y1="4.73832" x2="17.6212" y2="9.13917" gradientUnits="userSpaceOnUse">
<stop stop-color="#791426"/>
<stop offset="0.53" stop-color="#AF1C3B"/>
<stop offset="1" stop-color="#791426"/>
</linearGradient>
<linearGradient id="paint2_linear_12_325" x1="21.3224" y1="6.42997" x2="18.354" y2="11.559" gradientUnits="userSpaceOnUse">
<stop stop-color="#791426"/>
<stop offset="0.53" stop-color="#AF1C3B"/>
<stop offset="1" stop-color="#791426"/>
</linearGradient>
<linearGradient id="paint3_linear_12_325" x1="22.7533" y1="6.62774" x2="19.7867" y2="11.7562" gradientUnits="userSpaceOnUse">
<stop stop-color="#791426"/>
<stop offset="0.53" stop-color="#AF1C3B"/>
<stop offset="1" stop-color="#791426"/>
</linearGradient>
<linearGradient id="paint4_linear_12_325" x1="21.0604" y1="47.4288" x2="31.897" y2="18.5428" gradientUnits="userSpaceOnUse">
<stop stop-color="#791426"/>
<stop offset="0.53" stop-color="#AF1C3B"/>
<stop offset="1" stop-color="#791426"/>
</linearGradient>
<linearGradient id="paint5_linear_12_325" x1="21.5508" y1="15.5965" x2="34.6019" y2="44.8415" gradientUnits="userSpaceOnUse">
<stop stop-color="#791426"/>
<stop offset="0.53" stop-color="#AF1C3B"/>
<stop offset="1" stop-color="#791426"/>
</linearGradient>
</defs>
</svg>
