<svg width="38" height="30" viewBox="0 0 38 30" fill="none" xmlns="http://www.w3.org/2000/svg">
<g filter="url(#filter0_d_566_17133)">
<g clip-path="url(#clip0_566_17133)">
<mask id="mask0_566_17133" style="mask-type:alpha" maskUnits="userSpaceOnUse" x="3" y="1" width="32" height="24">
<rect x="3" y="1" width="32" height="24" fill="white"/>
</mask>
<g mask="url(#mask0_566_17133)">
<path fill-rule="evenodd" clip-rule="evenodd" d="M3 1V25H35V1H3Z" fill="#F7FCFF"/>
<mask id="mask1_566_17133" style="mask-type:alpha" maskUnits="userSpaceOnUse" x="3" y="1" width="32" height="24">
<path fill-rule="evenodd" clip-rule="evenodd" d="M3 1V25H35V1H3Z" fill="white"/>
</mask>
<g mask="url(#mask1_566_17133)">
<path fill-rule="evenodd" clip-rule="evenodd" d="M3 1V9H35V1H3Z" fill="#5EAA22"/>
<path fill-rule="evenodd" clip-rule="evenodd" d="M3 17V25H35V17H3Z" fill="#E31D1C"/>
<path fill-rule="evenodd" clip-rule="evenodd" d="M7.60068 17.3919V18.0258H5.26991V17.3919H7.60068ZM3.5657 18.9842H3.35873V18.7309H3.81342V19.618H4.39292V19.6248H4.95436V17.7833H4.59563V18.991H4.54024V17.6873H4.18151V18.9842H4.17215V18.7309V17.6873H3.81342V18.097H3V19.618H3.17936H3.5657V18.9842ZM5.06653 19.3395H5.42525V18.711H5.82525V19.6247H6.95067V18.0782H6.37354V18.712H6.59194V18.9908H6.18398V18.0771H5.06653V19.3395ZM7.35849 18.9842H7.56546V19.618H7.17912H6.99976V18.097H7.81318V17.6873H8.17191V18.7309V18.9842H8.18127V17.6873H8.54V18.991H8.59539V17.7833H8.95412V19.6248H8.39268V19.618H7.81318V18.7309H7.35849V18.9842ZM11.6004 17.3919V18.0258H9.26967V17.3919H11.6004ZM9.06629 19.3395H9.42502V18.711H9.82501V19.6247H10.9504V18.0782H10.3733V18.712H10.5917V18.9908H10.1837V18.0771H9.06629V19.3395ZM11.4297 18.9842H11.6366V19.618H11.2503H11.0709V18.097H11.8844V17.6873H12.2431V18.7309V18.9842H12.2525V17.6873H12.6112V18.991H12.6666V17.7833H13.0253V19.6248H12.4639V19.618H11.8844V18.7309H11.4297V18.9842ZM15.6716 17.3919V18.0258H13.3409V17.3919H15.6716ZM13.1375 19.3395H13.4962V18.711H13.8962V19.6247H15.0216V18.0782H14.4445V18.712H14.6629V18.9908H14.2549V18.0771H13.1375V19.3395ZM15.4294 18.9842H15.6364V19.618H15.2501H15.0707V18.097H15.8841V17.6873H16.2429V18.7309V18.9842H16.2522V17.6873H16.6109V18.991H16.6663V17.7833H17.0251V19.6248H16.4636V19.618H15.8841V18.7309H15.4294V18.9842ZM19.6714 17.3919V18.0258H17.3406V17.3919H19.6714ZM17.1372 19.3395H17.496V18.711H17.896V19.6247H19.0214V18.0782H18.4442V18.712H18.6626V18.9908H18.2547V18.0771H17.1372V19.3395ZM19.4292 18.9842H19.6362V19.618H19.2498H19.0705V18.097H19.8839V17.6873H20.2426V18.7309V18.9842H20.252V17.6873H20.6107V18.991H20.6661V17.7833H21.0248V19.6248H20.4634V19.618H19.8839V18.7309H19.4292V18.9842ZM23.6711 17.3919V18.0258H21.3404V17.3919H23.6711ZM21.137 19.3395H21.4957V18.711H21.8957V19.6247H23.0211V18.0782H22.444V18.712H22.6624V18.9908H22.2544V18.0771H21.137V19.3395ZM23.5004 18.9842H23.7074V19.618H23.321H23.1417V18.097H23.9551V17.6873H24.3138V18.7309V18.9842H24.3232V17.6873H24.6819V18.991H24.7373V17.7833H25.096V19.6248H24.5346V19.618H23.9551V18.7309H23.5004V18.9842ZM27.7423 17.3919V18.0258H25.4116V17.3919H27.7423ZM25.2082 19.3395H25.5669V18.711H25.9669V19.6247H27.0923V18.0782H26.5152V18.712H26.7336V18.9908H26.3256V18.0771H25.2082V19.3395ZM27.5716 18.9842H27.7785V19.618H27.3922H27.2128V18.097H28.0263V17.6873H28.385V18.7309V18.9842H28.3944V17.6873H28.7531V18.991H28.8085V17.7833H29.1672V19.6248H28.6058V19.618H28.0263V18.7309H27.5716V18.9842ZM31.8135 17.3919V18.0258H29.4827V17.3919H31.8135ZM29.2794 19.3395H29.6381V18.711H30.0381V19.6247H31.1635V18.0782H30.5864V18.712H30.8048V18.9908H30.3968V18.0771H29.2794V19.3395ZM31.6427 18.9842H31.8497V19.618H31.4634H31.284V18.097H32.0974V17.6873H32.4562V18.7309V18.9842H32.4655V17.6873H32.8243V18.991H32.8797V17.7833H33.2384V19.6248H32.6769V19.618H32.0974V18.7309H31.6427V18.9842ZM35.8847 17.3919V18.0258H33.5539V17.3919H35.8847ZM33.3505 19.3395H33.7093V18.711H34.1093V19.6247H35.2347V18.0782H34.6576V18.712H34.876V18.9908H34.468V18.0771H33.3505V19.3395ZM35.6425 18.9842H35.8495V19.618H35.4631H35.2838V18.097H36.0972V17.6873H36.4559V18.7309V18.9842H36.4653V17.6873H36.824V18.991H36.8794V17.7833H37.2381V19.6248H36.6767V19.618H36.0972V18.7309H35.6425V18.9842ZM39.8845 17.3919V18.0258H37.5537V17.3919H39.8845ZM37.3503 19.3395H37.709V18.711H38.109V19.6247H39.2344V18.0782H38.6573V18.712H38.8757V18.9908H38.4678V18.0771H37.3503V19.3395ZM39.8565 18.9842H40.0635V19.618H39.6772H39.4978V18.097H40.3112V17.6873H40.67V18.7309V18.9842H40.6793V17.6873H41.0381V18.991H41.0934V17.7833H41.4522V19.6248H40.8907V19.618H40.3112V18.7309H39.8565V18.9842ZM44.0985 17.3919V18.0258H41.7677V17.3919H44.0985ZM41.5643 19.3395H41.9231V18.711H42.3231V19.6247H43.4485V18.0782H42.8713V18.712H43.0897V18.9908H42.6818V18.0771H41.5643V19.3395Z" fill="#F7FCFF"/>
<path fill-rule="evenodd" clip-rule="evenodd" d="M3.48459 6.39193V7.02581H1.15383V6.39193H3.48459ZM-0.550387 7.98416H-0.75736V7.73093H-0.302667V8.61804H0.276828V8.62484H0.838273V6.78326H0.479544V7.99096H0.424154V6.68726H0.0654256V7.98416H0.0560616V7.73093V6.68726H-0.302667V7.09705H-1.11609V8.61804H-0.936725H-0.550387V7.98416ZM0.950438 8.33948H1.30917V7.71102H1.70917V8.62468H2.83458V7.07816H2.25745V7.71204H2.47585V7.9908H2.06789V7.07714H0.950438V8.33948ZM3.2424 7.98416H3.44937V8.61804H3.06304H2.88367V7.09705H3.69709V6.68726H4.05582V7.73093V7.98416H4.06519V6.68726H4.42391V7.99096H4.4793V6.78326H4.83803V8.62484H4.27659V8.61804H3.69709V7.73093H3.2424V7.98416ZM7.48435 6.39193V7.02581H5.15359V6.39193H7.48435ZM4.9502 8.33948H5.30893V7.71102H5.70893V8.62468H6.83434V7.07816H6.25721V7.71204H6.47561V7.9908H6.06765V7.07714H4.9502V8.33948ZM7.31358 7.98416H7.52056V8.61804H7.13422H6.95486V7.09705H7.76828V6.68726H8.12701V7.73093V7.98416H8.13637V6.68726H8.4951V7.99096H8.55049V6.78326H8.90922V8.62484H8.34777V8.61804H7.76828V7.73093H7.31358V7.98416ZM11.5555 6.39193V7.02581H9.22477V6.39193H11.5555ZM9.02138 8.33948H9.38011V7.71102H9.78011V8.62468H10.9055V7.07816H10.3284V7.71204H10.5468V7.9908H10.1388V7.07714H9.02138V8.33948ZM11.3133 7.98416H11.5203V8.61804H11.134H10.9546V7.09705H11.768V6.68726H12.1268V7.73093V7.98416H12.1361V6.68726H12.4949V7.99096H12.5502V6.78326H12.909V8.62484H12.3475V8.61804H11.768V7.73093H11.3133V7.98416ZM15.5553 6.39193V7.02581H13.2245V6.39193H15.5553ZM13.0211 8.33948H13.3799V7.71102H13.7799V8.62468H14.9053V7.07816H14.3282V7.71204H14.5466V7.9908H14.1386V7.07714H13.0211V8.33948ZM15.3131 7.98416H15.5201V8.61804H15.1337H14.9544V7.09705H15.7678V6.68726H16.1265V7.73093V7.98416H16.1359V6.68726H16.4946V7.99096H16.55V6.78326H16.9087V8.62484H16.3473V8.61804H15.7678V7.73093H15.3131V7.98416ZM19.5551 6.39193V7.02581H17.2243V6.39193H19.5551ZM17.0209 8.33948H17.3796V7.71102H17.7796V8.62468H18.905V7.07816H18.3279V7.71204H18.5463V7.9908H18.1384V7.07714H17.0209V8.33948ZM19.3843 7.98416H19.5913V8.61804H19.2049H19.0256V7.09705H19.839V6.68726H20.1977V7.73093V7.98416H20.2071V6.68726H20.5658V7.99096H20.6212V6.78326H20.9799V8.62484H20.4185V8.61804H19.839V7.73093H19.3843V7.98416ZM23.6262 6.39193V7.02581H21.2955V6.39193H23.6262ZM21.0921 8.33948H21.4508V7.71102H21.8508V8.62468H22.9762V7.07816H22.3991V7.71204H22.6175V7.9908H22.2095V7.07714H21.0921V8.33948ZM23.4555 7.98416H23.6624V8.61804H23.2761H23.0967V7.09705H23.9102V6.68726H24.2689V7.73093V7.98416H24.2783V6.68726H24.637V7.99096H24.6924V6.78326H25.0511V8.62484H24.4897V8.61804H23.9102V7.73093H23.4555V7.98416ZM27.6974 6.39193V7.02581H25.3667V6.39193H27.6974ZM25.1633 8.33948H25.522V7.71102H25.922V8.62468H27.0474V7.07816H26.4703V7.71204H26.6887V7.9908H26.2807V7.07714H25.1633V8.33948ZM27.5267 7.98416H27.7336V8.61804H27.3473H27.1679V7.09705H27.9814V6.68726H28.3401V7.73093V7.98416H28.3494V6.68726H28.7082V7.99096H28.7636V6.78326H29.1223V8.62484H28.5608V8.61804H27.9814V7.73093H27.5267V7.98416ZM31.7686 6.39193V7.02581H29.4378V6.39193H31.7686ZM29.2345 8.33948H29.5932V7.71102H29.9932V8.62468H31.1186V7.07816H30.5415V7.71204H30.7599V7.9908H30.3519V7.07714H29.2345V8.33948ZM31.5264 7.98416H31.7334V8.61804H31.3471H31.1677V7.09705H31.9811V6.68726H32.3398V7.73093V7.98416H32.3492V6.68726H32.7079V7.99096H32.7633V6.78326H33.1221V8.62484H32.5606V8.61804H31.9811V7.73093H31.5264V7.98416ZM35.7684 6.39193V7.02581H33.4376V6.39193H35.7684ZM33.2342 8.33948H33.5929V7.71102H33.9929V8.62468H35.1184V7.07816H34.5412V7.71204H34.7596V7.9908H34.3517V7.07714H33.2342V8.33948ZM35.7405 7.98416H35.9474V8.61804H35.5611H35.3817V7.09705H36.1951V6.68726H36.5539V7.73093V7.98416H36.5632V6.68726H36.922V7.99096H36.9774V6.78326H37.3361V8.62484H36.7746V8.61804H36.1951V7.73093H35.7405V7.98416ZM39.9824 6.39193V7.02581H37.6516V6.39193H39.9824ZM37.4482 8.33948H37.807V7.71102H38.207V8.62468H39.3324V7.07816H38.7553V7.71204H38.9737V7.9908H38.5657V7.07714H37.4482V8.33948Z" fill="#F7FCFF"/>
<path fill-rule="evenodd" clip-rule="evenodd" d="M17.6063 9.25C17.6063 9.25 18.0336 9.475 18.471 9.475C18.9084 9.475 19.3485 9.25 19.3485 9.25V9.55C19.3485 9.55 18.868 9.775 18.4425 9.775C18.017 9.775 17.6063 9.55 17.6063 9.55V9.25ZM14.4564 12.7906C14.4564 11.0126 16.8984 9.85 16.8984 9.85C16.8984 9.85 15.487 10.6062 15.487 12.7161C15.487 14.826 16.2197 15.7397 16.2197 15.7397C16.2197 15.7397 14.4564 14.5686 14.4564 12.7906ZM22.6941 12.6925C22.6941 10.9145 20.2544 9.85 20.2544 9.85C20.2544 9.85 21.6658 10.6062 21.6658 12.7161C21.6658 14.826 20.9331 15.7397 20.9331 15.7397C20.9331 15.7397 22.6941 14.4705 22.6941 12.6925ZM16.1235 13.1776C16.0305 11.402 17.5075 9.81052 17.5075 9.81052C17.5075 9.81052 16.9699 10.5418 17.0804 12.6488C17.1183 13.3723 17.4032 14.4486 17.7622 15.0832V9.925H19.2622V15.1279C19.6217 14.5352 19.8987 13.5246 19.9372 12.7906C20.0476 10.6836 19.5358 9.81052 19.5358 9.81052C19.5358 9.81052 21.0128 11.402 20.9198 13.1776C20.8644 14.2351 20.0507 15.3534 19.4016 16.0851C19.717 16.1554 20.1397 16.2411 20.7209 16.3559C20.7333 16.4202 20.6038 16.4172 20.3465 16.4113C20.0624 16.4047 19.6224 16.3946 19.0457 16.4675C18.7805 16.7393 18.5959 16.9004 18.5959 16.9004C18.5959 16.9004 18.5667 16.861 18.5217 16.8064C18.4766 16.861 18.4474 16.9004 18.4474 16.9004C18.4474 16.9004 18.2628 16.7393 17.9977 16.4675C17.4209 16.3946 16.981 16.4047 16.6969 16.4113C16.4395 16.4172 16.31 16.4202 16.3224 16.3559C16.9036 16.2411 17.3263 16.1554 17.6417 16.0851C16.9926 15.3534 16.1789 14.2351 16.1235 13.1776Z" fill="#E31D1C"/>
</g>
</g>
<rect x="3" y="1" width="32" height="24" fill="url(#paint0_linear_566_17133)" style="mix-blend-mode:overlay"/>
</g>
<rect x="3.5" y="1.5" width="31" height="23" rx="1.5" stroke="black" stroke-opacity="0.1" style="mix-blend-mode:multiply"/>
</g>
<defs>
<filter id="filter0_d_566_17133" x="0" y="0" width="38" height="30" filterUnits="userSpaceOnUse" color-interpolation-filters="sRGB">
<feFlood flood-opacity="0" result="BackgroundImageFix"/>
<feColorMatrix in="SourceAlpha" type="matrix" values="0 0 0 0 0 0 0 0 0 0 0 0 0 0 0 0 0 0 127 0" result="hardAlpha"/>
<feOffset dy="2"/>
<feGaussianBlur stdDeviation="1.5"/>
<feColorMatrix type="matrix" values="0 0 0 0 0 0 0 0 0 0 0 0 0 0 0 0 0 0 0.1 0"/>
<feBlend mode="normal" in2="BackgroundImageFix" result="effect1_dropShadow_566_17133"/>
<feBlend mode="normal" in="SourceGraphic" in2="effect1_dropShadow_566_17133" result="shape"/>
</filter>
<linearGradient id="paint0_linear_566_17133" x1="19" y1="1" x2="19" y2="25" gradientUnits="userSpaceOnUse">
<stop stop-color="white" stop-opacity="0.7"/>
<stop offset="1" stop-opacity="0.3"/>
</linearGradient>
<clipPath id="clip0_566_17133">
<rect x="3" y="1" width="32" height="24" rx="2" fill="white"/>
</clipPath>
</defs>
</svg>
