<svg width="38" height="30" viewBox="0 0 38 30" fill="none" xmlns="http://www.w3.org/2000/svg">
<g filter="url(#filter0_d_566_17133)">
<g clip-path="url(#clip0_566_17133)">
<mask id="mask0_566_17133" style="mask-type:alpha" maskUnits="userSpaceOnUse" x="3" y="1" width="32" height="24">
<rect x="3" y="1" width="32" height="24" fill="white"/>
</mask>
<g mask="url(#mask0_566_17133)">
<path fill-rule="evenodd" clip-rule="evenodd" d="M3 1H35V23C35 24.1046 34.1046 25 33 25H5C3.89543 25 3 24.1046 3 23V1Z" fill="#C51918"/>
<path fill-rule="evenodd" clip-rule="evenodd" d="M3 1H35V25H3V1Z" fill="#E31D1C"/>
<path fill-rule="evenodd" clip-rule="evenodd" d="M25.4819 20.6262L19.1658 3.70059H18.8918L12.7952 20.6262L19.1265 16.821L25.4819 20.6262ZM18.4666 9.22201L19.1437 6.58366L19.8464 9.29758L21.865 14.9541L23.0503 17.6926L20.4915 15.8899L19.1251 15.0718L17.7807 15.8798L15.2813 17.6926L16.4368 14.898L18.4666 9.22201Z" fill="#579D20"/>
<path fill-rule="evenodd" clip-rule="evenodd" d="M15.6625 14.4731L19.1585 16.7971L22.4206 14.4731L28.6164 9.23643H9.38525L15.6625 14.4731ZM15.7351 12.4741L13.3575 11.0191H16.2582H22.0219H24.5807L22.5397 12.3119L19.1433 14.8888L15.7351 12.4741Z" fill="#579D20"/>
</g>
<rect x="3" y="1" width="32" height="24" fill="url(#paint0_linear_566_17133)" style="mix-blend-mode:overlay"/>
</g>
<rect x="3.5" y="1.5" width="31" height="23" rx="1.5" stroke="black" stroke-opacity="0.1" style="mix-blend-mode:multiply"/>
</g>
<defs>
<filter id="filter0_d_566_17133" x="0" y="0" width="38" height="30" filterUnits="userSpaceOnUse" color-interpolation-filters="sRGB">
<feFlood flood-opacity="0" result="BackgroundImageFix"/>
<feColorMatrix in="SourceAlpha" type="matrix" values="0 0 0 0 0 0 0 0 0 0 0 0 0 0 0 0 0 0 127 0" result="hardAlpha"/>
<feOffset dy="2"/>
<feGaussianBlur stdDeviation="1.5"/>
<feColorMatrix type="matrix" values="0 0 0 0 0 0 0 0 0 0 0 0 0 0 0 0 0 0 0.1 0"/>
<feBlend mode="normal" in2="BackgroundImageFix" result="effect1_dropShadow_566_17133"/>
<feBlend mode="normal" in="SourceGraphic" in2="effect1_dropShadow_566_17133" result="shape"/>
</filter>
<linearGradient id="paint0_linear_566_17133" x1="19" y1="1" x2="19" y2="25" gradientUnits="userSpaceOnUse">
<stop stop-color="white" stop-opacity="0.7"/>
<stop offset="1" stop-opacity="0.3"/>
</linearGradient>
<clipPath id="clip0_566_17133">
<rect x="3" y="1" width="32" height="24" rx="2" fill="white"/>
</clipPath>
</defs>
</svg>
