<svg width="38" height="30" viewBox="0 0 38 30" fill="none" xmlns="http://www.w3.org/2000/svg">
<g filter="url(#filter0_d_566_17133)">
<g clip-path="url(#clip0_566_17133)">
<mask id="mask0_566_17133" style="mask-type:alpha" maskUnits="userSpaceOnUse" x="3" y="1" width="32" height="24">
<rect x="3" y="1" width="32" height="24" fill="white"/>
</mask>
<g mask="url(#mask0_566_17133)">
<path fill-rule="evenodd" clip-rule="evenodd" d="M25 1H35V25H25V1Z" fill="#D9071E"/>
<path fill-rule="evenodd" clip-rule="evenodd" d="M3 1H15V25H3V1Z" fill="#006923"/>
<path fill-rule="evenodd" clip-rule="evenodd" d="M13 1H25V25H13V1Z" fill="white"/>
<path fill-rule="evenodd" clip-rule="evenodd" d="M16.0555 9.34178C15.9492 9.79694 16.0184 9.90438 16.5323 9.90438C16.559 9.90438 16.6014 9.97981 16.6474 10.0619C16.6979 10.1519 16.753 10.2499 16.7967 10.265C16.778 10.2898 16.5826 10.643 16.5816 11.265C16.5815 11.3931 16.641 11.6042 16.6983 11.8069C16.7605 12.0274 16.82 12.2381 16.7967 12.3213C16.7588 12.4568 16.5889 12.3092 16.4573 12.1947C16.382 12.1293 16.3193 12.0747 16.3008 12.0902C16.2068 12.1693 16.1583 11.5432 16.129 11.1649C16.1159 10.9964 16.1067 10.8771 16.0989 10.891C16.0661 10.8187 16.0527 10.7298 16.0395 10.642C16.0107 10.451 15.9827 10.265 15.7573 10.265H15.1772V10.6921C15.1772 10.6921 15.5129 10.6921 15.5129 11.4867C15.5184 11.6054 15.6751 12.6503 16.0555 12.6557C15.8326 12.6607 15.8342 12.7052 15.8352 12.7312L15.8353 12.7359C15.8353 13.375 16.3695 13.4441 16.8688 13.2637C17.1688 13.1553 17.4874 12.9436 17.7259 12.6826C18.0625 12.3144 18.1041 11.8376 17.6621 11.5761C17.5047 11.4831 17.334 11.4471 17.0952 11.4338C17.1424 11.2937 17.0977 11.1685 17.0628 11.0709C17.0337 10.9892 17.0114 10.9268 17.0555 10.891C17.5561 10.485 17.6007 10.1108 17.2365 9.7751C17.1892 9.73155 17.1435 9.67251 17.0964 9.61174L17.0964 9.61174C17.0077 9.49719 16.9142 9.37648 16.7967 9.34178C16.851 9.23226 16.9241 9.09957 17.0159 8.9467L16.1586 8.43194C16.0032 8.6908 16.0291 8.89327 16.0518 9.06973C16.0642 9.16658 16.0756 9.25559 16.0555 9.34178ZM16.9878 12.0079L16.9723 12.0246L16.9828 12.015C16.9845 12.0122 16.9861 12.0098 16.9878 12.0079ZM16.5342 12.3213C16.5339 12.3214 16.5345 12.3213 16.5356 12.3211L16.5358 12.321L16.5454 12.3192C16.5415 12.3198 16.5379 12.3206 16.5358 12.321L16.5342 12.3213ZM16.0989 12.6552C16.0872 12.6552 16.076 12.6553 16.0653 12.6555L16.0837 12.6551L16.0989 12.6552Z" fill="#A8AC71"/>
<path fill-rule="evenodd" clip-rule="evenodd" d="M17.384 8.91339C17.384 8.91339 16.6972 9.44605 16.8257 10.0139C16.9541 10.5818 18.3076 10.0139 18.144 9.46366C17.9804 8.91339 17.384 8.91339 17.384 8.91339Z" fill="#FCCA3D"/>
<path fill-rule="evenodd" clip-rule="evenodd" d="M22.2664 13.4029C22.2664 13.4029 23.1914 10.6615 21.7211 9.24251C20.2507 7.82347 18.5516 7.91843 18.5516 7.91843C18.5516 7.91843 18.0623 8.28197 18.5516 8.55923C19.0409 8.83649 18.8359 9.10233 18.8359 9.10233C18.8359 9.10233 18.0164 8.27029 17.4725 8.7564C16.9285 9.24251 17.9803 9.16853 17.8689 9.53455C17.7576 9.90057 17.2859 11.5256 17.9751 12.3461C18.6644 13.1665 17.3235 12.9885 17.5962 12.9885C17.8689 12.9885 18.8359 13.1794 18.8359 12.9885C18.8359 12.7975 19.172 13.7309 19.4597 13.7309C19.7474 13.7309 19.9695 13.4029 19.9695 13.4029C19.9695 13.4029 20.3728 13.7309 20.6185 13.7309C20.8642 13.7309 21.7211 13.5163 21.7211 13.5163L20.1016 12.1517C20.1016 12.1517 20.1992 11.5499 19.9695 11.4196C19.7397 11.2893 21.8112 12.574 21.9735 12.9885C22.1357 13.4029 22.2664 13.4029 22.2664 13.4029Z" fill="#8F4620"/>
<path d="M14.0664 12.7266C14.0664 12.7266 14.2166 12.248 14.3773 12.2148C14.5166 12.186 14.8094 12.4441 14.8094 12.4441C15.3297 15.334 16.5876 16.4627 18.6749 16.4627C20.7867 16.4627 22.0666 15.6051 22.8135 12.9398C22.8135 12.9398 23.2106 12.5343 23.3507 12.5794C23.5032 12.6284 23.6943 13.1649 23.6943 13.1649C22.8375 16.2225 21.2185 17.5839 18.6749 17.5839C16.1067 17.5839 14.6638 16.0448 14.0664 12.7266Z" fill="#9FAB2F"/>
<path fill-rule="evenodd" clip-rule="evenodd" d="M16.3341 14.6564C16.3341 14.6564 19.3385 15.2938 20.5243 15.2938C21.7102 15.2938 19.4839 16.2616 18.6152 16.2616C18.2352 16.2616 17.7772 16.0312 17.2412 15.5705C17.1451 15.488 17.2382 15.3032 16.9455 15.3007C16.5374 15.2971 16.0304 15.2014 16.0789 15.1431C16.125 15.0876 16.7188 15.0708 16.6616 15.0102C16.5672 14.9101 16.3341 14.6564 16.3341 14.6564Z" fill="#2FC2DC"/>
<rect x="17.6666" y="15.1" width="2" height="1.07143" rx="0.166667" fill="#F9AA51"/>
<path d="M15.1754 13.1359C15.1754 13.1359 15.1754 12.7608 15.4294 12.5616C15.7205 12.3331 15.994 12.5616 15.994 12.5616C17.0595 14.0802 18.6528 14.5798 20.8812 14.0583C20.8812 14.0583 21.5475 14.2761 21.581 14.4191C21.6234 14.6006 21.109 15.032 21.109 15.032C18.504 15.6416 16.4904 15.0102 15.1754 13.1359Z" fill="#259485"/>
<path fill-rule="evenodd" clip-rule="evenodd" d="M19.5913 13.3503C19.5913 13.3503 18.3776 13.9891 18.7822 13.9891C19.1867 13.9891 20.77 14.3086 20.4619 13.9891C20.1538 13.6697 19.5913 13.3503 19.5913 13.3503Z" fill="#FCCA3D"/>
<path fill-rule="evenodd" clip-rule="evenodd" d="M18.1563 12.5882C18.1563 12.5882 17.9257 11.9222 17.4458 11.9222C16.9659 11.9222 17.1014 12.4685 16.8706 12.4685C16.6398 12.4685 17.0856 12.853 17.2843 12.853C17.483 12.853 18.1563 12.5882 18.1563 12.5882Z" fill="#FCCA3D"/>
</g>
<rect x="3" y="1" width="32" height="24" fill="url(#paint0_linear_566_17133)" style="mix-blend-mode:overlay"/>
</g>
<rect x="3.5" y="1.5" width="31" height="23" rx="1.5" stroke="black" stroke-opacity="0.1" style="mix-blend-mode:multiply"/>
</g>
<defs>
<filter id="filter0_d_566_17133" x="0" y="0" width="38" height="30" filterUnits="userSpaceOnUse" color-interpolation-filters="sRGB">
<feFlood flood-opacity="0" result="BackgroundImageFix"/>
<feColorMatrix in="SourceAlpha" type="matrix" values="0 0 0 0 0 0 0 0 0 0 0 0 0 0 0 0 0 0 127 0" result="hardAlpha"/>
<feOffset dy="2"/>
<feGaussianBlur stdDeviation="1.5"/>
<feColorMatrix type="matrix" values="0 0 0 0 0 0 0 0 0 0 0 0 0 0 0 0 0 0 0.1 0"/>
<feBlend mode="normal" in2="BackgroundImageFix" result="effect1_dropShadow_566_17133"/>
<feBlend mode="normal" in="SourceGraphic" in2="effect1_dropShadow_566_17133" result="shape"/>
</filter>
<linearGradient id="paint0_linear_566_17133" x1="19" y1="1" x2="19" y2="25" gradientUnits="userSpaceOnUse">
<stop stop-color="white" stop-opacity="0.7"/>
<stop offset="1" stop-opacity="0.3"/>
</linearGradient>
<clipPath id="clip0_566_17133">
<rect x="3" y="1" width="32" height="24" rx="2" fill="white"/>
</clipPath>
</defs>
</svg>
