<svg width="38" height="30" viewBox="0 0 38 30" fill="none" xmlns="http://www.w3.org/2000/svg">
<g filter="url(#filter0_d_566_17133)">
<g clip-path="url(#clip0_566_17133)">
<mask id="mask0_566_17133" style="mask-type:alpha" maskUnits="userSpaceOnUse" x="3" y="1" width="32" height="24">
<rect x="3" y="1" width="32" height="24" fill="white"/>
</mask>
<g mask="url(#mask0_566_17133)">
<path fill-rule="evenodd" clip-rule="evenodd" d="M11 1H35V25H11V1Z" fill="#EF0000"/>
<path fill-rule="evenodd" clip-rule="evenodd" d="M3 1H15V25H3V1Z" fill="#2F8D00"/>
<mask id="mask1_566_17133" style="mask-type:alpha" maskUnits="userSpaceOnUse" x="7" y="5" width="16" height="16">
<path fill-rule="evenodd" clip-rule="evenodd" d="M14.9047 20.8072C10.6442 20.8072 7.19043 17.3118 7.19043 13C7.19043 8.68819 10.6442 5.19277 14.9047 5.19277C19.1652 5.19277 22.619 8.68819 22.619 13C22.619 17.3118 19.1652 20.8072 14.9047 20.8072Z" fill="white"/>
</mask>
<g mask="url(#mask1_566_17133)">
<path fill-rule="evenodd" clip-rule="evenodd" d="M14.4285 5H15.4285V7.6988H14.4285V5Z" fill="#FFE017"/>
<path fill-rule="evenodd" clip-rule="evenodd" d="M14.4285 18.494H15.4285V21H14.4285V18.494Z" fill="#FFE017"/>
<path d="M7.31437 13.4038L7.03479 12.6865C10.12 11.4548 12.4485 10.6605 14.0285 10.3025C16.3466 9.77732 18.8937 9.38873 21.6699 9.13647L21.738 9.90447C18.9937 10.1538 16.4793 10.5374 14.195 11.055C12.662 11.4023 10.3658 12.1856 7.31437 13.4038Z" fill="#FFE017"/>
<path d="M22.1408 8.66389L21.914 9.39999C19.5822 8.66388 17.6828 8.34746 16.2228 8.44547L16.1724 7.67607C17.74 7.57085 19.7271 7.90187 22.1408 8.66389Z" fill="#FFE017"/>
<path d="M22.9476 12.7798L22.5166 13.4156C21.3279 12.5903 19.8635 12.1758 18.1133 12.1758V11.4047C20.0107 11.4047 21.6254 11.8618 22.9476 12.7798Z" fill="#FFE017"/>
<path d="M22.302 13.0106L22.499 13.7554C19.9364 14.4496 17.5304 14.8434 15.281 14.9361C13.016 15.0295 10.3762 14.6343 7.35913 13.7534L7.57031 13.0126C10.514 13.872 13.0747 14.2554 15.25 14.1657C17.4408 14.0754 19.7915 13.6906 22.302 13.0106Z" fill="#FFE017"/>
<path d="M22.0117 16.6359L20.8073 17.8706C18.5186 15.584 16.5037 13.949 14.775 12.9667C13.0166 11.9675 10.7237 10.9529 7.89954 9.92703L8.47868 8.2941C11.3861 9.35025 13.7634 10.4021 15.6142 11.4539C17.4946 12.5224 19.623 14.2494 22.0117 16.6359Z" fill="#FFE017"/>
<path d="M8.4583 17.3353L8.00244 16.7175C8.0661 16.6694 8.17969 16.5891 8.33619 16.4875C8.59459 16.3196 8.88153 16.152 9.19025 15.9954C10.0406 15.564 10.8935 15.2947 11.707 15.27C11.7468 15.2688 11.7864 15.2682 11.8259 15.2682V16.0393C11.7941 16.0393 11.7621 16.0397 11.7299 16.0407C11.0443 16.0616 10.2915 16.2993 9.53166 16.6847C9.24846 16.8284 8.98459 16.9825 8.74777 17.1364C8.66534 17.1899 8.59241 17.2394 8.52991 17.2836C8.49348 17.3093 8.4693 17.327 8.4583 17.3353Z" fill="#FFE017"/>
<path d="M8.81213 17.6026L9.004 16.8563C11.5441 17.5253 13.5024 17.8586 14.8691 17.8586C16.2307 17.8586 18.2573 17.4654 20.9357 16.6763L21.1487 17.4166C18.4069 18.2245 16.3181 18.6297 14.8691 18.6297C13.4252 18.6297 11.4095 18.2866 8.81213 17.6026Z" fill="#FFE017"/>
<path d="M7.82239 10.6944L9.02946 9.46248L10.7968 11.2361L9.58971 12.4681L7.82239 10.6944Z" fill="#FFE017"/>
<path d="M17.8359 16.8478L18.7338 15.3698L21.5374 17.1142L20.6396 18.5922L17.8359 16.8478Z" fill="#FFE017"/>
</g>
<path fill-rule="evenodd" clip-rule="evenodd" d="M7.19043 13C7.19043 17.3118 10.6442 20.8072 14.9047 20.8072C19.1652 20.8072 22.619 17.3118 22.619 13C22.619 8.68819 19.1652 5.19277 14.9047 5.19277C10.6442 5.19277 7.19043 8.68819 7.19043 13ZM21.6666 13.0964C21.6666 16.8226 18.6819 19.8434 15 19.8434C11.3181 19.8434 8.33329 16.8226 8.33329 13.0964C8.33329 9.37013 11.3181 6.3494 15 6.3494C18.6819 6.3494 21.6666 9.37013 21.6666 13.0964Z" fill="#F9E813"/>
<path d="M10.6566 8.18526V14.446C11.0688 16.9241 12.4572 18.1631 14.822 18.1631C17.1868 18.1631 18.5753 16.9241 18.9874 14.446V8.18526H10.6566Z" fill="white"/>
<path d="M10.0852 7.60695H19.5588V14.4943L19.5509 14.542C19.0933 17.2936 17.4709 18.7414 14.822 18.7414C12.1731 18.7414 10.5508 17.2936 10.0931 14.542L10.0852 14.4943V7.60695Z" fill="#C51918"/>
<path d="M12.2522 9.71069H17.3919V14.1516C17.3919 14.1516 17.0105 16.4449 14.8221 16.4449C12.6336 16.4449 12.2522 14.1516 12.2522 14.1516V9.71069Z" fill="#F7FCFF"/>
<path fill-rule="evenodd" clip-rule="evenodd" d="M11 8.08434H11.7229V8.56626H11V8.08434Z" fill="#F9E813"/>
<path fill-rule="evenodd" clip-rule="evenodd" d="M10.619 8.27711H11.9524V8.51807H10.619V8.27711Z" fill="#060101"/>
<path fill-rule="evenodd" clip-rule="evenodd" d="M10.619 8.46988H11.3419V8.71084H10.619V8.46988Z" fill="#F9E813"/>
<path fill-rule="evenodd" clip-rule="evenodd" d="M11.381 8.46988H12.1039V8.71084H11.381V8.46988Z" fill="#F9E813"/>
<path fill-rule="evenodd" clip-rule="evenodd" d="M10.619 9.04819H11.1009V9.77108H10.619V9.04819Z" fill="#F9E813"/>
<path fill-rule="evenodd" clip-rule="evenodd" d="M11.5714 9.04819H12.0533V9.77108H11.5714V9.04819Z" fill="#F9E813"/>
<path fill-rule="evenodd" clip-rule="evenodd" d="M11.1904 9.04819H11.4314V9.77108H11.1904V9.04819Z" fill="#F9E813"/>
<path fill-rule="evenodd" clip-rule="evenodd" d="M10.619 8.85542H11.9524V9.09639H10.619V8.85542Z" fill="#060101"/>
<path fill-rule="evenodd" clip-rule="evenodd" d="M10.619 9.43373H11.9524V9.67469H10.619V9.43373Z" fill="#060101"/>
<path fill-rule="evenodd" clip-rule="evenodd" d="M10.8094 8.66265H11.0504V8.90361H10.8094V8.66265Z" fill="#F9E813"/>
<path fill-rule="evenodd" clip-rule="evenodd" d="M11.5714 8.66265H11.8124V8.90361H11.5714V8.66265Z" fill="#F9E813"/>
<path fill-rule="evenodd" clip-rule="evenodd" d="M11.1904 8.46988H11.4314V8.95181H11.1904V8.46988Z" fill="#F9E813"/>
<path fill-rule="evenodd" clip-rule="evenodd" d="M14.619 8.08434H15.3419V8.56626H14.619V8.08434Z" fill="#F9E813"/>
<path fill-rule="evenodd" clip-rule="evenodd" d="M14.238 8.27711H15.5714V8.51807H14.238V8.27711Z" fill="#060101"/>
<path fill-rule="evenodd" clip-rule="evenodd" d="M14.238 8.46988H14.9609V8.71084H14.238V8.46988Z" fill="#F9E813"/>
<path fill-rule="evenodd" clip-rule="evenodd" d="M15 8.46988H15.7229V8.71084H15V8.46988Z" fill="#F9E813"/>
<path fill-rule="evenodd" clip-rule="evenodd" d="M14.238 9.04819H14.72V9.77108H14.238V9.04819Z" fill="#F9E813"/>
<path fill-rule="evenodd" clip-rule="evenodd" d="M15.1904 9.04819H15.6724V9.77108H15.1904V9.04819Z" fill="#F9E813"/>
<path fill-rule="evenodd" clip-rule="evenodd" d="M14.8094 9.04819H15.0504V9.77108H14.8094V9.04819Z" fill="#F9E813"/>
<path fill-rule="evenodd" clip-rule="evenodd" d="M14.238 8.85542H15.5714V9.09639H14.238V8.85542Z" fill="#060101"/>
<path fill-rule="evenodd" clip-rule="evenodd" d="M14.238 9.43373H15.5714V9.67469H14.238V9.43373Z" fill="#060101"/>
<path fill-rule="evenodd" clip-rule="evenodd" d="M14.4285 8.66265H14.6694V8.90361H14.4285V8.66265Z" fill="#F9E813"/>
<path fill-rule="evenodd" clip-rule="evenodd" d="M15.1904 8.66265H15.4314V8.90361H15.1904V8.66265Z" fill="#F9E813"/>
<path fill-rule="evenodd" clip-rule="evenodd" d="M14.8094 8.46988H15.0504V8.95181H14.8094V8.46988Z" fill="#F9E813"/>
<path fill-rule="evenodd" clip-rule="evenodd" d="M18.0476 8.08434H18.7705V8.56626H18.0476V8.08434Z" fill="#F9E813"/>
<path fill-rule="evenodd" clip-rule="evenodd" d="M17.6666 8.27711H19V8.51807H17.6666V8.27711Z" fill="#060101"/>
<path fill-rule="evenodd" clip-rule="evenodd" d="M17.6666 8.46988H18.3895V8.71084H17.6666V8.46988Z" fill="#F9E813"/>
<path fill-rule="evenodd" clip-rule="evenodd" d="M18.4286 8.46988H19.1515V8.71084H18.4286V8.46988Z" fill="#F9E813"/>
<path fill-rule="evenodd" clip-rule="evenodd" d="M17.6666 9.04819H18.1486V9.77108H17.6666V9.04819Z" fill="#F9E813"/>
<path fill-rule="evenodd" clip-rule="evenodd" d="M18.619 9.04819H19.1009V9.77108H18.619V9.04819Z" fill="#F9E813"/>
<path fill-rule="evenodd" clip-rule="evenodd" d="M18.238 9.04819H18.479V9.77108H18.238V9.04819Z" fill="#F9E813"/>
<path fill-rule="evenodd" clip-rule="evenodd" d="M17.6666 8.85542H19V9.09639H17.6666V8.85542Z" fill="#060101"/>
<path fill-rule="evenodd" clip-rule="evenodd" d="M17.6666 9.43373H19V9.67469H17.6666V9.43373Z" fill="#060101"/>
<path fill-rule="evenodd" clip-rule="evenodd" d="M17.8571 8.66265H18.098V8.90361H17.8571V8.66265Z" fill="#F9E813"/>
<path fill-rule="evenodd" clip-rule="evenodd" d="M18.619 8.66265H18.86V8.90361H18.619V8.66265Z" fill="#F9E813"/>
<path fill-rule="evenodd" clip-rule="evenodd" d="M18.238 8.46988H18.479V8.95181H18.238V8.46988Z" fill="#F9E813"/>
<path fill-rule="evenodd" clip-rule="evenodd" d="M18.0476 11.5542H18.7705V12.0361H18.0476V11.5542Z" fill="#F9E813"/>
<path fill-rule="evenodd" clip-rule="evenodd" d="M17.6666 11.747H19V11.988H17.6666V11.747Z" fill="#060101"/>
<path fill-rule="evenodd" clip-rule="evenodd" d="M17.6666 11.9398H18.3895V12.1807H17.6666V11.9398Z" fill="#F9E813"/>
<path fill-rule="evenodd" clip-rule="evenodd" d="M18.4286 11.9398H19.1515V12.1807H18.4286V11.9398Z" fill="#F9E813"/>
<path fill-rule="evenodd" clip-rule="evenodd" d="M17.6666 12.5181H18.1486V13.241H17.6666V12.5181Z" fill="#F9E813"/>
<path fill-rule="evenodd" clip-rule="evenodd" d="M18.619 12.5181H19.1009V13.241H18.619V12.5181Z" fill="#F9E813"/>
<path fill-rule="evenodd" clip-rule="evenodd" d="M18.238 12.5181H18.479V13.241H18.238V12.5181Z" fill="#F9E813"/>
<path fill-rule="evenodd" clip-rule="evenodd" d="M17.6666 12.3253H19V12.5663H17.6666V12.3253Z" fill="#060101"/>
<path fill-rule="evenodd" clip-rule="evenodd" d="M17.6666 12.9036H19V13.1446H17.6666V12.9036Z" fill="#060101"/>
<path fill-rule="evenodd" clip-rule="evenodd" d="M17.8571 12.1325H18.098V12.3735H17.8571V12.1325Z" fill="#F9E813"/>
<path fill-rule="evenodd" clip-rule="evenodd" d="M18.619 12.1325H18.86V12.3735H18.619V12.1325Z" fill="#F9E813"/>
<path fill-rule="evenodd" clip-rule="evenodd" d="M18.238 11.9398H18.479V12.4217H18.238V11.9398Z" fill="#F9E813"/>
<path fill-rule="evenodd" clip-rule="evenodd" d="M11 11.5542H11.7229V12.0361H11V11.5542Z" fill="#F9E813"/>
<path fill-rule="evenodd" clip-rule="evenodd" d="M10.619 11.747H11.9524V11.988H10.619V11.747Z" fill="#060101"/>
<path fill-rule="evenodd" clip-rule="evenodd" d="M10.619 11.9398H11.3419V12.1807H10.619V11.9398Z" fill="#F9E813"/>
<path fill-rule="evenodd" clip-rule="evenodd" d="M11.381 11.9398H12.1039V12.1807H11.381V11.9398Z" fill="#F9E813"/>
<path fill-rule="evenodd" clip-rule="evenodd" d="M10.619 12.5181H11.1009V13.241H10.619V12.5181Z" fill="#F9E813"/>
<path fill-rule="evenodd" clip-rule="evenodd" d="M11.5714 12.5181H12.0533V13.241H11.5714V12.5181Z" fill="#F9E813"/>
<path fill-rule="evenodd" clip-rule="evenodd" d="M11.1904 12.5181H11.4314V13.241H11.1904V12.5181Z" fill="#F9E813"/>
<path fill-rule="evenodd" clip-rule="evenodd" d="M10.619 12.3253H11.9524V12.5663H10.619V12.3253Z" fill="#060101"/>
<path fill-rule="evenodd" clip-rule="evenodd" d="M10.619 12.9036H11.9524V13.1446H10.619V12.9036Z" fill="#060101"/>
<path fill-rule="evenodd" clip-rule="evenodd" d="M10.8094 12.1325H11.0504V12.3735H10.8094V12.1325Z" fill="#F9E813"/>
<path fill-rule="evenodd" clip-rule="evenodd" d="M11.5714 12.1325H11.8124V12.3735H11.5714V12.1325Z" fill="#F9E813"/>
<path fill-rule="evenodd" clip-rule="evenodd" d="M11.1904 11.9398H11.4314V12.4217H11.1904V11.9398Z" fill="#F9E813"/>
<path fill-rule="evenodd" clip-rule="evenodd" d="M11.4637 15.9039L11.9284 15.3502L12.2976 15.66L11.8329 16.2137L11.4637 15.9039Z" fill="#F9E813"/>
<path fill-rule="evenodd" clip-rule="evenodd" d="M11.3666 16.3197L12.2236 15.2983L12.4082 15.4532L11.5512 16.4746L11.3666 16.3197Z" fill="#060101"/>
<path fill-rule="evenodd" clip-rule="evenodd" d="M11.5142 16.4436L11.9788 15.8898L12.1634 16.0447L11.6987 16.5985L11.5142 16.4436Z" fill="#F9E813"/>
<path fill-rule="evenodd" clip-rule="evenodd" d="M12.0039 15.8599L12.4686 15.3062L12.6532 15.4611L12.1885 16.0148L12.0039 15.8599Z" fill="#F9E813"/>
<path fill-rule="evenodd" clip-rule="evenodd" d="M11.9573 16.8153L12.2671 16.4461L12.8208 16.9108L12.511 17.28L11.9573 16.8153Z" fill="#F9E813"/>
<path fill-rule="evenodd" clip-rule="evenodd" d="M12.5695 16.0858L12.8792 15.7166L13.433 16.1812L13.1232 16.5504L12.5695 16.0858Z" fill="#F9E813"/>
<path fill-rule="evenodd" clip-rule="evenodd" d="M12.3246 16.3776L12.4795 16.193L13.0332 16.6577L12.8784 16.8423L12.3246 16.3776Z" fill="#F9E813"/>
<path fill-rule="evenodd" clip-rule="evenodd" d="M11.8096 16.6914L12.6666 15.67L12.8512 15.8249L11.9942 16.8463L11.8096 16.6914Z" fill="#060101"/>
<path fill-rule="evenodd" clip-rule="evenodd" d="M12.2526 17.0631L13.1096 16.0418L13.2942 16.1966L12.4372 17.218L12.2526 17.0631Z" fill="#060101"/>
<path fill-rule="evenodd" clip-rule="evenodd" d="M11.7843 16.4216L11.9392 16.237L12.1238 16.3919L11.9689 16.5765L11.7843 16.4216Z" fill="#F9E813"/>
<path fill-rule="evenodd" clip-rule="evenodd" d="M12.274 15.8379L12.4289 15.6533L12.6135 15.8082L12.4586 15.9928L12.274 15.8379Z" fill="#F9E813"/>
<path fill-rule="evenodd" clip-rule="evenodd" d="M11.8815 16.0059L12.0364 15.8213L12.4055 16.131L12.2506 16.3156L11.8815 16.0059Z" fill="#F9E813"/>
<path fill-rule="evenodd" clip-rule="evenodd" d="M17.9784 15.4662L18.4431 16.02L18.0739 16.3297L17.6092 15.776L17.9784 15.4662Z" fill="#F9E813"/>
<path fill-rule="evenodd" clip-rule="evenodd" d="M17.5858 15.2983L18.4429 16.3197L18.2583 16.4746L17.4012 15.4532L17.5858 15.2983Z" fill="#060101"/>
<path fill-rule="evenodd" clip-rule="evenodd" d="M17.4382 15.4222L17.9029 15.976L17.7183 16.1309L17.2536 15.5771L17.4382 15.4222Z" fill="#F9E813"/>
<path fill-rule="evenodd" clip-rule="evenodd" d="M17.928 16.0059L18.3926 16.5596L18.2081 16.7145L17.7434 16.1607L17.928 16.0059Z" fill="#F9E813"/>
<path fill-rule="evenodd" clip-rule="evenodd" d="M16.9951 15.7939L17.3049 16.1631L16.7511 16.6278L16.4414 16.2586L16.9951 15.7939Z" fill="#F9E813"/>
<path fill-rule="evenodd" clip-rule="evenodd" d="M17.6073 16.5235L17.9171 16.8927L17.3633 17.3573L17.0535 16.9882L17.6073 16.5235Z" fill="#F9E813"/>
<path fill-rule="evenodd" clip-rule="evenodd" d="M17.3624 16.2317L17.5173 16.4163L16.9635 16.8809L16.8087 16.6963L17.3624 16.2317Z" fill="#F9E813"/>
<path fill-rule="evenodd" clip-rule="evenodd" d="M17.1428 15.67L17.9999 16.6914L17.8153 16.8463L16.9582 15.8249L17.1428 15.67Z" fill="#060101"/>
<path fill-rule="evenodd" clip-rule="evenodd" d="M16.6998 16.0418L17.5569 17.0631L17.3723 17.218L16.5152 16.1966L16.6998 16.0418Z" fill="#060101"/>
<path fill-rule="evenodd" clip-rule="evenodd" d="M17.413 15.692L17.5679 15.8766L17.3833 16.0315L17.2284 15.8469L17.413 15.692Z" fill="#F9E813"/>
<path fill-rule="evenodd" clip-rule="evenodd" d="M17.9027 16.2757L18.0576 16.4603L17.873 16.6152L17.7181 16.4306L17.9027 16.2757Z" fill="#F9E813"/>
<path fill-rule="evenodd" clip-rule="evenodd" d="M17.8055 15.8599L17.9604 16.0445L17.5913 16.3543L17.4364 16.1697L17.8055 15.8599Z" fill="#F9E813"/>
<path fill-rule="evenodd" clip-rule="evenodd" d="M15.5584 10.2048H14.238V11.1663C14.238 11.1663 14.336 11.6628 14.8982 11.6628C15.4604 11.6628 15.5584 11.1663 15.5584 11.1663V10.2048ZM14.8095 10.5904C14.8095 10.6968 14.7242 10.7831 14.619 10.7831C14.5138 10.7831 14.4285 10.6968 14.4285 10.5904C14.4285 10.4839 14.5138 10.3976 14.619 10.3976C14.7242 10.3976 14.8095 10.4839 14.8095 10.5904ZM14.619 11.5542C14.7242 11.5542 14.8095 11.4679 14.8095 11.3614C14.8095 11.255 14.7242 11.1687 14.619 11.1687C14.5138 11.1687 14.4285 11.255 14.4285 11.3614C14.4285 11.4679 14.5138 11.5542 14.619 11.5542ZM15.3809 11.3614C15.3809 11.4679 15.2956 11.5542 15.1904 11.5542C15.0852 11.5542 14.9999 11.4679 14.9999 11.3614C14.9999 11.255 15.0852 11.1687 15.1904 11.1687C15.2956 11.1687 15.3809 11.255 15.3809 11.3614ZM14.9047 11.1687C15.0099 11.1687 15.0952 11.0824 15.0952 10.9759C15.0952 10.8694 15.0099 10.7831 14.9047 10.7831C14.7995 10.7831 14.7142 10.8694 14.7142 10.9759C14.7142 11.0824 14.7995 11.1687 14.9047 11.1687ZM15.3809 10.5904C15.3809 10.6968 15.2956 10.7831 15.1904 10.7831C15.0852 10.7831 14.9999 10.6968 14.9999 10.5904C14.9999 10.4839 15.0852 10.3976 15.1904 10.3976C15.2956 10.3976 15.3809 10.4839 15.3809 10.5904Z" fill="#013399"/>
<path fill-rule="evenodd" clip-rule="evenodd" d="M15.5584 12.3253H14.238V13.2868C14.238 13.2868 14.336 13.7833 14.8982 13.7833C15.4604 13.7833 15.5584 13.2868 15.5584 13.2868V12.3253ZM14.8095 12.7108C14.8095 12.8173 14.7242 12.9036 14.619 12.9036C14.5138 12.9036 14.4285 12.8173 14.4285 12.7108C14.4285 12.6044 14.5138 12.5181 14.619 12.5181C14.7242 12.5181 14.8095 12.6044 14.8095 12.7108ZM14.619 13.6747C14.7242 13.6747 14.8095 13.5884 14.8095 13.4819C14.8095 13.3755 14.7242 13.2892 14.619 13.2892C14.5138 13.2892 14.4285 13.3755 14.4285 13.4819C14.4285 13.5884 14.5138 13.6747 14.619 13.6747ZM15.3809 13.4819C15.3809 13.5884 15.2956 13.6747 15.1904 13.6747C15.0852 13.6747 14.9999 13.5884 14.9999 13.4819C14.9999 13.3755 15.0852 13.2892 15.1904 13.2892C15.2956 13.2892 15.3809 13.3755 15.3809 13.4819ZM14.9047 13.2892C15.0099 13.2892 15.0952 13.2029 15.0952 13.0964C15.0952 12.9899 15.0099 12.9036 14.9047 12.9036C14.7995 12.9036 14.7142 12.9899 14.7142 13.0964C14.7142 13.2029 14.7995 13.2892 14.9047 13.2892ZM15.3809 12.7108C15.3809 12.8173 15.2956 12.9036 15.1904 12.9036C15.0852 12.9036 14.9999 12.8173 14.9999 12.7108C14.9999 12.6044 15.0852 12.5181 15.1904 12.5181C15.2956 12.5181 15.3809 12.6044 15.3809 12.7108Z" fill="#013399"/>
<path fill-rule="evenodd" clip-rule="evenodd" d="M17.2726 12.3253H15.9523V13.2868C15.9523 13.2868 16.0502 13.7833 16.6124 13.7833C17.1746 13.7833 17.2726 13.2868 17.2726 13.2868V12.3253ZM16.5237 12.7108C16.5237 12.8173 16.4384 12.9036 16.3332 12.9036C16.228 12.9036 16.1427 12.8173 16.1427 12.7108C16.1427 12.6044 16.228 12.5181 16.3332 12.5181C16.4384 12.5181 16.5237 12.6044 16.5237 12.7108ZM16.3332 13.6747C16.4384 13.6747 16.5237 13.5884 16.5237 13.4819C16.5237 13.3755 16.4384 13.2892 16.3332 13.2892C16.228 13.2892 16.1427 13.3755 16.1427 13.4819C16.1427 13.5884 16.228 13.6747 16.3332 13.6747ZM17.0951 13.4819C17.0951 13.5884 17.0098 13.6747 16.9047 13.6747C16.7995 13.6747 16.7142 13.5884 16.7142 13.4819C16.7142 13.3755 16.7995 13.2892 16.9047 13.2892C17.0098 13.2892 17.0951 13.3755 17.0951 13.4819ZM16.6189 13.2892C16.7241 13.2892 16.8094 13.2029 16.8094 13.0964C16.8094 12.9899 16.7241 12.9036 16.6189 12.9036C16.5137 12.9036 16.4285 12.9899 16.4285 13.0964C16.4285 13.2029 16.5137 13.2892 16.6189 13.2892ZM17.0951 12.7108C17.0951 12.8173 17.0098 12.9036 16.9047 12.9036C16.7995 12.9036 16.7142 12.8173 16.7142 12.7108C16.7142 12.6044 16.7995 12.5181 16.9047 12.5181C17.0098 12.5181 17.0951 12.6044 17.0951 12.7108Z" fill="#013399"/>
<path fill-rule="evenodd" clip-rule="evenodd" d="M13.8441 12.3253H12.5238V13.2868C12.5238 13.2868 12.6218 13.7833 13.184 13.7833C13.7462 13.7833 13.8441 13.2868 13.8441 13.2868V12.3253ZM13.0952 12.7108C13.0952 12.8173 13.01 12.9036 12.9048 12.9036C12.7996 12.9036 12.7143 12.8173 12.7143 12.7108C12.7143 12.6044 12.7996 12.5181 12.9048 12.5181C13.01 12.5181 13.0952 12.6044 13.0952 12.7108ZM12.9048 13.6747C13.01 13.6747 13.0952 13.5884 13.0952 13.4819C13.0952 13.3755 13.01 13.2892 12.9048 13.2892C12.7996 13.2892 12.7143 13.3755 12.7143 13.4819C12.7143 13.5884 12.7996 13.6747 12.9048 13.6747ZM13.6667 13.4819C13.6667 13.5884 13.5814 13.6747 13.4762 13.6747C13.371 13.6747 13.2857 13.5884 13.2857 13.4819C13.2857 13.3755 13.371 13.2892 13.4762 13.2892C13.5814 13.2892 13.6667 13.3755 13.6667 13.4819ZM13.1905 13.2892C13.2957 13.2892 13.3809 13.2029 13.3809 13.0964C13.3809 12.9899 13.2957 12.9036 13.1905 12.9036C13.0853 12.9036 13 12.9899 13 13.0964C13 13.2029 13.0853 13.2892 13.1905 13.2892ZM13.6667 12.7108C13.6667 12.8173 13.5814 12.9036 13.4762 12.9036C13.371 12.9036 13.2857 12.8173 13.2857 12.7108C13.2857 12.6044 13.371 12.5181 13.4762 12.5181C13.5814 12.5181 13.6667 12.6044 13.6667 12.7108Z" fill="#013399"/>
<path fill-rule="evenodd" clip-rule="evenodd" d="M15.5584 14.4458H14.238V15.4073C14.238 15.4073 14.336 15.9038 14.8982 15.9038C15.4604 15.9038 15.5584 15.4073 15.5584 15.4073V14.4458ZM14.8095 14.8313C14.8095 14.9378 14.7242 15.0241 14.619 15.0241C14.5138 15.0241 14.4285 14.9378 14.4285 14.8313C14.4285 14.7249 14.5138 14.6386 14.619 14.6386C14.7242 14.6386 14.8095 14.7249 14.8095 14.8313ZM14.619 15.7952C14.7242 15.7952 14.8095 15.7089 14.8095 15.6024C14.8095 15.4959 14.7242 15.4096 14.619 15.4096C14.5138 15.4096 14.4285 15.4959 14.4285 15.6024C14.4285 15.7089 14.5138 15.7952 14.619 15.7952ZM15.3809 15.6024C15.3809 15.7089 15.2956 15.7952 15.1904 15.7952C15.0852 15.7952 14.9999 15.7089 14.9999 15.6024C14.9999 15.4959 15.0852 15.4096 15.1904 15.4096C15.2956 15.4096 15.3809 15.4959 15.3809 15.6024ZM14.9047 15.4096C15.0099 15.4096 15.0952 15.3233 15.0952 15.2169C15.0952 15.1104 15.0099 15.0241 14.9047 15.0241C14.7995 15.0241 14.7142 15.1104 14.7142 15.2169C14.7142 15.3233 14.7995 15.4096 14.9047 15.4096ZM15.3809 14.8313C15.3809 14.9378 15.2956 15.0241 15.1904 15.0241C15.0852 15.0241 14.9999 14.9378 14.9999 14.8313C14.9999 14.7249 15.0852 14.6386 15.1904 14.6386C15.2956 14.6386 15.3809 14.7249 15.3809 14.8313Z" fill="#013399"/>
</g>
<rect x="3" y="1" width="32" height="24" fill="url(#paint0_linear_566_17133)" style="mix-blend-mode:overlay"/>
</g>
<rect x="3.5" y="1.5" width="31" height="23" rx="1.5" stroke="black" stroke-opacity="0.1" style="mix-blend-mode:multiply"/>
</g>
<defs>
<filter id="filter0_d_566_17133" x="0" y="0" width="38" height="30" filterUnits="userSpaceOnUse" color-interpolation-filters="sRGB">
<feFlood flood-opacity="0" result="BackgroundImageFix"/>
<feColorMatrix in="SourceAlpha" type="matrix" values="0 0 0 0 0 0 0 0 0 0 0 0 0 0 0 0 0 0 127 0" result="hardAlpha"/>
<feOffset dy="2"/>
<feGaussianBlur stdDeviation="1.5"/>
<feColorMatrix type="matrix" values="0 0 0 0 0 0 0 0 0 0 0 0 0 0 0 0 0 0 0.1 0"/>
<feBlend mode="normal" in2="BackgroundImageFix" result="effect1_dropShadow_566_17133"/>
<feBlend mode="normal" in="SourceGraphic" in2="effect1_dropShadow_566_17133" result="shape"/>
</filter>
<linearGradient id="paint0_linear_566_17133" x1="19" y1="1" x2="19" y2="25" gradientUnits="userSpaceOnUse">
<stop stop-color="white" stop-opacity="0.7"/>
<stop offset="1" stop-opacity="0.3"/>
</linearGradient>
<clipPath id="clip0_566_17133">
<rect x="3" y="1" width="32" height="24" rx="2" fill="white"/>
</clipPath>
</defs>
</svg>
