<svg width="38" height="30" viewBox="0 0 38 30" fill="none" xmlns="http://www.w3.org/2000/svg">
<g filter="url(#filter0_d_566_17133)">
<g clip-path="url(#clip0_566_17133)">
<mask id="mask0_566_17133" style="mask-type:alpha" maskUnits="userSpaceOnUse" x="3" y="1" width="32" height="24">
<rect x="3" y="1" width="32" height="24" fill="white"/>
</mask>
<g mask="url(#mask0_566_17133)">
<path fill-rule="evenodd" clip-rule="evenodd" d="M3 1V25H35V1H3Z" fill="#4857A1"/>
<mask id="mask1_566_17133" style="mask-type:alpha" maskUnits="userSpaceOnUse" x="3" y="1" width="32" height="24">
<path fill-rule="evenodd" clip-rule="evenodd" d="M3 1V25H35V1H3Z" fill="white"/>
</mask>
<g mask="url(#mask1_566_17133)">
<path fill-rule="evenodd" clip-rule="evenodd" d="M3 1V9H35V1H3Z" fill="#C51918"/>
<path fill-rule="evenodd" clip-rule="evenodd" d="M3 17V25H35V17H3Z" fill="#F7FCFF"/>
<path fill-rule="evenodd" clip-rule="evenodd" d="M14.4559 4.8032L14.3427 4.34973C14.4392 4.37936 14.5439 4.40976 14.6545 4.44102L14.6535 4.43522C15.9735 4.55496 18.014 5.23825 18.3939 5.96399C18.5407 6.2445 18.3947 6.48363 18.2034 6.797C18.1748 6.84383 18.1452 6.89231 18.1154 6.94284C18.0192 7.10601 17.932 7.262 17.8498 7.40901C17.5533 7.93939 17.3221 8.35288 16.9702 8.56527L16.9772 9.76626L11.0817 9.71557L11.074 8.50246C10.7726 8.27677 10.5571 7.89119 10.2875 7.40901C10.2053 7.262 10.1181 7.10601 10.0219 6.94284C9.99207 6.89231 9.96247 6.84383 9.93388 6.797C9.74256 6.48363 9.59656 6.2445 9.74338 5.96399C10.029 5.41834 11.3228 4.88767 12.5084 4.60701C12.7417 4.52406 12.9855 4.44654 13.2272 4.37231L13.3351 4.4504C13.4288 4.43761 13.5197 4.42718 13.6068 4.41927L13.7426 4.72216H14.2227C14.2227 4.72216 14.5125 5.58271 14.5125 6.06062C14.5125 6.53853 14.2227 6.93373 14.2227 6.93373V7.26363C14.273 7.26782 14.3258 7.27294 14.3807 7.27886C14.3811 7.25024 14.3838 7.2201 14.3893 7.18926C14.4171 7.03161 14.5035 6.91507 14.5823 6.92897C14.6612 6.94287 14.7025 7.08194 14.6747 7.23959C14.6702 7.26522 14.6641 7.28977 14.6568 7.31284C14.9678 7.35514 15.3164 7.41419 15.6465 7.47493C15.7722 7.23124 15.9255 6.99048 16.0719 6.76059C16.4502 6.16639 16.7822 5.64489 16.4723 5.33359C16.4136 5.27455 16.3072 5.21963 16.1701 5.16876C15.7167 5.05597 15.2232 4.96896 14.7435 4.92545L14.729 4.84664C14.6333 4.83109 14.5415 4.81661 14.4559 4.8032ZM16.6961 7.68268C16.8637 7.71799 16.9653 7.74045 16.9653 7.74045L16.9663 7.91231C17.5504 7.46213 17.9637 6.46463 18.001 6.13787C18.0234 5.94087 17.711 5.71374 17.2212 5.50796C17.453 5.94762 17.1425 6.38392 16.7529 6.93147C16.6065 7.13725 16.4489 7.35874 16.3046 7.60203L16.4477 7.63108C16.4464 7.5859 16.4524 7.5351 16.4664 7.48287C16.5078 7.32825 16.6041 7.21969 16.6814 7.24041C16.7587 7.26112 16.7878 7.40327 16.7464 7.55789C16.7339 7.60441 16.7165 7.64676 16.6961 7.68268ZM13.6836 7.26586V6.89846C13.6836 6.89846 13.4326 6.61797 13.3937 6.03383C13.3659 5.61597 13.4521 5.12475 13.5034 4.87894C13.1289 4.92642 12.7342 5.00017 12.3519 5.09074C12.0983 5.16214 11.8962 5.24302 11.8061 5.33359C11.4962 5.64489 11.8282 6.16639 12.2065 6.76059L12.2065 6.76059L12.2065 6.7606L12.2066 6.76061C12.3479 6.98266 12.4957 7.21485 12.619 7.45002C12.8321 7.40388 13.0462 7.36118 13.2461 7.3272C13.2375 7.29629 13.2313 7.26256 13.2282 7.22706C13.2143 7.06758 13.2676 6.93265 13.3473 6.92567C13.4271 6.9187 13.503 7.04232 13.517 7.20179C13.5195 7.2307 13.5198 7.2588 13.5182 7.28547C13.5756 7.27778 13.6309 7.27118 13.6836 7.26586ZM11.5255 6.93148L11.5255 6.93147L11.5255 6.93147C11.1271 6.37154 10.8114 5.92795 11.0738 5.47814C10.5003 5.70021 10.1139 5.94139 10.1363 6.13787C10.1715 6.44661 10.5424 7.35409 11.0758 7.833C11.113 7.82264 11.3193 7.76541 11.6104 7.69056C11.5881 7.65567 11.5683 7.61413 11.5534 7.56814C11.5039 7.41589 11.5255 7.27242 11.6017 7.24768C11.6778 7.22295 11.7796 7.32632 11.8291 7.47856C11.8461 7.53111 11.8547 7.58261 11.8556 7.62854L11.9724 7.59971C11.8286 7.35734 11.6715 7.13661 11.5255 6.93149L11.5255 6.93149L11.5255 6.93148Z" fill="#F6C540"/>
<path fill-rule="evenodd" clip-rule="evenodd" d="M14.6522 4.50597C14.6522 4.85745 14.3603 5.14237 14.0001 5.14237C13.6399 5.14237 13.3479 4.85745 13.3479 4.50597C13.3479 4.15449 13.6399 3.86956 14.0001 3.86956C14.3603 3.86956 14.6522 4.15449 14.6522 4.50597ZM14.0001 9.23188C14.2802 9.23188 14.5073 9.10211 14.5073 8.94202C14.5073 8.78194 14.2802 8.65217 14.0001 8.65217C13.7199 8.65217 13.4928 8.78194 13.4928 8.94202C13.4928 9.10211 13.7199 9.23188 14.0001 9.23188ZM11.4638 9.15942C11.4638 9.27948 11.3665 9.37681 11.2464 9.37681C11.1264 9.37681 11.0291 9.27948 11.0291 9.15942C11.0291 9.03935 11.1264 8.94202 11.2464 8.94202C11.3665 8.94202 11.4638 9.03935 11.4638 9.15942ZM17.2609 9.15942C17.2609 9.27948 17.1636 9.37681 17.0435 9.37681C16.9235 9.37681 16.8262 9.27948 16.8262 9.15942C16.8262 9.03935 16.9235 8.94202 17.0435 8.94202C17.1636 8.94202 17.2609 9.03935 17.2609 9.15942Z" fill="#2E42A5"/>
<path fill-rule="evenodd" clip-rule="evenodd" d="M12.9131 9.01449C12.9131 9.13455 12.7509 9.23188 12.5508 9.23188C12.3507 9.23188 12.1885 9.13455 12.1885 9.01449C12.1885 8.89443 12.3507 8.7971 12.5508 8.7971C12.7509 8.7971 12.9131 8.89443 12.9131 9.01449ZM15.9566 9.01449C15.9566 9.13455 15.7944 9.23188 15.5943 9.23188C15.3942 9.23188 15.232 9.13455 15.232 9.01449C15.232 8.89443 15.3942 8.7971 15.5943 8.7971C15.7944 8.7971 15.9566 8.89443 15.9566 9.01449Z" fill="#C5363C"/>
<path fill-rule="evenodd" clip-rule="evenodd" d="M15.2319 7.2029C15.2319 7.36298 15.167 7.49275 15.087 7.49275C15.007 7.49275 14.9421 7.36298 14.9421 7.2029C14.9421 7.04281 15.007 6.91304 15.087 6.91304C15.167 6.91304 15.2319 7.04281 15.2319 7.2029ZM13.0509 7.15811C13.1004 7.31036 13.0788 7.45383 13.0027 7.47856C12.9265 7.5033 12.8247 7.39993 12.7753 7.24768C12.7258 7.09543 12.7474 6.95196 12.8235 6.92723C12.8996 6.90249 13.0015 7.00586 13.0509 7.15811ZM11.346 7.94394C11.4221 7.91921 11.4437 7.77574 11.3943 7.62349C11.3448 7.47124 11.243 7.36787 11.1669 7.39261C11.0907 7.41734 11.0691 7.56081 11.1186 7.71306C11.1681 7.86531 11.2699 7.96868 11.346 7.94394ZM17.0806 7.74723C16.9958 7.88299 16.872 7.95866 16.8041 7.91624C16.7362 7.87383 16.75 7.72939 16.8348 7.59363C16.9196 7.45788 17.0434 7.38221 17.1113 7.42462C17.1792 7.46704 17.1655 7.61148 17.0806 7.74723Z" fill="#F7FCFF"/>
<path fill-rule="evenodd" clip-rule="evenodd" d="M12.7691 4.79235C12.8095 4.82177 12.8592 4.83913 12.9131 4.83913C13.0483 4.83913 13.158 4.72947 13.158 4.5942C13.158 4.45893 13.0483 4.34927 12.9131 4.34927C12.8171 4.34927 12.7341 4.40442 12.6939 4.48475C12.6535 4.45532 12.6037 4.43796 12.5499 4.43796C12.4636 4.43796 12.3877 4.48259 12.3441 4.55003C12.3018 4.51515 12.2476 4.4942 12.1884 4.4942C12.0532 4.4942 11.9435 4.60386 11.9435 4.73913C11.9435 4.74667 11.9438 4.75413 11.9445 4.7615C11.8996 4.70575 11.8308 4.67008 11.7536 4.67008C11.631 4.67008 11.5295 4.76016 11.5115 4.87775C11.4667 4.8207 11.3971 4.78406 11.3189 4.78406C11.2013 4.78406 11.1031 4.86686 11.0794 4.97732C11.0392 4.94837 10.9898 4.93132 10.9365 4.93132C10.8279 4.93132 10.7359 5.00192 10.7038 5.0997C10.6708 5.0832 10.6336 5.07391 10.5942 5.07391C10.4734 5.07391 10.373 5.16144 10.3529 5.27656C10.3372 5.2734 10.321 5.27175 10.3044 5.27175C10.1704 5.27175 10.0615 5.37932 10.0595 5.51281C10.0449 5.51011 10.0299 5.50869 10.0145 5.50869C9.87925 5.50869 9.76959 5.61835 9.76959 5.75362C9.76959 5.77077 9.77135 5.78751 9.77471 5.80367C9.75855 5.80031 9.74181 5.79855 9.72466 5.79855C9.58939 5.79855 9.47974 5.90821 9.47974 6.04348C9.47974 6.14625 9.54304 6.23424 9.63278 6.27058C9.62748 6.29061 9.62466 6.31164 9.62466 6.33333C9.62466 6.43611 9.68796 6.52409 9.7777 6.56044C9.77241 6.58047 9.76959 6.6015 9.76959 6.62319C9.76959 6.75524 9.8741 6.86289 10.0049 6.86793C9.94976 6.91284 9.91452 6.98129 9.91452 7.05797C9.91452 7.19324 10.0242 7.3029 10.1594 7.3029C10.2947 7.3029 10.4044 7.19324 10.4044 7.05797C10.4044 6.92591 10.2999 6.81827 10.169 6.81323C10.2242 6.76832 10.2594 6.69987 10.2594 6.62319C10.2594 6.52041 10.1961 6.43242 10.1064 6.39608C10.1117 6.37605 10.1145 6.35502 10.1145 6.33333C10.1145 6.23056 10.0512 6.14257 9.96148 6.10622C9.96677 6.0862 9.96959 6.06517 9.96959 6.04348C9.96959 6.02633 9.96783 6.00959 9.96447 5.99343C9.98063 5.99679 9.99737 5.99855 10.0145 5.99855C10.1485 5.99855 10.2574 5.89097 10.2594 5.75749C10.274 5.76019 10.289 5.7616 10.3044 5.7616C10.4252 5.7616 10.5256 5.67407 10.5457 5.55895C10.5614 5.56211 10.5776 5.56377 10.5942 5.56377C10.7028 5.56377 10.7948 5.49317 10.827 5.39538C10.8599 5.41189 10.8971 5.42117 10.9365 5.42117C10.9902 5.42117 11.0399 5.40387 11.0803 5.37453C11.0879 5.40728 11.1021 5.43752 11.1214 5.46377C11.0916 5.50435 11.0739 5.55446 11.0739 5.60869C11.0739 5.74075 11.1784 5.8484 11.3093 5.85344C11.2541 5.89835 11.2189 5.9668 11.2189 6.04348C11.2189 6.14625 11.2822 6.23424 11.3719 6.27058C11.3666 6.29061 11.3638 6.31164 11.3638 6.33333C11.3638 6.43611 11.4271 6.52409 11.5168 6.56044C11.5115 6.58047 11.5087 6.6015 11.5087 6.62319C11.5087 6.75846 11.6184 6.86811 11.7536 6.86811C11.8889 6.86811 11.9986 6.75846 11.9986 6.62319C11.9986 6.52041 11.9353 6.43242 11.8455 6.39608C11.8508 6.37605 11.8536 6.35502 11.8536 6.33333C11.8536 6.23056 11.7903 6.14257 11.7006 6.10622C11.7059 6.0862 11.7087 6.06517 11.7087 6.04348C11.7087 5.91142 11.6042 5.80377 11.4734 5.79873C11.5286 5.75382 11.5638 5.68537 11.5638 5.60869C11.5638 5.55446 11.5462 5.50435 11.5163 5.46377C11.5462 5.42318 11.5638 5.37307 11.5638 5.31884C11.5638 5.26461 11.5462 5.21449 11.5163 5.17391C11.5392 5.14281 11.5549 5.10611 11.561 5.06624C11.6058 5.12329 11.6755 5.15993 11.7536 5.15993C11.8889 5.15993 11.9986 5.05028 11.9986 4.91501C11.9986 4.90747 11.9982 4.9 11.9976 4.89264C12.0425 4.94839 12.1113 4.98406 12.1884 4.98406C12.2747 4.98406 12.3506 4.93943 12.3942 4.87199C12.4365 4.90687 12.4908 4.92782 12.5499 4.92782C12.6458 4.92782 12.7289 4.87267 12.7691 4.79235ZM11.3189 5.27391C11.3999 5.27391 11.4718 5.23455 11.5163 5.17391C11.4718 5.11327 11.3999 5.07391 11.3189 5.07391C11.3437 5.07391 11.3638 5.0538 11.3638 5.02898C11.3638 5.00417 11.3437 4.98406 11.3189 4.98406C11.2941 4.98406 11.2739 5.00417 11.2739 5.02898C11.2739 5.0538 11.2941 5.07391 11.3189 5.07391C11.2651 5.07391 11.2154 5.09122 11.1751 5.12056C11.1614 5.06193 11.1267 5.01138 11.0794 4.97732C11.0758 4.99397 11.0739 5.01126 11.0739 5.02898C11.0739 5.08321 11.0916 5.13333 11.1214 5.17391C11.0916 5.21449 11.0739 5.26461 11.0739 5.31884C11.0739 5.338 11.0761 5.35664 11.0803 5.37453C11.1283 5.33969 11.1631 5.28788 11.176 5.22791C11.2162 5.25686 11.2655 5.27391 11.3189 5.27391ZM11.3189 5.36377C11.2378 5.36377 11.166 5.40312 11.1214 5.46377C11.166 5.52441 11.2378 5.56377 11.3189 5.56377C11.2941 5.56377 11.2739 5.58388 11.2739 5.60869C11.2739 5.63351 11.2941 5.65362 11.3189 5.65362C11.3437 5.65362 11.3638 5.63351 11.3638 5.60869C11.3638 5.58388 11.3437 5.56377 11.3189 5.56377C11.3999 5.56377 11.4718 5.52441 11.5163 5.46377C11.4718 5.40312 11.3999 5.36377 11.3189 5.36377ZM11.3189 5.36377C11.3437 5.36377 11.3638 5.34365 11.3638 5.31884C11.3638 5.29403 11.3437 5.27391 11.3189 5.27391C11.2941 5.27391 11.2739 5.29403 11.2739 5.31884C11.2739 5.34365 11.2941 5.36377 11.3189 5.36377ZM11.176 5.22791C11.1551 5.21288 11.1366 5.19464 11.1214 5.17391C11.1364 5.15348 11.1545 5.13547 11.1751 5.12056C11.1792 5.13845 11.1814 5.15709 11.1814 5.17625C11.1814 5.19397 11.1795 5.21126 11.176 5.22791ZM11.8455 6.39608C11.8172 6.38459 11.7861 6.37826 11.7536 6.37826C11.6401 6.37826 11.5445 6.45557 11.5168 6.56044C11.5452 6.57193 11.5762 6.57826 11.6087 6.57826C11.7223 6.57826 11.8178 6.50095 11.8455 6.39608ZM11.7006 6.10622C11.6722 6.09473 11.6412 6.0884 11.6087 6.0884C11.4951 6.0884 11.3996 6.16571 11.3719 6.27058C11.4003 6.28208 11.4313 6.2884 11.4638 6.2884C11.5774 6.2884 11.6729 6.21109 11.7006 6.10622ZM11.4734 5.79873L11.4638 5.79855C11.4052 5.79855 11.3514 5.81912 11.3093 5.85344L11.3189 5.85362C11.3775 5.85362 11.4312 5.83305 11.4734 5.79873ZM10.169 6.81323L10.1594 6.81304C10.1009 6.81304 10.0471 6.83361 10.0049 6.86793L10.0145 6.86811C10.0731 6.86811 10.1269 6.84754 10.169 6.81323ZM10.1064 6.39608C10.0787 6.50095 9.98317 6.57826 9.86959 6.57826C9.8371 6.57826 9.80608 6.57193 9.7777 6.56044C9.80542 6.45557 9.90094 6.37826 10.0145 6.37826C10.047 6.37826 10.078 6.38459 10.1064 6.39608ZM9.96148 6.10622C9.93377 6.21109 9.83824 6.2884 9.72466 6.2884C9.69217 6.2884 9.66115 6.28208 9.63278 6.27058C9.66049 6.16571 9.75601 6.0884 9.86959 6.0884C9.90209 6.0884 9.93311 6.09473 9.96148 6.10622ZM9.77471 5.80367C9.79446 5.89878 9.86936 5.97369 9.96447 5.99343C9.94473 5.89832 9.86982 5.82341 9.77471 5.80367ZM10.2594 5.75749C10.1456 5.73637 10.0594 5.63659 10.0594 5.51668L10.0595 5.51281C10.1733 5.53392 10.2594 5.63371 10.2594 5.75362L10.2594 5.75749ZM10.5457 5.55895C10.4337 5.53642 10.3493 5.43748 10.3493 5.31884C10.3493 5.30442 10.3505 5.2903 10.3529 5.27656C10.4649 5.29909 10.5493 5.39803 10.5493 5.51668C10.5493 5.53109 10.5481 5.54522 10.5457 5.55895ZM10.827 5.39538C10.7467 5.35518 10.6916 5.27215 10.6916 5.17625C10.6916 5.14952 10.6958 5.12379 10.7038 5.0997C10.784 5.13991 10.8392 5.22294 10.8392 5.31884C10.8392 5.34557 10.8349 5.3713 10.827 5.39538ZM11.561 5.06624C11.5282 5.0246 11.5087 4.97208 11.5087 4.91501C11.5087 4.90234 11.5097 4.8899 11.5115 4.87775C11.5443 4.91939 11.5638 4.97191 11.5638 5.02898C11.5638 5.04165 11.5628 5.05409 11.561 5.06624ZM11.9445 4.7615C11.949 4.81091 11.9681 4.85609 11.9976 4.89264C11.9931 4.84322 11.9739 4.79805 11.9445 4.7615ZM12.3942 4.87199C12.3397 4.82707 12.305 4.75904 12.305 4.68289C12.305 4.63392 12.3193 4.5883 12.3441 4.55003C12.3986 4.59495 12.4334 4.66298 12.4334 4.73913C12.4334 4.7881 12.419 4.83372 12.3942 4.87199ZM12.7691 4.79235C12.7079 4.74782 12.6681 4.67565 12.6681 4.5942C12.6681 4.55486 12.6774 4.51769 12.6939 4.48475C12.7551 4.52928 12.7948 4.60144 12.7948 4.68289C12.7948 4.72223 12.7855 4.75941 12.7691 4.79235ZM10.3044 5.5616C10.3292 5.5616 10.3493 5.54149 10.3493 5.51668C10.3493 5.49186 10.3292 5.47175 10.3044 5.47175C10.2796 5.47175 10.2594 5.49186 10.2594 5.51668C10.2594 5.54149 10.2796 5.5616 10.3044 5.5616ZM10.0145 5.79855C10.0393 5.79855 10.0594 5.77843 10.0594 5.75362C10.0594 5.72881 10.0393 5.70869 10.0145 5.70869C9.98971 5.70869 9.96959 5.72881 9.96959 5.75362C9.96959 5.77843 9.98971 5.79855 10.0145 5.79855ZM9.72466 6.0884C9.74948 6.0884 9.76959 6.06829 9.76959 6.04348C9.76959 6.01866 9.74948 5.99855 9.72466 5.99855C9.69985 5.99855 9.67974 6.01866 9.67974 6.04348C9.67974 6.06829 9.69985 6.0884 9.72466 6.0884ZM9.86959 6.37826C9.8944 6.37826 9.91452 6.35814 9.91452 6.33333C9.91452 6.30852 9.8944 6.2884 9.86959 6.2884C9.84478 6.2884 9.82466 6.30852 9.82466 6.33333C9.82466 6.35814 9.84478 6.37826 9.86959 6.37826ZM10.0145 6.66811C10.0393 6.66811 10.0594 6.648 10.0594 6.62319C10.0594 6.59837 10.0393 6.57826 10.0145 6.57826C9.98971 6.57826 9.96959 6.59837 9.96959 6.62319C9.96959 6.648 9.98971 6.66811 10.0145 6.66811ZM10.2044 7.05797C10.2044 7.08278 10.1843 7.1029 10.1594 7.1029C10.1346 7.1029 10.1145 7.08278 10.1145 7.05797C10.1145 7.03316 10.1346 7.01304 10.1594 7.01304C10.1843 7.01304 10.2044 7.03316 10.2044 7.05797ZM10.5942 5.36377C10.619 5.36377 10.6392 5.34365 10.6392 5.31884C10.6392 5.29403 10.619 5.27391 10.5942 5.27391C10.5694 5.27391 10.5493 5.29403 10.5493 5.31884C10.5493 5.34365 10.5694 5.36377 10.5942 5.36377ZM10.9365 5.22117C10.9613 5.22117 10.9814 5.20106 10.9814 5.17625C10.9814 5.15143 10.9613 5.13132 10.9365 5.13132C10.9117 5.13132 10.8916 5.15143 10.8916 5.17625C10.8916 5.20106 10.9117 5.22117 10.9365 5.22117ZM11.7536 4.95993C11.7785 4.95993 11.7986 4.93982 11.7986 4.91501C11.7986 4.89019 11.7785 4.87008 11.7536 4.87008C11.7288 4.87008 11.7087 4.89019 11.7087 4.91501C11.7087 4.93982 11.7288 4.95993 11.7536 4.95993ZM12.1884 4.78406C12.2132 4.78406 12.2334 4.76394 12.2334 4.73913C12.2334 4.71432 12.2132 4.6942 12.1884 4.6942C12.1636 4.6942 12.1435 4.71432 12.1435 4.73913C12.1435 4.76394 12.1636 4.78406 12.1884 4.78406ZM12.5499 4.72782C12.5747 4.72782 12.5948 4.7077 12.5948 4.68289C12.5948 4.65808 12.5747 4.63796 12.5499 4.63796C12.5251 4.63796 12.505 4.65808 12.505 4.68289C12.505 4.7077 12.5251 4.72782 12.5499 4.72782ZM12.9131 4.63913C12.9379 4.63913 12.958 4.61901 12.958 4.5942C12.958 4.56939 12.9379 4.54927 12.9131 4.54927C12.8883 4.54927 12.8681 4.56939 12.8681 4.5942C12.8681 4.61901 12.8883 4.63913 12.9131 4.63913ZM11.4638 6.0884C11.4886 6.0884 11.5087 6.06829 11.5087 6.04348C11.5087 6.01866 11.4886 5.99855 11.4638 5.99855C11.439 5.99855 11.4189 6.01866 11.4189 6.04348C11.4189 6.06829 11.439 6.0884 11.4638 6.0884ZM11.6087 6.37826C11.6335 6.37826 11.6536 6.35814 11.6536 6.33333C11.6536 6.30852 11.6335 6.2884 11.6087 6.2884C11.5839 6.2884 11.5638 6.30852 11.5638 6.33333C11.5638 6.35814 11.5839 6.37826 11.6087 6.37826ZM11.7536 6.66811C11.7785 6.66811 11.7986 6.648 11.7986 6.62319C11.7986 6.59837 11.7785 6.57826 11.7536 6.57826C11.7288 6.57826 11.7087 6.59837 11.7087 6.62319C11.7087 6.648 11.7288 6.66811 11.7536 6.66811ZM18.1305 7.1029C18.1553 7.1029 18.1754 7.08278 18.1754 7.05797C18.1754 7.03316 18.1553 7.01304 18.1305 7.01304C18.1056 7.01304 18.0855 7.03316 18.0855 7.05797C18.0855 7.08278 18.1056 7.1029 18.1305 7.1029ZM17.8855 7.05797C17.8855 7.19324 17.9952 7.3029 18.1305 7.3029C18.2657 7.3029 18.3754 7.19324 18.3754 7.05797C18.3754 6.98129 18.3402 6.91284 18.285 6.86793C18.4158 6.86289 18.5203 6.75524 18.5203 6.62319C18.5203 6.6015 18.5175 6.58046 18.5122 6.56044C18.6019 6.52409 18.6652 6.43611 18.6652 6.33333C18.6652 6.31164 18.6624 6.29061 18.6571 6.27058C18.7469 6.23424 18.8102 6.14625 18.8102 6.04348C18.8102 5.90821 18.7005 5.79855 18.5652 5.79855C18.5481 5.79855 18.5314 5.80031 18.5152 5.80367C18.5186 5.78751 18.5203 5.77077 18.5203 5.75362C18.5203 5.61835 18.4107 5.50869 18.2754 5.50869C18.26 5.50869 18.245 5.51011 18.2304 5.51281C18.2284 5.37932 18.1195 5.27175 17.9855 5.27175C17.9689 5.27175 17.9527 5.2734 17.937 5.27656C17.9169 5.16144 17.8165 5.07391 17.6957 5.07391C17.6563 5.07391 17.6191 5.0832 17.5862 5.09971C17.554 5.00192 17.462 4.93132 17.3534 4.93132C17.3001 4.93132 17.2507 4.94837 17.2105 4.97732C17.1868 4.86686 17.0886 4.78406 16.971 4.78406C16.8928 4.78406 16.8232 4.8207 16.7784 4.87775C16.7604 4.76016 16.6589 4.67008 16.5363 4.67008C16.4591 4.67008 16.3903 4.70575 16.3454 4.7615C16.3461 4.75413 16.3464 4.74667 16.3464 4.73913C16.3464 4.60386 16.2367 4.4942 16.1015 4.4942C16.0424 4.4942 15.9881 4.51515 15.9458 4.55003C15.9022 4.48259 15.8263 4.43796 15.74 4.43796C15.6862 4.43796 15.6364 4.45532 15.596 4.48475C15.5558 4.40442 15.4728 4.34927 15.3768 4.34927C15.2416 4.34927 15.1319 4.45893 15.1319 4.5942C15.1319 4.72947 15.2416 4.83913 15.3768 4.83913C15.4307 4.83913 15.4804 4.82177 15.5208 4.79234C15.561 4.87267 15.6441 4.92782 15.74 4.92782C15.7991 4.92782 15.8534 4.90687 15.8957 4.87199C15.9393 4.93943 16.0152 4.98406 16.1015 4.98406C16.1786 4.98406 16.2474 4.94839 16.2923 4.89264C16.2917 4.9 16.2913 4.90747 16.2913 4.91501C16.2913 5.05028 16.401 5.15993 16.5363 5.15993C16.6145 5.15993 16.6841 5.12329 16.7289 5.06624C16.735 5.10611 16.7507 5.14281 16.7736 5.17391C16.7437 5.21449 16.7261 5.26461 16.7261 5.31884C16.7261 5.37307 16.7437 5.42318 16.7736 5.46377C16.7437 5.50435 16.7261 5.55446 16.7261 5.60869C16.7261 5.68537 16.7614 5.75382 16.8165 5.79873C16.6857 5.80377 16.5812 5.91142 16.5812 6.04348C16.5812 6.06517 16.584 6.0862 16.5893 6.10622C16.4996 6.14257 16.4363 6.23056 16.4363 6.33333C16.4363 6.35502 16.4391 6.37605 16.4444 6.39608C16.3546 6.43242 16.2913 6.52041 16.2913 6.62319C16.2913 6.75846 16.401 6.86811 16.5363 6.86811C16.6715 6.86811 16.7812 6.75846 16.7812 6.62319C16.7812 6.6015 16.7784 6.58047 16.7731 6.56044C16.8628 6.52409 16.9261 6.43611 16.9261 6.33333C16.9261 6.31164 16.9233 6.29061 16.918 6.27058C17.0077 6.23424 17.071 6.14625 17.071 6.04348C17.071 5.9668 17.0358 5.89835 16.9806 5.85344C17.1115 5.8484 17.216 5.74075 17.216 5.60869C17.216 5.55446 17.1983 5.50435 17.1685 5.46377C17.1878 5.43752 17.202 5.40728 17.2096 5.37453C17.25 5.40387 17.2997 5.42117 17.3534 5.42117C17.3928 5.42117 17.43 5.41189 17.4629 5.39538C17.4951 5.49317 17.5871 5.56377 17.6957 5.56377C17.7123 5.56377 17.7285 5.56211 17.7442 5.55895C17.7643 5.67407 17.8647 5.7616 17.9855 5.7616C18.0009 5.7616 18.0159 5.76019 18.0305 5.75748C18.0326 5.89097 18.1414 5.99855 18.2754 5.99855C18.2925 5.99855 18.3093 5.99678 18.3254 5.99343C18.3221 6.00959 18.3203 6.02632 18.3203 6.04348C18.3203 6.06517 18.3231 6.08619 18.3284 6.10622C18.2387 6.14257 18.1754 6.23056 18.1754 6.33333C18.1754 6.35502 18.1782 6.37605 18.1835 6.39608C18.0938 6.43242 18.0305 6.52041 18.0305 6.62319C18.0305 6.69987 18.0657 6.76832 18.1209 6.81323C17.99 6.81826 17.8855 6.92591 17.8855 7.05797ZM17.114 5.22791C17.1268 5.28788 17.1617 5.33969 17.2096 5.37453C17.2138 5.35664 17.216 5.338 17.216 5.31884C17.216 5.26461 17.1983 5.21449 17.1685 5.17391C17.1983 5.13333 17.216 5.08321 17.216 5.02898C17.216 5.01126 17.2141 4.99397 17.2105 4.97732C17.1632 5.01138 17.1285 5.06193 17.1149 5.12056C17.0745 5.09122 17.0248 5.07391 16.971 5.07391C16.9959 5.07391 17.016 5.0538 17.016 5.02898C17.016 5.00417 16.9959 4.98406 16.971 4.98406C16.9462 4.98406 16.9261 5.00417 16.9261 5.02898C16.9261 5.0538 16.9462 5.07391 16.971 5.07391C16.89 5.07391 16.8182 5.11327 16.7736 5.17391C16.8182 5.23455 16.89 5.27391 16.971 5.27391C16.9462 5.27391 16.9261 5.29403 16.9261 5.31884C16.9261 5.34365 16.9462 5.36377 16.971 5.36377C16.89 5.36377 16.8182 5.40312 16.7736 5.46377C16.8182 5.52441 16.89 5.56377 16.971 5.56377C16.9462 5.56377 16.9261 5.58388 16.9261 5.60869C16.9261 5.63351 16.9462 5.65362 16.971 5.65362C16.9959 5.65362 17.016 5.63351 17.016 5.60869C17.016 5.58388 16.9959 5.56377 16.971 5.56377C17.0521 5.56377 17.1239 5.52441 17.1685 5.46377C17.1239 5.40312 17.0521 5.36377 16.971 5.36377C16.9959 5.36377 17.016 5.34365 17.016 5.31884C17.016 5.29403 16.9959 5.27391 16.971 5.27391C17.0244 5.27391 17.0737 5.25686 17.114 5.22791ZM17.114 5.22791C17.1348 5.21288 17.1533 5.19464 17.1685 5.17391C17.1535 5.15348 17.1354 5.13547 17.1149 5.12056C17.1107 5.13845 17.1085 5.15709 17.1085 5.17625C17.1085 5.19397 17.1104 5.21126 17.114 5.22791ZM16.7731 6.56044C16.7454 6.45557 16.6498 6.37826 16.5363 6.37826C16.5038 6.37826 16.4727 6.38459 16.4444 6.39608C16.4721 6.50095 16.5676 6.57826 16.6812 6.57826C16.7137 6.57826 16.7447 6.57193 16.7731 6.56044ZM16.918 6.27058C16.8903 6.16571 16.7948 6.0884 16.6812 6.0884C16.6487 6.0884 16.6177 6.09473 16.5893 6.10622C16.617 6.21109 16.7125 6.2884 16.8261 6.2884C16.8586 6.2884 16.8896 6.28208 16.918 6.27058ZM16.9806 5.85344C16.9385 5.81912 16.8847 5.79855 16.8261 5.79855L16.8165 5.79873C16.8587 5.83305 16.9125 5.85362 16.971 5.85362L16.9806 5.85344ZM15.5208 4.79234C15.582 4.74781 15.6218 4.67565 15.6218 4.5942C15.6218 4.55486 15.6125 4.51769 15.596 4.48475C15.5348 4.52928 15.4951 4.60144 15.4951 4.68289C15.4951 4.72223 15.5044 4.7594 15.5208 4.79234ZM15.8957 4.87199C15.9502 4.82707 15.9849 4.75904 15.9849 4.68289C15.9849 4.63392 15.9706 4.5883 15.9458 4.55003C15.8913 4.59495 15.8565 4.66298 15.8565 4.73913C15.8565 4.7881 15.8709 4.83372 15.8957 4.87199ZM16.3454 4.7615C16.3409 4.81091 16.3218 4.85609 16.2923 4.89264C16.2968 4.84322 16.316 4.79805 16.3454 4.7615ZM16.7289 5.06624C16.7617 5.0246 16.7812 4.97208 16.7812 4.91501C16.7812 4.90234 16.7802 4.8899 16.7784 4.87775C16.7456 4.91939 16.7261 4.97191 16.7261 5.02898C16.7261 5.04165 16.7271 5.05409 16.7289 5.06624ZM17.4629 5.39538C17.5432 5.35518 17.5984 5.27215 17.5984 5.17625C17.5984 5.14952 17.5941 5.12379 17.5862 5.09971C17.5059 5.13991 17.4508 5.22294 17.4508 5.31884C17.4508 5.34557 17.455 5.3713 17.4629 5.39538ZM17.7442 5.55895C17.8562 5.53642 17.9406 5.43748 17.9406 5.31884C17.9406 5.30442 17.9394 5.2903 17.937 5.27656C17.825 5.29909 17.7406 5.39803 17.7406 5.51668C17.7406 5.53109 17.7419 5.54522 17.7442 5.55895ZM18.3254 5.99343C18.4205 5.97368 18.4954 5.89878 18.5152 5.80367C18.4201 5.82341 18.3452 5.89832 18.3254 5.99343ZM18.2304 5.51281L18.2305 5.51668C18.2305 5.63659 18.1443 5.73637 18.0305 5.75748L18.0305 5.75362C18.0305 5.63371 18.1166 5.53392 18.2304 5.51281ZM18.3284 6.10622C18.3568 6.09473 18.3878 6.0884 18.4203 6.0884C18.5339 6.0884 18.6294 6.16571 18.6571 6.27058C18.6288 6.28207 18.5977 6.2884 18.5652 6.2884C18.4517 6.2884 18.3561 6.21109 18.3284 6.10622ZM18.1835 6.39608C18.2119 6.38459 18.2429 6.37826 18.2754 6.37826C18.389 6.37826 18.4845 6.45557 18.5122 6.56044C18.4838 6.57193 18.4528 6.57826 18.4203 6.57826C18.3067 6.57826 18.2112 6.50094 18.1835 6.39608ZM18.2754 6.86811C18.2168 6.86811 18.163 6.84754 18.1209 6.81323L18.1305 6.81304C18.1891 6.81304 18.2428 6.83361 18.285 6.86793L18.2754 6.86811ZM18.2754 6.66811C18.3002 6.66811 18.3203 6.648 18.3203 6.62319C18.3203 6.59837 18.3002 6.57826 18.2754 6.57826C18.2506 6.57826 18.2305 6.59837 18.2305 6.62319C18.2305 6.648 18.2506 6.66811 18.2754 6.66811ZM18.4203 6.37826C18.4451 6.37826 18.4652 6.35814 18.4652 6.33333C18.4652 6.30852 18.4451 6.2884 18.4203 6.2884C18.3955 6.2884 18.3754 6.30852 18.3754 6.33333C18.3754 6.35814 18.3955 6.37826 18.4203 6.37826ZM18.5652 6.0884C18.5901 6.0884 18.6102 6.06829 18.6102 6.04348C18.6102 6.01866 18.5901 5.99855 18.5652 5.99855C18.5404 5.99855 18.5203 6.01866 18.5203 6.04348C18.5203 6.06829 18.5404 6.0884 18.5652 6.0884ZM18.2754 5.79855C18.3002 5.79855 18.3203 5.77843 18.3203 5.75362C18.3203 5.72881 18.3002 5.70869 18.2754 5.70869C18.2506 5.70869 18.2305 5.72881 18.2305 5.75362C18.2305 5.77843 18.2506 5.79855 18.2754 5.79855ZM17.9855 5.5616C18.0103 5.5616 18.0305 5.54149 18.0305 5.51668C18.0305 5.49186 18.0103 5.47175 17.9855 5.47175C17.9607 5.47175 17.9406 5.49186 17.9406 5.51668C17.9406 5.54149 17.9607 5.5616 17.9855 5.5616ZM17.6957 5.36377C17.7205 5.36377 17.7406 5.34365 17.7406 5.31884C17.7406 5.29403 17.7205 5.27391 17.6957 5.27391C17.6709 5.27391 17.6508 5.29403 17.6508 5.31884C17.6508 5.34365 17.6709 5.36377 17.6957 5.36377ZM17.3534 5.22117C17.3782 5.22117 17.3984 5.20106 17.3984 5.17625C17.3984 5.15143 17.3782 5.13132 17.3534 5.13132C17.3286 5.13132 17.3085 5.15143 17.3085 5.17625C17.3085 5.20106 17.3286 5.22117 17.3534 5.22117ZM16.5363 4.95993C16.5611 4.95993 16.5812 4.93982 16.5812 4.91501C16.5812 4.89019 16.5611 4.87008 16.5363 4.87008C16.5114 4.87008 16.4913 4.89019 16.4913 4.91501C16.4913 4.93982 16.5114 4.95993 16.5363 4.95993ZM16.1015 4.78406C16.1263 4.78406 16.1464 4.76394 16.1464 4.73913C16.1464 4.71432 16.1263 4.6942 16.1015 4.6942C16.0767 4.6942 16.0565 4.71432 16.0565 4.73913C16.0565 4.76394 16.0767 4.78406 16.1015 4.78406ZM15.74 4.72782C15.7648 4.72782 15.7849 4.7077 15.7849 4.68289C15.7849 4.65808 15.7648 4.63796 15.74 4.63796C15.7152 4.63796 15.6951 4.65808 15.6951 4.68289C15.6951 4.7077 15.7152 4.72782 15.74 4.72782ZM15.3768 4.63913C15.4017 4.63913 15.4218 4.61901 15.4218 4.5942C15.4218 4.56939 15.4017 4.54927 15.3768 4.54927C15.352 4.54927 15.3319 4.56939 15.3319 4.5942C15.3319 4.61901 15.352 4.63913 15.3768 4.63913ZM16.8261 6.0884C16.8509 6.0884 16.871 6.06829 16.871 6.04348C16.871 6.01866 16.8509 5.99855 16.8261 5.99855C16.8013 5.99855 16.7812 6.01866 16.7812 6.04348C16.7812 6.06829 16.8013 6.0884 16.8261 6.0884ZM16.6812 6.37826C16.706 6.37826 16.7261 6.35814 16.7261 6.33333C16.7261 6.30852 16.706 6.2884 16.6812 6.2884C16.6564 6.2884 16.6363 6.30852 16.6363 6.33333C16.6363 6.35814 16.6564 6.37826 16.6812 6.37826ZM16.5363 6.66811C16.5611 6.66811 16.5812 6.648 16.5812 6.62319C16.5812 6.59837 16.5611 6.57826 16.5363 6.57826C16.5114 6.57826 16.4913 6.59837 16.4913 6.62319C16.4913 6.648 16.5114 6.66811 16.5363 6.66811Z" fill="white"/>
<path fill-rule="evenodd" clip-rule="evenodd" d="M14.1017 3.15411L13.8868 3.15762L13.8872 3.51074L13.4907 3.51052L13.4954 3.7249L13.8874 3.72512L13.8878 4.1276L14.1027 4.12408L14.1022 3.72524L14.4923 3.72546L14.4876 3.51108L14.102 3.51086L14.1017 3.15411Z" fill="#F6C540"/>
<path fill-rule="evenodd" clip-rule="evenodd" d="M8.78479 9.73413H19.1848V18.5676C19.1848 18.5676 18.8703 22.9677 13.9848 22.9677C9.09929 22.9677 8.78479 18.5676 8.78479 18.5676V9.73413Z" fill="#C51918"/>
<path fill-rule="evenodd" clip-rule="evenodd" d="M11.9237 10.0398C11.8283 10.0398 11.6815 10.1083 11.4869 10.1859C11.2923 10.2634 11.088 10.4309 11.2874 10.5986C11.4869 10.7663 11.7725 11.1344 11.7725 10.9968C11.7725 10.8592 12.1136 10.7257 12.1136 10.7924C12.1136 10.8592 12.008 10.9968 12.285 10.9968C12.562 10.9968 12.7048 11.0786 12.4092 11.0786C12.1136 11.0786 12.0815 11.2138 11.8894 11.2138C11.6973 11.2138 11.2874 11.0776 11.2874 10.9968C11.2874 10.916 11.5248 11.3942 11.7725 11.3942C12.0202 11.3942 12.1608 11.6268 12.285 11.5105C12.4092 11.3942 12.3945 11.3942 12.5951 11.3942C12.7957 11.3942 12.7225 10.9243 12.7225 10.9243C12.7225 10.9243 12.019 10.0398 11.9237 10.0398Z" fill="#E8AA00"/>
<path fill-rule="evenodd" clip-rule="evenodd" d="M15.9371 10.0398C16.0324 10.0398 16.1792 10.1083 16.3738 10.1859C16.5684 10.2634 16.7728 10.4309 16.5733 10.5986C16.3738 10.7663 16.0883 11.1344 16.0883 10.9968C16.0883 10.8592 15.7471 10.7257 15.7471 10.7924C15.7471 10.8592 15.8527 10.9968 15.5757 10.9968C15.2987 10.9968 15.156 11.0786 15.4515 11.0786C15.7471 11.0786 15.7793 11.2138 15.9714 11.2138C16.1635 11.2138 16.5733 11.0776 16.5733 10.9968C16.5733 10.916 16.3359 11.3942 16.0883 11.3942C15.8406 11.3942 15.6999 11.6268 15.5757 11.5105C15.4515 11.3942 15.4662 11.3942 15.2656 11.3942C15.065 11.3942 15.1383 10.9243 15.1383 10.9243C15.1383 10.9243 15.8417 10.0398 15.9371 10.0398Z" fill="#E8AA00"/>
<path fill-rule="evenodd" clip-rule="evenodd" d="M17.212 11.0001C17.4114 11.4651 15.8834 13.1922 15.8834 13.1922H15.7123C15.6405 13.1922 15.5067 13.0153 15.3453 12.8017C15.2346 12.6553 15.1109 12.4916 14.9852 12.3559C14.7487 12.1006 14.874 11.8861 14.9909 11.6861C15.0268 11.6247 15.0619 11.5646 15.0855 11.5052C15.1365 11.3764 15.1437 11.3251 15.152 11.2664C15.16 11.2098 15.169 11.1463 15.2191 11.0001C15.2927 10.7853 15.5495 10.5081 15.7275 10.3159C15.7962 10.2417 15.8532 10.1801 15.8834 10.1397C15.9787 10.0122 15.9064 10.0129 15.7075 10.015C15.6802 10.0153 15.6505 10.0156 15.6185 10.0156C15.3536 10.0156 14.8476 10.1397 14.6964 10.2847C14.5451 10.4297 14.3865 10.4606 14.1535 10.4606C13.9204 10.4606 14.0642 10.6176 14.2764 10.7236C14.0479 10.7673 13.9014 11.1482 13.8153 11.4864C13.7684 11.1482 13.6648 10.7673 13.4363 10.7236C13.6485 10.6176 13.7922 10.4606 13.5592 10.4606C13.3261 10.4606 13.1675 10.4297 13.0163 10.2847C12.865 10.1397 12.359 10.0156 12.0941 10.0156C12.0622 10.0156 12.0325 10.0153 12.0052 10.015C11.8062 10.0129 11.7339 10.0122 11.8292 10.1397C11.8594 10.1801 11.9164 10.2417 11.9852 10.3159C12.1632 10.5081 12.4199 10.7853 12.4936 11.0001C12.5437 11.1463 12.5526 11.2098 12.5606 11.2664C12.5689 11.3251 12.5762 11.3764 12.6272 11.5052C12.6508 11.5646 12.6859 11.6247 12.7218 11.6861C12.8386 11.8861 12.964 12.1006 12.7275 12.3559C12.6017 12.4916 12.478 12.6553 12.3674 12.8017C12.2059 13.0153 12.0722 13.1922 12.0003 13.1922H11.8292C11.8292 13.1922 10.3013 11.4651 10.5007 11.0001C10.5777 10.8204 10.702 10.6511 10.8049 10.511C10.9681 10.2886 11.0774 10.1397 10.8581 10.1397C10.5007 10.1397 9.07581 11.0432 9.07581 13.0804C9.07581 15.1177 9.20742 16.2763 9.51294 17.088C9.72143 17.642 9.53046 18.1799 9.38814 18.5809C9.3219 18.7674 9.2662 18.9243 9.2662 19.0394C9.2662 19.4016 9.8272 19.0842 9.8272 18.8574C9.8272 18.7495 9.90402 18.9102 9.98459 19.0786C10.0734 19.2644 10.1668 19.4597 10.1668 19.3151C10.1668 19.1608 10.2563 18.9979 10.335 18.8543C10.3971 18.7413 10.4525 18.6403 10.4525 18.565C10.4525 18.4898 10.5312 18.4925 10.6193 18.4957C10.7311 18.4996 10.8581 18.5041 10.8581 18.3498C10.8581 18.2458 10.8985 18.225 10.9488 18.1991C11.0317 18.1564 11.1416 18.0999 11.1416 17.6331C11.1416 17.2871 11.2109 17.4097 11.2903 17.5503C11.3634 17.6797 11.4452 17.8244 11.4895 17.6331C11.4938 17.6145 11.5397 17.5343 11.5965 17.4351C11.679 17.2908 11.7846 17.1063 11.8183 17.0132C11.7143 17.4206 11.4646 17.8452 11.306 18.0475C11.1416 18.2572 10.8581 18.7125 10.8581 18.7125C10.8581 18.7125 11.1225 18.8599 11.306 18.7125C11.4085 18.6301 11.4154 18.7076 11.423 18.7921C11.4289 18.8588 11.4353 18.9299 11.4895 18.9299C11.5236 18.9299 11.5556 18.9355 11.5842 18.9404C11.6053 18.9441 11.6245 18.9474 11.6412 18.9479C11.5799 19.104 11.525 19.3535 11.7093 19.1868C11.8409 19.0677 11.9332 19.0194 11.9943 18.9874C12.0651 18.9503 12.0941 18.9351 12.0941 18.8574C12.0941 18.7798 12.1229 18.8061 12.1679 18.8472C12.207 18.883 12.2583 18.9299 12.3138 18.9299C12.3853 18.9299 12.4002 18.8304 12.4218 18.6856C12.4363 18.5886 12.4539 18.4712 12.4936 18.3498C12.5028 18.3216 12.5115 18.2944 12.5197 18.2686C12.5995 18.0189 12.6367 17.9024 12.7275 18.2175C12.7699 18.3647 12.8447 18.469 12.91 18.5598C12.9987 18.6833 13.0695 18.7819 13.0163 18.9299C12.9954 18.9879 12.9693 19.0534 12.9413 19.1235C12.8453 19.3641 12.7275 19.6592 12.7275 19.8916C12.7275 20.0298 12.6017 20.2181 12.4835 20.395C12.345 20.6024 12.2168 20.7943 12.3138 20.8716C12.4936 21.0148 12.2761 21.4971 12.0941 21.7445C11.9122 21.9919 11.9423 22.294 12.2179 22.294C12.3688 22.294 12.4506 22.3487 12.5247 22.3983C12.586 22.4393 12.6421 22.4767 12.7275 22.4767C12.9161 22.4767 13.0163 22.3837 13.0163 22.3837C13.0163 22.3837 13.1327 22.5598 13.3261 22.5598C13.5196 22.5598 13.5592 22.3837 13.5592 22.3837L13.7024 22.5598L13.7135 21.789V22.5598L14.1535 22.3837C14.1535 22.3837 14.1931 22.5598 14.3865 22.5598C14.5799 22.5598 14.6964 22.3837 14.6964 22.3837C14.6964 22.3837 14.7966 22.4767 14.9852 22.4767C15.0706 22.4767 15.1266 22.4393 15.1879 22.3983C15.2621 22.3487 15.3439 22.294 15.4947 22.294C15.7704 22.294 15.8005 21.9919 15.6185 21.7445C15.4366 21.4971 15.2191 21.0148 15.3988 20.8716C15.4958 20.7943 15.3677 20.6024 15.2292 20.395C15.111 20.2181 14.9852 20.0298 14.9852 19.8916C14.9852 19.6592 14.8674 19.3641 14.7714 19.1235C14.7434 19.0534 14.7172 18.9879 14.6964 18.9299C14.6431 18.7819 14.714 18.6833 14.8027 18.5598C14.8679 18.469 14.9428 18.3647 14.9852 18.2175C15.0759 17.9024 15.1132 18.0189 15.193 18.2686C15.2012 18.2944 15.2099 18.3216 15.2191 18.3498C15.2588 18.4712 15.2763 18.5886 15.2908 18.6856C15.3125 18.8304 15.3274 18.9299 15.3988 18.9299C15.4543 18.9299 15.5057 18.883 15.5448 18.8472C15.5898 18.8061 15.6185 18.7798 15.6185 18.8574C15.6185 18.9351 15.6476 18.9503 15.7183 18.9874C15.7795 19.0194 15.8718 19.0677 16.0034 19.1868C16.1877 19.3535 16.1327 19.104 16.0715 18.9479C16.0881 18.9474 16.1074 18.9441 16.1285 18.9404C16.157 18.9355 16.1891 18.9299 16.2232 18.9299C16.2774 18.9299 16.2837 18.8588 16.2897 18.7921C16.2972 18.7076 16.3042 18.6301 16.4067 18.7125C16.5902 18.8599 16.8546 18.7125 16.8546 18.7125C16.8546 18.7125 16.5711 18.2572 16.4067 18.0475C16.2481 17.8452 15.9984 17.4206 15.8943 17.0132C15.9281 17.1063 16.0336 17.2908 16.1162 17.4351C16.1729 17.5343 16.2188 17.6145 16.2232 17.6331C16.2675 17.8244 16.3492 17.6797 16.4224 17.5503C16.5018 17.4097 16.5711 17.2871 16.5711 17.6331C16.5711 18.0999 16.6809 18.1564 16.7639 18.1991C16.8142 18.225 16.8546 18.2458 16.8546 18.3498C16.8546 18.5041 16.9815 18.4996 17.0934 18.4957C17.1814 18.4925 17.2601 18.4898 17.2601 18.565C17.2601 18.6403 17.3156 18.7413 17.3776 18.8543C17.4564 18.9979 17.5458 19.1608 17.5458 19.3151C17.5458 19.4597 17.6392 19.2644 17.7281 19.0786C17.8086 18.9102 17.8855 18.7495 17.8855 18.8574C17.8855 19.0842 18.4465 19.4016 18.4465 19.0394C18.4465 18.9243 18.3908 18.7674 18.3245 18.5809C18.1822 18.1799 17.9912 17.642 18.1997 17.088C18.5052 16.2763 18.6369 15.1177 18.6369 13.0804C18.6369 11.0432 17.212 10.1397 16.8546 10.1397C16.6353 10.1397 16.7445 10.2886 16.9078 10.511C17.0106 10.6511 17.1349 10.8204 17.212 11.0001ZM15.8834 16.9682C15.8869 16.9832 15.8905 16.9982 15.8943 17.0132C15.8873 16.9939 15.8834 16.9785 15.8834 16.9682ZM16.0034 18.8574C16.0034 18.8065 16.0383 18.8636 16.0715 18.9479C16.0294 18.9492 16.0034 18.9324 16.0034 18.8574ZM11.6412 18.9479C11.6833 18.9492 11.7093 18.9324 11.7093 18.8574C11.7093 18.8065 11.6743 18.8636 11.6412 18.9479ZM11.8183 17.0132C11.8253 16.9939 11.8292 16.9785 11.8292 16.9682C11.8258 16.9832 11.8222 16.9982 11.8183 17.0132Z" fill="#F7FCFF"/>
<path fill-rule="evenodd" clip-rule="evenodd" d="M11.1888 20.2019C11.1888 20.0614 11.5484 19.7354 11.5484 19.7354V19.7631C11.5988 19.8039 11.9201 20.0688 11.9201 20.1983C11.9201 20.2787 11.8785 20.3952 11.8429 20.4949C11.8162 20.5695 11.793 20.6348 11.793 20.6685C11.793 20.6911 11.8024 20.6748 11.8203 20.6439C11.8646 20.5674 11.9612 20.4007 12.096 20.5121C12.2747 20.6597 12.2736 20.8773 12.2729 21.0152C12.2729 21.0234 12.2728 21.0314 12.2728 21.039C12.2728 21.0819 12.2727 21.0816 12.267 21.0612C12.2547 21.0171 12.2162 20.8795 12.096 20.8795C11.9201 20.8795 11.793 21.039 11.793 21.039V21.311C11.793 21.311 11.8153 21.5356 11.9201 21.4233C12.025 21.311 12.0473 21.5619 11.9201 21.5619C11.8552 21.5619 11.7884 21.6308 11.7231 21.6983C11.6604 21.763 11.599 21.8263 11.5417 21.8263V21.8037C11.4875 21.7995 11.4428 21.7437 11.3973 21.6868C11.3478 21.625 11.2973 21.5619 11.2324 21.5619C11.1052 21.5619 11.1275 21.311 11.2324 21.4233C11.3373 21.5356 11.3596 21.311 11.3596 21.311V21.039C11.3596 21.039 11.2324 20.8795 11.0565 20.8795C10.9363 20.8795 10.8978 21.0171 10.8855 21.0612C10.8798 21.0816 10.8797 21.0819 10.8797 21.039C10.8797 21.0314 10.8796 21.0234 10.8796 21.0152C10.8789 20.8773 10.8778 20.6597 11.0565 20.5121C11.1913 20.4007 11.2879 20.5674 11.3322 20.6439C11.3502 20.6748 11.3596 20.6911 11.3596 20.6685C11.3596 20.6348 11.3283 20.5702 11.2925 20.4963C11.2447 20.3976 11.1888 20.2823 11.1888 20.2019Z" fill="#E8AA00"/>
<path fill-rule="evenodd" clip-rule="evenodd" d="M15.9714 20.2019C15.9714 20.0614 16.331 19.7354 16.331 19.7354V19.7631C16.3814 19.8039 16.7027 20.0688 16.7027 20.1983C16.7027 20.2787 16.6611 20.3952 16.6255 20.4949C16.5988 20.5695 16.5755 20.6348 16.5755 20.6685C16.5755 20.6911 16.585 20.6748 16.6029 20.6439C16.6472 20.5674 16.7438 20.4007 16.8786 20.5121C17.0573 20.6597 17.0562 20.8773 17.0555 21.0152C17.0555 21.0234 17.0554 21.0314 17.0554 21.039C17.0554 21.0819 17.0553 21.0816 17.0496 21.0612C17.0373 21.0171 16.9988 20.8795 16.8786 20.8795C16.7027 20.8795 16.5755 21.039 16.5755 21.039V21.311C16.5755 21.311 16.5979 21.5356 16.7027 21.4233C16.8076 21.311 16.8299 21.5619 16.7027 21.5619C16.6378 21.5619 16.571 21.6308 16.5056 21.6983C16.443 21.763 16.3816 21.8263 16.3243 21.8263V21.8037C16.2701 21.7995 16.2254 21.7437 16.1799 21.6868C16.1304 21.625 16.0799 21.5619 16.015 21.5619C15.8878 21.5619 15.9101 21.311 16.015 21.4233C16.1198 21.5356 16.1422 21.311 16.1422 21.311V21.039C16.1422 21.039 16.015 20.8795 15.8391 20.8795C15.7189 20.8795 15.6804 21.0171 15.6681 21.0612C15.6624 21.0816 15.6623 21.0819 15.6623 21.039C15.6623 21.0314 15.6622 21.0234 15.6622 21.0152C15.6615 20.8773 15.6604 20.6597 15.8391 20.5121C15.9739 20.4007 16.0705 20.5674 16.1148 20.6439C16.1327 20.6748 16.1422 20.6911 16.1422 20.6685C16.1422 20.6348 16.1109 20.5702 16.0751 20.4963C16.0273 20.3976 15.9714 20.2823 15.9714 20.2019Z" fill="#E8AA00"/>
<path fill-rule="evenodd" clip-rule="evenodd" d="M10.8307 19.3593C11.1512 19.3593 11.216 18.7497 11.216 18.7497C11.216 18.7497 11.4849 18.471 11.4849 18.6766C11.4849 18.7862 11.4084 18.9242 11.3503 19.0293C11.2994 19.1212 11.2625 19.1878 11.3032 19.1878H11.747C12.1129 19.1878 11.6827 19.3593 11.4849 19.4357C11.3951 19.4704 11.3315 19.4885 11.2704 19.5059C11.1969 19.5268 11.1271 19.5467 11.02 19.5931C10.8239 19.6781 10.7398 20.2373 10.8307 20.4169C10.9217 20.5965 10.7398 20.5207 10.6647 20.4169C10.6229 20.3592 10.5925 20.4386 10.55 20.5493C10.516 20.6379 10.4743 20.7465 10.4129 20.8211C10.2945 20.9651 10.2957 20.8378 10.2985 20.5638C10.2989 20.5187 10.2994 20.4695 10.2994 20.4169C10.2994 20.1741 10.3479 20.1719 10.42 20.1687C10.4582 20.167 10.5031 20.165 10.5509 20.1266C10.6542 20.0437 10.6666 20.001 10.6978 19.8936C10.7083 19.8575 10.7209 19.8141 10.7398 19.7594C10.815 19.5419 10.4129 19.8857 10.2994 20.0485C10.2303 20.1477 10.1822 20.1585 10.1102 20.1747C10.0639 20.1851 10.0078 20.1977 9.92998 20.2373C9.80349 20.3018 9.83781 20.1751 9.87961 20.0209C9.90357 19.9325 9.92998 19.8351 9.92998 19.7594C9.92998 19.6288 10.0085 19.6623 10.1092 19.7053C10.1688 19.7307 10.2361 19.7594 10.2994 19.7594C10.4613 19.7594 10.5449 19.691 10.6481 19.6066C10.6536 19.6022 10.6591 19.5977 10.6647 19.5931C10.7475 19.5257 10.5671 19.546 10.3523 19.5703C10.2788 19.5785 10.2013 19.5873 10.129 19.5931C9.96378 19.6064 9.95275 19.5965 9.91151 19.5594C9.88186 19.5327 9.83658 19.492 9.70712 19.4357C9.39764 19.3012 9.90606 19.3593 10.129 19.4357C10.2529 19.4782 10.3569 19.4498 10.4799 19.4162C10.5781 19.3894 10.6885 19.3593 10.8307 19.3593ZM17.0456 19.3593C16.7252 19.3593 16.6604 18.7497 16.6604 18.7497C16.6604 18.7497 16.3915 18.471 16.3915 18.6766C16.3915 18.7862 16.4679 18.9242 16.5261 19.0293C16.577 19.1212 16.6139 19.1878 16.5732 19.1878H16.1294C15.7635 19.1878 16.1936 19.3593 16.3915 19.4357C16.4813 19.4704 16.5449 19.4885 16.606 19.5059C16.6795 19.5268 16.7493 19.5467 16.8564 19.5931C17.0524 19.6781 17.1366 20.2373 17.0456 20.4169C16.9547 20.5965 17.1366 20.5207 17.2117 20.4169C17.2534 20.3592 17.2839 20.4386 17.3264 20.5493C17.3604 20.6379 17.4021 20.7465 17.4634 20.8211C17.5819 20.9651 17.5806 20.8378 17.5779 20.5638C17.5774 20.5187 17.577 20.4695 17.577 20.4169C17.577 20.1741 17.5285 20.1719 17.4564 20.1687C17.4182 20.167 17.3733 20.165 17.3255 20.1266C17.2222 20.0437 17.2098 20.001 17.1785 19.8936C17.1681 19.8575 17.1554 19.8141 17.1365 19.7594C17.0614 19.5419 17.4634 19.8857 17.577 20.0485C17.6461 20.1477 17.6942 20.1585 17.7662 20.1747C17.8125 20.1851 17.8686 20.1977 17.9464 20.2373C18.0729 20.3018 18.0386 20.1751 17.9968 20.0209C17.9728 19.9325 17.9464 19.8351 17.9464 19.7594C17.9464 19.6288 17.8678 19.6623 17.7672 19.7053C17.7076 19.7307 17.6403 19.7594 17.577 19.7594C17.4151 19.7594 17.3315 19.691 17.2282 19.6066C17.2228 19.6022 17.2173 19.5977 17.2117 19.5931C17.1289 19.5257 17.3093 19.546 17.5241 19.5703C17.5975 19.5785 17.675 19.5873 17.7474 19.5931C17.9126 19.6064 17.9236 19.5965 17.9649 19.5594C17.9945 19.5327 18.0398 19.492 18.1693 19.4357C18.4787 19.3012 17.9703 19.3593 17.7474 19.4357C17.6235 19.4782 17.5195 19.4498 17.3964 19.4162C17.2982 19.3894 17.1879 19.3593 17.0456 19.3593Z" fill="#E8AA00"/>
<path fill-rule="evenodd" clip-rule="evenodd" d="M12.0471 13.3412H15.9226V16.8755C15.9226 16.8755 15.5066 18.636 13.9849 18.636C12.4632 18.636 12.0471 16.8755 12.0471 16.8755V13.3412Z" fill="#C51918"/>
<path fill-rule="evenodd" clip-rule="evenodd" d="M14.5073 13.2898H13.4929V15.3188H12.0436V16.0435H13.4929V18.6522H14.5073V16.0435H15.9566V15.3188H14.5073V13.2898Z" fill="#F7FCFF"/>
<path fill-rule="evenodd" clip-rule="evenodd" d="M12.7009 14.3088C12.7982 14.3088 12.8446 14.2268 12.7931 14.1545C12.7661 14.1166 12.71 14.1056 12.6679 14.13C12.6642 14.1322 12.6606 14.1346 12.6573 14.1372C12.6418 14.1333 12.6229 14.128 12.6011 14.1213C12.5815 14.1153 12.5602 14.1156 12.5408 14.122C12.5173 14.1298 12.5039 14.1057 12.5153 13.9558C12.5261 13.914 12.5834 13.8881 12.7169 13.8881C12.9609 13.8881 13.0611 13.9142 13.0611 13.9372V14.2957L12.9427 14.4025C12.8857 14.454 12.9261 14.5421 13.0068 14.5421H13.0611V14.8166C12.9867 14.8746 12.9201 14.9017 12.8618 14.9017C12.6436 14.9017 12.521 14.8204 12.5176 14.7243C12.5185 14.6962 12.5198 14.6754 12.5207 14.6613C12.5263 14.663 12.5326 14.665 12.5395 14.6674C12.5595 14.6743 12.5815 14.6747 12.6017 14.6683L12.61 14.6656C12.6179 14.6629 12.6224 14.6614 12.6249 14.663C12.6284 14.6653 12.6281 14.6735 12.6273 14.6933L12.6273 14.6933L12.6273 14.6933C12.627 14.7006 12.6266 14.7094 12.6264 14.7201C12.6253 14.7652 12.6649 14.8026 12.7149 14.8036C12.7649 14.8046 12.8064 14.7688 12.8075 14.7237C12.8113 14.5653 12.7225 14.4743 12.5751 14.5053C12.4881 14.4792 12.4272 14.4822 12.3797 14.5359C12.3449 14.5753 12.3402 14.6076 12.3365 14.7244C12.3432 14.925 12.5547 15.0652 12.8618 15.0652C12.9802 15.0652 13.0975 15.0123 13.2142 14.9118C13.2321 14.8964 13.2423 14.875 13.2423 14.8527V14.4603C13.2423 14.4339 13.2284 14.4104 13.2068 14.3954L13.2157 14.3873C13.2327 14.372 13.2423 14.3512 13.2423 14.3295V13.9372C13.2423 13.7696 13.0695 13.7246 12.7169 13.7246C12.5091 13.7246 12.3732 13.786 12.3367 13.9311C12.3162 14.1789 12.3896 14.3268 12.5712 14.2845C12.6273 14.3007 12.6689 14.3088 12.7009 14.3088ZM15.2463 14.1545C15.1949 14.2268 15.2413 14.3088 15.3385 14.3088C15.3705 14.3088 15.4121 14.3007 15.4682 14.2845C15.6498 14.3268 15.7232 14.1789 15.7027 13.9311C15.6662 13.786 15.5303 13.7246 15.3225 13.7246C14.9699 13.7246 14.7971 13.7696 14.7971 13.9372V14.3295C14.7971 14.3512 14.8067 14.372 14.8237 14.3873L14.8326 14.3954C14.8111 14.4104 14.7971 14.4339 14.7971 14.4603V14.8527C14.7971 14.875 14.8073 14.8964 14.8252 14.9118C14.9419 15.0123 15.0592 15.0652 15.1776 15.0652C15.4847 15.0652 15.6962 14.925 15.7029 14.7244C15.6992 14.6076 15.6945 14.5753 15.6597 14.5359C15.6122 14.4822 15.5513 14.4792 15.4644 14.5053C15.3169 14.4743 15.2281 14.5653 15.2319 14.7237C15.233 14.7688 15.2745 14.8046 15.3245 14.8036C15.3745 14.8026 15.4142 14.7652 15.4131 14.7201C15.4128 14.7094 15.4124 14.7006 15.4121 14.6933C15.4113 14.6735 15.411 14.6653 15.4145 14.663C15.417 14.6614 15.4216 14.6629 15.4294 14.6656L15.4377 14.6683C15.4579 14.6747 15.4799 14.6743 15.4999 14.6674C15.5068 14.665 15.5131 14.663 15.5187 14.6613C15.5196 14.6754 15.5209 14.6962 15.5218 14.7243C15.5184 14.8204 15.3958 14.9017 15.1776 14.9017C15.1193 14.9017 15.0527 14.8746 14.9783 14.8166V14.5421H15.0326C15.1133 14.5421 15.1538 14.454 15.0967 14.4025L14.9783 14.2957V13.9372C14.9783 13.9142 15.0785 13.8881 15.3225 13.8881C15.456 13.8881 15.5133 13.914 15.5242 13.9558C15.5355 14.1057 15.5222 14.1298 15.4986 14.122C15.4792 14.1156 15.4579 14.1153 15.4383 14.1213C15.4165 14.128 15.3976 14.1333 15.3821 14.1372C15.3788 14.1346 15.3753 14.1322 15.3715 14.13C15.3294 14.1056 15.2734 14.1166 15.2463 14.1545ZM15.5516 14.654L15.5477 14.6538L15.5503 14.654L15.5516 14.654ZM15.3385 16.9175C15.2413 16.9175 15.1949 16.8355 15.2463 16.7632C15.2734 16.7253 15.3294 16.7143 15.3715 16.7387C15.3753 16.7409 15.3788 16.7433 15.3821 16.7458C15.3976 16.742 15.4165 16.7367 15.4383 16.73C15.4579 16.724 15.4792 16.7243 15.4986 16.7307C15.5222 16.7385 15.5355 16.7144 15.5242 16.5645C15.5133 16.5227 15.456 16.4968 15.3225 16.4968C15.0785 16.4968 14.9783 16.5229 14.9783 16.5459V16.9044L15.0967 17.0112C15.1538 17.0627 15.1133 17.1508 15.0326 17.1508H14.9783V17.4253C15.0527 17.4833 15.1193 17.5104 15.1776 17.5104C15.3958 17.5104 15.5184 17.4291 15.5218 17.333C15.5209 17.3049 15.5196 17.2841 15.5187 17.2699C15.5131 17.2717 15.5068 17.2737 15.4999 17.2761C15.4799 17.283 15.4579 17.2833 15.4377 17.277L15.4294 17.2743C15.4216 17.2716 15.417 17.2701 15.4145 17.2717C15.411 17.2739 15.4113 17.2822 15.4121 17.302C15.4124 17.3093 15.4128 17.3181 15.4131 17.3288C15.4142 17.3739 15.3745 17.4113 15.3245 17.4123C15.2745 17.4133 15.233 17.3775 15.2319 17.3324C15.2281 17.174 15.3169 17.083 15.4644 17.114C15.5513 17.0879 15.6122 17.0909 15.6597 17.1446C15.6945 17.184 15.6992 17.2163 15.7029 17.3331C15.6962 17.5337 15.4847 17.6739 15.1776 17.6739C15.0592 17.6739 14.9419 17.621 14.8252 17.5205C14.8073 17.5051 14.7971 17.4837 14.7971 17.4614V17.069C14.7971 17.0426 14.8111 17.0191 14.8326 17.0041L14.8237 16.996C14.8067 16.9807 14.7971 16.9599 14.7971 16.9382V16.5459C14.7971 16.3783 14.9699 16.3333 15.3225 16.3333C15.5303 16.3333 15.6662 16.3947 15.7027 16.5398C15.7232 16.7876 15.6498 16.9355 15.4682 16.8932C15.4121 16.9094 15.3705 16.9175 15.3385 16.9175ZM12.7009 16.9175C12.7982 16.9175 12.8446 16.8355 12.7931 16.7632C12.7661 16.7253 12.71 16.7143 12.6679 16.7387C12.6642 16.7409 12.6606 16.7433 12.6573 16.7458C12.6418 16.742 12.6229 16.7367 12.6011 16.73C12.5815 16.724 12.5602 16.7243 12.5408 16.7307C12.5173 16.7385 12.5039 16.7144 12.5153 16.5645C12.5261 16.5227 12.5834 16.4968 12.7169 16.4968C12.9609 16.4968 13.0611 16.5229 13.0611 16.5459V16.9044L12.9427 17.0112C12.8857 17.0627 12.9261 17.1508 13.0068 17.1508H13.0611V17.4253C12.9867 17.4833 12.9201 17.5104 12.8618 17.5104C12.6436 17.5104 12.521 17.4291 12.5176 17.333C12.5185 17.3049 12.5198 17.2841 12.5207 17.2699C12.5263 17.2717 12.5326 17.2737 12.5395 17.2761C12.5595 17.283 12.5815 17.2833 12.6017 17.277C12.6049 17.276 12.6076 17.2751 12.61 17.2743C12.6179 17.2716 12.6224 17.2701 12.6249 17.2717C12.6284 17.2739 12.6281 17.2822 12.6273 17.302C12.627 17.3093 12.6266 17.3181 12.6264 17.3288C12.6253 17.3739 12.6649 17.4113 12.7149 17.4123C12.7649 17.4133 12.8064 17.3775 12.8075 17.3324C12.8113 17.174 12.7225 17.083 12.5751 17.114C12.4881 17.0879 12.4272 17.0909 12.3797 17.1446C12.3449 17.184 12.3402 17.2163 12.3365 17.3331C12.3432 17.5337 12.5547 17.6739 12.8618 17.6739C12.9802 17.6739 13.0975 17.621 13.2142 17.5205C13.2321 17.5051 13.2423 17.4837 13.2423 17.4614V17.069C13.2423 17.0426 13.2284 17.0191 13.2068 17.0041L13.2157 16.996C13.2327 16.9807 13.2423 16.9599 13.2423 16.9382V16.5459C13.2423 16.3783 13.0695 16.3333 12.7169 16.3333C12.5091 16.3333 12.3732 16.3947 12.3367 16.5398C12.3162 16.7876 12.3896 16.9355 12.5712 16.8932C12.6273 16.9094 12.6689 16.9175 12.7009 16.9175Z" fill="#F7FCFF"/>
</g>
</g>
<rect x="3" y="1" width="32" height="24" fill="url(#paint0_linear_566_17133)" style="mix-blend-mode:overlay"/>
</g>
<rect x="3.5" y="1.5" width="31" height="23" rx="1.5" stroke="black" stroke-opacity="0.1" style="mix-blend-mode:multiply"/>
</g>
<defs>
<filter id="filter0_d_566_17133" x="0" y="0" width="38" height="30" filterUnits="userSpaceOnUse" color-interpolation-filters="sRGB">
<feFlood flood-opacity="0" result="BackgroundImageFix"/>
<feColorMatrix in="SourceAlpha" type="matrix" values="0 0 0 0 0 0 0 0 0 0 0 0 0 0 0 0 0 0 127 0" result="hardAlpha"/>
<feOffset dy="2"/>
<feGaussianBlur stdDeviation="1.5"/>
<feColorMatrix type="matrix" values="0 0 0 0 0 0 0 0 0 0 0 0 0 0 0 0 0 0 0.1 0"/>
<feBlend mode="normal" in2="BackgroundImageFix" result="effect1_dropShadow_566_17133"/>
<feBlend mode="normal" in="SourceGraphic" in2="effect1_dropShadow_566_17133" result="shape"/>
</filter>
<linearGradient id="paint0_linear_566_17133" x1="19" y1="1" x2="19" y2="25" gradientUnits="userSpaceOnUse">
<stop stop-color="white" stop-opacity="0.7"/>
<stop offset="1" stop-opacity="0.3"/>
</linearGradient>
<clipPath id="clip0_566_17133">
<rect x="3" y="1" width="32" height="24" rx="2" fill="white"/>
</clipPath>
</defs>
</svg>
