<svg width="38" height="30" viewBox="0 0 38 30" fill="none" xmlns="http://www.w3.org/2000/svg">
<g filter="url(#filter0_d_566_17133)">
<g clip-path="url(#clip0_566_17133)">
<mask id="mask0_566_17133" style="mask-type:alpha" maskUnits="userSpaceOnUse" x="3" y="1" width="32" height="24">
<rect x="3" y="1" width="32" height="24" fill="white"/>
</mask>
<g mask="url(#mask0_566_17133)">
<path fill-rule="evenodd" clip-rule="evenodd" d="M3 1V25H35V1H3Z" fill="#F7FCFF"/>
<mask id="mask1_566_17133" style="mask-type:alpha" maskUnits="userSpaceOnUse" x="3" y="1" width="32" height="24">
<path fill-rule="evenodd" clip-rule="evenodd" d="M3 1V25H35V1H3Z" fill="white"/>
</mask>
<g mask="url(#mask1_566_17133)">
<rect x="3" y="3" width="32" height="3" fill="#2E42A5"/>
<rect x="3" y="9" width="32" height="3" fill="#2E42A5"/>
<rect x="3" y="15" width="32" height="3" fill="#2E42A5"/>
<rect x="3" y="20" width="32" height="3" fill="#2E42A5"/>
<rect x="3" y="1" width="14" height="14" fill="#F7FCFF"/>
<path fill-rule="evenodd" clip-rule="evenodd" d="M7.78251 3.58223C7.70922 3.57731 7.64524 3.63221 7.6396 3.70485C7.61218 4.05799 7.92303 4.37903 8.09512 4.55677L8.11209 4.57431C8.13927 4.60245 8.16711 4.63025 8.20199 4.66431C8.20197 4.66429 8.28337 4.74331 8.30565 4.76534C8.4551 4.91314 8.4875 5.05157 8.52386 5.207L8.53287 5.24523C8.5486 5.31109 8.56477 5.39071 8.58253 5.47814L8.58254 5.47815C8.66125 5.86562 8.77112 6.40643 9.01112 6.58273C9.0699 6.6259 9.48171 6.3694 9.52584 6.31078C9.54141 6.2901 9.58744 6.25588 9.63792 6.21834L9.63793 6.21834C9.73055 6.14948 9.83816 6.06947 9.80012 6.04152C9.54881 5.85692 9.3579 5.40952 9.10986 4.76534C8.97743 4.46204 8.63065 4.26924 8.34288 4.10925C8.09708 3.97259 7.89434 3.85987 7.90499 3.72266C7.91063 3.65002 7.85579 3.58715 7.78251 3.58223ZM11.8298 3.68166C11.794 3.61752 11.7131 3.59376 11.6491 3.62859C11.338 3.79793 11.2381 4.23348 11.1827 4.47461L11.1773 4.4984C11.1685 4.53652 11.1603 4.57501 11.1508 4.62281C11.1508 4.62279 11.1288 4.73409 11.1225 4.76477C11.0799 4.97061 10.9815 5.07317 10.8709 5.18833L10.8438 5.2167C10.7971 5.26576 10.7391 5.32269 10.6755 5.38521C10.3934 5.66226 9.99967 6.04895 9.98253 6.34625C9.97833 6.41906 10.4177 6.62473 10.4909 6.62982C10.5168 6.63161 10.5705 6.65157 10.6295 6.67347C10.7377 6.71365 10.8634 6.76032 10.8661 6.7132C10.8841 6.40189 11.1553 5.99811 11.5605 5.43923C11.7427 5.16298 11.7156 4.76714 11.693 4.43866C11.6738 4.15809 11.6579 3.92666 11.7787 3.86087C11.8427 3.82603 11.8656 3.7458 11.8298 3.68166ZM14.4161 6.03056C14.4866 6.04873 14.5296 6.12127 14.512 6.19259C14.4945 6.26391 14.423 6.30699 14.3525 6.28882C14.2192 6.25451 14.073 6.4346 13.8957 6.65293C13.6882 6.90855 13.4381 7.21658 13.1164 7.29433C12.4389 7.42674 11.9652 7.53706 11.7397 7.7525C11.7056 7.78511 11.6455 7.66524 11.5938 7.56207L11.5938 7.56206L11.5938 7.56206C11.5656 7.50582 11.5399 7.45455 11.5222 7.43563C11.4721 7.38199 11.291 6.93189 11.3438 6.88151C11.5591 6.67577 12.1107 6.66148 12.506 6.65124L12.506 6.65124C12.5952 6.64893 12.6764 6.64683 12.744 6.64278L12.7832 6.64054C12.9426 6.63172 13.0845 6.62386 13.256 6.50234C13.2812 6.48452 13.3705 6.41996 13.3735 6.41785L13.3735 6.4178C13.4131 6.38936 13.4453 6.36677 13.4778 6.34489L13.498 6.33123C13.7029 6.19261 14.0731 5.94223 14.4161 6.03056ZM5.3228 6.47382C5.2675 6.52217 5.26108 6.60623 5.30846 6.66158C5.53878 6.93068 5.98559 6.93788 6.23296 6.94187C6.24133 6.94201 6.24947 6.94214 6.25736 6.94228C6.29648 6.94296 6.33583 6.94293 6.38457 6.94235C6.38454 6.94235 6.49798 6.94066 6.5293 6.94049C6.7395 6.93932 6.86029 7.0143 6.99591 7.09849C7.00693 7.10533 7.01804 7.11223 7.02931 7.11915C7.087 7.15461 7.15474 7.19947 7.22912 7.24873C7.55877 7.46705 8.01887 7.77178 8.31324 7.72673C8.38533 7.7157 8.49515 7.24313 8.4849 7.17047C8.48129 7.14484 8.48964 7.08809 8.49879 7.02586C8.51559 6.91166 8.53511 6.779 8.48845 6.78614C8.18021 6.8333 7.72886 6.65194 7.09797 6.37183C6.78986 6.251 6.40832 6.35988 6.0917 6.45023C5.82127 6.52741 5.5982 6.59107 5.50871 6.48651C5.46134 6.43116 5.3781 6.42548 5.3228 6.47382Z" fill="#FFC125"/>
<path d="M7.6396 3.70485L7.56482 3.69904L7.56482 3.69904L7.6396 3.70485ZM7.78251 3.58223L7.77748 3.65706L7.78251 3.58223ZM8.09512 4.55677L8.14903 4.50462L8.149 4.5046L8.09512 4.55677ZM8.11209 4.57431L8.16604 4.52221L8.166 4.52216L8.11209 4.57431ZM8.20199 4.66431L8.14959 4.71797L8.25468 4.61094L8.20199 4.66431ZM8.30565 4.76534L8.25291 4.81867L8.25291 4.81867L8.30565 4.76534ZM8.52386 5.207L8.45084 5.22409L8.45086 5.2242L8.52386 5.207ZM8.53287 5.24523L8.45987 5.26243L8.45992 5.26265L8.53287 5.24523ZM8.58253 5.47814L8.5089 5.4931L8.51007 5.49747L8.58253 5.47814ZM8.58254 5.47815L8.65617 5.46319L8.655 5.45882L8.58254 5.47815ZM9.01112 6.58273L8.96672 6.64317L8.96672 6.64317L9.01112 6.58273ZM9.52584 6.31078L9.58576 6.35589L9.58576 6.35589L9.52584 6.31078ZM9.63792 6.21834L9.59626 6.15586L9.59317 6.15816L9.63792 6.21834ZM9.63793 6.21834L9.67958 6.28083L9.68267 6.27853L9.63793 6.21834ZM9.80012 6.04152L9.75572 6.10197L9.75572 6.10197L9.80012 6.04152ZM9.10986 4.76534L9.17992 4.73836L9.17859 4.73533L9.10986 4.76534ZM8.34288 4.10925L8.30644 4.1748L8.30644 4.1748L8.34288 4.10925ZM7.90499 3.72266L7.83022 3.71686L7.83022 3.71686L7.90499 3.72266ZM11.6491 3.62859L11.6133 3.56271L11.6133 3.56271L11.6491 3.62859ZM11.8298 3.68166L11.8953 3.64511L11.8953 3.64511L11.8298 3.68166ZM11.1827 4.47461L11.2558 4.49142L11.2558 4.49139L11.1827 4.47461ZM11.1773 4.4984L11.2504 4.51527L11.2504 4.5152L11.1773 4.4984ZM11.1508 4.62281L11.0772 4.60809L11.2242 4.63785L11.1508 4.62281ZM11.1225 4.76477L11.1959 4.77995L11.1959 4.77995L11.1225 4.76477ZM10.8709 5.18833L10.8168 5.13639L10.8167 5.13647L10.8709 5.18833ZM10.8438 5.2167L10.7896 5.16484L10.7894 5.16501L10.8438 5.2167ZM10.6755 5.38521L10.6229 5.3317L10.6229 5.3317L10.6755 5.38521ZM9.98253 6.34625L10.0574 6.35056L10.0574 6.35056L9.98253 6.34625ZM10.4909 6.62982L10.4857 6.70463L10.4857 6.70463L10.4909 6.62982ZM10.6295 6.67347L10.6556 6.60316L10.6556 6.60316L10.6295 6.67347ZM10.8661 6.7132L10.7913 6.70888L10.7913 6.70888L10.8661 6.7132ZM11.5605 5.43923L11.6213 5.4833L11.6231 5.48053L11.5605 5.43923ZM11.693 4.43866L11.7678 4.43352L11.7678 4.43352L11.693 4.43866ZM11.7787 3.86087L11.7429 3.79499L11.7429 3.79499L11.7787 3.86087ZM14.4161 6.03056L14.4348 5.95793L14.4348 5.95793L14.4161 6.03056ZM14.3525 6.28882L14.3338 6.36146L14.3338 6.36146L14.3525 6.28882ZM13.8957 6.65293L13.8375 6.60566L13.8375 6.60566L13.8957 6.65293ZM13.1164 7.29433L13.1308 7.36801L13.134 7.36723L13.1164 7.29433ZM11.7397 7.7525L11.6879 7.69827L11.6879 7.69827L11.7397 7.7525ZM11.5938 7.56207L11.5239 7.59002L11.5267 7.59568L11.5938 7.56207ZM11.5938 7.56206L11.6636 7.53411L11.6609 7.52852L11.5938 7.56206ZM11.5938 7.56206L11.6608 7.52852L11.6608 7.52844L11.5938 7.56206ZM11.5222 7.43563L11.4674 7.4868L11.4674 7.4868L11.5222 7.43563ZM11.3438 6.88151L11.3956 6.93573L11.3956 6.93573L11.3438 6.88151ZM12.506 6.65124L12.5079 6.72622L12.5089 6.72618L12.506 6.65124ZM12.506 6.65124L12.5041 6.57626L12.5031 6.57629L12.506 6.65124ZM12.744 6.64278L12.7397 6.5679L12.7395 6.56791L12.744 6.64278ZM12.7832 6.64054L12.7791 6.56566L12.7789 6.56567L12.7832 6.64054ZM13.256 6.50234L13.2127 6.44114L13.2127 6.44114L13.256 6.50234ZM13.3735 6.41785L13.3296 6.35701L13.3295 6.35706L13.3735 6.41785ZM13.3735 6.4178L13.3298 6.35688L13.3297 6.35696L13.3735 6.4178ZM13.4778 6.34489L13.5197 6.40707L13.5198 6.40703L13.4778 6.34489ZM13.498 6.33123L13.54 6.39337L13.54 6.39335L13.498 6.33123ZM5.30846 6.66158L5.36544 6.61281L5.36544 6.61281L5.30846 6.66158ZM5.3228 6.47382L5.37217 6.53029L5.37217 6.53029L5.3228 6.47382ZM6.23296 6.94187L6.23175 7.01686L6.23175 7.01686L6.23296 6.94187ZM6.25736 6.94228L6.25867 6.86729L6.25867 6.86729L6.25736 6.94228ZM6.38457 6.94235L6.38546 7.01734L6.38389 6.86735L6.38457 6.94235ZM6.5293 6.94049L6.52972 7.01549L6.52972 7.01549L6.5293 6.94049ZM6.99591 7.09849L7.03547 7.03477L7.03547 7.03477L6.99591 7.09849ZM7.02931 7.11915L6.99004 7.18305L6.99004 7.18305L7.02931 7.11915ZM7.22912 7.24873L7.18771 7.31126L7.18771 7.31126L7.22912 7.24873ZM8.31324 7.72673L8.32458 7.80087L8.32458 7.80087L8.31324 7.72673ZM8.4849 7.17047L8.55917 7.16L8.55917 7.16L8.4849 7.17047ZM8.49879 7.02586L8.573 7.03677L8.573 7.03677L8.49879 7.02586ZM8.48845 6.78614L8.47711 6.712L8.47711 6.712L8.48845 6.78614ZM7.09797 6.37183L7.12843 6.30321L7.12535 6.30201L7.09797 6.37183ZM6.0917 6.45023L6.11228 6.52235L6.11228 6.52235L6.0917 6.45023ZM5.50871 6.48651L5.56569 6.43774L5.56569 6.43774L5.50871 6.48651ZM7.71437 3.71066C7.71679 3.67957 7.74466 3.65486 7.77748 3.65706L7.78753 3.5074C7.67378 3.49977 7.57369 3.58485 7.56482 3.69904L7.71437 3.71066ZM8.149 4.5046C8.06252 4.41528 7.94667 4.29536 7.85533 4.15557C7.7637 4.01532 7.7025 3.86361 7.71437 3.71066L7.56482 3.69904C7.54928 3.89924 7.62979 4.08461 7.72976 4.23761C7.83001 4.39106 7.95563 4.52052 8.04124 4.60894L8.149 4.5046ZM8.166 4.52216L8.14903 4.50462L8.04122 4.60892L8.05819 4.62646L8.166 4.52216ZM8.25439 4.61065C8.21984 4.57691 8.19255 4.54966 8.16604 4.52221L8.05814 4.62641C8.08599 4.65525 8.11439 4.68359 8.14959 4.71797L8.25439 4.61065ZM8.35838 4.71201C8.34698 4.70073 8.32081 4.67523 8.29776 4.6528C8.28618 4.64153 8.27529 4.63096 8.26731 4.6232C8.26332 4.61932 8.26005 4.61614 8.25778 4.61394C8.25664 4.61284 8.25575 4.61198 8.25515 4.61139C8.25485 4.6111 8.25462 4.61087 8.25446 4.61072C8.25439 4.61065 8.25433 4.61059 8.25429 4.61055C8.25427 4.61053 8.25425 4.61052 8.25424 4.61051C8.25423 4.6105 8.25423 4.61049 8.25422 4.61049C8.25422 4.61048 8.25421 4.61048 8.2542 4.61047C8.25419 4.61046 8.14837 4.61188 8.1493 4.71769L8.25468 4.61094C8.25562 4.71675 8.1498 4.71817 8.14978 4.71815C8.14978 4.71815 8.14977 4.71814 8.14977 4.71814C8.14977 4.71814 8.14977 4.71814 8.14977 4.71815C8.14978 4.71815 8.14979 4.71817 8.14981 4.71819C8.14985 4.71822 8.14991 4.71828 8.14998 4.71835C8.15014 4.7185 8.15037 4.71872 8.15066 4.71901C8.15126 4.71959 8.15215 4.72045 8.15328 4.72155C8.15554 4.72375 8.1588 4.72692 8.16279 4.73079C8.17075 4.73853 8.18161 4.74908 8.19316 4.76031C8.21638 4.7829 8.24204 4.80792 8.25291 4.81867L8.35838 4.71201ZM8.59689 5.18992C8.56017 5.03296 8.52411 4.8759 8.35838 4.71201L8.25291 4.81867C8.3861 4.95038 8.41482 5.07018 8.45084 5.22409L8.59689 5.18992ZM8.60587 5.22803L8.59687 5.1898L8.45086 5.2242L8.45987 5.26243L8.60587 5.22803ZM8.65603 5.46321C8.63835 5.37618 8.62191 5.29518 8.60582 5.22781L8.45992 5.26265C8.47529 5.32701 8.49119 5.40524 8.50904 5.49307L8.65603 5.46321ZM8.655 5.45882L8.655 5.45882L8.51007 5.49747L8.51007 5.49747L8.655 5.45882ZM9.05552 6.52228C8.95637 6.44944 8.87471 6.29127 8.80763 6.0863C8.74191 5.88548 8.69556 5.65777 8.65603 5.46321L8.50904 5.49308C8.54823 5.68599 8.59617 5.92242 8.66507 6.13295C8.73261 6.33933 8.82588 6.53971 8.96672 6.64317L9.05552 6.52228ZM9.46592 6.26567C9.46659 6.26478 9.46201 6.27012 9.44647 6.28261C9.43274 6.29365 9.41437 6.3072 9.39241 6.32238C9.34858 6.35269 9.29297 6.38775 9.23682 6.41978C9.18026 6.45203 9.12534 6.47995 9.08245 6.49699C9.06068 6.50564 9.04499 6.51027 9.03526 6.51198C9.03042 6.51284 9.02967 6.51249 9.03183 6.51265C9.0335 6.51278 9.04384 6.5137 9.05552 6.52228L8.96672 6.64317C8.98574 6.65715 9.00619 6.66113 9.02038 6.66221C9.03505 6.66334 9.04922 6.66184 9.06134 6.6597C9.08556 6.65542 9.11203 6.64664 9.13782 6.6364C9.19006 6.61565 9.25187 6.58388 9.31113 6.55008C9.37079 6.51605 9.43008 6.47869 9.47771 6.44577C9.50149 6.42933 9.52299 6.41356 9.54045 6.39952C9.55612 6.38693 9.57406 6.37143 9.58576 6.35589L9.46592 6.26567ZM9.59317 6.15816C9.56826 6.17668 9.54294 6.19549 9.5219 6.21235C9.50277 6.22767 9.48015 6.24677 9.46592 6.26567L9.58576 6.35589C9.58561 6.35608 9.58755 6.35364 9.59357 6.34811C9.59914 6.343 9.60649 6.33678 9.61568 6.32942C9.63417 6.31461 9.6571 6.29754 9.68267 6.27853L9.59317 6.15816ZM9.59632 6.15594L9.59632 6.15594L9.67952 6.28075L9.67953 6.28075L9.59632 6.15594ZM9.75572 6.10197C9.74512 6.09418 9.73514 6.08011 9.73327 6.06204C9.73176 6.04748 9.73644 6.03838 9.73663 6.038C9.73664 6.03798 9.73216 6.04518 9.71631 6.06026C9.68663 6.08852 9.64081 6.12274 9.59318 6.15815L9.68267 6.27853C9.72767 6.24508 9.78197 6.20486 9.81973 6.16891C9.83761 6.15189 9.85869 6.12954 9.87108 6.10451C9.87745 6.09162 9.88502 6.07115 9.88247 6.04659C9.87957 6.01854 9.86463 5.99585 9.84452 5.98108L9.75572 6.10197ZM9.03987 4.79229C9.1638 5.11415 9.27481 5.3905 9.38698 5.60991C9.49852 5.82808 9.61557 5.99902 9.75572 6.10197L9.84452 5.98108C9.73336 5.89942 9.6293 5.75436 9.52054 5.54163C9.41242 5.33015 9.30396 5.06072 9.17985 4.73839L9.03987 4.79229ZM8.30644 4.1748C8.45114 4.25525 8.60496 4.34091 8.73916 4.4432C8.87331 4.54545 8.98208 4.66012 9.04112 4.79535L9.17859 4.73533C9.1052 4.56725 8.97436 4.43387 8.83008 4.3239C8.68585 4.21396 8.52239 4.12324 8.37933 4.0437L8.30644 4.1748ZM7.83022 3.71686C7.82167 3.82687 7.8996 3.91136 7.98166 3.97531C8.06735 4.0421 8.18537 4.10749 8.30644 4.1748L8.37933 4.0437C8.25459 3.97435 8.14835 3.91505 8.07387 3.857C7.99577 3.79613 7.97765 3.75566 7.97976 3.72847L7.83022 3.71686ZM7.77748 3.65706C7.80972 3.65923 7.83258 3.6864 7.83022 3.71686L7.97976 3.72847C7.98868 3.61365 7.90187 3.51507 7.78753 3.5074L7.77748 3.65706ZM11.685 3.69446C11.7124 3.67955 11.7483 3.68947 11.7643 3.7182L11.8953 3.64511C11.8398 3.54556 11.7139 3.50796 11.6133 3.56271L11.685 3.69446ZM11.2558 4.49139C11.2837 4.37021 11.3211 4.20773 11.3886 4.05499C11.4563 3.90176 11.5502 3.7678 11.685 3.69446L11.6133 3.56271C11.4369 3.65871 11.3253 3.8272 11.2514 3.99436C11.1773 4.16202 11.1372 4.33788 11.1096 4.45784L11.2558 4.49139ZM11.2504 4.5152L11.2558 4.49142L11.1097 4.4578L11.1042 4.48159L11.2504 4.5152ZM11.2243 4.63753C11.2338 4.59018 11.2418 4.55245 11.2504 4.51527L11.1042 4.48153C11.0952 4.52059 11.0869 4.55984 11.0772 4.60809L11.2243 4.63753ZM11.1959 4.77995C11.1992 4.76424 11.2063 4.7284 11.2126 4.69686C11.2157 4.68101 11.2187 4.66612 11.2208 4.6552C11.2219 4.64974 11.2228 4.64527 11.2234 4.64216C11.2237 4.64061 11.2239 4.6394 11.2241 4.63857C11.2242 4.63816 11.2242 4.63785 11.2243 4.63763C11.2243 4.63753 11.2243 4.63745 11.2243 4.63739C11.2243 4.63736 11.2243 4.63734 11.2243 4.63733C11.2243 4.63732 11.2243 4.63731 11.2243 4.6373C11.2244 4.6373 11.2244 4.63729 11.2244 4.63728C11.2244 4.63726 11.1655 4.54927 11.0773 4.60777L11.2242 4.63785C11.136 4.69635 11.0772 4.60836 11.0772 4.60834C11.0772 4.60834 11.0772 4.60833 11.0772 4.60833C11.0772 4.60833 11.0772 4.60833 11.0772 4.60834C11.0772 4.60835 11.0772 4.60836 11.0772 4.60839C11.0772 4.60844 11.0771 4.60852 11.0771 4.60863C11.0771 4.60883 11.077 4.60915 11.0769 4.60956C11.0768 4.61038 11.0765 4.61158 11.0762 4.61313C11.0756 4.61623 11.0747 4.62069 11.0737 4.62613C11.0715 4.63703 11.0686 4.65188 11.0654 4.66769C11.0591 4.69947 11.0521 4.73461 11.049 4.74959L11.1959 4.77995ZM10.925 5.24027C11.0367 5.12398 11.1487 5.0082 11.1959 4.77995L11.049 4.74958C11.0111 4.93302 10.9263 5.02236 10.8168 5.13639L10.925 5.24027ZM10.898 5.26856L10.9251 5.24018L10.8167 5.13647L10.7896 5.16484L10.898 5.26856ZM10.728 5.43872C10.7914 5.37649 10.8504 5.31858 10.8981 5.26839L10.7894 5.16501C10.7438 5.21295 10.6869 5.2689 10.6229 5.3317L10.728 5.43872ZM10.0574 6.35056C10.0645 6.22774 10.1527 6.0731 10.288 5.90521C10.4207 5.74072 10.5864 5.57783 10.728 5.43872L10.6229 5.3317C10.4825 5.46964 10.3103 5.63862 10.1713 5.81106C10.035 5.9801 9.91771 6.16746 9.90765 6.34193L10.0574 6.35056ZM10.4961 6.555C10.4972 6.55507 10.4903 6.55414 10.4713 6.54791C10.4546 6.54241 10.4332 6.53438 10.4085 6.52423C10.3592 6.50397 10.2996 6.47644 10.2421 6.44678C10.1843 6.41692 10.1309 6.38607 10.0933 6.35937C10.0742 6.34582 10.0617 6.33519 10.055 6.32797C10.0517 6.32437 10.0515 6.32355 10.0526 6.32545C10.0534 6.32692 10.0582 6.3361 10.0574 6.35056L9.90765 6.34193C9.90629 6.3655 9.91409 6.38481 9.92091 6.3973C9.92796 6.41022 9.93693 6.42129 9.94533 6.43029C9.9621 6.44827 9.98389 6.46569 10.0065 6.48174C10.0524 6.51425 10.1127 6.54878 10.1733 6.58007C10.2343 6.61158 10.298 6.64096 10.3515 6.66297C10.3783 6.67396 10.4032 6.6834 10.4245 6.6904C10.4436 6.69668 10.4663 6.70329 10.4857 6.70463L10.4961 6.555ZM10.6556 6.60316C10.6265 6.59236 10.5969 6.58137 10.5713 6.5729C10.5481 6.5652 10.5197 6.55663 10.4961 6.555L10.4857 6.70463C10.4855 6.70462 10.4886 6.70492 10.4965 6.70695C10.5038 6.70884 10.5131 6.71161 10.5242 6.71531C10.5467 6.72275 10.5735 6.73269 10.6034 6.74378L10.6556 6.60316ZM10.7913 6.70888C10.792 6.69576 10.7984 6.67972 10.8125 6.66831C10.8239 6.65911 10.8341 6.65808 10.8345 6.65803C10.8345 6.65803 10.8261 6.65819 10.8048 6.65312C10.7649 6.64361 10.7113 6.62382 10.6556 6.60316L10.6034 6.74378C10.656 6.7633 10.7193 6.78693 10.77 6.79903C10.794 6.80475 10.8242 6.81026 10.852 6.80701C10.8662 6.80534 10.8875 6.80053 10.9067 6.78503C10.9287 6.76731 10.9396 6.74242 10.941 6.71751L10.7913 6.70888ZM11.4998 5.39521C11.2973 5.67444 11.126 5.91806 11.0031 6.13164C10.8809 6.34401 10.8013 6.53527 10.7913 6.70888L10.941 6.71751C10.949 6.57981 11.0139 6.41353 11.1331 6.20646C11.2516 6.00061 11.4185 5.7629 11.6212 5.48326L11.4998 5.39521ZM11.6182 4.4438C11.6295 4.60897 11.6415 4.78463 11.6288 4.95289C11.6161 5.12109 11.5791 5.27476 11.4979 5.39793L11.6231 5.48053C11.7241 5.32745 11.7647 5.14507 11.7783 4.96417C11.792 4.78333 11.779 4.59683 11.7678 4.43352L11.6182 4.4438ZM11.7429 3.79499C11.646 3.84775 11.6175 3.95912 11.6086 4.06277C11.5993 4.171 11.6087 4.3056 11.6182 4.4438L11.7678 4.43352C11.7581 4.29114 11.7499 4.16974 11.758 4.07567C11.7666 3.97701 11.7906 3.93978 11.8146 3.92674L11.7429 3.79499ZM11.7643 3.7182C11.7801 3.74641 11.7697 3.78039 11.7429 3.79499L11.8146 3.92674C11.9157 3.87168 11.9511 3.74519 11.8953 3.64511L11.7643 3.7182ZM14.5848 6.21053C14.6121 6.09984 14.5457 5.98649 14.4348 5.95793L14.3974 6.10319C14.4276 6.11096 14.4471 6.1427 14.4392 6.17465L14.5848 6.21053ZM14.3338 6.36146C14.4453 6.39017 14.5574 6.3218 14.5848 6.21053L14.4392 6.17465C14.4315 6.20601 14.4007 6.22381 14.3712 6.21619L14.3338 6.36146ZM13.9539 6.70021C14.0439 6.58941 14.1207 6.49508 14.1908 6.43181C14.2643 6.36547 14.3073 6.35466 14.3338 6.36146L14.3712 6.21619C14.2643 6.18868 14.1676 6.25075 14.0903 6.32046C14.0097 6.39324 13.9248 6.49812 13.8375 6.60566L13.9539 6.70021ZM13.134 7.36723C13.3123 7.32414 13.4664 7.21845 13.5997 7.09546C13.733 6.9725 13.8508 6.82729 13.9539 6.70021L13.8375 6.60566C13.7331 6.73419 13.622 6.8708 13.498 6.9852C13.374 7.09956 13.2422 7.18676 13.0988 7.22143L13.134 7.36723ZM11.7916 7.80672C11.8913 7.71143 12.0522 7.63413 12.2806 7.56397C12.5076 7.49422 12.7918 7.43419 13.1308 7.36793L13.102 7.22072C12.7635 7.28688 12.4721 7.34822 12.2365 7.42059C12.0023 7.49254 11.8136 7.57813 11.6879 7.69827L11.7916 7.80672ZM11.5267 7.59568C11.5519 7.6458 11.582 7.70626 11.6109 7.74969C11.6245 7.77026 11.6429 7.7949 11.6654 7.81144C11.677 7.81995 11.6958 7.83096 11.7204 7.83272C11.7486 7.83473 11.7735 7.82395 11.7916 7.80672L11.6879 7.69827C11.6974 7.68919 11.713 7.68181 11.7311 7.6831C11.7457 7.68414 11.7539 7.69033 11.7542 7.69058C11.7542 7.69059 11.7479 7.68494 11.7358 7.66671C11.7132 7.63257 11.6874 7.58151 11.6608 7.52845L11.5267 7.59568ZM11.5241 7.58992L11.5241 7.58992L11.6634 7.53421L11.6634 7.53421L11.5241 7.58992ZM11.5267 7.5956L11.5267 7.5956L11.6609 7.52852L11.6608 7.52852L11.5267 7.5956ZM11.4674 7.4868C11.4672 7.48663 11.4693 7.48896 11.4737 7.49585C11.4777 7.50222 11.4826 7.51054 11.4882 7.52087C11.4996 7.54164 11.5124 7.56719 11.5267 7.59567L11.6608 7.52844C11.6469 7.50069 11.6328 7.47248 11.6198 7.44884C11.608 7.42734 11.5932 7.40175 11.577 7.38445L11.4674 7.4868ZM11.2919 6.82728C11.2749 6.84359 11.2674 6.86303 11.2639 6.87682C11.2602 6.89107 11.2592 6.90529 11.2592 6.9176C11.2592 6.94219 11.2633 6.96979 11.2689 6.99696C11.2803 7.05201 11.3008 7.11839 11.3238 7.18263C11.347 7.24729 11.3735 7.31217 11.3976 7.36479C11.4097 7.39106 11.4215 7.41498 11.4323 7.43461C11.4419 7.45222 11.4541 7.47258 11.4674 7.4868L11.577 7.38445C11.5778 7.38527 11.5733 7.37983 11.5637 7.36236C11.5552 7.34691 11.5451 7.32647 11.5339 7.30221C11.5117 7.25378 11.4868 7.19293 11.465 7.13207C11.4431 7.07077 11.4251 7.01184 11.4158 6.96664C11.4111 6.94369 11.4092 6.92744 11.4092 6.91757C11.4092 6.91264 11.4097 6.91197 11.4092 6.91406C11.4088 6.9157 11.4061 6.92572 11.3956 6.93573L11.2919 6.82728ZM12.504 6.57627C12.3073 6.58136 12.0661 6.58752 11.8468 6.61881C11.6318 6.64949 11.4183 6.70655 11.2919 6.82728L11.3956 6.93573C11.4845 6.85073 11.6545 6.79777 11.868 6.76731C12.0772 6.73746 12.3095 6.73136 12.5079 6.72621L12.504 6.57627ZM12.5031 6.57629L12.5031 6.5763L12.5089 6.72618L12.5089 6.72618L12.5031 6.57629ZM12.7395 6.56791C12.6735 6.57187 12.5937 6.57394 12.5041 6.57626L12.5079 6.72621C12.5967 6.72391 12.6793 6.72178 12.7485 6.71764L12.7395 6.56791ZM12.7789 6.56567L12.7397 6.5679L12.7482 6.71765L12.7875 6.71542L12.7789 6.56567ZM13.2127 6.44114C13.0598 6.54943 12.9369 6.55692 12.7791 6.56566L12.7873 6.71543C12.9483 6.70652 13.1092 6.69828 13.2994 6.56353L13.2127 6.44114ZM13.3295 6.35706C13.3264 6.35931 13.2375 6.42359 13.2127 6.44114L13.2994 6.56353C13.3249 6.54546 13.4147 6.4806 13.4174 6.47865L13.3295 6.35706ZM13.3297 6.35696L13.3296 6.35701L13.4173 6.47869L13.4174 6.47864L13.3297 6.35696ZM13.4358 6.28272C13.4026 6.30513 13.3698 6.32818 13.3298 6.35688L13.4173 6.47872C13.4565 6.45055 13.4881 6.42841 13.5197 6.40707L13.4358 6.28272ZM13.456 6.26909L13.4358 6.28275L13.5198 6.40703L13.54 6.39337L13.456 6.26909ZM14.4348 5.95793C14.2403 5.90785 14.0438 5.95496 13.8758 6.02683C13.7072 6.09892 13.5579 6.20015 13.456 6.2691L13.54 6.39335C13.643 6.32369 13.7812 6.23042 13.9348 6.16474C14.0888 6.09886 14.2488 6.06493 14.3974 6.10319L14.4348 5.95793ZM5.36544 6.61281C5.34516 6.58912 5.3474 6.55194 5.37217 6.53029L5.27344 6.41736C5.18761 6.49239 5.177 6.62333 5.25148 6.71035L5.36544 6.61281ZM6.23417 6.86688C6.10986 6.86488 5.94314 6.862 5.7797 6.82774C5.61574 6.79336 5.46519 6.72936 5.36544 6.61281L5.25148 6.71035C5.38204 6.8629 5.57006 6.93705 5.74892 6.97455C5.92832 7.01216 6.10869 7.01488 6.23175 7.01686L6.23417 6.86688ZM6.25867 6.86729C6.25072 6.86715 6.24253 6.86702 6.23417 6.86688L6.23175 7.01686C6.24013 7.017 6.24822 7.01713 6.25606 7.01727L6.25867 6.86729ZM6.38368 6.86735C6.33539 6.86793 6.29682 6.86795 6.25867 6.86729L6.25606 7.01727C6.29614 7.01797 6.33626 7.01793 6.38546 7.01734L6.38368 6.86735ZM6.52889 6.86549C6.51285 6.86558 6.4763 6.86605 6.44415 6.86649C6.42799 6.86671 6.41282 6.86693 6.40169 6.86709C6.39612 6.86717 6.39156 6.86724 6.3884 6.86728C6.38681 6.86731 6.38558 6.86733 6.38474 6.86734C6.38432 6.86734 6.384 6.86735 6.38378 6.86735C6.38368 6.86735 6.38359 6.86735 6.38354 6.86736C6.38351 6.86736 6.38349 6.86736 6.38347 6.86736C6.38346 6.86736 6.38346 6.86736 6.38345 6.86736C6.38345 6.86736 6.38344 6.86736 6.38343 6.86736C6.38342 6.86736 6.30958 6.94328 6.38525 7.01735L6.38389 6.86735C6.45957 6.94142 6.38573 7.01734 6.38571 7.01734C6.38571 7.01734 6.3857 7.01734 6.3857 7.01734C6.3857 7.01734 6.3857 7.01734 6.38571 7.01734C6.38572 7.01734 6.38574 7.01734 6.38577 7.01734C6.38582 7.01734 6.3859 7.01734 6.38601 7.01734C6.38622 7.01733 6.38654 7.01733 6.38696 7.01732C6.38779 7.01731 6.38902 7.01729 6.3906 7.01727C6.39375 7.01722 6.3983 7.01716 6.40385 7.01708C6.41496 7.01691 6.4301 7.0167 6.44621 7.01648C6.4786 7.01603 6.51444 7.01557 6.52972 7.01549L6.52889 6.86549ZM7.03547 7.03477C6.89852 6.94976 6.76196 6.86419 6.52889 6.86549L6.52972 7.01549C6.71703 7.01444 6.82206 7.07884 6.95636 7.16221L7.03547 7.03477ZM7.06858 7.05525C7.05748 7.04843 7.04651 7.04162 7.03547 7.03477L6.95636 7.16221C6.96735 7.16904 6.97861 7.17602 6.99004 7.18305L7.06858 7.05525ZM7.27054 7.1862C7.1965 7.13717 7.12759 7.09152 7.06858 7.05525L6.99004 7.18305C7.04642 7.2177 7.11299 7.26177 7.18771 7.31126L7.27054 7.1862ZM8.30189 7.6526C8.18027 7.6712 8.01068 7.6171 7.81832 7.5196C7.62985 7.42407 7.43606 7.29583 7.27054 7.1862L7.18771 7.31126C7.35183 7.41996 7.55292 7.55324 7.7505 7.65339C7.94419 7.75157 8.15183 7.8273 8.32458 7.80087L8.30189 7.6526ZM8.41064 7.18095C8.41048 7.17984 8.41102 7.18686 8.40886 7.20668C8.40696 7.2242 8.40355 7.24677 8.39876 7.27303C8.38919 7.32545 8.37466 7.38956 8.3576 7.45192C8.34042 7.51472 8.32133 7.5733 8.30305 7.61567C8.29377 7.63718 8.28595 7.65155 8.28029 7.65964C8.27746 7.66367 8.27668 7.66395 8.27832 7.66254C8.2796 7.66144 8.28757 7.65479 8.30189 7.6526L8.32458 7.80087C8.34791 7.7973 8.36519 7.78566 8.37599 7.77639C8.38715 7.76681 8.39612 7.75574 8.40318 7.74565C8.41728 7.7255 8.42979 7.70057 8.44078 7.67509C8.46304 7.62349 8.48428 7.55731 8.50229 7.49151C8.52041 7.42526 8.53593 7.35692 8.54632 7.29996C8.55151 7.27152 8.55556 7.24516 8.55798 7.22289C8.56016 7.20291 8.56188 7.17927 8.55917 7.16L8.41064 7.18095ZM8.42459 7.01494C8.42007 7.04565 8.41547 7.07686 8.41251 7.10366C8.40982 7.12802 8.40733 7.15752 8.41064 7.18095L8.55917 7.16C8.5592 7.16024 8.55885 7.15715 8.55919 7.14898C8.55951 7.14142 8.56031 7.13182 8.56161 7.12013C8.56421 7.09658 8.56836 7.0683 8.573 7.03677L8.42459 7.01494ZM8.4998 6.86027C8.4868 6.86226 8.46979 6.85937 8.45569 6.84792C8.44433 6.83869 8.4412 6.82895 8.44107 6.82855C8.44106 6.82852 8.44298 6.83678 8.44244 6.85865C8.44143 6.89962 8.43323 6.95621 8.42459 7.01494L8.573 7.03677C8.58116 6.98131 8.59111 6.91447 8.5924 6.86234C8.59301 6.83767 8.59211 6.80696 8.58316 6.7805C8.57856 6.76688 8.56943 6.74705 8.55027 6.73149C8.52838 6.7137 8.50177 6.70823 8.47711 6.712L8.4998 6.86027ZM7.06753 6.44038C7.38275 6.58033 7.65666 6.69725 7.89113 6.77307C8.12427 6.84847 8.3279 6.88658 8.4998 6.86027L8.47711 6.712C8.34077 6.73286 8.16461 6.70387 7.93729 6.63035C7.71129 6.55727 7.44408 6.44344 7.1284 6.30328L7.06753 6.44038ZM6.11228 6.52235C6.27149 6.47692 6.44083 6.42873 6.60805 6.40617C6.77522 6.38361 6.93321 6.38778 7.07058 6.44165L7.12535 6.30201C6.95461 6.23505 6.76777 6.23325 6.58799 6.25751C6.40826 6.28177 6.22853 6.33319 6.07112 6.37811L6.11228 6.52235ZM5.45173 6.53528C5.52349 6.61912 5.63833 6.62375 5.74158 6.61095C5.84939 6.59758 5.97908 6.56037 6.11228 6.52235L6.07112 6.37811C5.93389 6.41728 5.81683 6.45047 5.72312 6.46209C5.62485 6.47427 5.58342 6.45846 5.56569 6.43774L5.45173 6.53528ZM5.37217 6.53029C5.39649 6.50903 5.43187 6.51207 5.45173 6.53528L5.56569 6.43774C5.4908 6.35025 5.35972 6.34193 5.27344 6.41736L5.37217 6.53029Z" fill="#984111"/>
<path fill-rule="evenodd" clip-rule="evenodd" d="M7.75565 12.2454C7.68236 12.2503 7.61838 12.1954 7.61274 12.1228C7.58532 11.7696 7.89617 11.4486 8.06827 11.2709L8.08524 11.2533C8.11241 11.2252 8.14026 11.1974 8.17514 11.1633C8.17512 11.1633 8.25652 11.0843 8.27879 11.0623C8.42825 10.9145 8.46064 10.7761 8.49701 10.6206L8.50602 10.5824C8.52174 10.5165 8.53792 10.4369 8.55568 10.3495L8.55568 10.3495C8.6344 9.96202 8.74427 9.42121 8.98427 9.24491C9.04304 9.20173 9.45485 9.45824 9.49899 9.51686C9.51455 9.53754 9.56058 9.57176 9.61107 9.60929L9.61107 9.60929C9.70369 9.67816 9.81131 9.75817 9.77326 9.78612C9.52196 9.97072 9.33104 10.4181 9.083 11.0623C8.95057 11.3656 8.60379 11.5584 8.31603 11.7184C8.07023 11.855 7.86748 11.9678 7.87813 12.105C7.88377 12.1776 7.82894 12.2405 7.75565 12.2454ZM11.8029 12.146C11.7672 12.2101 11.6863 12.2339 11.6223 12.199C11.3112 12.0297 11.2112 11.5942 11.1559 11.353L11.1504 11.3292C11.1416 11.2911 11.1335 11.2526 11.1239 11.2048C11.1239 11.2049 11.102 11.0935 11.0956 11.0629C11.0531 10.857 10.9546 10.7545 10.8441 10.6393L10.8169 10.6109C10.7702 10.5618 10.7113 10.504 10.6465 10.4404L10.6465 10.4404L10.6465 10.4404C10.3598 10.159 9.95567 9.76225 9.95567 9.48139C9.95567 9.35381 10.3909 9.20291 10.4641 9.19782C10.4899 9.19603 10.5437 9.17606 10.6027 9.15417C10.7109 9.11399 10.8366 9.06731 10.8393 9.11444C10.8572 9.42575 11.1285 9.82953 11.5336 10.3884C11.7159 10.6647 11.6887 11.0605 11.6662 11.389C11.6469 11.6695 11.631 11.901 11.7519 11.9668C11.8159 12.0016 11.8387 12.0818 11.8029 12.146ZM14.3892 9.79708C14.4598 9.77891 14.5027 9.70637 14.4852 9.63505C14.4676 9.56373 14.3962 9.52064 14.3256 9.53881C14.1923 9.57313 14.0461 9.39304 13.8688 9.1747C13.6613 8.91909 13.4112 8.61106 13.0895 8.53331C12.4121 8.4009 11.9383 8.29057 11.7129 8.07514C11.6788 8.04253 11.6186 8.1624 11.5669 8.26557L11.5669 8.26557L11.5669 8.26558C11.5387 8.32181 11.513 8.37309 11.4953 8.39201C11.4453 8.44565 11.2642 8.89574 11.3169 8.94613C11.5322 9.15187 12.0839 9.16616 12.4791 9.1764L12.4791 9.1764C12.5683 9.17871 12.6495 9.18081 12.7171 9.18486L12.7563 9.18709C12.9157 9.19592 13.0577 9.20378 13.2292 9.3253C13.2543 9.34311 13.3437 9.40768 13.3466 9.40979L13.3467 9.40984C13.3863 9.43827 13.4185 9.46087 13.4509 9.48274L13.4711 9.49641C13.6761 9.63503 14.0462 9.88541 14.3892 9.79708ZM5.29595 9.35381C5.24065 9.30547 5.23423 9.22141 5.2816 9.16606C5.51192 8.89696 5.95873 8.88975 6.2061 8.88576C6.21447 8.88563 6.22261 8.8855 6.23051 8.88536C6.26962 8.88468 6.30897 8.88471 6.35772 8.88529C6.35769 8.88529 6.47112 8.88697 6.50245 8.88715C6.71264 8.88832 6.83343 8.81334 6.96906 8.72915C6.98007 8.72231 6.99119 8.71541 7.00245 8.70848C7.06015 8.67303 7.12789 8.62817 7.20227 8.57891C7.53191 8.36058 7.99202 8.05586 8.28638 8.1009C8.35847 8.11194 8.46829 8.5845 8.45805 8.65716C8.45443 8.68279 8.46278 8.73954 8.47194 8.80178C8.48874 8.91597 8.50826 9.04864 8.4616 9.0415C8.15336 8.99433 7.70201 9.17569 7.07111 9.45581C6.763 9.57663 6.38146 9.46775 6.06485 9.3774C5.79441 9.30023 5.57134 9.23657 5.48186 9.34112C5.43448 9.39648 5.35125 9.40216 5.29595 9.35381Z" fill="#FFC125"/>
<path d="M7.61274 12.1228L7.53797 12.1286L7.53797 12.1286L7.61274 12.1228ZM7.75565 12.2454L7.75063 12.1706L7.75565 12.2454ZM8.06827 11.2709L8.12217 11.323L8.12215 11.323L8.06827 11.2709ZM8.08524 11.2533L8.13919 11.3054L8.13914 11.3055L8.08524 11.2533ZM8.17514 11.1633L8.12274 11.1097L8.22783 11.2167L8.17514 11.1633ZM8.27879 11.0623L8.22606 11.009L8.22606 11.009L8.27879 11.0623ZM8.49701 10.6206L8.42398 10.6035L8.42401 10.6034L8.49701 10.6206ZM8.50602 10.5824L8.43301 10.5652L8.43307 10.565L8.50602 10.5824ZM8.55568 10.3495L8.48205 10.3345L8.48321 10.3302L8.55568 10.3495ZM8.55568 10.3495L8.62931 10.3644L8.62815 10.3688L8.55568 10.3495ZM8.98427 9.24491L8.93986 9.18447L8.93986 9.18447L8.98427 9.24491ZM9.49899 9.51686L9.5589 9.47175L9.5589 9.47175L9.49899 9.51686ZM9.61107 9.60929L9.56941 9.67178L9.56632 9.66948L9.61107 9.60929ZM9.61107 9.60929L9.65273 9.54681L9.65582 9.54911L9.61107 9.60929ZM9.77326 9.78612L9.72886 9.72567L9.72886 9.72567L9.77326 9.78612ZM9.083 11.0623L9.15306 11.0893L9.15173 11.0923L9.083 11.0623ZM8.31603 11.7184L8.27958 11.6528L8.27958 11.6528L8.31603 11.7184ZM7.87813 12.105L7.80336 12.1108L7.80336 12.1108L7.87813 12.105ZM11.6223 12.199L11.5864 12.2649L11.5864 12.2649L11.6223 12.199ZM11.8029 12.146L11.8684 12.1825L11.8684 12.1825L11.8029 12.146ZM11.1559 11.353L11.229 11.3362L11.229 11.3363L11.1559 11.353ZM11.1504 11.3292L11.2235 11.3124L11.2235 11.3124L11.1504 11.3292ZM11.1239 11.2048L11.0504 11.2195L11.1974 11.1898L11.1239 11.2048ZM11.0956 11.0629L11.1691 11.0477L11.1691 11.0477L11.0956 11.0629ZM10.8441 10.6393L10.79 10.6912L10.7899 10.6912L10.8441 10.6393ZM10.8169 10.6109L10.7627 10.6628L10.7626 10.6626L10.8169 10.6109ZM10.6465 10.4404L10.594 10.4939L10.5939 10.4939L10.6465 10.4404ZM10.6465 10.4404L10.6985 10.3864L10.6991 10.3869L10.6465 10.4404ZM10.6465 10.4404L10.5944 10.4943L10.5939 10.4939L10.6465 10.4404ZM10.4641 9.19782L10.4589 9.123L10.4589 9.123L10.4641 9.19782ZM10.6027 9.15417L10.6288 9.22448L10.6288 9.22448L10.6027 9.15417ZM10.8393 9.11444L10.7644 9.11876L10.7644 9.11876L10.8393 9.11444ZM11.5336 10.3884L11.5944 10.3443L11.5962 10.3471L11.5336 10.3884ZM11.6662 11.389L11.741 11.3941L11.741 11.3941L11.6662 11.389ZM11.7519 11.9668L11.716 12.0326L11.716 12.0326L11.7519 11.9668ZM14.3892 9.79708L14.4079 9.86971L14.4079 9.86971L14.3892 9.79708ZM14.3256 9.53881L14.3069 9.46618L14.3069 9.46618L14.3256 9.53881ZM13.8688 9.1747L13.8106 9.22198L13.8106 9.22198L13.8688 9.1747ZM13.0895 8.53331L13.1039 8.45963L13.1072 8.46041L13.0895 8.53331ZM11.7129 8.07514L11.6611 8.12936L11.6611 8.12936L11.7129 8.07514ZM11.5669 8.26557L11.497 8.23762L11.4999 8.23195L11.5669 8.26557ZM11.5669 8.26557L11.6368 8.29353L11.634 8.29912L11.5669 8.26557ZM11.5669 8.26558L11.634 8.29912L11.634 8.2992L11.5669 8.26558ZM11.4953 8.39201L11.4405 8.34083L11.4405 8.34083L11.4953 8.39201ZM11.3169 8.94613L11.3687 8.89191L11.3687 8.89191L11.3169 8.94613ZM12.4791 9.1764L12.4811 9.10142L12.482 9.10145L12.4791 9.1764ZM12.4791 9.1764L12.4772 9.25138L12.4763 9.25134L12.4791 9.1764ZM12.7171 9.18486L12.7129 9.25974L12.7126 9.25973L12.7171 9.18486ZM12.7563 9.18709L12.7522 9.26198L12.7521 9.26197L12.7563 9.18709ZM13.2292 9.3253L13.1858 9.3865L13.1858 9.3865L13.2292 9.3253ZM13.3466 9.40979L13.3028 9.47063L13.3027 9.47058L13.3466 9.40979ZM13.3467 9.40984L13.3029 9.47076L13.3028 9.47068L13.3467 9.40984ZM13.4509 9.48274L13.4929 9.42057L13.4929 9.4206L13.4509 9.48274ZM13.4711 9.49641L13.5131 9.43427L13.5132 9.43429L13.4711 9.49641ZM5.2816 9.16606L5.33858 9.21483L5.33858 9.21483L5.2816 9.16606ZM5.29595 9.35381L5.34531 9.29735L5.34531 9.29735L5.29595 9.35381ZM6.2061 8.88576L6.20489 8.81077L6.20489 8.81077L6.2061 8.88576ZM6.23051 8.88536L6.23181 8.96035L6.23181 8.96035L6.23051 8.88536ZM6.35772 8.88529L6.35861 8.81029L6.35703 8.96028L6.35772 8.88529ZM6.50245 8.88715L6.50287 8.81215L6.50287 8.81215L6.50245 8.88715ZM6.96906 8.72915L7.00861 8.79287L7.00861 8.79287L6.96906 8.72915ZM7.00245 8.70848L6.96319 8.64458L6.96319 8.64458L7.00245 8.70848ZM7.20227 8.57891L7.16086 8.51638L7.16086 8.51638L7.20227 8.57891ZM8.28638 8.1009L8.29772 8.02677L8.29772 8.02677L8.28638 8.1009ZM8.45805 8.65716L8.53231 8.66763L8.53231 8.66763L8.45805 8.65716ZM8.47194 8.80178L8.54614 8.79086L8.54614 8.79086L8.47194 8.80178ZM8.4616 9.0415L8.45025 9.11564L8.45025 9.11564L8.4616 9.0415ZM7.07111 9.45581L7.10157 9.52442L7.09849 9.52563L7.07111 9.45581ZM6.06485 9.3774L6.08543 9.30528L6.08543 9.30528L6.06485 9.3774ZM5.48186 9.34112L5.53884 9.38989L5.53884 9.38989L5.48186 9.34112ZM7.68752 12.117C7.68993 12.1481 7.7178 12.1728 7.75063 12.1706L7.76067 12.3202C7.64693 12.3279 7.54683 12.2428 7.53797 12.1286L7.68752 12.117ZM8.12215 11.323C8.03566 11.4124 7.91981 11.5323 7.82847 11.6721C7.73684 11.8123 7.67564 11.964 7.68752 12.117L7.53797 12.1286C7.52242 11.9284 7.60294 11.743 7.7029 11.59C7.80316 11.4366 7.92877 11.3071 8.01438 11.2187L8.12215 11.323ZM8.13914 11.3055L8.12217 11.323L8.01436 11.2187L8.03133 11.2012L8.13914 11.3055ZM8.22754 11.217C8.19298 11.2507 8.16569 11.278 8.13919 11.3054L8.03129 11.2012C8.05914 11.1724 8.08753 11.144 8.12274 11.1097L8.22754 11.217ZM8.33153 11.1156C8.32012 11.1269 8.29395 11.1524 8.27091 11.1748C8.25932 11.1861 8.24844 11.1967 8.24045 11.2044C8.23646 11.2083 8.23319 11.2115 8.23092 11.2137C8.22978 11.2148 8.2289 11.2157 8.2283 11.2162C8.228 11.2165 8.22776 11.2168 8.22761 11.2169C8.22753 11.217 8.22747 11.217 8.22743 11.2171C8.22741 11.2171 8.2274 11.2171 8.22738 11.2171C8.22738 11.2171 8.22737 11.2171 8.22737 11.2171C8.22736 11.2172 8.22735 11.2172 8.22735 11.2172C8.22733 11.2172 8.12151 11.2158 8.12245 11.11L8.22783 11.2167C8.22876 11.1109 8.12294 11.1095 8.12293 11.1095C8.12292 11.1095 8.12291 11.1095 8.12291 11.1095C8.12291 11.1095 8.12291 11.1095 8.12292 11.1095C8.12292 11.1095 8.12294 11.1095 8.12296 11.1095C8.12299 11.1094 8.12305 11.1094 8.12313 11.1093C8.12328 11.1091 8.12351 11.1089 8.12381 11.1086C8.12441 11.108 8.12529 11.1072 8.12642 11.1061C8.12869 11.1039 8.13195 11.1007 8.13593 11.0969C8.1439 11.0891 8.15475 11.0786 8.1663 11.0673C8.18952 11.0447 8.21519 11.0197 8.22606 11.009L8.33153 11.1156ZM8.57004 10.6377C8.53331 10.7947 8.49726 10.9517 8.33153 11.1156L8.22606 11.009C8.35924 10.8773 8.38797 10.7575 8.42398 10.6035L8.57004 10.6377ZM8.57902 10.5996L8.57001 10.6378L8.42401 10.6034L8.43301 10.5652L8.57902 10.5996ZM8.62918 10.3644C8.6115 10.4515 8.59505 10.5325 8.57896 10.5998L8.43307 10.565C8.44843 10.5006 8.46434 10.4224 8.48218 10.3346L8.62918 10.3644ZM8.62815 10.3688L8.62815 10.3688L8.48321 10.3302L8.48321 10.3302L8.62815 10.3688ZM9.02867 9.30535C8.92951 9.37819 8.84785 9.53637 8.78077 9.74134C8.71506 9.94215 8.6687 10.1699 8.62918 10.3644L8.48218 10.3346C8.52137 10.1416 8.56932 9.90521 8.63821 9.69468C8.70575 9.4883 8.79902 9.28792 8.93986 9.18447L9.02867 9.30535ZM9.43907 9.56197C9.43974 9.56285 9.43515 9.55751 9.41962 9.54502C9.40588 9.53398 9.38751 9.52043 9.36556 9.50526C9.32172 9.47495 9.26612 9.43989 9.20996 9.40786C9.15341 9.3756 9.09849 9.34768 9.0556 9.33065C9.03382 9.322 9.01813 9.31737 9.00841 9.31565C9.00356 9.3148 9.00281 9.31515 9.00497 9.31499C9.00665 9.31486 9.01699 9.31393 9.02867 9.30535L8.93986 9.18447C8.95889 9.17049 8.97933 9.16651 8.99352 9.16542C9.00819 9.1643 9.02236 9.1658 9.03449 9.16794C9.0587 9.17221 9.08518 9.181 9.11097 9.19124C9.1632 9.21199 9.22501 9.24376 9.28428 9.27756C9.34393 9.31159 9.40323 9.34894 9.45086 9.38187C9.47463 9.39831 9.49614 9.41408 9.5136 9.42812C9.52926 9.44071 9.5472 9.4562 9.5589 9.47175L9.43907 9.56197ZM9.56632 9.66948C9.5414 9.65096 9.51608 9.63214 9.49504 9.61529C9.47591 9.59997 9.45329 9.58086 9.43907 9.56197L9.5589 9.47175C9.55876 9.47156 9.5607 9.47399 9.56672 9.47952C9.57228 9.48464 9.57964 9.49086 9.58882 9.49822C9.60731 9.51303 9.63024 9.53009 9.65581 9.5491L9.56632 9.66948ZM9.56947 9.6717L9.56946 9.6717L9.65267 9.54689L9.65267 9.54689L9.56947 9.6717ZM9.72886 9.72567C9.71827 9.73345 9.70829 9.74753 9.70642 9.76559C9.70491 9.78015 9.70958 9.78925 9.70977 9.78963C9.70978 9.78966 9.7053 9.78246 9.68946 9.76737C9.65977 9.73912 9.61395 9.7049 9.56632 9.66948L9.65582 9.54911C9.70081 9.58256 9.75511 9.62278 9.79288 9.65873C9.81076 9.67575 9.83184 9.69809 9.84422 9.72313C9.8506 9.73602 9.85816 9.75649 9.85562 9.78104C9.85271 9.8091 9.83777 9.83179 9.81767 9.84656L9.72886 9.72567ZM9.01301 11.0353C9.13694 10.7135 9.24795 10.4371 9.36013 10.2177C9.47167 9.99955 9.58871 9.82862 9.72886 9.72567L9.81767 9.84656C9.70651 9.92822 9.60244 10.0733 9.49369 10.286C9.38557 10.4975 9.2771 10.7669 9.15299 11.0892L9.01301 11.0353ZM8.27958 11.6528C8.42428 11.5724 8.5781 11.4867 8.7123 11.3844C8.84646 11.2822 8.95522 11.1675 9.01427 11.0323L9.15173 11.0923C9.07835 11.2604 8.94751 11.3938 8.80323 11.5037C8.65899 11.6137 8.49554 11.7044 8.35247 11.7839L8.27958 11.6528ZM7.80336 12.1108C7.79482 12.0008 7.87275 11.9163 7.95481 11.8523C8.04049 11.7855 8.15852 11.7201 8.27958 11.6528L8.35247 11.7839C8.22774 11.8533 8.12149 11.9126 8.04702 11.9706C7.96891 12.0315 7.9508 12.072 7.95291 12.0992L7.80336 12.1108ZM7.75063 12.1706C7.78286 12.1684 7.80572 12.1412 7.80336 12.1108L7.95291 12.0992C7.96183 12.214 7.87501 12.3126 7.76067 12.3202L7.75063 12.1706ZM11.6581 12.1332C11.6855 12.1481 11.7214 12.1382 11.7375 12.1094L11.8684 12.1825C11.8129 12.2821 11.687 12.3197 11.5864 12.2649L11.6581 12.1332ZM11.229 11.3363C11.2568 11.4574 11.2943 11.6199 11.3618 11.7726C11.4295 11.9259 11.5234 12.0598 11.6581 12.1332L11.5864 12.2649C11.4101 12.1689 11.2984 12.0004 11.2246 11.8333C11.1505 11.6656 11.1103 11.4898 11.0828 11.3698L11.229 11.3363ZM11.2235 11.3124L11.229 11.3362L11.0828 11.3698L11.0773 11.346L11.2235 11.3124ZM11.1974 11.1901C11.2069 11.2375 11.2149 11.2752 11.2235 11.3124L11.0773 11.3461C11.0683 11.307 11.06 11.2678 11.0504 11.2195L11.1974 11.1901ZM11.1691 11.0477C11.1723 11.0634 11.1795 11.0992 11.1857 11.1308C11.1889 11.1466 11.1918 11.1615 11.194 11.1724C11.195 11.1779 11.1959 11.1824 11.1965 11.1855C11.1968 11.187 11.1971 11.1882 11.1972 11.1891C11.1973 11.1895 11.1974 11.1898 11.1974 11.19C11.1975 11.1901 11.1975 11.1902 11.1975 11.1902C11.1975 11.1903 11.1975 11.1903 11.1975 11.1903C11.1975 11.1903 11.1975 11.1903 11.1975 11.1903C11.1975 11.1903 11.1975 11.1903 11.1975 11.1904C11.1975 11.1904 11.1386 11.2784 11.0504 11.2199L11.1974 11.1898C11.1092 11.1313 11.0503 11.2193 11.0503 11.2193C11.0503 11.2193 11.0503 11.2193 11.0503 11.2193C11.0503 11.2193 11.0503 11.2193 11.0503 11.2193C11.0503 11.2193 11.0503 11.2193 11.0503 11.2192C11.0503 11.2192 11.0503 11.2191 11.0503 11.219C11.0502 11.2188 11.0502 11.2185 11.0501 11.2181C11.0499 11.2173 11.0497 11.2161 11.0494 11.2145C11.0488 11.2114 11.0479 11.207 11.0468 11.2015C11.0447 11.1906 11.0417 11.1758 11.0386 11.1599C11.0323 11.1282 11.0253 11.093 11.0222 11.0781L11.1691 11.0477ZM10.8982 10.5874C11.0098 10.7037 11.1219 10.8194 11.1691 11.0477L11.0222 11.0781C10.9843 10.8946 10.8994 10.8053 10.79 10.6912L10.8982 10.5874ZM10.8711 10.5591L10.8983 10.5875L10.7899 10.6912L10.7627 10.6628L10.8711 10.5591ZM10.699 10.3869C10.7636 10.4502 10.8234 10.509 10.8713 10.5592L10.7626 10.6626C10.7169 10.6146 10.6591 10.5579 10.594 10.4939L10.699 10.3869ZM10.6991 10.3869L10.6991 10.3869L10.5939 10.4939L10.5939 10.4938L10.6991 10.3869ZM10.6985 10.3864L10.6985 10.3864L10.5944 10.4944L10.5944 10.4943L10.6985 10.3864ZM10.0307 9.48139C10.0307 9.53458 10.0502 9.59961 10.0898 9.67542C10.129 9.75049 10.1852 9.83092 10.2519 9.91356C10.3856 10.0791 10.5551 10.2455 10.699 10.3868L10.5939 10.4939C10.4512 10.3538 10.2753 10.1812 10.1352 10.0078C10.0651 9.92098 10.0023 9.83199 9.95683 9.74488C9.9117 9.65852 9.88067 9.56863 9.88067 9.48139H10.0307ZM10.4693 9.27264C10.4694 9.27263 10.4688 9.27268 10.4671 9.27292C10.4656 9.27315 10.4635 9.27351 10.4608 9.27404C10.4553 9.2751 10.4484 9.27669 10.4399 9.27887C10.423 9.28322 10.4016 9.28952 10.3773 9.29756C10.3285 9.31364 10.2699 9.33596 10.2138 9.3618C10.157 9.38794 10.106 9.41621 10.0705 9.44349C10.0526 9.45715 10.0413 9.46864 10.0349 9.47727C10.0284 9.48615 10.0307 9.48708 10.0307 9.48139H9.88067C9.88067 9.44381 9.89659 9.41211 9.91414 9.3883C9.93186 9.36424 9.95505 9.34297 9.97918 9.32446C10.0275 9.28741 10.0899 9.25372 10.1511 9.22555C10.2129 9.19707 10.2768 9.17274 10.3303 9.15511C10.3805 9.13854 10.4299 9.12502 10.4589 9.123L10.4693 9.27264ZM10.6288 9.22448C10.5997 9.23528 10.5701 9.24627 10.5445 9.25474C10.5212 9.26243 10.4929 9.271 10.4693 9.27264L10.4589 9.123C10.4586 9.12302 10.4617 9.12272 10.4697 9.12068C10.477 9.1188 10.4862 9.11602 10.4974 9.11233C10.5199 9.10489 10.5467 9.09495 10.5765 9.08385L10.6288 9.22448ZM10.7644 9.11876C10.7652 9.13188 10.7715 9.14792 10.7857 9.15933C10.7971 9.16852 10.8072 9.16956 10.8077 9.16961C10.8077 9.16961 10.7992 9.16944 10.7779 9.17452C10.7381 9.18403 10.6844 9.20381 10.6288 9.22448L10.5765 9.08386C10.6291 9.06434 10.6924 9.0407 10.7431 9.02861C10.7671 9.02289 10.7974 9.01738 10.8251 9.02063C10.8394 9.0223 10.8607 9.0271 10.8799 9.04261C10.9018 9.06033 10.9127 9.08522 10.9142 9.11012L10.7644 9.11876ZM11.4729 10.4324C11.2705 10.1532 11.0992 9.90958 10.9763 9.696C10.854 9.48363 10.7744 9.29237 10.7644 9.11876L10.9142 9.11012C10.9221 9.24782 10.9871 9.41411 11.1063 9.62117C11.2247 9.82703 11.3916 10.0647 11.5944 10.3444L11.4729 10.4324ZM11.5913 11.3838C11.6027 11.2187 11.6146 11.043 11.6019 10.8747C11.5892 10.7065 11.5523 10.5529 11.471 10.4297L11.5962 10.3471C11.6972 10.5002 11.7378 10.6826 11.7515 10.8635C11.7651 11.0443 11.7522 11.2308 11.741 11.3941L11.5913 11.3838ZM11.716 12.0326C11.6191 11.9799 11.5907 11.8685 11.5817 11.7649C11.5724 11.6566 11.5818 11.522 11.5913 11.3838L11.741 11.3941C11.7312 11.5365 11.7231 11.6579 11.7312 11.752C11.7397 11.8506 11.7638 11.8879 11.7877 11.9009L11.716 12.0326ZM11.7375 12.1094C11.7532 12.0812 11.7429 12.0473 11.716 12.0326L11.7877 11.9009C11.8889 11.956 11.9243 12.0825 11.8684 12.1825L11.7375 12.1094ZM14.558 9.61711C14.5853 9.7278 14.5188 9.84115 14.4079 9.86971L14.3705 9.72445C14.4007 9.71667 14.4202 9.68494 14.4123 9.65299L14.558 9.61711ZM14.3069 9.46618C14.4184 9.43746 14.5306 9.50584 14.558 9.61711L14.4123 9.65299C14.4046 9.62162 14.3739 9.60383 14.3443 9.61144L14.3069 9.46618ZM13.9271 9.12743C14.017 9.23823 14.0939 9.33256 14.164 9.39583C14.2375 9.46217 14.2805 9.47298 14.3069 9.46618L14.3443 9.61144C14.2374 9.63896 14.1407 9.57688 14.0635 9.50718C13.9828 9.43439 13.8979 9.32952 13.8106 9.22198L13.9271 9.12743ZM13.1072 8.46041C13.2854 8.50349 13.4395 8.60918 13.5729 8.73218C13.7062 8.85513 13.8239 9.00035 13.9271 9.12743L13.8106 9.22198C13.7063 9.09345 13.5952 8.95684 13.4712 8.84244C13.3472 8.72808 13.2153 8.64088 13.0719 8.60621L13.1072 8.46041ZM11.7647 8.02092C11.8644 8.11621 12.0253 8.1935 12.2537 8.26367C12.4808 8.33342 12.7649 8.39345 13.1039 8.4597L13.0752 8.60692C12.7367 8.54076 12.4452 8.47942 12.2097 8.40705C11.9755 8.33509 11.7868 8.24951 11.6611 8.12936L11.7647 8.02092ZM11.4999 8.23195C11.525 8.18184 11.5552 8.12138 11.584 8.07794C11.5977 8.05738 11.616 8.03274 11.6385 8.0162C11.6501 8.00768 11.669 7.99668 11.6936 7.99492C11.7217 7.99291 11.7467 8.00368 11.7647 8.02092L11.6611 8.12936C11.6706 8.13844 11.6862 8.14583 11.7043 8.14454C11.7189 8.14349 11.727 8.13731 11.7274 8.13706C11.7274 8.13704 11.7211 8.1427 11.709 8.16093C11.6863 8.19507 11.6606 8.24613 11.634 8.29919L11.4999 8.23195ZM11.4973 8.23772L11.4973 8.23772L11.6365 8.29343L11.6365 8.29343L11.4973 8.23772ZM11.4998 8.23204L11.4998 8.23203L11.634 8.29912L11.634 8.29912L11.4998 8.23204ZM11.4405 8.34083C11.4403 8.34101 11.4424 8.33868 11.4468 8.33179C11.4509 8.32542 11.4557 8.31709 11.4614 8.30677C11.4728 8.28599 11.4856 8.26045 11.4999 8.23196L11.634 8.2992C11.62 8.32695 11.6059 8.35515 11.593 8.3788C11.5812 8.4003 11.5663 8.42589 11.5502 8.44318L11.4405 8.34083ZM11.2651 9.00035C11.248 8.98404 11.2406 8.9646 11.237 8.95082C11.2334 8.93657 11.2324 8.92235 11.2324 8.91004C11.2324 8.88545 11.2364 8.85785 11.2421 8.83067C11.2534 8.77563 11.274 8.70924 11.297 8.64501C11.3201 8.58035 11.3466 8.51547 11.3708 8.46284C11.3828 8.43658 11.3946 8.41266 11.4054 8.39303C11.4151 8.37542 11.4272 8.35506 11.4405 8.34083L11.5502 8.44318C11.5509 8.44237 11.5465 8.44781 11.5369 8.46528C11.5284 8.48072 11.5182 8.50116 11.5071 8.52542C11.4849 8.57385 11.46 8.6347 11.4382 8.69557C11.4162 8.75686 11.3983 8.8158 11.389 8.861C11.3842 8.88394 11.3824 8.90019 11.3824 8.91007C11.3824 8.91499 11.3829 8.91567 11.3823 8.91357C11.3819 8.91194 11.3792 8.90192 11.3687 8.89191L11.2651 9.00035ZM12.4772 9.25137C12.2804 9.24627 12.0392 9.24012 11.8199 9.20882C11.605 9.17815 11.3914 9.12109 11.2651 9.00035L11.3687 8.89191C11.4577 8.97691 11.6276 9.02986 11.8411 9.06033C12.0503 9.09018 12.2826 9.09628 12.4811 9.10142L12.4772 9.25137ZM12.4763 9.25134L12.4762 9.25134L12.482 9.10145L12.482 9.10145L12.4763 9.25134ZM12.7126 9.25973C12.6466 9.25577 12.5668 9.25369 12.4772 9.25137L12.4811 9.10142C12.5699 9.10372 12.6525 9.10585 12.7216 9.11L12.7126 9.25973ZM12.7521 9.26197L12.7129 9.25974L12.7214 9.10998L12.7606 9.11221L12.7521 9.26197ZM13.1858 9.3865C13.033 9.2782 12.91 9.27072 12.7522 9.26198L12.7605 9.11221C12.9214 9.12112 13.0824 9.12936 13.2725 9.2641L13.1858 9.3865ZM13.3027 9.47058C13.2996 9.46832 13.2106 9.40405 13.1858 9.3865L13.2725 9.2641C13.2981 9.28218 13.3878 9.34703 13.3905 9.34899L13.3027 9.47058ZM13.3028 9.47068L13.3028 9.47063L13.3905 9.34894L13.3905 9.349L13.3028 9.47068ZM13.409 9.54492C13.3757 9.5225 13.3429 9.49946 13.3029 9.47076L13.3904 9.34892C13.4297 9.37709 13.4612 9.39923 13.4929 9.42057L13.409 9.54492ZM13.4292 9.55855L13.4089 9.54488L13.4929 9.4206L13.5131 9.43427L13.4292 9.55855ZM14.4079 9.86971C14.2135 9.91978 14.0169 9.87268 13.8489 9.8008C13.6804 9.72872 13.5311 9.62749 13.4291 9.55853L13.5132 9.43429C13.6161 9.50395 13.7544 9.59722 13.9079 9.66289C14.0619 9.72878 14.222 9.7627 14.3705 9.72445L14.4079 9.86971ZM5.33858 9.21483C5.31831 9.23851 5.32054 9.27569 5.34531 9.29735L5.24658 9.41028C5.16076 9.33525 5.15015 9.2043 5.22462 9.11729L5.33858 9.21483ZM6.20731 8.96075C6.083 8.96276 5.91628 8.96563 5.75285 8.9999C5.58889 9.03427 5.43833 9.09828 5.33858 9.21483L5.22462 9.11729C5.35519 8.96474 5.5432 8.89059 5.72207 8.85309C5.90146 8.81548 6.08184 8.81276 6.20489 8.81077L6.20731 8.96075ZM6.23181 8.96035C6.22386 8.96049 6.21567 8.96062 6.20731 8.96075L6.20489 8.81077C6.21327 8.81064 6.22136 8.81051 6.2292 8.81037L6.23181 8.96035ZM6.35682 8.96028C6.30854 8.95971 6.26997 8.95968 6.23181 8.96035L6.2292 8.81037C6.26928 8.80967 6.3094 8.80971 6.35861 8.81029L6.35682 8.96028ZM6.50203 8.96215C6.48599 8.96206 6.44945 8.96159 6.4173 8.96114C6.40114 8.96092 6.38596 8.96071 6.37483 8.96055C6.36926 8.96047 6.36471 8.9604 6.36154 8.96035C6.35996 8.96033 6.35872 8.96031 6.35788 8.9603C6.35747 8.96029 6.35714 8.96029 6.35693 8.96028C6.35682 8.96028 6.35674 8.96028 6.35668 8.96028C6.35665 8.96028 6.35663 8.96028 6.35662 8.96028C6.35661 8.96028 6.3566 8.96028 6.35659 8.96028C6.35659 8.96028 6.35658 8.96028 6.35658 8.96028C6.35656 8.96028 6.28272 8.88436 6.3584 8.81029L6.35703 8.96028C6.43271 8.88621 6.35887 8.8103 6.35886 8.8103C6.35885 8.8103 6.35885 8.8103 6.35885 8.8103C6.35885 8.8103 6.35885 8.8103 6.35885 8.8103C6.35887 8.8103 6.35889 8.8103 6.35891 8.8103C6.35896 8.8103 6.35904 8.8103 6.35915 8.8103C6.35936 8.8103 6.35968 8.81031 6.3601 8.81032C6.36093 8.81033 6.36216 8.81035 6.36374 8.81037C6.3669 8.81041 6.37144 8.81048 6.377 8.81056C6.38811 8.81072 6.40324 8.81094 6.41935 8.81116C6.45175 8.8116 6.48758 8.81206 6.50287 8.81215L6.50203 8.96215ZM7.00861 8.79287C6.87166 8.87788 6.7351 8.96344 6.50203 8.96215L6.50287 8.81215C6.69018 8.81319 6.7952 8.74879 6.9295 8.66542L7.00861 8.79287ZM7.04172 8.77238C7.03062 8.7792 7.01965 8.78601 7.00861 8.79287L6.9295 8.66542C6.94049 8.6586 6.95175 8.65161 6.96319 8.64458L7.04172 8.77238ZM7.24368 8.64143C7.16964 8.69047 7.10073 8.73612 7.04172 8.77238L6.96319 8.64458C7.01956 8.60994 7.08613 8.56586 7.16086 8.51638L7.24368 8.64143ZM8.27504 8.17504C8.15342 8.15643 7.98383 8.21054 7.79146 8.30804C7.60299 8.40357 7.4092 8.53181 7.24368 8.64143L7.16086 8.51638C7.32498 8.40768 7.52606 8.2744 7.72365 8.17425C7.91733 8.07607 8.12498 8.00033 8.29772 8.02677L8.27504 8.17504ZM8.38378 8.64669C8.38363 8.64779 8.38416 8.64078 8.38201 8.62096C8.3801 8.60344 8.37669 8.58087 8.3719 8.55461C8.36234 8.50219 8.34781 8.43807 8.33075 8.37572C8.31357 8.31292 8.29448 8.25434 8.27619 8.21197C8.26691 8.19045 8.25909 8.17609 8.25343 8.168C8.25061 8.16397 8.24983 8.16369 8.25147 8.1651C8.25275 8.16619 8.26071 8.17285 8.27503 8.17504L8.29772 8.02677C8.32106 8.03034 8.33833 8.04198 8.34913 8.05125C8.3603 8.06082 8.36926 8.0719 8.37632 8.08199C8.39042 8.10214 8.40293 8.12707 8.41392 8.15255C8.43619 8.20415 8.45743 8.27032 8.47543 8.33613C8.49356 8.40238 8.50907 8.47072 8.51947 8.52768C8.52465 8.55612 8.52871 8.58247 8.53113 8.60475C8.5333 8.62472 8.53503 8.64837 8.53231 8.66763L8.38378 8.64669ZM8.39774 8.8127C8.39322 8.78198 8.38862 8.75077 8.38566 8.72398C8.38297 8.69962 8.38048 8.67011 8.38378 8.64669L8.53231 8.66763C8.53235 8.6674 8.53199 8.67049 8.53234 8.67866C8.53266 8.68621 8.53346 8.69581 8.53475 8.70751C8.53735 8.73106 8.5415 8.75934 8.54614 8.79086L8.39774 8.8127ZM8.47294 8.96736C8.45995 8.96538 8.44293 8.96827 8.42884 8.97972C8.41748 8.98895 8.41435 8.99869 8.41421 8.99909C8.4142 8.99912 8.41613 8.99086 8.41559 8.96899C8.41458 8.92801 8.40638 8.87142 8.39774 8.8127L8.54614 8.79086C8.5543 8.84633 8.56426 8.91317 8.56554 8.96529C8.56615 8.98997 8.56526 9.02068 8.55631 9.04714C8.5517 9.06076 8.54258 9.08058 8.52342 9.09615C8.50152 9.11393 8.47491 9.11941 8.45025 9.11564L8.47294 8.96736ZM7.04068 9.38726C7.35589 9.24731 7.6298 9.13039 7.86427 9.05456C8.09741 8.97916 8.30104 8.94106 8.47294 8.96736L8.45025 9.11564C8.31391 9.09478 8.13775 9.12377 7.91043 9.19728C7.68444 9.27037 7.41723 9.38419 7.10155 9.52435L7.04068 9.38726ZM6.08543 9.30528C6.24463 9.35071 6.41398 9.3989 6.5812 9.42147C6.74837 9.44403 6.90636 9.43985 7.04373 9.38598L7.09849 9.52563C6.92775 9.59259 6.74092 9.59438 6.56114 9.57012C6.38141 9.54587 6.20168 9.49444 6.04427 9.44952L6.08543 9.30528ZM5.42488 9.29235C5.49663 9.20852 5.61148 9.20389 5.71472 9.21669C5.82253 9.23005 5.95223 9.26727 6.08543 9.30528L6.04427 9.44952C5.90703 9.41036 5.78997 9.37716 5.69627 9.36555C5.598 9.35336 5.55657 9.36917 5.53884 9.38989L5.42488 9.29235ZM5.34531 9.29735C5.36963 9.31861 5.40501 9.31556 5.42488 9.29235L5.53884 9.38989C5.46395 9.47739 5.33286 9.4857 5.24658 9.41028L5.34531 9.29735Z" fill="#984111"/>
<path fill-rule="evenodd" clip-rule="evenodd" d="M10 3.05918C9.87258 3.05918 9.76459 3.15303 9.74683 3.27923L9.33336 6.21708H10.6667L10.2532 3.27923C10.2355 3.15303 10.1275 3.05918 10 3.05918ZM13.4937 4.50631C13.4036 4.4162 13.2609 4.4062 13.1591 4.48288L10.7893 6.26788L11.7321 7.21069L13.5171 4.84095C13.5938 4.73915 13.5838 4.59643 13.4937 4.50631ZM14.7208 7.74681C14.847 7.76457 14.9408 7.87256 14.9408 8C14.9408 8.12745 14.847 8.23543 14.7208 8.25319L11.783 8.66667V7.33334L14.7208 7.74681ZM13.4937 11.4937C13.5838 11.4036 13.5938 11.2609 13.5171 11.1591L11.7321 8.78932L10.7893 9.73213L13.1591 11.5171C13.2609 11.5938 13.4036 11.5838 13.4937 11.4937ZM10.2532 12.7208C10.2355 12.847 10.1275 12.9408 10 12.9408C9.87258 12.9408 9.76459 12.847 9.74683 12.7208L9.33336 9.78293H10.6667L10.2532 12.7208ZM6.50634 11.4937C6.59645 11.5838 6.73918 11.5938 6.84097 11.5171L9.21071 9.73213L8.2679 8.78932L6.4829 11.1591C6.40623 11.2609 6.41622 11.4036 6.50634 11.4937ZM5.27926 8.25319C5.15306 8.23543 5.0592 8.12745 5.0592 8C5.0592 7.87256 5.15306 7.76457 5.27926 7.74681L8.2171 7.33333V8.66667L5.27926 8.25319ZM6.50634 4.50631C6.41622 4.59643 6.40623 4.73915 6.4829 4.84095L8.2679 7.21069L9.21071 6.26788L6.84097 4.48288C6.73918 4.4062 6.59645 4.4162 6.50634 4.50631Z" fill="#FFC125"/>
<path d="M9.74683 3.27923L9.67256 3.26878L9.67256 3.26878L9.74683 3.27923ZM9.33336 6.21708L9.25909 6.20662L9.24706 6.29208H9.33336V6.21708ZM10.6667 6.21708V6.29208H10.753L10.741 6.20662L10.6667 6.21708ZM10.2532 3.27923L10.3275 3.26878L10.3275 3.26878L10.2532 3.27923ZM13.1591 4.48288L13.114 4.42297L13.114 4.42297L13.1591 4.48288ZM10.7893 6.26788L10.7442 6.20797L10.6753 6.25989L10.7363 6.32091L10.7893 6.26788ZM11.7321 7.21069L11.6791 7.26372L11.7401 7.32474L11.7921 7.25581L11.7321 7.21069ZM13.5171 4.84095L13.4572 4.79583L13.4572 4.79583L13.5171 4.84095ZM14.7208 7.74681L14.7103 7.82108L14.7103 7.82108L14.7208 7.74681ZM14.7208 8.25319L14.7312 8.32746L14.7312 8.32746L14.7208 8.25319ZM11.783 8.66667H11.708V8.75296L11.7934 8.74094L11.783 8.66667ZM11.783 7.33334L11.7934 7.25907L11.708 7.24704V7.33334H11.783ZM13.5171 11.1591L13.5771 11.1139L13.5771 11.1139L13.5171 11.1591ZM13.4937 11.4937L13.5467 11.5467L13.5467 11.5467L13.4937 11.4937ZM11.7321 8.78932L11.7921 8.74419L11.7401 8.67526L11.6791 8.73628L11.7321 8.78932ZM10.7893 9.73213L10.7363 9.67909L10.6753 9.74011L10.7442 9.79203L10.7893 9.73213ZM13.1591 11.5171L13.2042 11.4572L13.2042 11.4572L13.1591 11.5171ZM10.2532 12.7208L10.1789 12.7103L10.1789 12.7103L10.2532 12.7208ZM9.74683 12.7208L9.67256 12.7312L9.67256 12.7312L9.74683 12.7208ZM9.33336 9.78293V9.70793H9.24706L9.25909 9.79338L9.33336 9.78293ZM10.6667 9.78293L10.741 9.79338L10.753 9.70793H10.6667V9.78293ZM6.84097 11.5171L6.79585 11.4572L6.79585 11.4572L6.84097 11.5171ZM6.50634 11.4937L6.4533 11.5467L6.4533 11.5467L6.50634 11.4937ZM9.21071 9.73213L9.25583 9.79203L9.32476 9.74011L9.26374 9.67909L9.21071 9.73213ZM8.2679 8.78932L8.32093 8.73628L8.25991 8.67526L8.20799 8.74419L8.2679 8.78932ZM6.4829 11.1591L6.54281 11.2042L6.54281 11.2042L6.4829 11.1591ZM5.27926 8.25319L5.26881 8.32746L5.26881 8.32746L5.27926 8.25319ZM5.27926 7.74681L5.26881 7.67254L5.26881 7.67254L5.27926 7.74681ZM8.2171 7.33333H8.2921V7.24704L8.20665 7.25907L8.2171 7.33333ZM8.2171 8.66667L8.20665 8.74094L8.2921 8.75296V8.66667H8.2171ZM6.4829 4.84095L6.54281 4.79583L6.54281 4.79583L6.4829 4.84095ZM6.50634 4.50631L6.4533 4.45328L6.4533 4.45328L6.50634 4.50631ZM8.2679 7.21069L8.20799 7.25581L8.25991 7.32474L8.32093 7.26372L8.2679 7.21069ZM9.21071 6.26788L9.26374 6.32091L9.32476 6.25989L9.25583 6.20797L9.21071 6.26788ZM6.84097 4.48288L6.79585 4.54279L6.79585 4.54279L6.84097 4.48288ZM9.8211 3.28969C9.83365 3.2005 9.90996 3.13418 10 3.13418V2.98418C9.8352 2.98418 9.69554 3.10556 9.67256 3.26878L9.8211 3.28969ZM9.40763 6.22753L9.8211 3.28969L9.67256 3.26878L9.25909 6.20662L9.40763 6.22753ZM10.6667 6.14208H9.33336V6.29208H10.6667V6.14208ZM10.1789 3.28969L10.5924 6.22753L10.741 6.20662L10.3275 3.26878L10.1789 3.28969ZM10 3.13418C10.0901 3.13418 10.1664 3.2005 10.1789 3.28969L10.3275 3.26878C10.3045 3.10556 10.1649 2.98418 10 2.98418V3.13418ZM13.2042 4.54279C13.2761 4.4886 13.377 4.49566 13.4407 4.55935L13.5467 4.45328C13.4302 4.33673 13.2456 4.3238 13.114 4.42297L13.2042 4.54279ZM10.8345 6.32778L13.2042 4.54279L13.114 4.42297L10.7442 6.20797L10.8345 6.32778ZM11.7852 7.15765L10.8424 6.21485L10.7363 6.32091L11.6791 7.26372L11.7852 7.15765ZM13.4572 4.79583L11.6722 7.16556L11.7921 7.25581L13.5771 4.88607L13.4572 4.79583ZM13.4407 4.55935C13.5044 4.62303 13.5114 4.72389 13.4572 4.79583L13.5771 4.88607C13.6762 4.75442 13.6633 4.56983 13.5467 4.45328L13.4407 4.55935ZM15.0158 8C15.0158 7.83517 14.8945 7.69551 14.7312 7.67254L14.7103 7.82108C14.7995 7.83363 14.8658 7.90994 14.8658 8H15.0158ZM14.7312 8.32746C14.8945 8.30449 15.0158 8.16483 15.0158 8H14.8658C14.8658 8.09006 14.7995 8.16638 14.7103 8.17893L14.7312 8.32746ZM11.7934 8.74094L14.7312 8.32746L14.7103 8.17893L11.7725 8.5924L11.7934 8.74094ZM11.708 7.33334V8.66667H11.858V7.33334H11.708ZM14.7312 7.67254L11.7934 7.25907L11.7725 7.4076L14.7103 7.82108L14.7312 7.67254ZM13.4572 11.2042C13.5114 11.2761 13.5044 11.377 13.4407 11.4407L13.5467 11.5467C13.6633 11.4302 13.6762 11.2456 13.5771 11.1139L13.4572 11.2042ZM11.6722 8.83444L13.4572 11.2042L13.5771 11.1139L11.7921 8.74419L11.6722 8.83444ZM10.8424 9.78516L11.7852 8.84235L11.6791 8.73628L10.7363 9.67909L10.8424 9.78516ZM13.2042 11.4572L10.8345 9.67222L10.7442 9.79203L13.114 11.577L13.2042 11.4572ZM13.4407 11.4407C13.377 11.5043 13.2761 11.5114 13.2042 11.4572L13.114 11.577C13.2456 11.6762 13.4302 11.6633 13.5467 11.5467L13.4407 11.4407ZM10 13.0158C10.1649 13.0158 10.3045 12.8944 10.3275 12.7312L10.1789 12.7103C10.1664 12.7995 10.0901 12.8658 10 12.8658V13.0158ZM9.67256 12.7312C9.69554 12.8944 9.8352 13.0158 10 13.0158V12.8658C9.90996 12.8658 9.83365 12.7995 9.8211 12.7103L9.67256 12.7312ZM9.25909 9.79338L9.67256 12.7312L9.8211 12.7103L9.40763 9.77247L9.25909 9.79338ZM10.6667 9.70793H9.33336V9.85793H10.6667V9.70793ZM10.3275 12.7312L10.741 9.79338L10.5924 9.77247L10.1789 12.7103L10.3275 12.7312ZM6.79585 11.4572C6.72391 11.5114 6.62305 11.5043 6.55937 11.4407L6.4533 11.5467C6.56985 11.6633 6.75444 11.6762 6.8861 11.577L6.79585 11.4572ZM9.16559 9.67222L6.79585 11.4572L6.8861 11.577L9.25583 9.79203L9.16559 9.67222ZM8.21487 8.84235L9.15768 9.78516L9.26374 9.67909L8.32093 8.73628L8.21487 8.84235ZM6.54281 11.2042L8.32781 8.83444L8.20799 8.74419L6.423 11.1139L6.54281 11.2042ZM6.55937 11.4407C6.49569 11.377 6.48862 11.2761 6.54281 11.2042L6.423 11.1139C6.32383 11.2456 6.33675 11.4302 6.4533 11.5467L6.55937 11.4407ZM4.9842 8C4.9842 8.16483 5.10559 8.30449 5.26881 8.32746L5.28971 8.17893C5.20053 8.16637 5.1342 8.09006 5.1342 8H4.9842ZM5.26881 7.67254C5.10559 7.69551 4.9842 7.83517 4.9842 8H5.1342C5.1342 7.90994 5.20053 7.83363 5.28971 7.82108L5.26881 7.67254ZM8.20665 7.25907L5.26881 7.67254L5.28971 7.82108L8.22755 7.4076L8.20665 7.25907ZM8.2921 8.66667V7.33333H8.1421V8.66667H8.2921ZM5.26881 8.32746L8.20665 8.74094L8.22755 8.5924L5.28971 8.17893L5.26881 8.32746ZM6.54281 4.79583C6.48862 4.72389 6.49569 4.62303 6.55937 4.55935L6.4533 4.45328C6.33675 4.56983 6.32383 4.75442 6.423 4.88607L6.54281 4.79583ZM8.32781 7.16556L6.54281 4.79583L6.423 4.88607L8.20799 7.25581L8.32781 7.16556ZM9.15768 6.21485L8.21487 7.15765L8.32093 7.26372L9.26374 6.32091L9.15768 6.21485ZM6.79585 4.54279L9.16559 6.32778L9.25583 6.20797L6.8861 4.42297L6.79585 4.54279ZM6.55937 4.55935C6.62305 4.49566 6.72391 4.4886 6.79585 4.54279L6.8861 4.42297C6.75444 4.3238 6.56985 4.33673 6.4533 4.45328L6.55937 4.55935Z" fill="#984111"/>
<path fill-rule="evenodd" clip-rule="evenodd" d="M9.99998 9.84211C11.0677 9.84211 11.9333 8.98792 11.9333 7.93422C11.9333 6.88051 11.0677 6.02632 9.99998 6.02632C8.93223 6.02632 8.06665 6.88051 8.06665 7.93422C8.06665 8.98792 8.93223 9.84211 9.99998 9.84211Z" fill="#FFC125" stroke="#984111" stroke-width="0.15"/>
<path d="M9.81346 7.43647C9.79352 7.42412 9.70897 7.36832 9.6882 7.35517C9.61503 7.30886 9.55667 7.27868 9.50247 7.26176C9.47276 7.25249 9.44565 7.24781 9.42112 7.24781C9.30346 7.24781 9.13724 7.32125 8.927 7.47091L8.849 7.3642C9.07991 7.19982 9.26911 7.11623 9.42112 7.11623C9.46028 7.11623 9.50069 7.1232 9.54267 7.13631C9.61045 7.15746 9.67795 7.19237 9.76018 7.24441C9.78262 7.25861 9.86644 7.31393 9.88435 7.32504C9.91349 7.34309 9.93235 7.35177 9.93213 7.35177C10.0913 7.35177 10.101 7.92132 9.98837 8.09596C9.95794 8.14317 9.92059 8.18133 9.87164 8.21973C9.85282 8.2345 9.79371 8.27708 9.785 8.28379C9.74577 8.31402 9.73334 8.33164 9.73334 8.35319C9.73334 8.35693 9.78125 8.3688 9.88809 8.36378C9.90926 8.36279 9.93028 8.36139 9.96124 8.35904C10.0372 8.35327 10.047 8.35262 10.0715 8.35262V8.4842C10.0522 8.4842 10.042 8.48487 9.97148 8.49023C9.93932 8.49267 9.91719 8.49414 9.89443 8.49521C9.70657 8.50403 9.6 8.47763 9.6 8.35319C9.6 8.28172 9.63456 8.23279 9.70292 8.18009C9.71408 8.17149 9.77257 8.12936 9.78866 8.11674C9.82693 8.08671 9.8544 8.05865 9.87588 8.02534C9.91036 7.97185 9.93177 7.83267 9.92927 7.68511C9.92812 7.61737 9.92194 7.5552 9.91217 7.51158C9.90924 7.49849 9.9061 7.48771 9.90314 7.47981C9.87785 7.47368 9.85063 7.4595 9.81346 7.43647Z" fill="#984111"/>
<path fill-rule="evenodd" clip-rule="evenodd" d="M10.3516 7.39031C10.3226 7.40926 10.2915 7.4296 10.2804 7.43647C10.2432 7.4595 10.216 7.47368 10.1907 7.47981C10.1878 7.48771 10.1846 7.49849 10.1817 7.51158C10.1719 7.5552 10.1658 7.61737 10.1646 7.68511C10.1621 7.83267 10.1835 7.97185 10.218 8.02534C10.2395 8.05865 10.2669 8.08671 10.3052 8.11674C10.3146 8.12408 10.3383 8.14143 10.3587 8.15634C10.3734 8.16705 10.3863 8.1765 10.3909 8.18009C10.4593 8.23279 10.4939 8.28172 10.4939 8.35319C10.4939 8.47763 10.3873 8.50403 10.1994 8.49521C10.1767 8.49414 10.1546 8.49267 10.1224 8.49023C10.0519 8.48487 10.0417 8.4842 10.0224 8.4842V8.35262C10.0469 8.35262 10.0567 8.35327 10.1326 8.35904C10.1636 8.36139 10.1846 8.36279 10.2058 8.36378C10.3126 8.3688 10.3605 8.35693 10.3605 8.35319C10.3605 8.33164 10.3481 8.31402 10.3089 8.28379C10.3057 8.2813 10.2955 8.27391 10.2831 8.26483C10.2619 8.24937 10.2341 8.22903 10.2222 8.21973C10.1733 8.18133 10.1359 8.14317 10.1055 8.09596C9.99291 7.92132 10.0026 7.35177 10.1617 7.35177C10.1617 7.35177 10.1621 7.35158 10.1629 7.3512C10.1673 7.349 10.1847 7.34042 10.2095 7.32504C10.2191 7.31911 10.2474 7.30059 10.2752 7.28245C10.2994 7.2666 10.3232 7.25103 10.3337 7.24441C10.4159 7.19237 10.4834 7.15746 10.5512 7.13631C10.5932 7.1232 10.6336 7.11623 10.6728 7.11623C10.8248 7.11623 11.014 7.19982 11.2449 7.3642L11.1669 7.47091C10.9566 7.32125 10.7904 7.24781 10.6728 7.24781C10.6482 7.24781 10.6211 7.25249 10.5914 7.26176C10.5372 7.27868 10.4788 7.30886 10.4057 7.35517C10.3965 7.361 10.3747 7.37521 10.3516 7.39031ZM10.1949 7.47036L10.1933 7.47354L10.1943 7.47136L10.1949 7.47036Z" fill="#984111"/>
<path d="M9.66518 8.72275L9.69869 8.78984L9.69869 8.78984L9.66518 8.72275ZM10.342 8.72404L10.3806 8.65975L10.3806 8.65975L10.342 8.72404ZM10.4107 8.7653L10.4723 8.80807L10.518 8.74226L10.4493 8.701L10.4107 8.7653ZM10.365 8.83111L10.3034 8.78833L10.3034 8.78833L10.365 8.83111ZM9.64173 8.83864L9.69869 8.78984L9.69869 8.78984L9.64173 8.83864ZM9.57923 8.76567L9.54572 8.69858L9.45977 8.7415L9.52227 8.81447L9.57923 8.76567ZM9.8307 8.81712L9.8084 8.74551L9.67893 8.78584L9.78191 8.87407L9.8307 8.81712ZM10.1852 8.81552L10.2391 8.86764L10.3208 8.78303L10.2096 8.74463L10.1852 8.81552ZM9.61122 8.77302L9.57247 8.70881L9.50108 8.75188L9.55144 8.81832L9.61122 8.77302ZM10.3824 8.77278L10.4464 8.81179L10.4818 8.75369L10.4274 8.71282L10.3824 8.77278ZM9.52351 8.65083L9.56297 8.71461L9.56297 8.71461L9.52351 8.65083ZM10.4809 8.6593L10.435 8.71859L10.435 8.71859L10.4809 8.6593ZM10.5269 8.69486L10.5728 8.63556L10.5728 8.63556L10.5269 8.69486ZM10.5794 8.73556L10.6438 8.77404L10.6779 8.71697L10.6253 8.67627L10.5794 8.73556ZM10.5453 8.79263L10.4809 8.75415L10.4809 8.75415L10.5453 8.79263ZM10.5157 8.84224L10.58 8.88071L10.58 8.88071L10.5157 8.84224ZM9.48452 8.85411L9.42437 8.89891L9.42437 8.89891L9.48452 8.85411ZM9.44202 8.79704L9.50217 8.75224L9.50217 8.75224L9.44202 8.79704ZM9.39319 8.73148L9.35372 8.6677L9.28421 8.71072L9.33304 8.77628L9.39319 8.73148ZM9.4627 8.68846L9.42323 8.62469L9.42323 8.62469L9.4627 8.68846ZM10.0159 8.56413C9.88173 8.56413 9.75333 8.59489 9.63167 8.65565L9.69869 8.78984C9.8 8.73924 9.90551 8.71413 10.0159 8.71413V8.56413ZM10.3806 8.65975C10.2719 8.59444 10.1491 8.56413 10.0159 8.56413V8.71413C10.1257 8.71413 10.221 8.73886 10.3034 8.78833L10.3806 8.65975ZM10.4493 8.701L10.3806 8.65975L10.3034 8.78833L10.3721 8.82959L10.4493 8.701ZM10.4266 8.87389L10.4723 8.80807L10.3491 8.72252L10.3034 8.78833L10.4266 8.87389ZM10.0159 9.12377C10.1879 9.12377 10.3234 9.02254 10.4266 8.87389L10.3034 8.78833C10.2159 8.91437 10.1205 8.97377 10.0159 8.97377V9.12377ZM9.58477 8.88743C9.7054 9.02825 9.84906 9.12377 10.0159 9.12377V8.97377C9.91103 8.97377 9.80526 8.91425 9.69869 8.78984L9.58477 8.88743ZM9.52227 8.81447L9.58477 8.88743L9.69869 8.78984L9.63619 8.71688L9.52227 8.81447ZM9.63167 8.65565L9.54572 8.69858L9.61274 8.83277L9.69869 8.78984L9.63167 8.65565ZM10.0159 8.82377C9.98365 8.82377 9.93854 8.81075 9.8795 8.76016L9.78191 8.87407C9.86025 8.9412 9.93868 8.97377 10.0159 8.97377V8.82377ZM10.1312 8.76341C10.0836 8.81266 10.0458 8.82377 10.0159 8.82377V8.97377C10.094 8.97377 10.169 8.94021 10.2391 8.86764L10.1312 8.76341ZM10.0159 8.86413C10.0715 8.86413 10.1191 8.87208 10.1607 8.88642L10.2096 8.74463C10.1504 8.72419 10.086 8.71413 10.0159 8.71413V8.86413ZM9.85301 8.88873C9.90583 8.87227 9.95991 8.86413 10.0159 8.86413V8.71413C9.94504 8.71413 9.87591 8.72448 9.8084 8.74551L9.85301 8.88873ZM10.0159 8.95535C9.91551 8.95535 9.79975 8.89762 9.67099 8.72772L9.55144 8.81832C9.69464 9.00726 9.84951 9.10535 10.0159 9.10535V8.95535ZM10.3183 8.73376C10.2168 8.90046 10.1138 8.95535 10.0159 8.95535V9.10535C10.1848 9.10535 10.329 9.00453 10.4464 8.81179L10.3183 8.73376ZM10.0159 8.73255C10.1448 8.73255 10.2503 8.76736 10.3373 8.83274L10.4274 8.71282C10.3118 8.62594 10.1739 8.58255 10.0159 8.58255V8.73255ZM9.64996 8.83724C9.76685 8.76671 9.88845 8.73255 10.0159 8.73255V8.58255C9.8599 8.58255 9.71167 8.62482 9.57247 8.70881L9.64996 8.83724ZM10.0159 8.43255C9.82702 8.43255 9.64845 8.48532 9.48404 8.58706L9.56297 8.71461C9.70488 8.6268 9.8563 8.58255 10.0159 8.58255V8.43255ZM10.5269 8.6C10.3809 8.48694 10.2072 8.43255 10.0159 8.43255V8.58255C10.1774 8.58255 10.3179 8.62792 10.435 8.71859L10.5269 8.6ZM10.5728 8.63556L10.5269 8.6L10.435 8.71859L10.4809 8.75415L10.5728 8.63556ZM10.6253 8.67627L10.5728 8.63556L10.4809 8.75415L10.5335 8.79486L10.6253 8.67627ZM10.6097 8.8311L10.6438 8.77404L10.515 8.69709L10.4809 8.75415L10.6097 8.8311ZM10.58 8.88071L10.6097 8.8311L10.4809 8.75415L10.4513 8.80377L10.58 8.88071ZM10.0159 9.25535C10.2599 9.25535 10.4467 9.10382 10.58 8.88071L10.4513 8.80377C10.333 9.00166 10.1873 9.10535 10.0159 9.10535V9.25535ZM9.42437 8.89891C9.58325 9.11223 9.77949 9.25535 10.0159 9.25535V9.10535C9.84686 9.10535 9.68979 9.00416 9.54467 8.80931L9.42437 8.89891ZM9.38187 8.84184L9.42437 8.89891L9.54467 8.80931L9.50217 8.75224L9.38187 8.84184ZM9.33304 8.77628L9.38187 8.84184L9.50217 8.75224L9.45334 8.68668L9.33304 8.77628ZM9.42323 8.62469L9.35372 8.6677L9.43265 8.79525L9.50217 8.75224L9.42323 8.62469ZM9.48404 8.58706L9.42323 8.62469L9.50217 8.75224L9.56297 8.71461L9.48404 8.58706Z" fill="#984111"/>
<path d="M9.06523 7.45293L9.09768 7.52054L9.09768 7.52054L9.06523 7.45293ZM9.06523 7.81443L9.03277 7.88205L9.03277 7.88205L9.06523 7.81443ZM9.60154 7.81443L9.63399 7.88205L9.63399 7.88205L9.60154 7.81443ZM9.60154 7.45293L9.56908 7.52054L9.56908 7.52054L9.60154 7.45293ZM9.07581 7.63085L9.00682 7.60144L9.00682 7.60144L9.07581 7.63085ZM9.08251 7.62099L9.13879 7.67057L9.13879 7.67057L9.08251 7.62099ZM9.13013 7.58816L9.09768 7.52054L9.09768 7.52054L9.13013 7.58816ZM9.53663 7.58816L9.56908 7.52054L9.56908 7.52054L9.53663 7.58816ZM9.58425 7.62099L9.52798 7.67057L9.52798 7.67057L9.58425 7.62099ZM9.59095 7.63085L9.52196 7.66026L9.52196 7.66026L9.59095 7.63085ZM9.59095 7.63652L9.52196 7.6071L9.52196 7.6071L9.59095 7.63652ZM9.58425 7.64638L9.52798 7.59679L9.52798 7.59679L9.58425 7.64638ZM9.53663 7.6792L9.56908 7.74682L9.56908 7.74682L9.53663 7.6792ZM9.13013 7.6792L9.09768 7.74682L9.09768 7.74682L9.13013 7.6792ZM9.08251 7.64638L9.02624 7.69596L9.02624 7.69596L9.08251 7.64638ZM9.07581 7.63652L9.00682 7.66593L9.00682 7.66593L9.07581 7.63652ZM10.3986 7.45293L10.3661 7.38532L10.3661 7.38532L10.3986 7.45293ZM10.3986 7.81443L10.3661 7.88205L10.3661 7.88205L10.3986 7.81443ZM10.9349 7.81443L10.9024 7.74682L10.9024 7.74682L10.9349 7.81443ZM10.9349 7.45293L10.9024 7.52054L10.9024 7.52054L10.9349 7.45293ZM10.4091 7.63085L10.3402 7.60144L10.3402 7.60144L10.4091 7.63085ZM10.4158 7.62099L10.3596 7.5714L10.3596 7.5714L10.4158 7.62099ZM10.4635 7.58816L10.4959 7.65577L10.4959 7.65577L10.4635 7.58816ZM10.87 7.58816L10.8375 7.65577L10.8375 7.65577L10.87 7.58816ZM10.9176 7.62099L10.8613 7.67057L10.8613 7.67057L10.9176 7.62099ZM10.9243 7.63085L10.8553 7.66026L10.8553 7.66026L10.9243 7.63085ZM10.9243 7.63652L10.8553 7.6071L10.8553 7.6071L10.9243 7.63652ZM10.9176 7.64638L10.8613 7.59679L10.8613 7.59679L10.9176 7.64638ZM10.87 7.6792L10.8375 7.61159L10.8375 7.61159L10.87 7.6792ZM10.4635 7.6792L10.4959 7.61159L10.4959 7.61159L10.4635 7.6792ZM10.4158 7.64638L10.3596 7.69596L10.3596 7.69596L10.4158 7.64638ZM10.4091 7.63652L10.3402 7.66592L10.3402 7.66593L10.4091 7.63652ZM9.09768 7.52054C9.158 7.49159 9.24133 7.47368 9.33338 7.47368V7.32368C9.22393 7.32368 9.11747 7.34466 9.03277 7.38532L9.09768 7.52054ZM9.00005 7.63368C9.00005 7.58989 9.03675 7.54979 9.09768 7.52054L9.03277 7.38532C8.95949 7.42049 8.85005 7.49845 8.85005 7.63368H9.00005ZM9.09768 7.74682C9.03675 7.71757 9.00005 7.67747 9.00005 7.63368H8.85005C8.85005 7.76891 8.95949 7.84687 9.03277 7.88205L9.09768 7.74682ZM9.33338 7.79368C9.24133 7.79368 9.158 7.77577 9.09768 7.74682L9.03277 7.88205C9.11747 7.9227 9.22393 7.94368 9.33338 7.94368V7.79368ZM9.56908 7.74682C9.50877 7.77577 9.42543 7.79368 9.33338 7.79368V7.94368C9.44284 7.94368 9.5493 7.9227 9.63399 7.88205L9.56908 7.74682ZM9.66672 7.63368C9.66672 7.67747 9.63001 7.71757 9.56908 7.74682L9.63399 7.88205C9.70727 7.84687 9.81672 7.76891 9.81672 7.63368H9.66672ZM9.56908 7.52054C9.63001 7.54979 9.66672 7.58989 9.66672 7.63368H9.81672C9.81672 7.49845 9.70727 7.42049 9.63399 7.38532L9.56908 7.52054ZM9.33338 7.47368C9.42543 7.47368 9.50877 7.49159 9.56908 7.52054L9.63399 7.38532C9.5493 7.34466 9.44284 7.32368 9.33338 7.32368V7.47368ZM9.00682 7.60144C9.00233 7.61196 9.00005 7.62275 9.00005 7.63368H9.15005C9.15005 7.63451 9.15004 7.63694 9.14977 7.64003C9.14951 7.64292 9.14909 7.64568 9.14854 7.64829C9.14746 7.65341 9.146 7.65746 9.14481 7.66026L9.00682 7.60144ZM9.02624 7.5714C9.0178 7.58099 9.01126 7.59103 9.00682 7.60144L9.14481 7.66026C9.14204 7.66676 9.13923 7.67007 9.13879 7.67057L9.02624 7.5714ZM9.09768 7.52054C9.06751 7.53502 9.04311 7.55226 9.02624 7.5714L9.13879 7.67057C9.13858 7.67081 9.14459 7.66441 9.16259 7.65577L9.09768 7.52054ZM9.33338 7.47368C9.24133 7.47368 9.158 7.49159 9.09768 7.52054L9.16259 7.65577C9.19854 7.63851 9.25875 7.62368 9.33338 7.62368V7.47368ZM9.56908 7.52054C9.50877 7.49159 9.42544 7.47368 9.33338 7.47368V7.62368C9.40801 7.62368 9.46822 7.63851 9.50417 7.65577L9.56908 7.52054ZM9.64052 7.5714C9.62366 7.55226 9.59925 7.53502 9.56908 7.52054L9.50417 7.65577C9.52218 7.66441 9.52819 7.67081 9.52798 7.67057L9.64052 7.5714ZM9.65994 7.60144C9.65551 7.59103 9.64897 7.58099 9.64052 7.5714L9.52798 7.67057C9.52753 7.67007 9.52473 7.66676 9.52196 7.66026L9.65994 7.60144ZM9.66672 7.63368C9.66672 7.62275 9.66443 7.61196 9.65994 7.60144L9.52196 7.66026C9.52076 7.65746 9.5193 7.65341 9.51823 7.64829C9.51768 7.64568 9.51725 7.64292 9.517 7.64003C9.51672 7.63694 9.51672 7.63451 9.51672 7.63368H9.66672ZM9.65994 7.66593C9.66443 7.6554 9.66672 7.64462 9.66672 7.63368H9.51672C9.51672 7.63285 9.51672 7.63042 9.517 7.62734C9.51725 7.62444 9.51768 7.62168 9.51823 7.61907C9.5193 7.61395 9.52076 7.60991 9.52196 7.6071L9.65994 7.66593ZM9.64052 7.69596C9.64897 7.68638 9.65551 7.67633 9.65994 7.66593L9.52196 7.6071C9.52473 7.60061 9.52753 7.5973 9.52798 7.59679L9.64052 7.69596ZM9.56908 7.74682C9.59925 7.73234 9.62366 7.7151 9.64052 7.69596L9.52798 7.59679C9.52819 7.59656 9.52218 7.60295 9.50417 7.61159L9.56908 7.74682ZM9.33338 7.79368C9.42544 7.79368 9.50877 7.77577 9.56908 7.74682L9.50417 7.61159C9.46822 7.62885 9.40801 7.64368 9.33338 7.64368V7.79368ZM9.09768 7.74682C9.158 7.77577 9.24133 7.79368 9.33338 7.79368V7.64368C9.25875 7.64368 9.19854 7.62885 9.16259 7.61159L9.09768 7.74682ZM9.02624 7.69596C9.04311 7.7151 9.06751 7.73234 9.09768 7.74682L9.16259 7.61159C9.14459 7.60295 9.13858 7.59656 9.13879 7.59679L9.02624 7.69596ZM9.00682 7.66593C9.01126 7.67633 9.0178 7.68638 9.02624 7.69596L9.13879 7.59679C9.13923 7.5973 9.14204 7.60061 9.14481 7.6071L9.00682 7.66593ZM9.00005 7.63368C9.00005 7.64462 9.00233 7.6554 9.00682 7.66593L9.14481 7.6071C9.146 7.60991 9.14746 7.61395 9.14854 7.61907C9.14909 7.62168 9.14951 7.62444 9.14977 7.62734C9.15004 7.63042 9.15005 7.63285 9.15005 7.63368H9.00005ZM10.431 7.52054C10.4913 7.49159 10.5747 7.47368 10.6667 7.47368V7.32368C10.5573 7.32368 10.4508 7.34466 10.3661 7.38532L10.431 7.52054ZM10.3334 7.63368C10.3334 7.58989 10.3701 7.54979 10.431 7.52054L10.3661 7.38532C10.2928 7.42049 10.1834 7.49845 10.1834 7.63368H10.3334ZM10.431 7.74682C10.3701 7.71757 10.3334 7.67747 10.3334 7.63368H10.1834C10.1834 7.76891 10.2928 7.84687 10.3661 7.88205L10.431 7.74682ZM10.6667 7.79368C10.5747 7.79368 10.4913 7.77577 10.431 7.74682L10.3661 7.88205C10.4508 7.9227 10.5573 7.94368 10.6667 7.94368V7.79368ZM10.9024 7.74682C10.8421 7.77577 10.7588 7.79368 10.6667 7.79368V7.94368C10.7762 7.94368 10.8826 7.9227 10.9673 7.88205L10.9024 7.74682ZM11 7.63368C11 7.67747 10.9633 7.71757 10.9024 7.74682L10.9673 7.88205C11.0406 7.84687 11.15 7.76891 11.15 7.63368H11ZM10.9024 7.52054C10.9633 7.54979 11 7.58989 11 7.63368H11.15C11.15 7.49845 11.0406 7.42049 10.9673 7.38532L10.9024 7.52054ZM10.6667 7.47368C10.7588 7.47368 10.8421 7.49159 10.9024 7.52054L10.9673 7.38532C10.8826 7.34466 10.7762 7.32368 10.6667 7.32368V7.47368ZM10.3402 7.60144C10.3357 7.61196 10.3334 7.62275 10.3334 7.63368H10.4834C10.4834 7.63451 10.4834 7.63694 10.4831 7.64003C10.4828 7.64292 10.4824 7.64568 10.4819 7.64829C10.4808 7.65341 10.4793 7.65745 10.4781 7.66026L10.3402 7.60144ZM10.3596 7.5714C10.3511 7.58099 10.3446 7.59103 10.3402 7.60144L10.4781 7.66026C10.4754 7.66676 10.4726 7.67007 10.4721 7.67057L10.3596 7.5714ZM10.431 7.52054C10.4008 7.53502 10.3764 7.55226 10.3596 7.5714L10.4721 7.67057C10.4719 7.67081 10.4779 7.66441 10.4959 7.65577L10.431 7.52054ZM10.6667 7.47368C10.5747 7.47368 10.4913 7.49159 10.431 7.52054L10.4959 7.65577C10.5319 7.63851 10.5921 7.62368 10.6667 7.62368V7.47368ZM10.9024 7.52054C10.8421 7.49159 10.7588 7.47368 10.6667 7.47368V7.62368C10.7413 7.62368 10.8016 7.63851 10.8375 7.65577L10.9024 7.52054ZM10.9739 7.5714C10.957 7.55226 10.9326 7.53502 10.9024 7.52054L10.8375 7.65577C10.8555 7.66441 10.8615 7.67081 10.8613 7.67057L10.9739 7.5714ZM10.9933 7.60144C10.9888 7.59103 10.9823 7.58099 10.9739 7.5714L10.8613 7.67057C10.8609 7.67007 10.8581 7.66676 10.8553 7.66026L10.9933 7.60144ZM11 7.63368C11 7.62275 10.9978 7.61197 10.9933 7.60144L10.8553 7.66026C10.8541 7.65746 10.8526 7.65341 10.8516 7.64828C10.851 7.64568 10.8506 7.64292 10.8503 7.64002C10.8501 7.63694 10.85 7.63451 10.85 7.63368H11ZM10.9933 7.66593C10.9978 7.6554 11 7.64461 11 7.63368H10.85C10.85 7.63286 10.8501 7.63042 10.8503 7.62734C10.8506 7.62445 10.851 7.62168 10.8516 7.61908C10.8526 7.61396 10.8541 7.60991 10.8553 7.6071L10.9933 7.66593ZM10.9739 7.69596C10.9823 7.68638 10.9888 7.67633 10.9933 7.66593L10.8553 7.6071C10.8581 7.60061 10.8609 7.5973 10.8613 7.59679L10.9739 7.69596ZM10.9024 7.74682C10.9326 7.73234 10.957 7.7151 10.9739 7.69596L10.8613 7.59679C10.8615 7.59656 10.8555 7.60295 10.8375 7.61159L10.9024 7.74682ZM10.6667 7.79368C10.7588 7.79368 10.8421 7.77577 10.9024 7.74682L10.8375 7.61159C10.8016 7.62885 10.7413 7.64368 10.6667 7.64368V7.79368ZM10.431 7.74682C10.4913 7.77577 10.5747 7.79368 10.6667 7.79368V7.64368C10.5921 7.64368 10.5319 7.62885 10.4959 7.61159L10.431 7.74682ZM10.3596 7.69596C10.3764 7.7151 10.4008 7.73234 10.431 7.74682L10.4959 7.61159C10.4779 7.60295 10.4719 7.59656 10.4721 7.59679L10.3596 7.69596ZM10.3402 7.66593C10.3446 7.67633 10.3511 7.68638 10.3596 7.69596L10.4721 7.59679C10.4726 7.5973 10.4754 7.60061 10.4781 7.6071L10.3402 7.66593ZM10.3334 7.63368C10.3334 7.64461 10.3357 7.6554 10.3402 7.66592L10.4781 7.60711C10.4793 7.60991 10.4808 7.61396 10.4819 7.61908C10.4824 7.62168 10.4828 7.62444 10.4831 7.62734C10.4834 7.63042 10.4834 7.63285 10.4834 7.63368H10.3334Z" fill="#984111"/>
</g>
</g>
<rect x="3" y="1" width="32" height="24" fill="url(#paint0_linear_566_17133)" style="mix-blend-mode:overlay"/>
</g>
<rect x="3.5" y="1.5" width="31" height="23" rx="1.5" stroke="black" stroke-opacity="0.1" style="mix-blend-mode:multiply"/>
</g>
<defs>
<filter id="filter0_d_566_17133" x="0" y="0" width="38" height="30" filterUnits="userSpaceOnUse" color-interpolation-filters="sRGB">
<feFlood flood-opacity="0" result="BackgroundImageFix"/>
<feColorMatrix in="SourceAlpha" type="matrix" values="0 0 0 0 0 0 0 0 0 0 0 0 0 0 0 0 0 0 127 0" result="hardAlpha"/>
<feOffset dy="2"/>
<feGaussianBlur stdDeviation="1.5"/>
<feColorMatrix type="matrix" values="0 0 0 0 0 0 0 0 0 0 0 0 0 0 0 0 0 0 0.1 0"/>
<feBlend mode="normal" in2="BackgroundImageFix" result="effect1_dropShadow_566_17133"/>
<feBlend mode="normal" in="SourceGraphic" in2="effect1_dropShadow_566_17133" result="shape"/>
</filter>
<linearGradient id="paint0_linear_566_17133" x1="19" y1="1" x2="19" y2="25" gradientUnits="userSpaceOnUse">
<stop stop-color="white" stop-opacity="0.7"/>
<stop offset="1" stop-opacity="0.3"/>
</linearGradient>
<clipPath id="clip0_566_17133">
<rect x="3" y="1" width="32" height="24" rx="2" fill="white"/>
</clipPath>
</defs>
</svg>
