<svg width="38" height="30" viewBox="0 0 38 30" fill="none" xmlns="http://www.w3.org/2000/svg">
<g filter="url(#filter0_d_566_17133)">
<g clip-path="url(#clip0_566_17133)">
<mask id="mask0_566_17133" style="mask-type:alpha" maskUnits="userSpaceOnUse" x="3" y="1" width="32" height="24">
<rect x="3" y="1" width="32" height="24" fill="white"/>
</mask>
<g mask="url(#mask0_566_17133)">
<path fill-rule="evenodd" clip-rule="evenodd" d="M3 1H35V25H3V1Z" fill="#F7FCFF"/>
<path fill-rule="evenodd" clip-rule="evenodd" d="M3 15.6667V17.6667H35V15.6667H3Z" fill="#E31D1C"/>
<path fill-rule="evenodd" clip-rule="evenodd" d="M3 19.3333V21.3333H35V19.3333H3Z" fill="#E31D1C"/>
<path fill-rule="evenodd" clip-rule="evenodd" d="M3 8.33334V10.3333H35V8.33334H3Z" fill="#E31D1C"/>
<path fill-rule="evenodd" clip-rule="evenodd" d="M3 23V25H35V23H3Z" fill="#E31D1C"/>
<path fill-rule="evenodd" clip-rule="evenodd" d="M3 12V14H35V12H3Z" fill="#E31D1C"/>
<path fill-rule="evenodd" clip-rule="evenodd" d="M3 1V3H35V1H3Z" fill="#E31D1C"/>
<path fill-rule="evenodd" clip-rule="evenodd" d="M3 4.66666V6.66666H35V4.66666H3Z" fill="#E31D1C"/>
<rect x="3" y="1" width="20" height="13" fill="#2E42A5"/>
<path fill-rule="evenodd" clip-rule="evenodd" d="M4.72209 3.93867L3.99621 4.44756L4.24127 3.54195L3.59656 2.96803H4.43864L4.72107 2.22897L5.05225 2.96803H5.7701L5.20607 3.54195L5.42443 4.44756L4.72209 3.93867ZM8.72209 3.93867L7.99621 4.44756L8.24127 3.54195L7.59656 2.96803H8.43864L8.72107 2.22897L9.05225 2.96803H9.7701L9.20607 3.54195L9.42443 4.44756L8.72209 3.93867ZM11.9962 4.44756L12.7221 3.93867L13.4244 4.44756L13.2061 3.54195L13.7701 2.96803H13.0522L12.7211 2.22897L12.4386 2.96803H11.5966L12.2413 3.54195L11.9962 4.44756ZM16.7221 3.93867L15.9962 4.44756L16.2413 3.54195L15.5966 2.96803H16.4386L16.7211 2.22897L17.0522 2.96803H17.7701L17.2061 3.54195L17.4244 4.44756L16.7221 3.93867ZM3.99621 8.44756L4.72209 7.93867L5.42443 8.44756L5.20607 7.54194L5.7701 6.96803H5.05225L4.72107 6.22897L4.43864 6.96803H3.59656L4.24127 7.54194L3.99621 8.44756ZM8.72209 7.93867L7.99621 8.44756L8.24127 7.54194L7.59656 6.96803H8.43864L8.72107 6.22897L9.05225 6.96803H9.7701L9.20607 7.54194L9.42443 8.44756L8.72209 7.93867ZM11.9962 8.44756L12.7221 7.93867L13.4244 8.44756L13.2061 7.54194L13.7701 6.96803H13.0522L12.7211 6.22897L12.4386 6.96803H11.5966L12.2413 7.54194L11.9962 8.44756ZM16.7221 7.93867L15.9962 8.44756L16.2413 7.54194L15.5966 6.96803H16.4386L16.7211 6.22897L17.0522 6.96803H17.7701L17.2061 7.54194L17.4244 8.44756L16.7221 7.93867ZM3.99621 12.4476L4.72209 11.9387L5.42443 12.4476L5.20607 11.5419L5.7701 10.968H5.05225L4.72107 10.229L4.43864 10.968H3.59656L4.24127 11.5419L3.99621 12.4476ZM8.72209 11.9387L7.99621 12.4476L8.24127 11.5419L7.59656 10.968H8.43864L8.72107 10.229L9.05225 10.968H9.7701L9.20607 11.5419L9.42443 12.4476L8.72209 11.9387ZM11.9962 12.4476L12.7221 11.9387L13.4244 12.4476L13.2061 11.5419L13.7701 10.968H13.0522L12.7211 10.229L12.4386 10.968H11.5966L12.2413 11.5419L11.9962 12.4476ZM16.7221 11.9387L15.9962 12.4476L16.2413 11.5419L15.5966 10.968H16.4386L16.7211 10.229L17.0522 10.968H17.7701L17.2061 11.5419L17.4244 12.4476L16.7221 11.9387ZM19.9962 4.44756L20.7221 3.93867L21.4244 4.44756L21.2061 3.54195L21.7701 2.96803H21.0522L20.7211 2.22897L20.4386 2.96803H19.5966L20.2413 3.54195L19.9962 4.44756ZM20.7221 7.93867L19.9962 8.44756L20.2413 7.54194L19.5966 6.96803H20.4386L20.7211 6.22897L21.0522 6.96803H21.7701L21.2061 7.54194L21.4244 8.44756L20.7221 7.93867ZM19.9962 12.4476L20.7221 11.9387L21.4244 12.4476L21.2061 11.5419L21.7701 10.968H21.0522L20.7211 10.229L20.4386 10.968H19.5966L20.2413 11.5419L19.9962 12.4476ZM6.72209 5.93867L5.99621 6.44756L6.24127 5.54194L5.59656 4.96803H6.43864L6.72107 4.22897L7.05225 4.96803H7.7701L7.20607 5.54194L7.42443 6.44756L6.72209 5.93867ZM9.99621 6.44756L10.7221 5.93867L11.4244 6.44756L11.2061 5.54194L11.7701 4.96803H11.0522L10.7211 4.22897L10.4386 4.96803H9.59656L10.2413 5.54194L9.99621 6.44756ZM14.7221 5.93867L13.9962 6.44756L14.2413 5.54194L13.5966 4.96803H14.4386L14.7211 4.22897L15.0522 4.96803H15.7701L15.2061 5.54194L15.4244 6.44756L14.7221 5.93867ZM5.99621 10.4476L6.72209 9.93867L7.42443 10.4476L7.20607 9.54194L7.7701 8.96803H7.05225L6.72107 8.22897L6.43864 8.96803H5.59656L6.24127 9.54194L5.99621 10.4476ZM10.7221 9.93867L9.99621 10.4476L10.2413 9.54194L9.59656 8.96803H10.4386L10.7211 8.22897L11.0522 8.96803H11.7701L11.2061 9.54194L11.4244 10.4476L10.7221 9.93867ZM13.9962 10.4476L14.7221 9.93867L15.4244 10.4476L15.2061 9.54194L15.7701 8.96803H15.0522L14.7211 8.22897L14.4386 8.96803H13.5966L14.2413 9.54194L13.9962 10.4476ZM18.7221 5.93867L17.9962 6.44756L18.2413 5.54194L17.5966 4.96803H18.4386L18.7211 4.22897L19.0522 4.96803H19.7701L19.2061 5.54194L19.4244 6.44756L18.7221 5.93867ZM17.9962 10.4476L18.7221 9.93867L19.4244 10.4476L19.2061 9.54194L19.7701 8.96803H19.0522L18.7211 8.22897L18.4386 8.96803H17.5966L18.2413 9.54194L17.9962 10.4476Z" fill="#F7FCFF"/>
</g>
<rect x="3" y="1" width="32" height="24" fill="url(#paint0_linear_566_17133)" style="mix-blend-mode:overlay"/>
</g>
<rect x="3.5" y="1.5" width="31" height="23" rx="1.5" stroke="black" stroke-opacity="0.1" style="mix-blend-mode:multiply"/>
</g>
<defs>
<filter id="filter0_d_566_17133" x="0" y="0" width="38" height="30" filterUnits="userSpaceOnUse" color-interpolation-filters="sRGB">
<feFlood flood-opacity="0" result="BackgroundImageFix"/>
<feColorMatrix in="SourceAlpha" type="matrix" values="0 0 0 0 0 0 0 0 0 0 0 0 0 0 0 0 0 0 127 0" result="hardAlpha"/>
<feOffset dy="2"/>
<feGaussianBlur stdDeviation="1.5"/>
<feColorMatrix type="matrix" values="0 0 0 0 0 0 0 0 0 0 0 0 0 0 0 0 0 0 0.1 0"/>
<feBlend mode="normal" in2="BackgroundImageFix" result="effect1_dropShadow_566_17133"/>
<feBlend mode="normal" in="SourceGraphic" in2="effect1_dropShadow_566_17133" result="shape"/>
</filter>
<linearGradient id="paint0_linear_566_17133" x1="19" y1="1" x2="19" y2="25" gradientUnits="userSpaceOnUse">
<stop stop-color="white" stop-opacity="0.7"/>
<stop offset="1" stop-opacity="0.3"/>
</linearGradient>
<clipPath id="clip0_566_17133">
<rect x="3" y="1" width="32" height="24" rx="2" fill="white"/>
</clipPath>
</defs>
</svg>
